<svg width="20" height="20" fill="none" xmlns="http://www.w3.org/2000/svg"><path d="M15.204 12.317h0a1.79 1.79 0 00-1.878.4s0 0 0 0l-1.054 1.05-.274.273-.333-.197a15.708 15.708 0 01-5.536-5.526l-.198-.334.275-.275 1.053-1.05a1.777 1.777 0 00.4-1.87l-.001-.002a12.67 12.67 0 01-.69-2.761A1.785 1.785 0 005.194.5H5.19v0H2.276c-.053 0-.105.002-.157.007h-.003 0A1.775 1.775 0 00.507 2.435a19.098 19.098 0 002.956 8.333l.002.002h0a18.904 18.904 0 005.78 5.767l.002.002a19.196 19.196 0 008.322 2.956l-2.365-7.177zm0 0c.893.332 1.82.563 2.765.688l-2.765-.688z" stroke="#3FAB3C"/><path d="M17.73 19.3h-.007c-.043 0-.087 0-.13-.004l-.013-.001h0a18.995 18.995 0 01-8.223-2.92L17.73 19.3zm0 0a1.57 1.57 0 001.11-.466h0m-1.11.466l1.11-.466m0 0c.295-.297.46-.693.458-1.112v-.002m-.458 1.114l.458-1.114m0 0v-2.923m0 2.923v-2.923m-1.353-1.593h0a1.576 1.576 0 011.353 1.593s0 0 0 0m-1.353-1.593l.853 4.515v-2.934l.5.012m-1.353-1.593l-.007-.001m.007 0h-.007m0 0a12.916 12.916 0 01-2.806-.699 1.595 1.595 0 00-1.663.352h0m4.47.347l-4.47-.347m0 0l-.003.004m.003-.004l-.003.004m0 0l-1.05 1.048.353.354m.697-1.402l-.697 1.402m0 0l-.353-.354a.699.699 0 01-.85.108l-.254.43.254-.43a15.947 15.947 0 01-5.607-5.597.7.7 0 01.108-.852L7.118 6.52h0m5.651 7.743L7.118 6.519m0 0l.003-.003m-.003.003l.003-.003m0 0a1.573 1.573 0 00.352-1.655v-.002h0M7.12 6.515l.351-1.658m0 0a12.883 12.883 0 01-.7-2.802h0m.7 2.802l-.7-2.802m0 0V2.05m0 .007V2.05m0 0A1.589 1.589 0 005.2.702h-.001m1.573 1.347L5.199.702m0 0h-.007m.007 0h-.007m0 0h0m0 0h0m0 0H2.275a1.48 1.48 0 00-.138.006h-.004a1.555 1.555 0 00-1.068.56L5.19.702zm.522 6.511a1.2 1.2 0 00-.186 1.461l.186-1.46zm0 0l1.051-1.048-1.051 1.048zM9.35 16.37l.005.004-8.29-15.106c-.27.323-.395.724-.36 1.143h0v.012a18.892 18.892 0 002.925 8.236v.001l.003.004h0A18.69 18.69 0 009.35 16.37zm-.103.172l-.004-.003a18.903 18.903 0 01-5.779-5.767h0l-.002-.004A19.1 19.1 0 01.507 2.437 1.76 1.76 0 01.912 1.14h0A1.759 1.759 0 012.117.51h.002c.052-.006.104-.008.157-.008H5.2c.89 0 1.645.651 1.77 1.524.125.945.358 1.872.69 2.762h0v.002a1.777 1.777 0 01-.399 1.869l-1.053 1.05-.275.274.198.335a15.708 15.708 0 005.536 5.526l.334.196.274-.273 1.051-1.05.001-.001a1.788 1.788 0 011.876-.399h.002c.89.332 1.82.564 2.763.688.896.127 1.55.9 1.53 1.796h0v2.92a1.777 1.777 0 01-1.77 1.78h-.005a1.75 1.75 0 01-.157-.007 19.196 19.196 0 01-8.318-2.952z" fill="#BCC0CB" stroke="#3FAB3C"/></svg>