<svg width="14" height="24" fill="none" xmlns="http://www.w3.org/2000/svg"><path d="M8.904 23.25h-3.61c-.604 0-1.094-.49-1.094-1.091V14.03H2.094A1.092 1.092 0 011 12.94V9.458c0-.602.49-1.092 1.094-1.092H4.2V6.622c0-1.729.544-3.2 1.573-4.254C6.807 1.31 8.25.75 9.95.75l2.753.004a1.095 1.095 0 011.092 1.092v3.233c0 .602-.49 1.092-1.094 1.092H10.85c-.566 0-.71.114-.74.148-.051.058-.112.22-.112.67v1.377h2.566a1.095 1.095 0 011.104 1.092l-.002 3.482c0 .602-.49 1.091-1.093 1.091H9.997v8.128c0 .601-.49 1.091-1.093 1.091zM5.52 21.931h3.155v-8.49a.73.73 0 01.73-.729h2.938V9.685H9.407a.73.73 0 01-.73-.729V6.988c0-.515.052-1.101.442-1.542.47-.532 1.213-.594 1.73-.594h1.626V2.073L9.95 2.07c-2.731 0-4.429 1.745-4.429 4.553v2.334a.73.73 0 01-.73.73h-2.47v3.026h2.47a.73.73 0 01.73.729v8.49zM12.7 2.074h0z" fill="#3FAB3C" stroke="#3FAB3C" stroke-width=".3"/></svg>