<svg width="22" height="15" fill="none" xmlns="http://www.w3.org/2000/svg"><path d="M1.8 1.5h18.4c.178 0 .3.137.3.28v11.44a.29.29 0 01-.3.28H1.8a.29.29 0 01-.3-.28V1.78a.29.29 0 01.3-.28z" stroke="#3FAB3C"/><path d="M20.2 1.585H1.8c-.11 0-.2.087-.2.195v11.44c0 .108.09.195.2.195h18.4c.11 0 .2-.087.2-.195V1.78a.198.198 0 00-.2-.195z" stroke="#3FAB3C" stroke-width="1.5" stroke-linecap="round" stroke-linejoin="round"/><path d="M19.99 1.76L11 8.523 1.82 1.618m0 11.428l3.635-4.225m14.725 4.225l-3.75-4.36" stroke="#3FAB3C" stroke-width="1.5" stroke-linecap="round" stroke-linejoin="round"/></svg>