<svg width="20" height="20" fill="none" xmlns="http://www.w3.org/2000/svg"><path d="M14.197 9.401a6.843 6.843 0 00-1.641-.75 22.732 22.732 0 00-2.031-.532 33.187 33.187 0 01-1.23-.302c-.22-.06-.44-.146-.655-.254a1.235 1.235 0 01-.409-.305.403.403 0 01-.09-.273c0-.122.04-.31.38-.533.325-.213.778-.32 1.347-.32.757 0 1.106.144 1.266.266.266.202.501.495.7.871l.007.015c.219.376.416.635.62.815.256.228.607.343 1.041.343.474 0 .894-.176 1.215-.51.315-.327.482-.724.482-1.147 0-.402-.111-.812-.33-1.22-.212-.393-.543-.767-.984-1.112-.432-.338-.977-.61-1.618-.81-.63-.196-1.379-.295-2.226-.295-1.056 0-1.994.149-2.788.442-.831.308-1.48.761-1.93 1.348a3.325 3.325 0 00-.696 2.07c0 .809.226 1.501.671 2.059.423.53.996.95 1.704 1.252a.62.62 0 00.015.006c.654.277 1.47.522 2.429.727.676.142 1.221.276 1.62.4.336.105.608.254.81.443.154.144.223.318.223.565 0 .215-.057.499-.495.798-.393.268-.93.405-1.595.405-.483 0-.867-.066-1.14-.196a1.609 1.609 0 01-.61-.465 4.154 4.154 0 01-.47-.836c-.169-.394-.384-.704-.64-.921a1.585 1.585 0 00-1.052-.372c-.483 0-.892.155-1.216.46a1.537 1.537 0 00-.502 1.142c0 .612.218 1.238.65 1.859.415.6.962 1.085 1.627 1.444.906.481 2.057.725 3.42.725 1.133 0 2.134-.177 2.975-.526.87-.362 1.545-.877 2.007-1.53 0 0 0 0 0 0a3.817 3.817 0 00.705-2.246c0-.691-.14-1.292-.418-1.786a3.477 3.477 0 00-1.149-1.214zm.21 4.786c-.374.529-.933.95-1.662 1.254-.743.309-1.641.465-2.67.465-1.23 0-2.255-.212-3.043-.63a3.844 3.844 0 01-1.35-1.196c-.336-.485-.506-.958-.506-1.405a.74.74 0 01.251-.562c.173-.163.392-.243.67-.243.216 0 .392.06.537.183.16.136.302.346.422.629.173.395.363.732.566 1 .217.287.521.524.905.706.381.18.88.272 1.482.272.829 0 1.516-.183 2.044-.544.559-.381.842-.871.842-1.455 0-.467-.16-.853-.475-1.148-.29-.271-.666-.48-1.117-.62a19.034 19.034 0 00-1.692-.42c-.91-.195-1.679-.425-2.287-.683l-.006-.002h-.001C6.73 9.537 6.26 9.195 5.92 8.77c-.33-.413-.497-.938-.497-1.561 0-.593.179-1.126.531-1.586.358-.466.887-.831 1.575-1.085.705-.261 1.55-.393 2.512-.393.767 0 1.436.087 1.989.259.549.17 1.008.399 1.364.677.354.276.614.566.773.862.156.29.235.573.235.842 0 .219-.085.414-.26.595a.844.844 0 01-.64.265c-.16 0-.38-.024-.514-.142-.133-.118-.286-.324-.454-.612-.252-.477-.56-.856-.918-1.127-.38-.289-.952-.43-1.749-.43-.726 0-1.326.152-1.783.452-.49.322-.74.725-.74 1.199 0 .297.091.559.27.778.165.2.39.373.668.512.261.132.53.236.8.31.256.071.682.176 1.266.31l.006.002a21.962 21.962 0 011.959.512 6.051 6.051 0 011.449.66c.378.247.677.562.888.937.21.373.316.842.316 1.395 0 .66-.188 1.26-.559 1.786z" fill="#3FAB3C" stroke="#3FAB3C" stroke-width=".2"/><path d="M19.34 11.988c.127-.62.19-1.254.19-1.887 0-2.519-.98-4.887-2.761-6.668A9.368 9.368 0 0010.1.672c-.489 0-.98.038-1.463.113A5.618 5.618 0 005.77 0 5.642 5.642 0 00.135 5.636c0 .95.241 1.887.699 2.717a9.507 9.507 0 00-.162 1.748c0 2.518.98 4.886 2.762 6.667A9.367 9.367 0 0010.1 19.53a9.52 9.52 0 001.59-.134 5.65 5.65 0 002.54.604 5.642 5.642 0 005.635-5.636c0-.83-.177-1.629-.525-2.376zm-5.11 7.215a4.847 4.847 0 01-2.287-.574.399.399 0 00-.26-.04 8.715 8.715 0 01-1.582.144c-4.76 0-8.632-3.872-8.632-8.632 0-.585.058-1.169.174-1.737a.399.399 0 00-.046-.281 4.833 4.833 0 01-.665-2.448A4.844 4.844 0 015.77.797c.913 0 1.804.256 2.574.742a.399.399 0 00.28.056 8.71 8.71 0 011.477-.127c4.76 0 8.633 3.873 8.633 8.633 0 .622-.068 1.246-.2 1.852a.398.398 0 00.032.263 4.79 4.79 0 01.503 2.149 4.844 4.844 0 01-4.838 4.838z" fill="#3FAB3C" stroke="#3FAB3C" stroke-width=".2"/></svg>