<svg width="20" height="20" fill="none" xmlns="http://www.w3.org/2000/svg"><mask id="a" fill="#fff"><path d="M.346 9.33l4.891 2.437c.19.094.412.087.593-.019l4.354-2.53-2.635 2.334a.626.626 0 00-.211.469v5.687c0 .6.766.853 1.125.376l2.114-2.81 5.228 2.977a.626.626 0 00.922-.42l3.26-16.25a.625.625 0 00-.84-.705L.398 8.188a.626.626 0 00-.05 1.142zm18.192-6.874l-2.866 14.28-4.954-2.821a.626.626 0 00-.81.167l-1.32 1.756v-3.537l7.126-6.313c.564-.5-.085-1.387-.729-1.008l-9.491 5.518-3.327-1.657 16.37-6.385z"/></mask><path d="M.346 9.33l4.891 2.437c.19.094.412.087.593-.019l4.354-2.53-2.635 2.334a.626.626 0 00-.211.469v5.687c0 .6.766.853 1.125.376l2.114-2.81 5.228 2.977a.626.626 0 00.922-.42l3.26-16.25a.625.625 0 00-.84-.705L.398 8.188a.626.626 0 00-.05 1.142zm18.192-6.874l-2.866 14.28-4.954-2.821a.626.626 0 00-.81.167l-1.32 1.756v-3.537l7.126-6.313c.564-.5-.085-1.387-.729-1.008l-9.491 5.518-3.327-1.657 16.37-6.385z" fill="#3FAB3C"/><path d="M5.237 11.767l-9.516 19.094.038.019.039.019 9.439-19.132zm.593-.019L-4.892-6.695l-.027.016-.026.015L5.83 11.748zm4.354-2.53l14.148 15.966-24.87-34.41L10.184 9.217zm-2.635 2.334L-6.6-4.414l-.01.008-.008.008 14.167 15.95zm.914 6.532L25.5 30.922l.005-.007.006-.008-17.05-12.823zm2.114-2.81l10.557-18.54-16.318-9.292L-6.472 2.45l17.049 12.823zm5.228 2.977L26.44-.243l-.038-.022-.038-.022L15.805 18.25zm.922-.42l20.908 4.24.004-.022.004-.021-20.916-4.197zm3.26-16.25l20.917 4.197.002-.01.002-.01-20.92-4.177zm-.84-.705L26.9 20.75l.105-.041.105-.042L19.148.876zM.398 8.188l-7.75-19.875-.013.005L.398 8.188zm18.14-5.732l20.917 4.197 7.675-38.247L10.786-17.42l7.752 19.876zm-2.865 14.28L5.114 35.274 30.777 49.89l5.811-28.957-20.916-4.198zm-4.954-2.821L.14 32.44l.01.005.01.006 10.558-18.537zm-.81.167L-7.103 1.211l-.018.023-.018.024L9.91 14.082zm-1.32 1.756h-21.333v63.847l38.381-51.022L8.588 15.838zm0-3.537L-5.56-3.666-12.745 2.7v9.601H8.587zm7.126-6.313L1.577-9.989l-.005.005-.005.004L15.714 5.988zm-.729-1.008l10.723 18.443.04-.024.041-.024L14.985 4.98zm-9.491 5.518L-4.02 29.593 6.274 34.72l9.942-5.78L5.494 10.498zM2.167 8.841l-7.752-19.876-44.86 17.497 43.098 21.473L2.167 8.841zM-9.17 28.423l4.891 2.438L14.753-7.326 9.862-9.764-9.17 28.423zm4.968 2.476a21.96 21.96 0 0020.808-.739L-4.945-6.664a20.706 20.706 0 0119.621-.7L-4.202 30.899zm20.754-.708l4.354-2.53L-.538-9.227l-4.354 2.53L16.552 30.19zM-3.965-6.749L-6.6-4.414l28.297 31.933 2.635-2.335L-3.965-6.75zm-2.653 2.351a21.96 21.96 0 00-7.377 16.419H28.67a20.707 20.707 0 01-6.955 15.481l-28.334-31.9zm-7.377 16.419v5.687H28.67v-5.687h-42.666zm0 5.687c0 21.26 26.924 29.899 39.496 13.214L-8.575 5.246C3.278-10.486 28.67-2.352 28.67 17.708h-42.666zm39.507 13.2l2.114-2.812L-6.472 2.45l-2.114 2.81 34.098 25.647zM.02 33.81l5.228 2.977L26.362-.287l-5.228-2.978L.02 33.811zm5.151 2.934c13.06 7.509 29.5-.063 32.464-14.675l-41.816-8.48C-1.388-.182 14.114-7.33 26.44-.242L5.171 36.745zm32.472-14.717l3.261-16.25L-.929-2.617l-3.26 16.25 41.832 8.395zm3.265-16.27c3.402-17.04-13.464-31.214-29.721-24.675l15.922 39.585C11.755 26.843-4.14 13.466-.933-2.596l41.841 8.354zM11.396-19l-18.75 7.313L8.15 28.063l18.75-7.312L11.396-19zm-18.762 7.318c-17.677 6.906-18.91 31.596-1.789 40.112L9.847-9.77C26-1.737 24.832 21.545 8.162 28.059L-7.366-11.683zm4.987 9.94L-5.244 12.54l41.832 8.395 2.866-14.281-41.833-8.395zm28.61-.06l-4.955-2.82L.16 32.451l4.954 2.822L26.23-1.801zm-4.935-2.81c-9.548-5.45-21.716-3.011-28.4 5.824L26.92 26.954C20.621 35.282 9.148 37.584.14 32.44L21.296-4.611zM-7.14 1.259l-1.32 1.756 34.096 25.649 1.32-1.756L-7.14 1.257zm37.061 14.58v-3.537h-42.666v3.537H29.92zM22.735 28.27l7.126-6.313L1.567-9.98-5.56-3.666l28.294 31.935zm7.115-6.304c19.983-17.68-2.854-48.78-25.669-35.38l21.608 36.79C4.263 36.018-17.278 6.693 1.577-9.989L29.85 21.965zM4.263-13.463L-5.23-7.945l21.445 36.886 9.492-5.518L4.263-13.463zm10.744 4.867l-3.326-1.658-19.028 38.19 3.327 1.657 19.027-38.19zM9.92 28.716l16.37-6.385-15.503-39.75-16.37 6.384L9.92 28.715z" fill="#3FAB3C" mask="url(#a)"/></svg>