<svg width="20" height="22" fill="none" xmlns="http://www.w3.org/2000/svg"><path d="M12.046 1h-3.81C4.246 1 1 4.245 1 8.235v3.431a7.249 7.249 0 004.57 6.728v2.225a.38.38 0 00.637.282l2.209-2h3.63c3.99 0 7.236-3.245 7.236-7.235V8.235c0-3.99-3.246-7.235-7.236-7.235zm6.474 10.666a6.48 6.48 0 01-6.474 6.473H8.269a.38.38 0 00-.256.099l-1.68 1.522v-1.63a.38.38 0 00-.255-.358 6.486 6.486 0 01-4.316-6.106V8.235a6.481 6.481 0 016.474-6.473h3.81a6.48 6.48 0 016.474 6.473v3.431z" fill="#3FAB3C" stroke="#3FAB3C" stroke-width=".3"/><path d="M15.174 12.614l-2.34-1.52a1.14 1.14 0 00-1.581.335l-.11.169c-1.013-.335-2.13-.763-2.8-2.698l.278-.241a1.144 1.144 0 00.112-1.612L6.9 4.94a.381.381 0 00-.537-.038l-1.15 1c-1.008.876-.537 2.173-.382 2.6a.379.379 0 00.025.055c.04.071.995 1.775 2.537 3.346 1.548 1.577 4.343 3.034 4.429 3.076a1.906 1.906 0 002.634-.56l.83-1.277a.382.382 0 00-.113-.528zm-1.356 1.39c-.343.529-1.052.679-1.612.318-.028-.015-2.805-1.461-4.269-2.952a17.003 17.003 0 01-2.4-3.158c-.302-.846-.248-1.366.177-1.735l.862-.75 1.582 1.82a.377.377 0 01-.037.537l-.467.406a.38.38 0 00-.114.4c.796 2.588 2.346 3.097 3.477 3.468l.165.055a.38.38 0 00.44-.154l.27-.416a.376.376 0 01.527-.11l2.021 1.312-.622.959zM11.01 7.189a.38.38 0 10-.208.732c.568.161 1.02.614 1.18 1.182a.381.381 0 00.733-.206 2.49 2.49 0 00-1.704-1.708z" fill="#3FAB3C" stroke="#3FAB3C" stroke-width=".3"/><path d="M13.91 9.463a.38.38 0 00.367-.484 4.837 4.837 0 00-3.31-3.317.38.38 0 10-.209.733 4.07 4.07 0 012.785 2.79.38.38 0 00.366.278z" fill="#3FAB3C" stroke="#3FAB3C" stroke-width=".3"/><path d="M10.802 3.888a.38.38 0 10-.209.733 6.895 6.895 0 014.718 4.728.381.381 0 00.733-.206 7.663 7.663 0 00-5.242-5.255z" fill="#3FAB3C" stroke="#3FAB3C" stroke-width=".3"/></svg>