<svg width="20" height="20" fill="none" xmlns="http://www.w3.org/2000/svg"><g clip-path="url(#clip0)" fill="#3FAB3C" stroke="#3FAB3C"><path d="M16.806 3.194h0A9.135 9.135 0 0010.3.5h0l6.505 2.694zm0 0A9.135 9.135 0 0119.5 9.7a9.135 9.135 0 01-2.694 6.504m0-13.009v13.01M6.78 1.2h0a9.15 9.15 0 00-2.983 1.994A9.135 9.135 0 001.102 9.7c0 1.465.354 2.922 1.024 4.219l.099.191-.072.203-1.63 4.657s0 0 0 0a.39.39 0 00.055.368l.297-.85 1.481-4.23a.404.404 0 00-.025-.321s0 0 0 0l.441-.235A8.547 8.547 0 011.775 9.7a8.47 8.47 0 012.497-6.03L6.78 1.2zm0 0A9.152 9.152 0 0110.3.5l-3.52.7zm9.903 14.881s0 0 0 0A8.97 8.97 0 0019.327 9.7a8.97 8.97 0 00-2.644-6.382l-6.382 14.908a8.47 8.47 0 006.029-2.498l.353.354zm0 0a8.97 8.97 0 01-6.382 2.644 9.047 9.047 0 01-4.237-1.056m10.62-1.588L6.063 17.67m0 0a.404.404 0 00-.32-.025h0l-4.232 1.48-.849.298a.387.387 0 00.368.055l4.657-1.63.203-.071.191.098a9.228 9.228 0 004.22 1.024 9.136 9.136 0 006.504-2.695s0 0 0 0M6.064 17.67l10.742-1.466"/><path d="M14.876 13.137a.636.636 0 00.18-.425l-.331.331-1.032 1.032c-.234.234-.585.292-.908.277-.346-.017-.77-.122-1.268-.335h0c-1.05-.45-2.192-1.276-3.225-2.31-1.033-1.032-1.858-2.173-2.309-3.224l8.893 4.654zm0 0l-.009.008-1.052 1.052c-.203.204-.502.329-.926.329-.39 0-.874-.108-1.44-.35-1.037-.445-2.206-1.273-3.279-2.346-1.073-1.073-1.901-2.241-2.346-3.279-.524-1.223-.398-1.989-.021-2.366l1.052-1.052a.642.642 0 01.432-.188m7.589 8.192L7.287 4.945m0 0l-.33.33-1.032 1.032c-.234.234-.292.585-.277.908.017.347.122.77.335 1.268l1.304-3.538zm7.58 7.29a.635.635 0 01.189.432l-.331-.33-1.275-1.275-.33-.33a.641.641 0 01.432.187l1.315 1.315h0zm-2.226-1.316a.641.641 0 01.432-.188l-.33.33-.61.611h0a.395.395 0 01-.463.074A7.775 7.775 0 018.254 8.33h0a.395.395 0 01.074-.462h0l.61-.61.331-.331a.642.642 0 01-.188.432h0l-.488.488-.264.265.179.328a7.603 7.603 0 003.052 3.052l.329.18.264-.265.488-.488zM9.269 6.88l-.33-.33-1.275-1.274-.33-.33a.642.642 0 01.432.187l1.315 1.315h0c.12.12.183.275.188.432z"/></g><defs><clipPath id="clip0"><path fill="#fff" d="M0 0h20v20H0z"/></clipPath></defs></svg>