<svg width="1304" height="92" fill="none" xmlns="http://www.w3.org/2000/svg"><path d="M1.328 4.8v-1h-1v1h1zm49.152 0h1v-1h-1v1zm0 6.048v1h1v-1h-1zm-42.144 0v-1h-1v1h1zm0 21.984h-1v1h1v-1zm40.032 4.896l-.623.782.006.005.617-.787zm-.48 29.088l-.61-.792-.006.004.616.788zM1.328 72h-1v1h1v-1zm41.376-9.216l-.595-.804-.008.006.603.798zm.096-20.832l-.6.8.01.007.009.007.581-.814zM8.336 38.496v-1h-1v1h1zm0 27.84h-1v1h1v-1zM1.328 5.8H50.48v-2H1.328v2zm48.152-1v6.048h2V4.8h-2zm1 5.048H8.336v2H50.48v-2zm-43.144 1v21.984h2V10.848h-2zm1 22.984H30.32v-2H8.336v2zm21.984 0c7.82 0 13.577 1.612 17.425 4.678l1.246-1.564c-4.344-3.462-10.62-5.114-18.671-5.114v2zm17.43 4.683c3.876 3.04 5.858 7.46 5.858 13.421h2c0-6.455-2.177-11.507-6.623-14.995l-1.234 1.574zm5.858 13.421c0 6.204-2.133 10.85-6.33 14.088l1.22 1.584c4.763-3.674 7.11-8.948 7.11-15.672h-2zm-6.336 14.092C43.099 69.294 36.984 71 28.784 71v2c8.44 0 15.061-1.75 19.72-5.397l-1.232-1.575zM28.784 71H1.328v2h27.456v-2zM2.328 72V4.8h-2V72h2zm26.36-4.664c6.308 0 11.234-1.198 14.619-3.754L42.1 61.986c-2.887 2.18-7.305 3.35-13.413 3.35v2zm14.61-3.748c3.502-2.591 5.206-6.437 5.206-11.364h-2c0 4.417-1.496 7.611-4.395 9.756l1.19 1.608zm5.206-11.364c0-4.86-1.67-8.62-5.123-11.086l-1.162 1.628c2.82 2.014 4.285 5.101 4.285 9.458h2zM43.4 41.152c-3.325-2.494-8.288-3.656-14.712-3.656v2c6.248 0 10.694 1.142 13.512 3.256l1.2-1.6zm-14.712-3.656H8.336v2h20.352v-2zm-21.352 1v27.84h2v-27.84h-2zm1 28.84h20.352v-2H8.336v2zm101.077-45.832h1v-1h-1v1zm0 50.496v1h1v-1h-1zm-6.815 0h-1v1h1v-1zm0-44.448h1v-1h-1v1zm-24.192 0v-1h-.948l-.051.946.999.054zm-.672 12.48l-1-.054v.005l1 .049zm-3.648 24.192l.946.323-.947-.323zm-15.169 7.68l-.996-.082-.068.833.807.215.258-.966zm.48-5.856l.217-.976-1.12-.249-.093 1.143.996.082zm8.352-3.264l-.875-.484.876.484zm2.689-9.024l-.993-.124.993.124zm1.151-14.208l1 .054V39.6l-1-.048zm.865-18.048v-1H71.5l-.045.952.999.048zm35.959 0V72h2V21.504h-2zm1 49.496h-6.815v2h6.815v-2zm-5.815 1V27.552h-2V72h2zm-1-45.448H78.406v2h24.192v-2zm-25.191.946l-.672 12.48 1.997.108.672-12.48-1.997-.108zm-.672 12.485c-.51 10.463-1.72 18.418-3.596 23.918l1.893.646c1.965-5.764 3.187-13.937 3.7-24.466l-1.997-.098zm-3.596 23.918c-.92 2.699-2.17 4.63-3.697 5.887-1.513 1.244-3.369 1.884-5.628 1.884v2c2.668 0 4.988-.768 6.899-2.34 1.896-1.56 3.319-3.852 4.319-6.785l-1.893-.646zm-9.325 7.771c-1.227 0-2.767-.235-4.639-.734l-.515 1.932c1.968.525 3.692.802 5.154.802v-2zm-3.9.314l.48-5.856-1.993-.164-.48 5.856 1.993.164zm-.733-4.962c1.144.254 2.044.408 2.617.408v-2c-.324 0-1.024-.102-2.184-.36l-.433 1.952zm2.617.408c1.472 0 2.81-.343 3.978-1.06 1.166-.714 2.11-1.766 2.849-3.104l-1.75-.968c-.605 1.094-1.326 1.866-2.144 2.367-.815.5-1.782.765-2.933.765v2zm6.827-4.164c1.42-2.572 2.346-5.71 2.805-9.384l-1.985-.248c-.436 3.494-1.304 6.371-2.57 8.664l1.75.968zm2.805-9.384c.452-3.617.837-8.379 1.158-14.278l-1.997-.108c-.32 5.877-.702 10.587-1.146 14.138l1.985.248zM72.588 39.6l.864-18.048-1.997-.096-.864 18.048 1.997.096zm-.134-17.096h36.959v-2h-36.96v2zm56.336-1v-1h-1v1h1zm6.816 0h1v-1h-1v1zm0 40.128h-1v2.746l1.766-2.103-.766-.643zm33.696-40.128v-1h-.466l-.3.357.766.643zm6.048 0h1v-1h-1v1zm0 50.496v1h1v-1h-1zm-6.816 0h-1v1h1v-1zm0-40.128h1V29.12l-1.767 2.11.767.642zM134.934 72v1h.467l.299-.358-.766-.642zm-6.144 0h-1v1h1v-1zm0-49.496h6.816v-2h-6.816v2zm5.816-1v40.128h2V21.504h-2zm1.766 40.771l33.696-40.128-1.532-1.286-33.696 40.128 1.532 1.286zm32.93-39.771h6.048v-2h-6.048v2zm5.048-1V72h2V21.504h-2zm1 49.496h-6.816v2h6.816v-2zm-5.816 1V31.872h-2V72h2zm-1.767-40.77l-33.6 40.128 1.533 1.284 33.6-40.128-1.533-1.284zM134.934 71h-6.144v2h6.144v-2zm-5.144 1V21.504h-2V72h2zm109.349-22.464l.823-.57-.299-.43h-.524v1zm-10.944 0v-1h-1v1h1zm0 22.464v1h1v-1h-1zm-6.815 0h-1v1h1v-1zm0-22.464h1v-1h-1v1zm-10.944 0v-1h-.526l-.298.433.824.567zM194.98 72v1h.525l.298-.433-.823-.567zm-8.16 0l-.821-.572L184.903 73h1.917v-1zm18.144-26.016l.82.572.394-.566-.388-.57-.826.564zm-16.704-24.48v-1h-1.893l1.066 1.564.827-.564zm7.392 0l.832-.555-.297-.445h-.535v1zm14.784 22.176l-.833.555.297.445h.536v-1zm10.944 0v1h1v-1h-1zm0-22.176v-1h-1v1h1zm6.815 0h1v-1h-1v1zm0 22.176h-1v1h1v-1zm10.944 0v1h.534l.297-.443-.831-.557zm14.881-22.176v-1h-.534l-.297.443.831.557zm7.391 0l.828.562 1.061-1.562h-1.889v1zM244.708 46.08l-.828-.562-.387.57.395.566.82-.574zM262.852 72v1h1.92l-1.101-1.573-.819.573zm-8.161 0l-.822.57.299.43h.523v-1zm-15.552-23.464h-10.944v2h10.944v-2zm-11.944 1V72h2V49.536h-2zm1 21.464h-6.815v2h6.815v-2zm-5.815 1V49.536h-2V72h2zm-1-23.464h-10.944v2h10.944v-2zm-11.768.433l-15.456 22.464 1.647 1.134 15.456-22.464-1.647-1.134zM194.98 71h-8.16v2h8.16v-2zm-7.34 1.572l18.144-26.016-1.641-1.144-18.144 26.016 1.641 1.144zm18.15-27.152l-16.704-24.48-1.653 1.128 16.704 24.48 1.653-1.128zm-17.53-22.916h7.392v-2h-7.392v2zm6.559-.445l14.784 22.176 1.665-1.11-14.784-22.176-1.665 1.11zm15.617 22.621h10.944v-2h-10.944v2zm11.944-1V21.504h-2V43.68h2zm-1-21.176h6.815v-2h-6.815v2zm5.815-1V43.68h2V21.504h-2zm1 23.176h10.944v-2h-10.944v2zm11.775-.443l14.88-22.176-1.661-1.114-14.88 22.176 1.661 1.114zm14.05-21.733h7.391v-2h-7.391v2zm6.564-1.562L243.88 45.518l1.655 1.124 16.704-24.576-1.655-1.124zm-16.696 25.712l18.144 25.92 1.639-1.147-18.144-25.92-1.639 1.147zM262.852 71h-8.161v2h8.161v-2zm-7.338.43l-15.552-22.463-1.645 1.138 15.552 22.464 1.645-1.138zm50.288-45.318l-.687.727.008.006.679-.733zM311.082 72v1h1v-1h-1zm-6.527 0h-1v1h1v-1zm0-7.872h1V60.44l-1.864 3.183.864.505zm-6.817 6.144l-.439-.898-.008.004.447.894zm-24-1.824l.629-.778-.629.778zm-.384-21.024l-.641-.767-.008.007.649.76zm30.913-3.936v1h1v-1h-1zm-3.649-12.96l-.687.726.01.01.677-.736zm-19.872-1.824l.329.944.009-.003.009-.003-.347-.938zm-7.583 4.32l-.857.517.618 1.024.899-.79-.66-.751zm-3.072-5.088l-.648-.762-.648.55.439.729.857-.517zm9.215-4.992l.307.952.007-.002.008-.003-.322-.947zm18.816 41.568l.532.847.007-.004.007-.005-.546-.838zm6.145-7.68l.927.374.073-.18v-.194h-1zm0-8.256h1v-1h-1v1zm-25.44 16.032l-.611.792.007.005.007.006.597-.803zm11.807-42.488c6.431 0 11.206 1.621 14.481 4.719l1.375-1.454c-3.765-3.559-9.102-5.265-15.856-5.265v2zm14.489 4.725c3.252 3.016 4.959 7.573 4.959 13.859h2c0-6.642-1.812-11.813-5.6-15.325l-1.359 1.466zm4.959 13.859V72h2V40.704h-2zm1 30.296h-6.527v2h6.527v-2zm-5.527 1v-7.872h-2V72h2zm-1.864-8.377c-1.426 2.437-3.542 4.356-6.392 5.75l.879 1.797c3.166-1.55 5.594-3.726 7.24-6.537l-1.727-1.01zm-6.4 5.755c-2.775 1.387-6.135 2.102-10.113 2.102v2c4.215 0 7.895-.757 11.008-2.314l-.895-1.788zm-10.113 2.102c-5.476 0-9.711-1.306-12.811-3.81l-1.257 1.556c3.555 2.872 8.281 4.254 14.068 4.254v-2zm-12.811-3.81c-3.084-2.491-4.621-5.753-4.621-9.878h-2c0 4.707 1.792 8.55 5.364 11.434l1.257-1.556zm-4.621-9.878c0-4.016 1.423-7.187 4.258-9.608l-1.299-1.52c-3.309 2.826-4.959 6.568-4.959 11.128h2zm4.25-9.601c2.871-2.402 7.546-3.703 14.238-3.703v-2c-6.875 0-12.12 1.323-15.521 4.17l1.283 1.533zm14.238-3.703h16.033v-2h-16.033v2zm17.033-1v-3.072h-2v3.072h2zm0-3.072c0-4.538-1.274-8.14-3.971-10.623l-1.355 1.47c2.167 1.996 3.326 4.988 3.326 9.153h2zm-3.961-10.614c-2.68-2.54-6.517-3.73-11.344-3.73v2c4.518 0 7.785 1.113 9.969 3.182l1.375-1.452zm-11.344-3.73c-3.315 0-6.505.564-9.562 1.694l.693 1.876a25.372 25.372 0 018.869-1.57v-2zm-9.544 1.688c-3.053 1.061-5.697 2.563-7.916 4.513l1.321 1.502c2.005-1.762 4.417-3.14 7.252-4.127l-.657-1.889zm-6.399 4.747l-3.072-5.088-1.713 1.034 3.072 5.088 1.713-1.034zm-3.281-3.81c2.448-2.08 5.401-3.684 8.875-4.801L279 21.992c-3.694 1.187-6.885 2.911-9.557 5.182l1.295 1.524zm8.89-4.806c3.475-1.18 7.142-1.771 11.006-1.771v-2c-4.071 0-7.956.624-11.649 1.877l.643 1.894zm8.606 44.213c3.994 0 7.482-.9 10.42-2.745l-1.063-1.694c-2.566 1.611-5.67 2.439-9.357 2.439v2zm10.434-2.754c2.94-1.914 5.113-4.644 6.526-8.143l-1.855-.75c-1.275 3.157-3.198 5.547-5.762 7.217l1.091 1.676zm6.599-8.518v-8.256h-2v8.256h2zm-1-9.256h-15.84v2h15.84v-2zm-15.84 0c-4.406 0-7.888.761-10.292 2.435-2.47 1.72-3.669 4.308-3.669 7.589h2c0-2.735.962-4.66 2.812-5.947 1.916-1.334 4.914-2.077 9.149-2.077v-2zM274.466 57.6c0 3.24 1.253 5.874 3.75 7.8l1.221-1.584c-1.983-1.53-2.971-3.567-2.971-6.216h-2zm3.764 7.81c2.474 1.839 5.85 2.694 10.004 2.694v-2c-3.909 0-6.805-.809-8.811-2.299l-1.193 1.606zm50.997-43.906v-1h-1v1h1zm6.816 0h1v-1h-1v1zm0 40.128h-1v2.746l1.766-2.103-.766-.643zm33.696-40.128v-1h-.466l-.3.357.766.643zm6.048 0h1v-1h-1v1zm0 50.496v1h1v-1h-1zm-6.816 0h-1v1h1v-1zm0-40.128h1V29.12l-1.766 2.11.766.642zM335.371 72v1h.467l.3-.358-.767-.642zm-6.144 0h-1v1h1v-1zm8.64-70.272v-1h-1.016l.016 1.016 1-.016zm4.896 0l1-.026-.025-.974h-.975v1zm2.688 6.048l-.664.747.008.007.008.007.648-.761zm13.44 0l.649.761.002-.002-.651-.759zm2.784-6.048v-1h-.974l-.025.974.999.026zm4.896 0l1 .016.017-1.016h-1.017v1zm-4.032 9.216l-.638-.77-.009.008.647.762zm-33.312 11.56h6.816v-2h-6.816v2zm5.816-1v40.128h2V21.504h-2zm1.766 40.771l33.696-40.128-1.532-1.286-33.696 40.128 1.532 1.286zm32.93-39.771h6.048v-2h-6.048v2zm5.048-1V72h2V21.504h-2zm1 49.496h-6.816v2h6.816v-2zm-5.816 1V31.872h-2V72h2zm-1.766-40.77l-33.6 40.128 1.533 1.284 33.6-40.128-1.533-1.284zM335.371 71h-6.144v2h6.144v-2zm-5.144 1V21.504h-2V72h2zm21.944-58.792c-4.186 0-7.389-1.044-9.72-3.026l-1.295 1.524c2.788 2.37 6.497 3.502 11.015 3.502v-2zm-9.72-3.026c-2.301-1.955-3.524-4.733-3.584-8.47l-2 .032c.068 4.199 1.469 7.565 4.289 9.962l1.295-1.524zm-4.584-7.454h4.896v-2h-4.896v2zm3.897-.974c.07 2.748 1.07 5.034 3.023 6.77l1.329-1.495c-1.504-1.337-2.296-3.083-2.353-5.327l-1.999.052zm3.039 6.783c1.945 1.657 4.431 2.447 7.368 2.447v-2c-2.567 0-4.561-.682-6.071-1.97l-1.297 1.523zm7.368 2.447c2.937 0 5.423-.79 7.369-2.447l-1.297-1.522c-1.511 1.287-3.505 1.969-6.072 1.969v2zm7.371-2.449c2.021-1.732 3.062-4.021 3.133-6.781l-1.999-.052c-.058 2.232-.872 3.975-2.436 5.315l1.302 1.518zm2.133-5.807h4.896v-2h-4.896v2zm3.896-1.016c-.06 3.729-1.309 6.504-3.67 8.462l1.277 1.54c2.886-2.394 4.325-5.763 4.393-9.97l-2-.032zm-3.679 8.47c-2.332 1.982-5.535 3.026-9.721 3.026v2c4.518 0 8.227-1.132 11.016-3.502l-1.295-1.524zm103.125 11.322h1v-1h-1v1zm0 50.496v1h1v-1h-1zm-69.696 0h-1v1h1v-1zm0-50.496v-1h-1v1h1zm6.816 0h1v-1h-1v1zm0 44.544h-1v1h1v-1zm24.768 0v1h1v-1h-1zm0-44.544v-1h-1v1h1zm6.816 0h1v-1h-1v1zm0 44.544h-1v1h1v-1zm24.48 0v1h1v-1h-1zm0-44.544v-1h-1v1h1zm5.816 0V72h2V21.504h-2zm1 49.496h-69.696v2h69.696v-2zm-68.696 1V21.504h-2V72h2zm-1-49.496h6.816v-2h-6.816v2zm5.816-1v44.544h2V21.504h-2zm1 45.544h24.768v-2h-24.768v2zm25.768-1V21.504h-2v44.544h2zm-1-43.544h6.816v-2h-6.816v2zm5.816-1v44.544h2V21.504h-2zm1 45.544h24.48v-2h-24.48v2zm25.48-1V21.504h-2v44.544h2zm-1-43.544h6.816v-2h-6.816v2zm26.276-1v-1h-1v1h1zm6.816 0h1v-1h-1v1zm0 40.128h-1v2.746l1.766-2.103-.766-.643zm33.696-40.128v-1h-.466l-.3.357.766.643zm6.048 0h1v-1h-1v1zm0 50.496v1h1v-1h-1zm-6.816 0h-1v1h1v-1zm0-40.128h1V29.12l-1.766 2.11.766.642zM490.621 72v1h.467l.3-.358-.767-.642zm-6.144 0h-1v1h1v-1zm0-49.496h6.816v-2h-6.816v2zm5.816-1v40.128h2V21.504h-2zm1.766 40.771l33.696-40.128-1.532-1.286-33.696 40.128 1.532 1.286zm32.93-39.771h6.048v-2h-6.048v2zm5.048-1V72h2V21.504h-2zm1 49.496h-6.816v2h6.816v-2zm-5.816 1V31.872h-2V72h2zm-1.766-40.77l-33.6 40.128 1.533 1.284 33.6-40.128-1.533-1.284zM490.621 71h-6.144v2h6.144v-2zm-5.144 1V21.504h-2V72h2zm109.254-23.136v1h.956l.043-.955-.999-.045zm-42.24 0v-1h-1.076l.079 1.073.997-.073zm6.048 12.768l-.667.745.008.007.659-.752zm22.464 3.168l.383.924.01-.004.009-.004-.402-.916zm6.816-4.992l.755-.656-.75-.862-.755.856.75.662zm3.84 4.416l.768.64.545-.654-.558-.642-.755.656zm-8.448 6.144l-.383-.924-.007.003.39.921zm-24.864-1.152l-.492.87.009.005.008.005.475-.88zM549.035 60l-.867.498.867-.498zm-.192-26.496l-.874-.487-.006.011.88.476zm8.832-9.12l-.499-.867-.007.004.506.863zm33.984 9.12l-.88.476.004.006.876-.482zm3.168 13.248l.999.045.001-.022v-.023h-1zM558.059 31.68l.685.728h.001l-.686-.728zm-5.568 12.096l-.996-.09-.098 1.09h1.094v-1zm35.808 0v1h1.094l-.098-1.09-.996.09zm-5.664-12.096l-.693.721.007.007.008.007.678-.735zm12.096 16.184h-42.24v2h42.24v-2zm-43.237 1.073c.401 5.485 2.522 9.99 6.378 13.44l1.334-1.49c-3.44-3.078-5.351-7.085-5.718-12.096l-1.994.146zm6.386 13.447c3.857 3.383 8.71 5.048 14.483 5.048v-2c-5.363 0-9.726-1.535-13.165-4.552l-1.318 1.504zm14.483 5.048c3.254 0 6.266-.565 9.023-1.708l-.766-1.848c-2.491 1.033-5.239 1.556-8.257 1.556v2zm9.042-1.716a20.387 20.387 0 007.164-5.246l-1.5-1.324a18.39 18.39 0 01-6.468 4.738l.804 1.832zm5.659-5.252l3.84 4.416 1.51-1.312-3.84-4.416-1.51 1.312zm3.827 3.12c-2.132 2.557-4.813 4.511-8.063 5.86l.766 1.848c3.534-1.467 6.485-3.61 8.833-6.428l-1.536-1.28zm-8.07 5.863c-3.191 1.35-6.736 2.033-10.65 2.033v2c4.15 0 7.965-.725 11.43-2.191l-.78-1.842zm-10.65 2.033c-5.04 0-9.481-1.057-13.349-3.144l-.95 1.76c4.196 2.265 8.971 3.384 14.299 3.384v-2zm-13.332-3.135c-3.814-2.153-6.787-5.097-8.937-8.843l-1.734.996c2.33 4.062 5.565 7.262 9.687 9.589l.984-1.742zm-8.937-8.843c-2.145-3.738-3.227-7.98-3.227-12.75h-2c0 5.086 1.158 9.676 3.493 13.746l1.734-.996zm-3.227-12.75c0-4.78 1.023-9.03 3.048-12.772l-1.76-.952c-2.199 4.066-3.288 8.648-3.288 13.724h2zm3.041-12.761c2.093-3.755 4.913-6.662 8.465-8.744l-1.012-1.726c-3.872 2.27-6.94 5.443-9.199 9.496l1.746.974zm8.458-8.74c3.614-2.083 7.663-3.131 12.173-3.131v-2c-4.834 0-9.232 1.128-13.171 3.398l.998 1.732zm12.173-3.131c4.51 0 8.525 1.048 12.07 3.127l1.012-1.726c-3.879-2.273-8.248-3.401-13.082-3.401v2zm12.07 3.127c3.55 2.08 6.335 4.984 8.362 8.733l1.76-.952c-2.196-4.06-5.236-7.235-9.11-9.507l-1.012 1.726zm8.366 8.739c2.02 3.673 3.044 7.919 3.044 12.766h2c0-5.137-1.088-9.723-3.292-13.73l-1.752.964zm3.045 12.72l-.096 2.113 1.998.09.096-2.112-1.998-.09zm-23.481-20.73c-5.101 0-9.448 1.654-12.974 4.976l1.372 1.456c3.13-2.95 6.975-4.432 11.602-4.432v-2zm-12.973 4.976c-3.464 3.26-5.412 7.53-5.879 12.735l1.992.178c.429-4.779 2.193-8.573 5.257-11.457l-1.37-1.456zm-4.883 13.824h35.808v-2h-35.808v2zm36.804-1.09c-.468-5.21-2.451-9.482-5.982-12.74l-1.356 1.469c3.125 2.885 4.918 6.677 5.346 11.45l1.992-.178zm-5.967-12.727c-3.468-3.332-7.82-4.983-12.981-4.983v2c4.695 0 8.535 1.485 11.595 4.425l1.386-1.442zm108.16-9.455h1v-1h-1v1zm0 50.496v1h1v-1h-1zm-6.24 0h-1v1h1v-1zm0-39.936h1V28.48l-1.856 3.066.856.518zM664.8 65.856v1h.563l.292-.482-.855-.518zm-3.072 0l-.856.517.291.483h.565v-1zM641.28 31.968l.856-.517-1.856-3.076v3.593h1zm0 40.032v1h1v-1h-1zm-6.24 0h-1v1h1v-1zm0-50.496v-1h-1v1h1zm6.912 0l.862-.507-.29-.493h-.572v1zm21.408 36.384l-.862.507.854 1.452.866-1.445-.858-.514zm21.792-36.384v-1h-.567l-.291.486.858.514zm5.336 0V72h2V21.504h-2zm1 49.496h-6.24v2h6.24v-2zm-5.24 1V32.064h-2V72h2zm-1.856-40.454l-20.448 33.792 1.711 1.036 20.448-33.792-1.711-1.036zM664.8 64.856h-3.072v2h3.072v-2zm-2.216.483l-20.448-33.888-1.712 1.034 20.448 33.888 1.712-1.034zM640.28 31.968V72h2V31.968h-2zm1 39.032h-6.24v2h6.24v-2zm-5.24 1V21.504h-2V72h2zm-1-49.496h6.912v-2h-6.912v2zm6.05-.493l21.408 36.384 1.724-1.014-21.408-36.384-1.724 1.014zm23.128 36.39l21.792-36.383-1.716-1.028-21.792 36.384 1.716 1.028zm20.934-35.897h6.336v-2h-6.336v2zm69.892 26.36v1h.955l.043-.955-.998-.045zm-42.24 0v-1h-1.076l.078 1.073.998-.073zm6.048 12.768l-.667.745.007.007.66-.752zm22.463 3.168l.383.924.01-.004.009-.004-.402-.916zm6.817-4.992l.754-.656-.749-.862-.755.856.75.662zm3.839 4.416l.769.64.545-.654-.559-.642-.755.656zm-8.448 6.144l-.383-.924-.006.003.389.921zm-24.864-1.152l-.491.87.008.005.009.005.474-.88zM709.347 60l-.867.498.867-.498zm-.191-26.496l-.874-.487-.006.011.88.476zm8.831-9.12l-.499-.867-.006.004.505.863zm33.984 9.12l-.879.476.003.006.876-.482zm3.169 13.248l.998.045.002-.022v-.023h-1zM718.372 31.68l.685.728-.685-.728zm-5.568 12.096l-.997-.09-.097 1.09h1.094v-1zm35.808 0v1h1.093l-.098-1.09-.995.09zm-5.664-12.096l-.693.721.007.007.007.007.679-.735zm12.096 16.184h-42.24v2h42.24v-2zm-43.238 1.073c.402 5.485 2.522 9.99 6.379 13.44l1.333-1.49c-3.439-3.078-5.351-7.085-5.717-12.096l-1.995.146zm6.386 13.447c3.857 3.383 8.711 5.048 14.483 5.048v-2c-5.363 0-9.725-1.535-13.164-4.552l-1.319 1.504zm14.483 5.048c3.254 0 6.266-.565 9.023-1.708l-.766-1.848c-2.49 1.033-5.238 1.556-8.257 1.556v2zm9.042-1.716a20.387 20.387 0 007.164-5.246l-1.499-1.324a18.39 18.39 0 01-6.468 4.738l.803 1.832zm5.66-5.252l3.84 4.416 1.509-1.312-3.84-4.416-1.509 1.312zm3.826 3.12c-2.131 2.557-4.813 4.511-8.063 5.86l.767 1.848c3.534-1.467 6.484-3.61 8.833-6.428l-1.537-1.28zm-8.069 5.863c-3.191 1.35-6.737 2.033-10.65 2.033v2c4.15 0 7.964-.725 11.429-2.191l-.779-1.842zm-10.65 2.033c-5.041 0-9.482-1.057-13.35-3.144l-.949 1.76c4.196 2.265 8.971 3.384 14.299 3.384v-2zm-13.333-3.135c-3.813-2.153-6.787-5.097-8.936-8.843l-1.735.996c2.331 4.062 5.565 7.262 9.688 9.589l.983-1.742zm-8.936-8.843c-2.145-3.738-3.228-7.98-3.228-12.75h-2c0 5.086 1.158 9.676 3.493 13.746l1.735-.996zm-3.228-12.75c0-4.78 1.024-9.03 3.048-12.772l-1.759-.952c-2.2 4.066-3.289 8.648-3.289 13.724h2zm3.042-12.761c2.093-3.755 4.912-6.662 8.464-8.744l-1.011-1.726c-3.872 2.27-6.941 5.443-9.2 9.496l1.747.974zm8.458-8.74c3.613-2.083 7.663-3.131 12.172-3.131v-2c-4.834 0-9.232 1.128-13.171 3.398l.999 1.732zm12.172-3.131c4.51 0 8.525 1.048 12.071 3.127l1.011-1.726c-3.878-2.273-8.247-3.401-13.082-3.401v2zm12.071 3.127c3.549 2.08 6.334 4.984 8.362 8.733l1.759-.952c-2.196-4.06-5.235-7.235-9.11-9.507l-1.011 1.726zm8.365 8.739c2.02 3.673 3.045 7.919 3.045 12.766h2c0-5.137-1.088-9.723-3.292-13.73l-1.753.964zm3.046 12.72l-.096 2.113 1.997.09.096-2.112-1.997-.09zm-23.482-20.73c-5.101 0-9.447 1.654-12.973 4.976l1.371 1.456c3.13-2.95 6.976-4.432 11.602-4.432v-2zm-12.973 4.976c-3.464 3.26-5.411 7.53-5.879 12.735l1.992.178c.429-4.779 2.193-8.573 5.258-11.457l-1.371-1.456zm-4.882 13.824h35.808v-2h-35.808v2zm36.803-1.09c-.467-5.21-2.451-9.482-5.981-12.74l-1.357 1.469c3.126 2.885 4.918 6.677 5.346 11.45l1.992-.178zM743.64 30.96c-3.467-3.332-7.819-4.983-12.981-4.983v2c4.695 0 8.535 1.485 11.596 4.425l1.385-1.442zm65.467-6.575l-.493.87.011.006.482-.876zm9.024 9.024l-.873.487.873-.487zm0 26.784l.874.487-.874-.487zm-9.024 9.12l.488.873.005-.003-.493-.87zm-24 .672l-.468.884.011.005.01.005.447-.894zm-8.064-7.488l.84-.543-1.84-2.843v3.386h1zm0 28.128v1h1v-1h-1zm-6.816 0h-1v1h1v-1zm0-69.12v-1h-1v1h1zm6.528 0h1v-1h-1v1zm0 9.984h-1v3.533l1.852-3.009-.852-.524zm8.064-7.68l-.467-.884-.007.003.474.881zm20.544 40.224l.486.874.007-.004.008-.004-.501-.866zm6.72-7.008l-.875-.484-.004.007-.004.007.883.47zm0-20.448l-.883.47.006.01.007.012.87-.492zm-6.72-7.008l.501-.866-.501.866zm-19.296 0l-.5-.866-.008.005.508.861zm-6.72 7.008l-.875-.484-.003.007.878.477zm0 20.448l-.883.47.004.007.004.007.875-.484zm6.72 7.008l-.508.86.011.008.012.006.485-.874zm10.176-41.912c4.576 0 8.693 1.05 12.371 3.134l.986-1.74c-4.001-2.267-8.461-3.394-13.357-3.394v2zm12.382 3.14c3.672 2.02 6.546 4.891 8.633 8.635l1.747-.974c-2.266-4.064-5.408-7.209-9.416-9.413l-.964 1.752zm8.633 8.635c2.083 3.738 3.137 8.015 3.137 12.857h2c0-5.142-1.122-9.761-3.39-13.83l-1.747.973zm3.137 12.857c0 4.908-1.055 9.217-3.137 12.953l1.747.974c2.269-4.072 3.39-8.723 3.39-13.927h-2zm-3.137 12.953c-2.088 3.746-4.965 6.653-8.644 8.737l.986 1.74c4.002-2.268 7.141-5.441 9.405-9.503l-1.747-.974zm-8.639 8.734c-3.611 2.02-7.728 3.041-12.376 3.041v2c4.952 0 9.411-1.09 13.352-3.295l-.976-1.746zm-12.376 3.041c-3.956 0-7.513-.803-10.689-2.39l-.894 1.788c3.48 1.74 7.348 2.602 11.583 2.602v-2zm-10.668-2.38c-3.105-1.644-5.668-4.019-7.692-7.147l-1.679 1.086c2.199 3.4 5.012 6.017 8.435 7.829l.936-1.768zm-9.532-6.604v28.128h2V62.496h-2zm1 27.128h-6.816v2h6.816v-2zm-5.816 1v-69.12h-2v69.12h2zm-1-68.12h6.528v-2h-6.528v2zm5.528-1v9.984h2v-9.984h-2zm1.852 10.508c1.959-3.183 4.519-5.618 7.686-7.323l-.948-1.762c-3.488 1.879-6.304 4.564-8.441 8.037l1.703 1.048zm7.679-7.32c3.234-1.708 6.879-2.572 10.957-2.572v-2c-4.37 0-8.341.928-11.891 2.804l.934 1.768zm10.477 42.74c3.678 0 7.047-.838 10.086-2.526l-.971-1.748c-2.722 1.512-5.753 2.274-9.115 2.274v2zm10.101-2.534c3.046-1.76 5.416-4.235 7.102-7.404l-1.766-.94c-1.514 2.847-3.623 5.044-6.337 6.612l1.001 1.732zm7.094-7.39c1.756-3.173 2.621-6.767 2.621-10.756h-2c0 3.69-.798 6.945-2.371 9.788l1.75.968zm2.621-10.756c0-3.989-.865-7.555-2.625-10.668l-1.741.984c1.568 2.775 2.366 5.993 2.366 9.684h2zm-2.613-10.646c-1.686-3.169-4.056-5.644-7.102-7.404l-1.001 1.732c2.714 1.568 4.823 3.765 6.337 6.612l1.766-.94zm-7.102-7.404c-3.041-1.757-6.416-2.63-10.101-2.63v2c3.355 0 6.381.79 9.1 2.362l1.001-1.732zm-10.101-2.63c-3.745 0-7.152.872-10.196 2.63l1.001 1.732c2.716-1.57 5.773-2.362 9.195-2.362v-2zm-10.204 2.635c-2.978 1.76-5.341 4.23-7.087 7.385l1.75.968c1.583-2.86 3.699-5.063 6.354-6.631l-1.017-1.722zm-7.09 7.392c-1.691 3.11-2.522 6.67-2.522 10.653h2c0-3.698.769-6.921 2.279-9.699l-1.757-.954zm-2.522 10.653c0 3.983.831 7.572 2.517 10.742l1.766-.94c-1.514-2.846-2.283-6.105-2.283-9.802h-2zm2.525 10.756c1.746 3.156 4.109 5.625 7.087 7.385l1.017-1.722c-2.655-1.569-4.771-3.77-6.354-6.631l-1.75.968zm7.11 7.398c3.041 1.69 6.443 2.526 10.181 2.526v-2c-3.429 0-6.492-.764-9.21-2.274l-.971 1.748zm58.138 4.31l-.498.867.011.007.487-.874zM834.504 60l-.868.498.868-.498zm0-26.496l-.868-.498.868.498zm35.52-9.12l-.487.873.487-.873zm9.12 9.12l-.874.487.006.01.868-.497zm0 26.496l-.868-.498-.006.011.874.487zm-9.12 9.216l.487.874.01-.007-.497-.867zm-3.552-5.184l.494.87.006-.004-.5-.866zm6.72-7.008l.883.47-.883-.47zm0-20.544l.883-.47-.883.47zm-6.72-6.912l-.509.86.011.008.012.006.486-.874zm-19.296 0l.494.87.006-.004-.5-.866zm-6.72 6.912l-.875-.484-.004.007-.004.007.883.47zm0 20.544l-.883.47.004.007.004.007.875-.484zm6.72 7.008l-.509.86.011.008.012.006.486-.874zm9.696 7.448c-4.709 0-8.923-1.052-12.665-3.138l-.974 1.748c4.066 2.266 8.62 3.39 13.639 3.39v-2zm-12.655-3.131c-3.75-2.152-6.694-5.097-8.846-8.847l-1.735.996c2.329 4.057 5.528 7.257 9.586 9.585l.995-1.734zm-8.846-8.847c-2.145-3.738-3.227-7.98-3.227-12.75h-2c0 5.086 1.157 9.676 3.492 13.746l1.735-.996zm-3.227-12.75c0-4.77 1.082-9.012 3.227-12.75l-1.735-.996c-2.335 4.07-3.492 8.66-3.492 13.746h2zm3.227-12.75c2.15-3.748 5.091-6.658 8.836-8.745l-.974-1.747c-4.064 2.266-7.267 5.436-9.597 9.496l1.735.996zm8.836-8.745c3.742-2.085 7.956-3.137 12.665-3.137v-2c-5.019 0-9.573 1.124-13.639 3.39l.974 1.747zm12.665-3.137c4.709 0 8.923 1.052 12.665 3.137l.974-1.747c-4.066-2.266-8.62-3.39-13.639-3.39v2zm12.665 3.137c3.742 2.086 6.648 4.992 8.733 8.734l1.747-.974c-2.266-4.066-5.44-7.24-9.506-9.507l-.974 1.747zm8.739 8.745c2.145 3.738 3.228 7.98 3.228 12.75h2c0-5.086-1.158-9.676-3.493-13.746l-1.735.996zm3.228 12.75c0 4.77-1.083 9.012-3.228 12.75l1.735.996c2.335-4.07 3.493-8.66 3.493-13.746h-2zm-3.234 12.761c-2.087 3.744-4.996 6.685-8.744 8.836l.995 1.734c4.061-2.33 7.231-5.532 9.496-9.596l-1.747-.974zm-8.733 8.83c-3.742 2.085-7.956 3.137-12.665 3.137v2c5.019 0 9.573-1.124 13.639-3.39l-.974-1.748zm-12.665-.911c3.738 0 7.112-.836 10.094-2.53l-.988-1.74c-2.65 1.506-5.677 2.27-9.106 2.27v2zm10.1-2.534c3.046-1.76 5.417-4.235 7.103-7.404l-1.766-.94c-1.514 2.847-3.624 5.044-6.338 6.612l1.001 1.732zm7.103-7.404c1.686-3.17 2.517-6.76 2.517-10.742h-2c0 3.697-.769 6.956-2.283 9.802l1.766.94zm2.517-10.742c0-3.983-.831-7.572-2.517-10.742l-1.766.94c1.514 2.845 2.283 6.105 2.283 9.802h2zm-2.517-10.742c-1.688-3.172-4.063-5.62-7.118-7.316l-.971 1.748c2.705 1.503 4.81 3.664 6.323 6.508l1.766-.94zm-7.095-7.303c-2.984-1.764-6.363-2.635-10.108-2.635v2c3.422 0 6.444.793 9.091 2.357l1.017-1.722zm-10.108-2.635c-3.746 0-7.153.872-10.197 2.63l1.001 1.732c2.716-1.57 5.773-2.362 9.196-2.362v-2zm-10.19 2.627c-2.986 1.696-5.354 4.138-7.101 7.297l1.75.968c1.58-2.857 3.693-5.023 6.339-6.526l-.988-1.74zm-7.109 7.311c-1.686 3.17-2.517 6.76-2.517 10.742h2c0-3.697.769-6.957 2.283-9.802l-1.766-.94zm-2.517 10.742c0 3.983.831 7.572 2.517 10.742l1.766-.94c-1.514-2.846-2.283-6.105-2.283-9.802h-2zm2.525 10.756c1.745 3.156 4.109 5.625 7.086 7.385l1.018-1.722c-2.655-1.569-4.772-3.77-6.354-6.631l-1.75.968zm7.109 7.398c3.042 1.69 6.443 2.526 10.182 2.526v-2c-3.43 0-6.492-.764-9.211-2.274l-.971 1.748zm95.693-43.402h1v-1h-1v1zm0 50.496v1h1v-1h-1zm-6.816 0h-1v1h1v-1zm0-44.448h1v-1h-1v1zm-31.68 0v-1h-1v1h1zm0 44.448v1h1v-1h-1zm-6.816 0h-1v1h1v-1zm0-50.496v-1h-1v1h1zm44.312 0V72h2V21.504h-2zm1 49.496h-6.816v2h6.816v-2zm-5.816 1V27.552h-2V72h2zm-1-45.448h-31.68v2h31.68v-2zm-32.68 1V72h2V27.552h-2zm1 43.448h-6.816v2h6.816v-2zm-5.816 1V21.504h-2V72h2zm-1-49.496h45.312v-2h-45.312v2zm103.569 1.88l-.49.87.01.006.48-.876zm9.02 9.024l-.87.487.87-.487zm0 26.784l.88.487-.88-.487zm-9.02 9.12l.49.873v-.003l-.49-.87zm-24.002.672l-.467.884.01.005.01.005.447-.894zm-8.063-7.488l.839-.543-1.839-2.843v3.386h1zm0 28.128v1h1v-1h-1zm-6.817 0h-1v1h1v-1zm0-69.12v-1h-1v1h1zm6.528 0h1v-1h-1v1zm0 9.984h-1v3.533l1.852-3.009-.852-.524zm8.065-7.68l-.468-.884-.007.003.475.881zm20.544 40.224l.485.874.008-.004.007-.004-.5-.866zm6.715-7.008l-.87-.484v.007l-.01.007.88.47zm0-20.448l-.88.47.01.01v.012l.87-.492zm-6.715-7.008l.5-.866-.5.866zm-19.296 0l-.501-.866-.008.005.509.861zm-6.721 7.008l-.875-.484-.003.007.878.477zm0 20.448l-.882.47.004.007.003.007.875-.484zm6.721 7.008l-.509.86.011.008.012.006.486-.874zm10.175-41.912c4.577 0 8.693 1.05 12.376 3.134l.98-1.74c-4-2.267-8.46-3.394-13.356-3.394v2zm12.386 3.14c3.67 2.02 6.54 4.891 8.63 8.635l1.75-.974c-2.27-4.064-5.41-7.209-9.42-9.413l-.96 1.752zm8.63 8.635c2.08 3.738 3.14 8.015 3.14 12.857h2c0-5.142-1.13-9.761-3.39-13.83l-1.75.973zm3.14 12.857c0 4.908-1.06 9.217-3.14 12.953l1.75.974c2.27-4.072 3.39-8.723 3.39-13.927h-2zm-3.14 12.953c-2.09 3.746-4.97 6.653-8.64 8.737l.98 1.74c4-2.268 7.14-5.441 9.41-9.503l-1.75-.974zm-8.64 8.734c-3.611 2.02-7.727 3.041-12.376 3.041v2c4.952 0 9.412-1.09 13.356-3.295l-.98-1.746zm-12.376 3.041c-3.956 0-7.513-.803-10.688-2.39l-.895 1.788c3.481 1.74 7.348 2.602 11.583 2.602v-2zm-10.668-2.38c-3.105-1.644-5.668-4.019-7.692-7.147l-1.679 1.086c2.2 3.4 5.013 6.017 8.436 7.829l.935-1.768zm-9.531-6.604v28.128h2V62.496h-2zm1 27.128h-6.817v2h6.817v-2zm-5.817 1v-69.12h-2v69.12h2zm-1-68.12h6.528v-2h-6.528v2zm5.528-1v9.984h2v-9.984h-2zm1.852 10.508c1.959-3.183 4.519-5.618 7.687-7.323l-.949-1.762c-3.488 1.879-6.304 4.564-8.441 8.037l1.703 1.048zm7.68-7.32c3.234-1.708 6.879-2.572 10.956-2.572v-2c-4.37 0-8.341.928-11.891 2.804l.935 1.768zm10.476 42.74c3.678 0 7.047-.838 10.086-2.526l-.971-1.748c-2.721 1.512-5.752 2.274-9.115 2.274v2zm10.101-2.534c3.045-1.76 5.415-4.235 7.105-7.404l-1.77-.94c-1.51 2.847-3.622 5.044-6.336 6.612l1.001 1.732zm7.095-7.39c1.75-3.173 2.62-6.767 2.62-10.756h-2c0 3.69-.8 6.945-2.37 9.788l1.75.968zm2.62-10.756c0-3.989-.87-7.555-2.62-10.668l-1.75.984c1.57 2.775 2.37 5.993 2.37 9.684h2zm-2.61-10.646c-1.69-3.169-4.06-5.644-7.105-7.404l-1.001 1.732c2.714 1.568 4.826 3.765 6.336 6.612l1.77-.94zm-7.105-7.404c-3.041-1.757-6.416-2.63-10.101-2.63v2c3.355 0 6.381.79 9.1 2.362l1.001-1.732zm-10.101-2.63c-3.745 0-7.152.872-10.196 2.63l1.001 1.732c2.716-1.57 5.773-2.362 9.195-2.362v-2zm-10.204 2.635c-2.978 1.76-5.341 4.23-7.087 7.385l1.751.968c1.582-2.86 3.699-5.063 6.353-6.631l-1.017-1.722zM970 36.1c-1.691 3.11-2.521 6.67-2.521 10.653h2c0-3.698.769-6.921 2.278-9.699L970 36.1zm-2.521 10.653c0 3.983.83 7.572 2.517 10.742l1.765-.94c-1.513-2.846-2.282-6.105-2.282-9.802h-2zm2.524 10.756c1.746 3.156 4.109 5.625 7.087 7.385l1.017-1.722c-2.654-1.569-4.771-3.77-6.353-6.631l-1.751.968zm7.11 7.398c3.041 1.69 6.443 2.526 10.181 2.526v-2c-3.429 0-6.491-.764-9.21-2.274l-.971 1.748zm50.457-43.402v-1h-1v1h1zm6.82 0h1v-1h-1v1zm0 40.128h-1v2.746l1.76-2.103-.76-.643zm33.69-40.128v-1h-.46l-.3.357.76.643zm6.05 0h1v-1h-1v1zm0 50.496v1h1v-1h-1zm-6.81 0h-1v1h1v-1zm0-40.128h1V29.12l-1.77 2.11.77.642zM1033.71 72v1h.47l.3-.358-.77-.642zm-6.14 0h-1v1h1v-1zm0-49.496h6.82v-2h-6.82v2zm5.82-1v40.128h2V21.504h-2zm1.76 40.771l33.7-40.128-1.53-1.286-33.7 40.128 1.53 1.286zm32.93-39.771h6.05v-2h-6.05v2zm5.05-1V72h2V21.504h-2zm1 49.496h-6.81v2h6.81v-2zm-5.81 1V31.872h-2V72h2zm-1.77-40.77l-33.6 40.128 1.53 1.284 33.6-40.128-1.53-1.284zM1033.71 71h-6.14v2h6.14v-2zm-5.14 1V21.504h-2V72h2zm103.88-50.496h1v-1h-1v1zm0 50.496v1h1v-1h-1zm-6.24 0h-1v1h1v-1zm0-16.704h1v-1h-1v1zm-17.76 0v-1h-.52l-.3.426.82.574zM1096.74 72v1h.52l.3-.426-.82-.574zm-7.4 0l-.81-.58-1.12 1.58h1.93v-1zm12.58-17.664l.82.58.82-1.16-1.37-.383-.27.963zm24.29-4.128v1h1v-1h-1zm0-22.656h1v-1h-1v1zm5.24-6.048V72h2V21.504h-2zm1 49.496h-6.24v2h6.24v-2zm-5.24 1V55.296h-2V72h2zm-1-17.704h-15.84v2h15.84v-2zm-15.84 0h-1.92v2h1.92v-2zm-2.74.426l-11.71 16.704 1.64 1.148 11.71-16.704-1.64-1.148zM1096.74 71h-7.4v2h7.4v-2zm-6.58 1.58l12.58-17.664-1.63-1.16-12.58 17.664 1.63 1.16zm12.03-19.207c-3.75-1.044-6.56-2.801-8.51-5.232l-1.56 1.254c2.27 2.817 5.47 4.772 9.53 5.904l.54-1.926zm-8.51-5.232c-1.95-2.413-2.95-5.506-2.95-9.357h-2c0 4.213 1.11 7.776 3.39 10.611l1.56-1.254zm-2.95-9.357c0-5.379 1.82-9.348 5.37-12.07l-1.22-1.588c-4.13 3.166-6.15 7.773-6.15 13.658h2zm5.37-12.07c3.61-2.768 8.62-4.21 15.13-4.21v-2c-6.79 0-12.28 1.502-16.35 4.622l1.22 1.588zm15.13-4.21h21.22v-2h-21.22v2zm-15.59 16.472c0 3.971 1.28 7.105 3.96 9.21 2.63 2.07 6.47 3.022 11.34 3.022v-2c-4.66 0-7.97-.92-10.11-2.594-2.08-1.639-3.19-4.121-3.19-7.638h-2zm15.3 12.232h15.27v-2h-15.27v2zm16.27-1V27.552h-2v22.656h2zm-1-23.656h-14.79v2h14.79v-2zm-14.79 0c-5.02 0-8.98.967-11.69 3.065-2.77 2.136-4.09 5.318-4.09 9.359h2c0-3.575 1.14-6.105 3.31-7.777 2.21-1.71 5.65-2.647 10.47-2.647v-2zm75.98 1v1h1v-1h-1zm-19.1 0v-1h-1v1h1zm0 44.448v1h1v-1h-1zm-6.82 0h-1v1h1v-1zm0-44.448h1v-1h-1v1zm-19.1 0h-1v1h1v-1zm0-6.048v-1h-1v1h1zm45.02 0h1v-1h-1v1zm0 5.048h-19.1v2h19.1v-2zm-20.1 1V72h2V27.552h-2zm1 43.448h-6.82v2h6.82v-2zm-5.82 1V27.552h-2V72h2zm-1-45.448h-19.1v2h19.1v-2zm-18.1 1v-6.048h-2v6.048h2zm-1-5.048h45.02v-2h-45.02v2zm44.02-1v6.048h2v-6.048h-2zm10.86 0v-1h-1v1h1zm6.81 0h1v-1h-1v1zm0 40.128h-1v2.746l1.77-2.103-.77-.643zm33.7-40.128v-1h-.47l-.3.357.77.643zm6.05 0h1v-1h-1v1zm0 50.496v1h1v-1h-1zm-6.82 0h-1v1h1v-1zm0-40.128h1V29.12l-1.76 2.11.76.642zM1203.4 72v1h.47l.3-.358-.77-.642zm-6.14 0h-1v1h1v-1zm0-49.496h6.81v-2h-6.81v2zm5.81-1v40.128h2V21.504h-2zm1.77 40.771l33.7-40.128-1.54-1.286-33.69 40.128 1.53 1.286zm32.93-39.771h6.05v-2h-6.05v2zm5.05-1V72h2V21.504h-2zm1 49.496H1237v2h6.82v-2zm-5.82 1V31.872h-2V72h2zm-1.76-40.77l-33.6 40.128 1.53 1.284 33.6-40.128-1.53-1.284zM1203.4 71h-6.14v2h6.14v-2zm-5.14 1V21.504h-2V72h2zm103.88-50.496h1v-1h-1v1zm0 50.496v1h1v-1h-1zm-6.24 0h-1v1h1v-1zm0-16.704h1v-1h-1v1zm-17.76 0v-1h-.52l-.3.426.82.574zM1266.42 72v1h.52l.3-.426-.82-.574zm-7.39 0l-.81-.58-1.13 1.58h1.94v-1zm12.58-17.664l.81.58.83-1.16-1.37-.383-.27.963zm24.29-4.128v1h1v-1h-1zm0-22.656h1v-1h-1v1zm5.24-6.048V72h2V21.504h-2zm1 49.496h-6.24v2h6.24v-2zm-5.24 1V55.296h-2V72h2zm-1-17.704h-15.84v2h15.84v-2zm-15.84 0h-1.92v2h1.92v-2zm-2.74.426l-11.71 16.704 1.63 1.148 11.72-16.704-1.64-1.148zM1266.42 71h-7.39v2h7.39v-2zm-6.57 1.58l12.57-17.664-1.63-1.16-12.57 17.664 1.63 1.16zm12.03-19.207c-3.75-1.044-6.56-2.801-8.52-5.232l-1.55 1.254c2.26 2.817 5.47 4.772 9.53 5.904l.54-1.926zm-8.52-5.232c-1.94-2.413-2.94-5.506-2.94-9.357h-2c0 4.213 1.1 7.776 3.39 10.611l1.55-1.254zm-2.94-9.357c0-5.379 1.81-9.348 5.36-12.07l-1.21-1.588c-4.13 3.166-6.15 7.773-6.15 13.658h2zm5.36-12.07c3.62-2.768 8.62-4.21 15.14-4.21v-2c-6.79 0-12.28 1.502-16.35 4.622l1.21 1.588zm15.14-4.21h21.22v-2h-21.22v2zm-15.59 16.472c0 3.971 1.27 7.105 3.96 9.21 2.63 2.07 6.47 3.022 11.34 3.022v-2c-4.66 0-7.98-.92-10.11-2.594-2.08-1.639-3.19-4.121-3.19-7.638h-2zm15.3 12.232h15.27v-2h-15.27v2zm16.27-1V27.552h-2v22.656h2zm-1-23.656h-14.79v2h14.79v-2zm-14.79 0c-5.03 0-8.98.967-11.7 3.065-2.76 2.136-4.08 5.318-4.08 9.359h2c0-3.575 1.14-6.105 3.31-7.777 2.21-1.71 5.65-2.647 10.47-2.647v-2z" fill="#fff"/></svg>