<svg width="1324" height="89" fill="none" xmlns="http://www.w3.org/2000/svg"><path d="M57.872 1.8h1v-1h-1v1zm0 67.2v1h1v-1h-1zm-7.008 0h-1v1h1v-1zm0-61.056h1v-1h-1v1zm-42.528 0v-1h-1v1h1zm0 61.056v1h1v-1h-1zm-7.008 0h-1v1h1v-1zm0-67.2v-1h-1v1h1zm55.544 0V69h2V1.8h-2zm1 66.2h-7.008v2h7.008v-2zm-6.008 1V7.944h-2V69h2zm-1-62.056H8.336v2h42.528v-2zm-43.528 1V69h2V7.944h-2zm1 60.056H1.328v2h7.008v-2zm-6.008 1V1.8h-2V69h2zm-1-66.2h56.544v-2H1.328v2zm116.467 18.584l-.493.87.011.006.482-.876zm9.024 9.024l-.874.487.874-.487zm0 26.784l.873.487-.873-.487zm-9.024 9.12l.488.873.005-.003-.493-.87zm-24 .672l-.468.884.01.005.01.005.448-.894zm-8.064-7.488l.84-.543-1.84-2.843v3.386h1zm0 28.128v1h1v-1h-1zm-6.816 0h-1v1h1v-1zm0-69.12v-1h-1v1h1zm6.528 0h1v-1h-1v1zm0 9.984h-1v3.533l1.851-3.009-.851-.524zm8.064-7.68l-.467-.884-.007.003.474.881zm20.544 40.224l.485.874.008-.004.007-.004-.5-.866zm6.72-7.008l-.875-.484-.004.007-.004.007.883.47zm0-20.448l-.883.47.006.01.006.012.871-.492zm-6.72-7.008l.5-.866-.5.866zm-19.296 0l-.5-.866-.009.005.509.861zm-6.72 7.008l-.875-.484-.004.007.879.477zm0 20.448l-.883.47.004.007.004.007.875-.484zm6.72 7.008l-.509.86.011.008.012.006.486-.874zM104.93 19.12c4.576 0 8.692 1.05 12.371 3.134l.986-1.74c-4.002-2.267-8.461-3.394-13.357-3.394v2zm12.382 3.14c3.672 2.02 6.546 4.891 8.632 8.635l1.747-.974c-2.265-4.064-5.407-7.209-9.415-9.413l-.964 1.752zm8.632 8.635c2.084 3.738 3.138 8.015 3.138 12.857h2c0-5.142-1.122-9.761-3.391-13.83l-1.747.973zm3.138 12.857c0 4.908-1.055 9.217-3.138 12.953l1.747.974c2.27-4.072 3.391-8.723 3.391-13.927h-2zm-3.138 12.953c-2.088 3.746-4.965 6.653-8.643 8.737l.986 1.74c4.001-2.268 7.14-5.441 9.404-9.503l-1.747-.974zm-8.638 8.734c-3.611 2.02-7.728 3.041-12.376 3.041v2c4.952 0 9.411-1.09 13.352-3.295l-.976-1.746zM104.93 68.48c-3.957 0-7.513-.803-10.689-2.39l-.895 1.788c3.48 1.74 7.348 2.602 11.584 2.602v-2zM94.263 66.1c-3.105-1.644-5.668-4.019-7.693-7.147l-1.679 1.086c2.2 3.4 5.013 6.017 8.436 7.829l.936-1.768zm-9.532-6.604v28.128h2V59.496h-2zm1 27.128h-6.816v2h6.816v-2zm-5.816 1v-69.12h-2v69.12h2zm-1-68.12h6.528v-2h-6.528v2zm5.528-1v9.984h2v-9.984h-2zm1.851 10.508c1.96-3.183 4.52-5.618 7.687-7.323l-.948-1.762c-3.489 1.879-6.305 4.564-8.442 8.037l1.703 1.048zm7.68-7.32c3.234-1.708 6.879-2.572 10.957-2.572v-2c-4.37 0-8.341.928-11.891 2.804l.934 1.768zm10.477 42.74c3.678 0 7.047-.838 10.085-2.526l-.971-1.748c-2.721 1.512-5.752 2.274-9.114 2.274v2zm10.1-2.534c3.046-1.76 5.417-4.235 7.103-7.404l-1.766-.94c-1.514 2.847-3.624 5.044-6.338 6.612l1.001 1.732zm7.095-7.39c1.755-3.173 2.621-6.767 2.621-10.756h-2c0 3.69-.798 6.945-2.371 9.788l1.75.968zm2.621-10.756c0-3.989-.866-7.555-2.626-10.668l-1.741.984c1.568 2.775 2.367 5.993 2.367 9.684h2zm-2.613-10.646c-1.686-3.169-4.057-5.644-7.103-7.404l-1.001 1.732c2.714 1.568 4.824 3.765 6.338 6.612l1.766-.94zm-7.103-7.404c-3.041-1.757-6.415-2.63-10.1-2.63v2c3.355 0 6.381.79 9.099 2.362l1.001-1.732zm-10.1-2.63c-3.746 0-7.153.872-10.197 2.63l1.001 1.732c2.716-1.57 5.773-2.362 9.196-2.362v-2zm-10.205 2.635c-2.977 1.76-5.34 4.23-7.086 7.385l1.75.968c1.582-2.86 3.699-5.063 6.353-6.631l-1.017-1.722zm-7.09 7.392c-1.69 3.11-2.521 6.67-2.521 10.653h2c0-3.698.769-6.921 2.278-9.699l-1.757-.954zm-2.521 10.653c0 3.983.83 7.572 2.517 10.742l1.766-.94c-1.514-2.846-2.283-6.105-2.283-9.802h-2zm2.525 10.756c1.745 3.156 4.109 5.625 7.086 7.385l1.017-1.722c-2.654-1.569-4.77-3.77-6.353-6.631l-1.75.968zm7.11 7.398c3.04 1.69 6.442 2.526 10.181 2.526v-2c-3.43 0-6.492-.764-9.21-2.274l-.972 1.748zm58.137 4.31l-.497.867.01.007.487-.874zM143.191 57l-.867.498.867-.498zm0-26.496l-.867-.498.867.498zm35.52-9.12l-.487.873.487-.873zm9.12 9.12l-.873.487.006.01.867-.497zm0 26.496l-.867-.498-.006.011.873.487zm-9.12 9.216l.487.874.011-.007-.498-.867zm-3.552-5.184l.494.87.007-.004-.501-.866zm6.72-7.008l.883.47-.883-.47zm0-20.544l.883-.47-.883.47zm-6.72-6.912l-.508.86.011.008.012.006.485-.874zm-19.296 0l.494.87.007-.004-.501-.866zm-6.72 6.912l-.875-.484-.004.007-.004.007.883.47zm0 20.544l-.883.47.004.007.004.007.875-.484zm6.72 7.008l-.508.86.011.008.012.006.485-.874zm9.696 7.448c-4.709 0-8.923-1.052-12.665-3.138l-.974 1.748c4.066 2.266 8.62 3.39 13.639 3.39v-2zm-12.654-3.131c-3.75-2.152-6.695-5.097-8.846-8.847l-1.735.996c2.328 4.058 5.528 7.257 9.586 9.585l.995-1.734zm-8.846-8.847c-2.145-3.738-3.228-7.98-3.228-12.75h-2c0 5.086 1.158 9.676 3.493 13.746l1.735-.996zm-3.228-12.75c0-4.77 1.083-9.012 3.228-12.75l-1.735-.996c-2.335 4.07-3.493 8.66-3.493 13.746h2zm3.228-12.75c2.15-3.748 5.091-6.658 8.835-8.744l-.974-1.747c-4.063 2.265-7.266 5.435-9.596 9.495l1.735.996zm8.835-8.744c3.742-2.086 7.956-3.138 12.665-3.138v-2c-5.019 0-9.573 1.124-13.639 3.39l.974 1.747zm12.665-3.138c4.709 0 8.923 1.052 12.665 3.137l.974-1.747c-4.066-2.266-8.62-3.39-13.639-3.39v2zm12.665 3.137c3.742 2.086 6.648 4.992 8.734 8.734l1.747-.974c-2.267-4.066-5.441-7.24-9.507-9.506l-.974 1.747zm8.74 8.745c2.145 3.738 3.227 7.98 3.227 12.75h2c0-5.086-1.157-9.676-3.492-13.746l-1.735.996zm3.227 12.75c0 4.77-1.082 9.012-3.227 12.75l1.735.996c2.335-4.07 3.492-8.66 3.492-13.746h-2zm-3.233 12.761c-2.087 3.744-4.997 6.685-8.744 8.836l.995 1.734c4.06-2.33 7.231-5.532 9.496-9.596l-1.747-.974zm-8.734 8.83c-3.742 2.085-7.956 3.137-12.665 3.137v2c5.019 0 9.573-1.124 13.639-3.39l-.974-1.748zm-12.665-.911c3.739 0 7.112-.836 10.094-2.53l-.988-1.74c-2.65 1.506-5.676 2.27-9.106 2.27v2zm10.101-2.534c3.046-1.76 5.416-4.235 7.102-7.404l-1.766-.94c-1.514 2.847-3.623 5.044-6.337 6.612l1.001 1.732zm7.102-7.404c1.686-3.17 2.517-6.76 2.517-10.742h-2c0 3.697-.769 6.956-2.283 9.802l1.766.94zm2.517-10.742c0-3.983-.831-7.572-2.517-10.742l-1.766.94c1.514 2.845 2.283 6.105 2.283 9.802h2zm-2.517-10.742c-1.687-3.172-4.062-5.62-7.117-7.316l-.971 1.748c2.705 1.503 4.81 3.664 6.322 6.508l1.766-.94zm-7.094-7.303c-2.985-1.764-6.363-2.635-10.109-2.635v2c3.423 0 6.444.793 9.092 2.357l1.017-1.722zm-10.109-2.635c-3.745 0-7.152.872-10.196 2.63l1.001 1.732c2.716-1.57 5.773-2.362 9.195-2.362v-2zm-10.19 2.627c-2.986 1.696-5.353 4.138-7.101 7.297l1.75.968c1.581-2.857 3.693-5.023 6.339-6.526l-.988-1.74zm-7.109 7.311c-1.686 3.17-2.517 6.76-2.517 10.742h2c0-3.697.769-6.957 2.283-9.802l-1.766-.94zm-2.517 10.742c0 3.983.831 7.572 2.517 10.742l1.766-.94c-1.514-2.846-2.283-6.105-2.283-9.802h-2zm2.525 10.756c1.746 3.156 4.109 5.625 7.087 7.385l1.017-1.722c-2.655-1.569-4.771-3.77-6.354-6.631l-1.75.968zm7.11 7.398c3.041 1.69 6.443 2.526 10.181 2.526v-2c-3.429 0-6.492-.764-9.21-2.274l-.971 1.748zm120.076-43.402h1v-1h-1v1zm0 50.496v1h1v-1h-1zm-69.696 0h-1v1h1v-1zm0-50.496v-1h-1v1h1zm6.816 0h1v-1h-1v1zm0 44.544h-1v1h1v-1zm24.768 0v1h1v-1h-1zm0-44.544v-1h-1v1h1zm6.817 0h1v-1h-1v1zm0 44.544h-1v1h1v-1zm24.479 0v1h1v-1h-1zm0-44.544v-1h-1v1h1zm5.816 0V69h2V18.504h-2zm1 49.496h-69.696v2h69.696v-2zm-68.696 1V18.504h-2V69h2zm-1-49.496h6.816v-2h-6.816v2zm5.816-1v44.544h2V18.504h-2zm1 45.544h24.768v-2h-24.768v2zm25.768-1V18.504h-2v44.544h2zm-1-43.544h6.817v-2h-6.817v2zm5.817-1v44.544h2V18.504h-2zm1 45.544h24.479v-2h-24.479v2zm25.479-1V18.504h-2v44.544h2zm-1-43.544h6.816v-2h-6.816v2zm70.437 26.36v1h.955l.044-.955-.999-.045zm-42.24 0v-1h-1.076l.078 1.073.998-.073zm6.048 12.768l-.667.745.007.007.66-.752zm22.464 3.168l.383.924.009-.004.01-.004-.402-.916zm6.816-4.992l.754-.656-.749-.862-.755.856.75.662zm3.84 4.416l.768.64.545-.654-.559-.642-.754.656zm-8.448 6.144l-.384-.924-.006.003.39.921zm-24.864-1.152l-.492.87.008.005.009.005.475-.88zM293.379 57l-.868.498.868-.498zm-.192-26.496l-.874-.487-.006.011.88.476zm8.832-9.12l-.5-.867-.006.004.506.863zm33.984 9.12l-.88.476.004.006.876-.482zm3.168 13.248l.999.045.001-.022v-.023h-1zM302.403 28.68l.685.728h.001l-.686-.728zm-5.568 12.096l-.996-.09-.098 1.09h1.094v-1zm35.808 0v1h1.094l-.098-1.09-.996.09zm-5.664-12.096l-.693.721.007.007.007.007.679-.735zm12.096 16.184h-42.24v2h42.24v-2zm-43.238 1.073c.402 5.485 2.522 9.99 6.379 13.44l1.334-1.49c-3.44-3.078-5.351-7.085-5.718-12.096l-1.995.146zm6.386 13.447c3.857 3.383 8.711 5.048 14.484 5.048v-2c-5.364 0-9.726-1.535-13.165-4.552l-1.319 1.504zm14.484 5.048c3.253 0 6.265-.565 9.023-1.708l-.766-1.848c-2.491 1.033-5.239 1.556-8.257 1.556v2zm9.042-1.716a20.387 20.387 0 007.164-5.246l-1.5-1.324a18.39 18.39 0 01-6.468 4.738l.804 1.832zm5.659-5.252l3.84 4.416 1.509-1.312-3.84-4.416-1.509 1.312zm3.827 3.12c-2.132 2.557-4.813 4.511-8.064 5.86l.767 1.848c3.534-1.467 6.484-3.61 8.833-6.428l-1.536-1.28zm-8.07 5.863c-3.191 1.35-6.737 2.033-10.65 2.033v2c4.15 0 7.965-.725 11.429-2.191l-.779-1.842zm-10.65 2.033c-5.041 0-9.481-1.057-13.349-3.144l-.95 1.76c4.196 2.265 8.971 3.384 14.299 3.384v-2zm-13.333-3.135c-3.813-2.153-6.786-5.097-8.936-8.843l-1.735.996c2.331 4.062 5.566 7.262 9.688 9.589l.983-1.742zm-8.936-8.843c-2.145-3.738-3.227-7.98-3.227-12.75h-2c0 5.086 1.157 9.676 3.492 13.746l1.735-.996zm-3.227-12.75c0-4.78 1.023-9.03 3.047-12.772l-1.759-.952c-2.199 4.066-3.288 8.648-3.288 13.724h2zm3.041-12.761c2.093-3.755 4.913-6.662 8.464-8.744l-1.011-1.726c-3.872 2.27-6.94 5.443-9.2 9.496l1.747.974zm8.458-8.74c3.613-2.083 7.663-3.131 12.173-3.131v-2c-4.834 0-9.233 1.128-13.172 3.398l.999 1.732zm12.173-3.131c4.51 0 8.524 1.048 12.07 3.127l1.011-1.726c-3.878-2.273-8.247-3.401-13.081-3.401v2zm12.07 3.127c3.549 2.08 6.334 4.984 8.362 8.733l1.759-.952c-2.196-4.06-5.235-7.235-9.11-9.507l-1.011 1.726zm8.366 8.739c2.02 3.673 3.044 7.919 3.044 12.766h2c0-5.137-1.088-9.723-3.292-13.73l-1.752.964zm3.045 12.72l-.096 2.113 1.998.09.096-2.112-1.998-.09zm-23.481-20.73c-5.101 0-9.448 1.654-12.974 4.976l1.372 1.456c3.129-2.95 6.975-4.432 11.602-4.432v-2zm-12.974 4.976c-3.463 3.26-5.411 7.53-5.878 12.735l1.992.178c.429-4.779 2.193-8.573 5.257-11.457l-1.371-1.456zm-4.882 13.824h35.808v-2h-35.808v2zm36.804-1.09c-.468-5.21-2.452-9.482-5.982-12.74l-1.357 1.469c3.126 2.885 4.918 6.677 5.347 11.45l1.992-.178zm-5.967-12.727c-3.468-3.332-7.82-4.983-12.981-4.983v2c4.695 0 8.535 1.485 11.595 4.425l1.386-1.442zm74.803 35.089h1v-1h-1v1zm0 18.144v1h1v-1h-1zm-6.432 0h-1v1h1v-1zm0-12.192h1v-1h-1v1zm-45.216 0v-1h-1v1h1zm0 12.192v1h1v-1h-1zm-6.432 0h-1v1h1v-1zm0-18.144v-1h-1v1h1zm2.88 0v1h.029l.028-.002-.057-.998zm6.912-7.488l.97.246-.97-.246zm2.496-20.16l.999.052v-.012l-.999-.04zm.672-16.896v-1h-.961l-.038.96.999.04zm37.248 0h1v-1h-1v1zm0 44.544h-1v1h1v-1zm-31.68-27.264l-.998-.051-.001.006.999.045zm-1.824 17.76l.982.19v-.002l-.982-.188zm-4.8 9.504l-.6-.8-2.4 1.8h3v-1zm31.488 0v1h1v-1h-1zm0-38.496h1v-1h-1v1zm-24.288 0v-1h-.95l-.048.949.998.051zm37.976 38.496v18.144h2V63.048h-2zm1 17.144h-6.432v2h6.432v-2zm-5.432 1V69h-2v12.192h2zm-1-13.192h-45.216v2h45.216v-2zm-46.216 1v12.192h2V69h-2zm1 11.192h-6.432v2h6.432v-2zm-5.432 1V63.048h-2v18.144h2zm-1-17.144h2.88v-2h-2.88v2zm2.937-.002c1.955-.11 3.622-.897 4.95-2.336 1.305-1.413 2.243-3.412 2.875-5.904l-1.939-.492c-.585 2.308-1.407 3.958-2.406 5.04-.976 1.057-2.156 1.614-3.593 1.696l.113 1.996zm7.825-8.24c1.239-4.894 2.076-11.69 2.525-20.354l-1.997-.104c-.447 8.616-1.275 15.26-2.467 19.966l1.939.492zm2.525-20.366l.672-16.896-1.998-.08-.672 16.896 1.998.08zm-.327-15.936h37.248v-2h-37.248v2zm36.248-1v44.544h2V18.504h-2zm1 45.544h7.872v-2h-7.872v2zm-32.679-28.309c-.319 7.142-.923 13.01-1.807 17.617l1.964.376c.909-4.736 1.52-10.709 1.841-17.903l-1.998-.09zm-1.806 17.614c-.877 4.509-2.406 7.385-4.419 8.895l1.2 1.6c2.595-1.946 4.267-5.406 5.182-10.113l-1.963-.382zm-3.819 10.695h31.488v-2h-31.488v2zm32.488-1V24.552h-2v38.496h2zm-1-39.496h-24.288v2h24.288v-2zm-25.286.949l-.576 11.232 1.997.102.576-11.232-1.997-.102zm122.953-5.997h1v-1h-1v1zm0 50.496v1h1v-1h-1zm-69.695 0h-1v1h1v-1zm0-50.496v-1h-1v1h1zm6.815 0h1v-1h-1v1zm0 44.544h-1v1h1v-1zm24.768 0v1h1v-1h-1zm0-44.544v-1h-1v1h1zm6.817 0h1v-1h-1v1zm0 44.544h-1v1h1v-1zm24.479 0v1h1v-1h-1zm0-44.544v-1h-1v1h1zm5.816 0V69h2V18.504h-2zm1 49.496h-69.695v2h69.695v-2zm-68.695 1V18.504h-2V69h2zm-1-49.496h6.815v-2h-6.815v2zm5.815-1v44.544h2V18.504h-2zm1 45.544h24.768v-2h-24.768v2zm25.768-1V18.504h-2v44.544h2zm-1-43.544h6.817v-2h-6.817v2zm5.817-1v44.544h2V18.504h-2zm1 45.544h24.479v-2h-24.479v2zm25.479-1V18.504h-2v44.544h2zm-1-43.544h6.816v-2h-6.816v2zm26.277-1v-1h-1v1h1zm6.816 0h1v-1h-1v1zm0 40.128h-1v2.746l1.766-2.103-.766-.643zm33.696-40.128v-1h-.466l-.3.357.766.643zm6.048 0h1v-1h-1v1zm0 50.496v1h1v-1h-1zm-6.816 0h-1v1h1v-1zm0-40.128h1V26.12l-1.767 2.11.767.642zM511.059 69v1h.467l.299-.358-.766-.642zm-6.144 0h-1v1h1v-1zm0-49.496h6.816v-2h-6.816v2zm5.816-1v40.128h2V18.504h-2zm1.766 40.771l33.696-40.128-1.532-1.286-33.696 40.128 1.532 1.286zm32.93-39.771h6.048v-2h-6.048v2zm5.048-1V69h2V18.504h-2zm1 49.496h-6.816v2h6.816v-2zm-5.816 1V28.872h-2V69h2zm-1.767-40.77l-33.6 40.128 1.533 1.284 33.6-40.128-1.533-1.284zM511.059 68h-6.144v2h6.144v-2zm-5.144 1V18.504h-2V69h2zm109.254-23.136v1h.955l.043-.955-.998-.045zm-42.24 0v-1h-1.076l.078 1.073.998-.073zm6.048 12.768l-.667.745.007.007.66-.752zM601.44 61.8l.383.924.01-.004.009-.004-.402-.916zm6.817-4.992l.754-.656-.749-.862-.755.856.75.662zm3.839 4.416l.769.64.545-.654-.559-.642-.755.656zm-8.448 6.144l-.383-.924-.006.003.389.921zm-24.864-1.152l-.491.87.008.005.009.005.474-.88zM569.472 57l-.867.498.867-.498zm-.191-26.496l-.874-.487-.006.011.88.476zm8.831-9.12l-.499-.867-.006.004.505.863zm33.984 9.12l-.879.476.003.006.876-.482zm3.169 13.248l.998.045.002-.022v-.023h-1zM578.497 28.68l.685.728-.685-.728zm-5.568 12.096l-.997-.09-.097 1.09h1.094v-1zm35.808 0v1h1.093l-.098-1.09-.995.09zm-5.664-12.096l-.693.721.007.007.007.007.679-.735zm12.096 16.184h-42.24v2h42.24v-2zm-43.238 1.073c.402 5.485 2.522 9.99 6.379 13.44l1.333-1.49c-3.439-3.078-5.351-7.085-5.717-12.096l-1.995.146zm6.386 13.447c3.857 3.383 8.711 5.048 14.483 5.048v-2c-5.363 0-9.725-1.535-13.164-4.552l-1.319 1.504zm14.483 5.048c3.254 0 6.266-.565 9.023-1.708l-.766-1.848c-2.49 1.033-5.238 1.556-8.257 1.556v2zm9.042-1.716a20.387 20.387 0 007.164-5.246l-1.499-1.324a18.39 18.39 0 01-6.468 4.738l.803 1.832zm5.66-5.252l3.84 4.416 1.509-1.312-3.84-4.416-1.509 1.312zm3.826 3.12c-2.131 2.557-4.813 4.511-8.063 5.86l.767 1.848c3.534-1.467 6.484-3.61 8.833-6.428l-1.537-1.28zm-8.069 5.863c-3.191 1.35-6.737 2.033-10.65 2.033v2c4.15 0 7.964-.725 11.429-2.191l-.779-1.842zm-10.65 2.033c-5.041 0-9.482-1.057-13.35-3.144l-.949 1.76c4.196 2.265 8.971 3.384 14.299 3.384v-2zm-13.333-3.135c-3.813-2.153-6.787-5.097-8.936-8.843l-1.735.996c2.331 4.062 5.565 7.262 9.688 9.589l.983-1.742zm-8.936-8.843c-2.145-3.738-3.228-7.98-3.228-12.75h-2c0 5.086 1.158 9.676 3.493 13.746l1.735-.996zm-3.228-12.75c0-4.78 1.024-9.03 3.048-12.772l-1.759-.952c-2.2 4.066-3.289 8.648-3.289 13.724h2zm3.042-12.761c2.093-3.755 4.912-6.662 8.464-8.744l-1.011-1.726c-3.872 2.27-6.941 5.443-9.2 9.496l1.747.974zm8.458-8.74c3.613-2.083 7.663-3.131 12.172-3.131v-2c-4.834 0-9.232 1.128-13.171 3.398l.999 1.732zm12.172-3.131c4.51 0 8.525 1.048 12.071 3.127l1.011-1.726c-3.878-2.273-8.247-3.401-13.082-3.401v2zm12.071 3.127c3.549 2.08 6.334 4.984 8.362 8.733l1.759-.952c-2.196-4.06-5.235-7.235-9.11-9.507l-1.011 1.726zm8.365 8.739c2.02 3.673 3.045 7.919 3.045 12.766h2c0-5.137-1.088-9.723-3.292-13.73l-1.753.964zm3.046 12.72l-.096 2.113 1.997.09.096-2.112-1.997-.09zm-23.482-20.73c-5.101 0-9.447 1.654-12.973 4.976l1.371 1.456c3.13-2.95 6.976-4.432 11.602-4.432v-2zm-12.973 4.976c-3.464 3.26-5.411 7.53-5.879 12.735l1.992.178c.429-4.779 2.193-8.573 5.258-11.457l-1.371-1.456zm-4.882 13.824h35.808v-2h-35.808v2zm36.803-1.09c-.467-5.21-2.451-9.482-5.981-12.74l-1.357 1.469c3.126 2.885 4.918 6.677 5.346 11.45l1.992-.178zm-5.967-12.727c-3.467-3.332-7.819-4.983-12.981-4.983v2c4.695 0 8.535 1.485 11.596 4.425l1.385-1.442zm108.16-9.455h1v-1h-1v1zm0 50.496v1h1v-1h-1zm-6.24 0h-1v1h1v-1zm0-39.936h1V25.48l-1.855 3.066.855.518zm-20.448 33.792v1h.564l.292-.482-.856-.518zm-3.072 0l-.856.517.292.483h.564v-1zm-20.448-33.888l.856-.517-1.856-3.076v3.593h1zm0 40.032v1h1v-1h-1zm-6.24 0h-1v1h1v-1zm0-50.496v-1h-1v1h1zm6.912 0l.862-.507-.29-.493h-.572v1zm21.408 36.384l-.862.507.855 1.452.865-1.445-.858-.514zm21.792-36.384v-1h-.566l-.292.486.858.514zm5.336 0V69h2V18.504h-2zm1 49.496h-6.24v2h6.24v-2zm-5.24 1V29.064h-2V69h2zm-1.855-40.454l-20.448 33.792 1.711 1.036 20.448-33.792-1.711-1.036zm-19.593 33.31h-3.072v2h3.072v-2zm-2.216.483l-20.448-33.888-1.712 1.034 20.448 33.888 1.712-1.034zm-22.304-33.371V69h2V28.968h-2zm1 39.032h-6.24v2h6.24v-2zm-5.24 1V18.504h-2V69h2zm-1-49.496h6.912v-2h-6.912v2zm6.05-.493l21.408 36.384 1.724-1.014-21.408-36.384-1.724 1.014zm23.128 36.39l21.792-36.383-1.716-1.028-21.792 36.384 1.716 1.028zm20.934-35.897h6.336v-2h-6.336v2zm69.892 26.36v1h.956l.043-.955-.999-.045zm-42.24 0v-1h-1.076l.079 1.073.997-.073zm6.048 12.768l-.667.745.008.007.659-.752zm22.464 3.168l.383.924.01-.004.009-.004-.402-.916zm6.816-4.992l.755-.656-.75-.862-.755.856.75.662zm3.84 4.416l.768.64.545-.654-.558-.642-.755.656zm-8.448 6.144l-.383-.924-.007.003.39.921zm-24.864-1.152l-.492.87.009.005.008.005.475-.88zM729.785 57l-.867.498.867-.498zm-.192-26.496l-.874-.487-.006.011.88.476zm8.832-9.12l-.499-.867-.007.004.506.863zm33.984 9.12l-.88.476.004.006.876-.482zm3.168 13.248l.999.045.001-.022v-.023h-1zM738.809 28.68l.685.728h.001l-.686-.728zm-5.568 12.096l-.996-.09-.098 1.09h1.094v-1zm35.808 0v1h1.094l-.098-1.09-.996.09zm-5.664-12.096l-.693.721.007.007.008.007.678-.735zm12.096 16.184h-42.24v2h42.24v-2zm-43.237 1.073c.401 5.485 2.522 9.99 6.378 13.44l1.334-1.49c-3.44-3.078-5.351-7.085-5.718-12.096l-1.994.146zm6.386 13.447c3.857 3.383 8.71 5.048 14.483 5.048v-2c-5.363 0-9.726-1.535-13.165-4.552l-1.318 1.504zm14.483 5.048c3.254 0 6.266-.565 9.023-1.708l-.766-1.848c-2.491 1.033-5.239 1.556-8.257 1.556v2zm9.042-1.716a20.387 20.387 0 007.164-5.246l-1.5-1.324a18.39 18.39 0 01-6.468 4.738l.804 1.832zm5.659-5.252l3.84 4.416 1.51-1.312-3.84-4.416-1.51 1.312zm3.827 3.12c-2.132 2.557-4.813 4.511-8.063 5.86l.766 1.848c3.534-1.467 6.485-3.61 8.833-6.428l-1.536-1.28zm-8.07 5.863c-3.191 1.35-6.736 2.033-10.65 2.033v2c4.15 0 7.965-.725 11.43-2.191l-.78-1.842zm-10.65 2.033c-5.04 0-9.481-1.057-13.349-3.144l-.95 1.76c4.196 2.265 8.971 3.384 14.299 3.384v-2zm-13.332-3.135c-3.814-2.153-6.787-5.097-8.937-8.843l-1.734.996c2.33 4.062 5.565 7.262 9.687 9.589l.984-1.742zm-8.937-8.843c-2.145-3.738-3.227-7.98-3.227-12.75h-2c0 5.086 1.158 9.676 3.493 13.746l1.734-.996zm-3.227-12.75c0-4.78 1.023-9.03 3.048-12.772l-1.76-.952c-2.199 4.066-3.288 8.648-3.288 13.724h2zm3.041-12.761c2.093-3.755 4.913-6.662 8.465-8.744l-1.012-1.726c-3.872 2.27-6.94 5.443-9.199 9.496l1.746.974zm8.458-8.74c3.614-2.083 7.663-3.131 12.173-3.131v-2c-4.834 0-9.232 1.128-13.171 3.398l.998 1.732zm12.173-3.131c4.51 0 8.525 1.048 12.07 3.127l1.012-1.726c-3.879-2.273-8.248-3.401-13.082-3.401v2zm12.07 3.127c3.55 2.08 6.335 4.984 8.362 8.733l1.76-.952c-2.196-4.06-5.236-7.235-9.11-9.507l-1.012 1.726zm8.366 8.739c2.02 3.673 3.044 7.919 3.044 12.766h2c0-5.137-1.088-9.723-3.292-13.73l-1.752.964zm3.045 12.72l-.096 2.113 1.998.09.096-2.112-1.998-.09zm-23.481-20.73c-5.101 0-9.448 1.654-12.974 4.976l1.372 1.456c3.13-2.95 6.975-4.432 11.602-4.432v-2zm-12.973 4.976c-3.464 3.26-5.412 7.53-5.879 12.735l1.992.178c.429-4.779 2.193-8.573 5.257-11.457l-1.37-1.456zm-4.883 13.824h35.808v-2h-35.808v2zm36.804-1.09c-.468-5.21-2.451-9.482-5.982-12.74l-1.356 1.469c3.125 2.885 4.918 6.677 5.346 11.45l1.992-.178zm-5.967-12.727c-3.468-3.332-7.82-4.983-12.981-4.983v2c4.695 0 8.535 1.485 11.595 4.425l1.386-1.442zm65.467-6.575l-.493.87.011.006.482-.876zm9.024 9.024l-.874.487.874-.487zm0 26.784l.873.487-.873-.487zm-9.024 9.12l.488.873.005-.003-.493-.87zm-24 .672l-.468.884.01.005.011.005.447-.894zm-8.064-7.488l.839-.543-1.839-2.843v3.386h1zm0 28.128v1h1v-1h-1zm-6.816 0h-1v1h1v-1zm0-69.12v-1h-1v1h1zm6.528 0h1v-1h-1v1zm0 9.984h-1v3.533l1.851-3.009-.851-.524zm8.064-7.68l-.467-.884-.007.003.474.881zm20.544 40.224l.485.874.008-.004.007-.004-.5-.866zm6.72-7.008l-.875-.484-.004.007-.004.007.883.47zm0-20.448l-.883.47.006.01.006.012.871-.492zm-6.72-7.008l.5-.866-.5.866zm-19.296 0l-.501-.866-.008.005.509.861zm-6.72 7.008l-.875-.484-.004.007.879.477zm0 20.448l-.883.47.004.007.004.007.875-.484zm6.72 7.008l-.509.86.011.008.012.006.486-.874zm10.176-41.912c4.576 0 8.692 1.05 12.371 3.134l.986-1.74c-4.002-2.267-8.461-3.394-13.357-3.394v2zm12.382 3.14c3.672 2.02 6.546 4.891 8.632 8.635l1.747-.974c-2.265-4.064-5.407-7.209-9.415-9.413l-.964 1.752zm8.632 8.635c2.084 3.738 3.138 8.015 3.138 12.857h2c0-5.142-1.122-9.761-3.391-13.83l-1.747.973zm3.138 12.857c0 4.908-1.055 9.217-3.138 12.953l1.747.974c2.27-4.072 3.391-8.723 3.391-13.927h-2zm-3.138 12.953c-2.088 3.746-4.965 6.653-8.643 8.737l.986 1.74c4.001-2.268 7.14-5.441 9.404-9.503l-1.747-.974zm-8.638 8.734c-3.611 2.02-7.728 3.041-12.376 3.041v2c4.952 0 9.411-1.09 13.352-3.295l-.976-1.746zm-12.376 3.041c-3.957 0-7.513-.803-10.689-2.39l-.894 1.788c3.48 1.74 7.347 2.602 11.583 2.602v-2zm-10.668-2.38c-3.105-1.644-5.668-4.019-7.693-7.147l-1.679 1.086c2.2 3.4 5.013 6.017 8.436 7.829l.936-1.768zm-9.532-6.604v28.128h2V59.496h-2zm1 27.128h-6.816v2h6.816v-2zm-5.816 1v-69.12h-2v69.12h2zm-1-68.12h6.528v-2h-6.528v2zm5.528-1v9.984h2v-9.984h-2zm1.851 10.508c1.959-3.183 4.519-5.618 7.687-7.323l-.948-1.762c-3.489 1.879-6.305 4.564-8.442 8.037l1.703 1.048zm7.68-7.32c3.234-1.708 6.879-2.572 10.957-2.572v-2c-4.37 0-8.341.928-11.891 2.804l.934 1.768zm10.477 42.74c3.678 0 7.047-.838 10.085-2.526l-.971-1.748c-2.721 1.512-5.752 2.274-9.114 2.274v2zm10.1-2.534c3.046-1.76 5.417-4.235 7.103-7.404l-1.766-.94c-1.514 2.847-3.624 5.044-6.338 6.612l1.001 1.732zm7.095-7.39c1.755-3.173 2.621-6.767 2.621-10.756h-2c0 3.69-.798 6.945-2.371 9.788l1.75.968zm2.621-10.756c0-3.989-.866-7.555-2.626-10.668l-1.741.984c1.568 2.775 2.367 5.993 2.367 9.684h2zm-2.613-10.646c-1.686-3.169-4.057-5.644-7.103-7.404l-1.001 1.732c2.714 1.568 4.824 3.765 6.338 6.612l1.766-.94zm-7.103-7.404c-3.041-1.757-6.415-2.63-10.1-2.63v2c3.355 0 6.38.79 9.099 2.362l1.001-1.732zm-10.1-2.63c-3.746 0-7.153.872-10.197 2.63l1.001 1.732c2.716-1.57 5.773-2.362 9.196-2.362v-2zm-10.205 2.635c-2.977 1.76-5.341 4.23-7.086 7.385l1.75.968c1.582-2.86 3.699-5.063 6.353-6.631l-1.017-1.722zm-7.09 7.392c-1.69 3.11-2.521 6.67-2.521 10.653h2c0-3.698.769-6.921 2.278-9.699l-1.757-.954zm-2.521 10.653c0 3.983.831 7.572 2.517 10.742l1.766-.94c-1.514-2.846-2.283-6.105-2.283-9.802h-2zm2.525 10.756c1.745 3.156 4.109 5.625 7.086 7.385l1.017-1.722c-2.654-1.569-4.771-3.77-6.353-6.631l-1.75.968zm7.109 7.398c3.041 1.69 6.443 2.526 10.182 2.526v-2c-3.43 0-6.492-.764-9.211-2.274l-.971 1.748zm58.138 4.31l-.497.867.01.007.487-.874zM854.941 57l-.867.498.867-.498zm0-26.496l-.867-.498.867.498zm35.52-9.12l-.487.873.487-.873zm9.12 9.12l-.873.487.006.01.867-.497zm0 26.496l-.867-.498-.006.011.873.487zm-9.12 9.216l.487.874.011-.007-.498-.867zm-3.552-5.184l.494.87.007-.004-.501-.866zm6.72-7.008l.883.47-.883-.47zm0-20.544l.883-.47-.883.47zm-6.72-6.912l-.508.86.011.008.012.006.485-.874zm-19.296 0l.494.87.007-.004-.501-.866zm-6.72 6.912l-.875-.484-.004.007-.004.007.883.47zm0 20.544l-.883.47.004.007.004.007.875-.484zm6.72 7.008l-.509.86.012.008.012.006.485-.874zm9.696 7.448c-4.709 0-8.923-1.052-12.665-3.138l-.974 1.748c4.066 2.266 8.62 3.39 13.639 3.39v-2zm-12.654-3.131c-3.75-2.152-6.695-5.097-8.846-8.847l-1.735.996c2.328 4.058 5.528 7.257 9.586 9.585l.995-1.734zm-8.846-8.847c-2.145-3.738-3.228-7.98-3.228-12.75h-2c0 5.086 1.158 9.676 3.493 13.746l1.735-.996zm-3.228-12.75c0-4.77 1.083-9.012 3.228-12.75l-1.735-.996c-2.335 4.07-3.493 8.66-3.493 13.746h2zm3.228-12.75c2.15-3.748 5.091-6.658 8.835-8.744l-.974-1.747c-4.063 2.265-7.266 5.435-9.596 9.495l1.735.996zm8.835-8.744c3.742-2.086 7.956-3.138 12.665-3.138v-2c-5.019 0-9.573 1.124-13.639 3.39l.974 1.747zm12.665-3.138c4.709 0 8.923 1.052 12.665 3.137l.974-1.747c-4.066-2.266-8.62-3.39-13.639-3.39v2zm12.665 3.137c3.742 2.086 6.648 4.992 8.734 8.734l1.747-.974c-2.267-4.066-5.441-7.24-9.507-9.506l-.974 1.747zm8.74 8.745c2.145 3.738 3.227 7.98 3.227 12.75h2c0-5.086-1.157-9.676-3.492-13.746l-1.735.996zm3.227 12.75c0 4.77-1.082 9.012-3.227 12.75l1.735.996c2.335-4.07 3.492-8.66 3.492-13.746h-2zm-3.233 12.761c-2.087 3.744-4.997 6.685-8.744 8.836l.995 1.734c4.06-2.33 7.231-5.532 9.496-9.596l-1.747-.974zm-8.734 8.83c-3.742 2.085-7.956 3.137-12.665 3.137v2c5.019 0 9.573-1.124 13.639-3.39l-.974-1.748zm-12.665-.911c3.739 0 7.112-.836 10.094-2.53l-.988-1.74c-2.65 1.506-5.676 2.27-9.106 2.27v2zm10.101-2.534c3.046-1.76 5.416-4.235 7.102-7.404l-1.766-.94c-1.514 2.847-3.623 5.044-6.337 6.612l1.001 1.732zm7.102-7.404c1.686-3.17 2.517-6.76 2.517-10.742h-2c0 3.697-.769 6.956-2.283 9.802l1.766.94zm2.517-10.742c0-3.983-.831-7.572-2.517-10.742l-1.766.94c1.514 2.845 2.283 6.105 2.283 9.802h2zm-2.517-10.742c-1.687-3.172-4.062-5.62-7.117-7.316l-.971 1.748c2.705 1.503 4.81 3.664 6.322 6.508l1.766-.94zm-7.094-7.303c-2.985-1.764-6.363-2.635-10.109-2.635v2c3.423 0 6.444.793 9.092 2.357l1.017-1.722zm-10.109-2.635c-3.745 0-7.152.872-10.196 2.63l1.001 1.732c2.716-1.57 5.773-2.362 9.195-2.362v-2zm-10.19 2.627c-2.986 1.696-5.353 4.138-7.101 7.297l1.75.968c1.581-2.857 3.693-5.023 6.339-6.526l-.988-1.74zm-7.109 7.311c-1.686 3.17-2.517 6.76-2.517 10.742h2c0-3.697.769-6.957 2.283-9.802l-1.766-.94zm-2.517 10.742c0 3.983.831 7.572 2.517 10.742l1.766-.94c-1.514-2.846-2.283-6.105-2.283-9.802h-2zm2.525 10.756c1.746 3.156 4.109 5.625 7.086 7.385l1.018-1.722c-2.655-1.569-4.771-3.77-6.354-6.631l-1.75.968zm7.11 7.398c3.041 1.69 6.443 2.526 10.181 2.526v-2c-3.429 0-6.491-.764-9.21-2.274l-.971 1.748zm95.692-43.402h1v-1h-1v1zm0 50.496v1h1v-1h-1zm-6.815 0h-1v1h1v-1zm0-44.448h1v-1h-1v1zm-31.68 0v-1h-1v1h1zm0 44.448v1h1v-1h-1zm-6.817 0h-1v1h1v-1zm0-50.496v-1h-1v1h1zm44.312 0V69h2V18.504h-2zm1 49.496h-6.815v2h6.815v-2zm-5.815 1V24.552h-2V69h2zm-1-45.448h-31.68v2h31.68v-2zm-32.68 1V69h2V24.552h-2zm1 43.448h-6.817v2h6.817v-2zm-5.817 1V18.504h-2V69h2zm-1-49.496h45.312v-2h-45.312v2zm103.572 1.88l-.5.87.01.006.49-.876zm9.02 9.024l-.87.487.87-.487zm0 26.784l.87.487-.87-.487zm-9.02 9.12l.48.873.01-.003-.49-.87zm-24.004.672l-.468.884.01.005.011.005.447-.894zm-8.064-7.488l.84-.543-1.84-2.843v3.386h1zm0 28.128v1h1v-1h-1zm-6.816 0h-1v1h1v-1zm0-69.12v-1h-1v1h1zm6.528 0h1v-1h-1v1zm0 9.984h-1v3.533l1.852-3.009-.852-.524zm8.064-7.68l-.467-.884-.007.003.474.881zm20.542 40.224l.49.874v-.004l.01-.004-.5-.866zm6.72-7.008l-.87-.484-.01.007v.007l.88.47zm0-20.448l-.88.47.01.01v.012l.87-.492zm-6.72-7.008l.5-.866-.5.866zm-19.294 0l-.5-.866-.009.005.509.861zm-6.72 7.008l-.875-.484-.004.007.879.477zm0 20.448l-.883.47.004.007.004.007.875-.484zm6.72 7.008l-.509.86.012.008.011.006.486-.874zm10.174-41.912c4.58 0 8.69 1.05 12.37 3.134l.99-1.74c-4-2.267-8.46-3.394-13.36-3.394v2zm12.38 3.14c3.68 2.02 6.55 4.891 8.64 8.635l1.74-.974c-2.26-4.064-5.4-7.209-9.41-9.413l-.97 1.752zm8.64 8.635c2.08 3.738 3.13 8.015 3.13 12.857h2c0-5.142-1.12-9.761-3.39-13.83l-1.74.973zm3.13 12.857c0 4.908-1.05 9.217-3.13 12.953l1.74.974c2.27-4.072 3.39-8.723 3.39-13.927h-2zm-3.13 12.953c-2.09 3.746-4.97 6.653-8.65 8.737l.99 1.74c4-2.268 7.14-5.441 9.4-9.503l-1.74-.974zm-8.64 8.734c-3.61 2.02-7.73 3.041-12.38 3.041v2c4.95 0 9.41-1.09 13.35-3.295l-.97-1.746zm-12.38 3.041c-3.95 0-7.51-.803-10.687-2.39l-.894 1.788c3.481 1.74 7.351 2.602 11.581 2.602v-2zm-10.666-2.38c-3.105-1.644-5.668-4.019-7.692-7.147l-1.68 1.086c2.2 3.4 5.013 6.017 8.436 7.829l.936-1.768zm-9.532-6.604v28.128h2V59.496h-2zm1 27.128h-6.816v2h6.816v-2zm-5.816 1v-69.12h-2v69.12h2zm-1-68.12h6.528v-2h-6.528v2zm5.528-1v9.984h2v-9.984h-2zm1.852 10.508c1.959-3.183 4.519-5.618 7.686-7.323l-.948-1.762c-3.488 1.879-6.305 4.564-8.442 8.037l1.704 1.048zm7.679-7.32c3.235-1.708 6.875-2.572 10.955-2.572v-2c-4.37 0-8.339.928-11.889 2.804l.934 1.768zm10.475 42.74c3.68 0 7.05-.838 10.09-2.526l-.97-1.748c-2.72 1.512-5.76 2.274-9.12 2.274v2zm10.1-2.534c3.05-1.76 5.42-4.235 7.1-7.404l-1.76-.94c-1.52 2.847-3.62 5.044-6.34 6.612l1 1.732zm7.1-7.39c1.75-3.173 2.62-6.767 2.62-10.756h-2c0 3.69-.8 6.945-2.37 9.788l1.75.968zm2.62-10.756c0-3.989-.87-7.555-2.63-10.668l-1.74.984c1.57 2.775 2.37 5.993 2.37 9.684h2zm-2.62-10.646c-1.68-3.169-4.05-5.644-7.1-7.404l-1 1.732c2.72 1.568 4.82 3.765 6.34 6.612l1.76-.94zm-7.1-7.404c-3.04-1.757-6.41-2.63-10.1-2.63v2c3.36 0 6.38.79 9.1 2.362l1-1.732zm-10.1-2.63c-3.74 0-7.15.872-10.194 2.63l1 1.732c2.714-1.57 5.774-2.362 9.194-2.362v-2zm-10.203 2.635c-2.977 1.76-5.34 4.23-7.086 7.385l1.75.968c1.582-2.86 3.699-5.063 6.354-6.631l-1.018-1.722zm-7.09 7.392c-1.69 3.11-2.521 6.67-2.521 10.653h2c0-3.698.769-6.921 2.279-9.699l-1.758-.954zm-2.521 10.653c0 3.983.831 7.572 2.517 10.742l1.766-.94c-1.514-2.846-2.283-6.105-2.283-9.802h-2zm2.525 10.756c1.746 3.156 4.109 5.625 7.086 7.385l1.018-1.722c-2.655-1.569-4.772-3.77-6.354-6.631l-1.75.968zm7.109 7.398c3.04 1.69 6.44 2.526 10.18 2.526v-2c-3.43 0-6.49-.764-9.208-2.274l-.972 1.748zm50.46-43.402v-1h-1v1h1zm6.81 0h1v-1h-1v1zm0 40.128h-1v2.746l1.77-2.103-.77-.643zm33.7-40.128v-1h-.47l-.3.357.77.643zm6.05 0h1v-1h-1v1zm0 50.496v1h1v-1h-1zm-6.82 0h-1v1h1v-1zm0-40.128h1V26.12l-1.76 2.11.76.642zM1054.15 69v1h.47l.3-.358-.77-.642zm-6.14 0h-1v1h1v-1zm0-49.496h6.81v-2h-6.81v2zm5.81-1v40.128h2V18.504h-2zm1.77 40.771l33.7-40.128-1.54-1.286-33.69 40.128 1.53 1.286zm32.93-39.771h6.05v-2h-6.05v2zm5.05-1V69h2V18.504h-2zm1 49.496h-6.82v2h6.82v-2zm-5.82 1V28.872h-2V69h2zm-1.76-40.77l-33.6 40.128 1.53 1.284 33.6-40.128-1.53-1.284zM1054.15 68h-6.14v2h6.14v-2zm-5.14 1V18.504h-2V69h2zm103.88-50.496h1v-1h-1v1zm0 50.496v1h1v-1h-1zm-6.24 0h-1v1h1v-1zm0-16.704h1v-1h-1v1zm-17.76 0v-1h-.52l-.3.426.82.574zM1117.17 69v1h.52l.3-.426-.82-.574zm-7.39 0l-.81-.58-1.13 1.58h1.94v-1zm12.58-17.664l.81.58.83-1.16-1.37-.383-.27.963zm24.29-4.128v1h1v-1h-1zm0-22.656h1v-1h-1v1zm5.24-6.048V69h2V18.504h-2zm1 49.496h-6.24v2h6.24v-2zm-5.24 1V52.296h-2V69h2zm-1-17.704h-15.84v2h15.84v-2zm-15.84 0h-1.92v2h1.92v-2zm-2.74.426l-11.71 16.704 1.63 1.148 11.72-16.704-1.64-1.148zM1117.17 68h-7.39v2h7.39v-2zm-6.57 1.58l12.57-17.664-1.63-1.16-12.57 17.664 1.63 1.16zm12.03-19.207c-3.75-1.044-6.56-2.801-8.52-5.232l-1.55 1.254c2.26 2.817 5.47 4.772 9.53 5.904l.54-1.926zm-8.52-5.232c-1.94-2.413-2.94-5.506-2.94-9.357h-2c0 4.213 1.1 7.776 3.39 10.611l1.55-1.254zm-2.94-9.357c0-5.379 1.81-9.348 5.36-12.07l-1.21-1.588c-4.13 3.166-6.15 7.773-6.15 13.658h2zm5.36-12.07c3.62-2.768 8.62-4.21 15.14-4.21v-2c-6.79 0-12.28 1.502-16.35 4.622l1.21 1.588zm15.14-4.21h21.22v-2h-21.22v2zm-15.59 16.472c0 3.971 1.27 7.105 3.96 9.21 2.63 2.07 6.47 3.022 11.34 3.022v-2c-4.66 0-7.98-.92-10.11-2.594-2.08-1.639-3.19-4.121-3.19-7.638h-2zm15.3 12.232h15.27v-2h-15.27v2zm16.27-1V24.552h-2v22.656h2zm-1-23.656h-14.79v2h14.79v-2zm-14.79 0c-5.03 0-8.98.967-11.7 3.065-2.76 2.136-4.08 5.318-4.08 9.359h2c0-3.575 1.14-6.104 3.31-7.777 2.21-1.71 5.65-2.647 10.47-2.647v-2zm75.98 1v1h1v-1h-1zm-19.1 0v-1h-1v1h1zm0 44.448v1h1v-1h-1zm-6.82 0h-1v1h1v-1zm0-44.448h1v-1h-1v1zm-19.1 0h-1v1h1v-1zm0-6.048v-1h-1v1h1zm45.02 0h1v-1h-1v1zm0 5.048h-19.1v2h19.1v-2zm-20.1 1V69h2V24.552h-2zm1 43.448h-6.82v2h6.82v-2zm-5.82 1V24.552h-2V69h2zm-1-45.448h-19.1v2h19.1v-2zm-18.1 1v-6.048h-2v6.048h2zm-1-5.048h45.02v-2h-45.02v2zm44.02-1v6.048h2v-6.048h-2zm10.86 0v-1h-1v1h1zm6.81 0h1v-1h-1v1zm0 40.128h-1v2.746l1.77-2.103-.77-.643zm33.7-40.128v-1h-.47l-.3.357.77.643zm6.05 0h1v-1h-1v1zm0 50.496v1h1v-1h-1zm-6.82 0h-1v1h1v-1zm0-40.128h1V26.12l-1.77 2.11.77.642zM1223.84 69v1h.47l.3-.358-.77-.642zm-6.14 0h-1v1h1v-1zm0-49.496h6.81v-2h-6.81v2zm5.81-1v40.128h2V18.504h-2zm1.77 40.771l33.69-40.128-1.53-1.286-33.69 40.128 1.53 1.286zm32.93-39.771h6.05v-2h-6.05v2zm5.05-1V69h2V18.504h-2zm1 49.496h-6.82v2h6.82v-2zm-5.82 1V28.872h-2V69h2zm-1.77-40.77l-33.6 40.128 1.54 1.284 33.6-40.128-1.54-1.284zM1223.84 68h-6.14v2h6.14v-2zm-5.14 1V18.504h-2V69h2zm103.87-50.496h1v-1h-1v1zm0 50.496v1h1v-1h-1zm-6.24 0h-1v1h1v-1zm0-16.704h1v-1h-1v1zm-17.76 0v-1h-.52l-.29.426.81.574zM1286.86 69v1h.52l.3-.426-.82-.574zm-7.39 0l-.81-.58-1.13 1.58h1.94v-1zm12.58-17.664l.81.58.83-1.16-1.38-.383-.26.963zm24.28-4.128v1h1v-1h-1zm0-22.656h1v-1h-1v1zm5.24-6.048V69h2V18.504h-2zm1 49.496h-6.24v2h6.24v-2zm-5.24 1V52.296h-2V69h2zm-1-17.704h-15.84v2h15.84v-2zm-15.84 0h-1.92v2h1.92v-2zm-2.73.426l-11.72 16.704 1.64 1.148 11.71-16.704-1.63-1.148zM1286.86 68h-7.39v2h7.39v-2zm-6.58 1.58l12.58-17.664-1.63-1.16-12.57 17.664 1.62 1.16zm12.03-19.207c-3.74-1.044-6.55-2.801-8.51-5.232l-1.56 1.254c2.27 2.817 5.47 4.772 9.54 5.904l.53-1.926zm-8.51-5.232c-1.94-2.413-2.95-5.506-2.95-9.357h-2c0 4.213 1.11 7.776 3.39 10.611l1.56-1.254zm-2.95-9.357c0-5.379 1.82-9.348 5.37-12.07l-1.21-1.588c-4.13 3.166-6.16 7.773-6.16 13.658h2zm5.37-12.07c3.61-2.768 8.62-4.21 15.14-4.21v-2c-6.8 0-12.28 1.502-16.35 4.622l1.21 1.588zm15.14-4.21h21.21v-2h-21.21v2zm-15.59 16.472c0 3.971 1.27 7.105 3.95 9.21 2.64 2.07 6.48 3.022 11.35 3.022v-2c-4.66 0-7.98-.92-10.11-2.594-2.09-1.639-3.19-4.121-3.19-7.638h-2zm15.3 12.232h15.26v-2h-15.26v2zm16.26-1V24.552h-2v22.656h2zm-1-23.656h-14.78v2h14.78v-2zm-14.78 0c-5.03 0-8.98.967-11.7 3.065-2.76 2.136-4.08 5.318-4.08 9.359h2c0-3.575 1.14-6.104 3.3-7.777 2.22-1.71 5.65-2.647 10.48-2.647v-2z" fill="#fff"/></svg>