<svg width="478" height="211" fill="none" xmlns="http://www.w3.org/2000/svg"><path d="M379.007 26.85c8.736 0 15.678 2.529 20.826 7.586 5.147 5.057 7.72 12.47 7.72 22.238v39.549h-12.457V58.1c0-6.656-1.6-11.67-4.801-15.041-3.2-3.372-7.785-5.057-13.754-5.057-6.747 0-12.068 1.966-15.96 5.9-3.893 3.933-5.839 9.574-5.839 16.922v35.399h-12.457V.009h12.457v37.215c2.595-3.285 5.99-5.835 10.185-7.65 4.196-1.816 8.889-2.723 14.08-2.723zm-50.998 65.353c-1.817 1.556-4.065 2.745-6.747 3.566a28.206 28.206 0 01-8.305 1.232c-6.92 0-12.284-1.86-16.09-5.576-3.806-3.717-5.709-9.034-5.709-15.949V12.457h12.457V27.5h19.723v10.244h-19.723v37.214c0 3.717.93 6.57 2.79 8.558 1.859 1.988 4.519 2.983 7.979 2.983 3.806 0 7.051-1.081 9.732-3.242l3.893 8.947zM221.404 62.51l43.988-8.3c-4.744-23.267-45.529-22.919-43.988 8.3zm25.303 23.599c8.218 0 14.836-2.766 19.853-8.299l6.747 8.04C266.618 93.87 256.492 97 246.318 97c-21.297 0-36.982-13.712-36.982-35.14 0-19.911 14.084-35.01 34.516-35.01 12.119 0 22.954 5.56 29.196 16.078 3.025 5.098 4.585 10.979 4.671 17.635l-54.628 10.633c3.763 10.342 13.033 14.912 23.616 14.912zM141.214 62.51l43.989-8.3c-4.745-23.267-45.529-22.919-43.989 8.3zm25.303 23.599c8.218 0 14.836-2.766 19.854-8.299l6.746 8.04C186.428 93.87 176.302 97 166.128 97c-21.297 0-36.981-13.712-36.981-35.14 0-19.911 14.083-35.01 34.515-35.01 12.119 0 22.954 5.56 29.197 16.078 3.025 5.098 4.584 10.979 4.671 17.635l-54.629 10.633c3.763 10.342 13.034 14.912 23.616 14.912zm-47.028 6.094c-1.817 1.556-4.066 2.745-6.748 3.566a28.194 28.194 0 01-8.304 1.232c-6.92 0-12.284-1.859-16.09-5.576-3.807-3.717-5.71-9.034-5.71-15.949V12.457h12.457v62.5c0 3.718.93 6.57 2.79 8.558 1.86 1.989 4.52 2.983 7.98 2.983 3.806 0 7.05-1.081 9.732-3.242l3.893 8.947zM2.206 27.498h12.457v68.725H2.206V27.499z" fill="#fff"/><path d="M8.434 16.218c-2.422 0-4.433-.778-6.034-2.334C.8 12.328 0 10.426 0 8.18c0-2.248.8-4.171 2.4-5.77C4 .808 6.012.008 8.434.008c2.423 0 4.434.757 6.034 2.27 1.6 1.512 2.4 3.393 2.4 5.64 0 2.334-.8 4.3-2.4 5.9-1.6 1.6-3.611 2.4-6.034 2.4zM428.332 97c-2.422 0-4.433-.778-6.034-2.333-1.6-1.556-2.4-3.458-2.4-5.706s.8-4.17 2.4-5.77c1.601-1.6 3.612-2.399 6.034-2.399 2.423 0 4.434.757 6.034 2.27 1.6 1.512 2.401 3.392 2.401 5.64 0 2.334-.801 4.3-2.401 5.9-1.6 1.6-3.611 2.399-6.034 2.399z" fill="#3FAB3C"/><path fill-rule="evenodd" clip-rule="evenodd" d="M121.493 39.62a101.454 101.454 0 00-17.005-.798C70.94 40.067 41.84 57.57 24.478 83.46c17.394-32.967 51-56.258 90.617-58.901a15.838 15.838 0 00-.159 2.894c.188 5.044 2.743 9.443 6.557 12.168z" fill="#3FAB3C"/><path d="M385.876 89.293c0-1.843-.875-3.4-2.623-4.67-1.748-1.271-4.434-1.906-8.058-1.906-3.752 0-7.836.413-12.255 1.24a103.612 103.612 0 00-13.304 3.43 101.157 101.157 0 00-12.826 5.194c-4.101 2-7.741 4.192-10.919 6.575-3.181 2.383-5.723 4.892-7.631 7.528-1.907 2.638-2.861 5.322-2.861 8.054 0 2.224.731 4.59 2.194 7.099a157.23 157.23 0 004.815 7.72 132.428 132.428 0 014.817 7.814c1.463 2.573 2.194 5.004 2.194 7.291 0 2.414-.62 4.526-1.859 6.337-1.24 1.811-2.862 3.335-4.865 4.574-2.003 1.239-4.228 2.176-6.676 2.812-2.447.635-4.847.953-7.2.953-2.225 0-4.355-.191-6.389-.572-2.035-.381-3.815-.922-5.341-1.62-1.526-.699-2.734-1.541-3.624-2.525-.89-.985-1.335-2.05-1.335-3.193 0-1.144.413-2.319 1.24-3.526a21.117 21.117 0 012.956-3.431 37.793 37.793 0 013.528-2.954 80.535 80.535 0 012.957-2.097c-.127-.889-.699-1.207-1.717-.953-.762.381-1.811 1.032-3.147 1.953a32.968 32.968 0 00-3.957 3.241 24.532 24.532 0 00-3.386 3.955c-.954 1.398-1.43 2.732-1.43 4.003 0 1.461.429 2.906 1.287 4.335.858 1.43 2.146 2.685 3.862 3.765 1.717 1.08 3.831 1.953 6.342 2.62 2.512.668 5.42 1.001 8.727 1.001 3.687 0 7.072-.413 10.156-1.239 3.083-.825 5.739-1.906 7.964-3.24 2.224-1.334 3.957-2.827 5.197-4.479 1.24-1.651 1.86-3.304 1.86-4.956 0-1.969-.382-3.97-1.144-6.003a41.825 41.825 0 00-2.862-6.052 121.22 121.22 0 00-3.671-6.003 242.807 242.807 0 01-3.673-5.814c-1.144-1.875-2.098-3.685-2.86-5.432-.764-1.747-1.145-3.383-1.145-4.908 0-1.652 1.065-3.494 3.194-5.527 2.131-2.033 4.913-4.099 8.346-6.195 3.433-2.097 7.296-4.145 11.587-6.147a157.815 157.815 0 0112.875-5.336c4.291-1.557 8.376-2.811 12.254-3.765 3.878-.953 7.12-1.43 9.727-1.43 2.289 0 3.831.27 4.626.81.794.54 1.192 1.256 1.192 2.145 0 1.335-.588 2.796-1.765 4.384a37.265 37.265 0 01-3.909 4.479c-1.431 1.398-2.782 2.573-4.053 3.526-1.272.953-2.035 1.43-2.289 1.43-.255 0-.445-.048-.573-.144a2.138 2.138 0 01-.381-.381 1.422 1.422 0 00-.477-.381c-.191-.095-.476-.143-.858-.143-.445 0-1.287.397-2.527 1.191-1.24.795-2.671 1.795-4.291 3.003a110.969 110.969 0 00-5.103 4.05 121.842 121.842 0 00-4.911 4.335c-1.494 1.399-2.718 2.653-3.672 3.765-.954 1.112-1.43 1.891-1.43 2.335 0 .889.302 1.604.906 2.144.603.54 1.255.81 1.954.81.573 0 1.876-.635 3.911-1.906 2.034-1.27 4.387-2.938 7.056-5.003 2.671-2.065 5.5-4.384 8.489-6.957a121.664 121.664 0 008.201-7.719c2.479-2.573 4.53-5.035 6.151-7.386 1.621-2.35 2.432-4.32 2.432-5.908zm7.63 8.957c0-.317-.16-.618-.478-.905a4.366 4.366 0 00-1.096-.714 8.215 8.215 0 00-1.335-.477c-.478-.127-.875-.19-1.193-.19-.254 0-.826.492-1.716 1.477a134.95 134.95 0 00-3.29 3.812 194.3 194.3 0 00-4.292 5.336 987.323 987.323 0 00-4.672 6.052 305.764 305.764 0 00-4.388 5.861 145.528 145.528 0 00-3.385 4.812c-.254.318-.493.652-.715 1.001-.223.349-.493.715-.811 1.096-1.525 0-2.734.016-3.623.048-.891.032-1.542.063-1.956.095-.413.032-.715.047-.906.047h-.381c-.382 0-.731.096-1.05.287-.318.19-.476.444-.476.762s.222.445.667.381a9.527 9.527 0 011.336-.095h.953c.318 0 .811.015 1.478.048.668.031 1.637.047 2.909.047a179.192 179.192 0 00-4.339 6.862 84.302 84.302 0 00-4.101 7.672 62.55 62.55 0 00-3.099 7.909c-.826 2.637-1.24 5.131-1.24 7.481 0 2.033.509 3.622 1.525 4.766 1.018 1.143 2.322 1.715 3.911 1.715a9.351 9.351 0 003.051-.525 15.744 15.744 0 002.767-1.239 21.815 21.815 0 002.193-1.429 64.064 64.064 0 001.43-1.096.804.804 0 000-.762 1.248 1.248 0 00-.572-.572 49 49 0 01-1.382 1.048c-.605.445-1.304.874-2.099 1.287-.795.412-1.637.778-2.527 1.095a7.896 7.896 0 01-2.67.478c-.891 0-1.653-.382-2.289-1.144-.636-.763-.954-1.811-.954-3.145 0-1.97.572-4.257 1.717-6.861 1.144-2.606 2.542-5.29 4.196-8.054a117.004 117.004 0 015.388-8.195 298.624 298.624 0 015.388-7.291h2.67c.127 0 .191.064.191.191s-.016.254-.047.381a1.554 1.554 0 00-.048.381c0 .254.048.413.143.477.095.063.366.095.81.095.255 0 .78-.048 1.574-.143.795-.095 1.59-.239 2.384-.429.795-.19 1.511-.429 2.146-.715.636-.285.954-.619.954-1.001 0-.254-.191-.492-.573-.714-.381-.222-.826-.334-1.334-.334h-2.576c-1.399 0-3.115.032-5.149.096a357.65 357.65 0 016.437-8.625 402.073 402.073 0 015.817-7.385 233.952 233.952 0 014.387-5.289 145.134 145.134 0 002.146-2.526 66.017 66.017 0 001.478-1.525c.476-.508.716-1.08.716-1.716zm11.634 52.892c0-.127-.127-.191-.382-.191-.445 0-1.081-.079-1.907-.238-.826-.159-1.24-.62-1.24-1.381 0-1.525.286-2.924.859-4.194.571-1.271.858-2.668.858-4.193 0-1.017-.287-2.033-.858-3.049-.573-1.017-1.272-1.526-2.098-1.526-.191 0-.414.111-.668.334-.254.222-.572.493-.954.81-.889.953-2.018 2.239-3.385 3.86a63.47 63.47 0 01-4.53 4.812 61.47 61.47 0 01-3.195 2.812 45.9 45.9 0 01-2.957 2.239c-.921.635-1.748 1.144-2.479 1.525-.731.381-1.287.572-1.669.572-.508 0-.843-.238-1.001-.715a4.333 4.333 0 01-.238-1.365c0-.89.318-2.145.953-3.75a58.858 58.858 0 012.241-4.987c.858-1.715 1.717-3.32 2.575-4.844.858-1.509 1.542-2.62 2.05-3.32.064-.063.095-.222.095-.476 0-.509-.285-1.159-.858-1.938-.571-.794-1.08-1.191-1.525-1.191-.509 0-1.081.27-1.717.81-.636.54-1.287 1.255-1.955 2.128a31.918 31.918 0 00-2.05 3.145 49.795 49.795 0 00-2.003 3.796 72.506 72.506 0 00-2.813 7.259c-.795 2.446-1.193 4.384-1.193 5.845 0 .508.16 1.001.478 1.477.318.461.731.89 1.239 1.271a7.895 7.895 0 001.669.953c.604.254 1.161.381 1.669.381.699 0 1.653-.349 2.861-1.048 1.208-.699 2.496-1.589 3.862-2.669a78.524 78.524 0 004.196-3.574 285.157 285.157 0 003.911-3.621 154.363 154.363 0 002.956-2.858l1.382-1.383.191.191c-.254.445-.587 1.239-1.001 2.382-.413 1.144-.619 2.637-.619 4.48 0 1.715.413 3.224 1.239 4.526.827 1.303 1.78 1.954 2.861 1.954.382 0 .795-.191 1.24-.572.445-.381.89-.81 1.335-1.287.445-.476.827-.952 1.145-1.429.317-.477.54-.778.667-.906.508-.507.763-.794.763-.857zm71.812-55.94c0-3.368-1.749-5.052-5.246-5.052-2.352 0-4.736.636-7.152 1.906-2.416 1.27-4.8 3.002-7.153 5.194-2.352 2.192-4.64 4.781-6.866 7.767a86.032 86.032 0 00-6.199 9.625 107.688 107.688 0 00-5.197 10.721 81.53 81.53 0 00-3.767 11.103 284.694 284.694 0 01-8.631 7.242c-2.765 2.224-5.276 4.146-7.534 5.766-2.257 1.62-4.196 2.907-5.817 3.86-1.621.953-2.782 1.43-3.481 1.43-.318 0-.477-.287-.477-.859 0-.889.445-2.144 1.335-3.763.891-1.621 2.035-3.383 3.433-5.289a80.445 80.445 0 014.674-5.766 90.547 90.547 0 015.054-5.29c1.653-1.588 3.162-2.89 4.53-3.907 1.367-1.017 2.432-1.525 3.194-1.525.764 0 1.176.175 1.24.525.064.349.095.683.095 1 0 .254.143.429.43.524.286.095.588.144.906.144.318 0 .667-.049 1.049-.144.382-.095.572-.46.572-1.095 0-1.462-.509-2.622-1.526-3.479-1.017-.858-2.226-1.287-3.624-1.287-1.398 0-2.988.525-4.769 1.573-1.78 1.048-3.591 2.414-5.435 4.098-1.844 1.683-3.64 3.606-5.388 5.765a65.049 65.049 0 00-4.721 6.624c-1.398 2.255-2.511 4.447-3.338 6.575s-1.24 4.019-1.24 5.671c0 1.27.239 2.16.716 2.668s.937.762 1.382.762c.891 0 2.21-.445 3.959-1.334 1.747-.889 3.782-2.112 6.103-3.668 2.32-1.557 4.88-3.416 7.677-5.576 2.797-2.16 5.69-4.479 8.678-6.957a66.786 66.786 0 00-1.144 6.671 53.67 53.67 0 00-.382 6.29c0 4.447.62 7.83 1.86 10.15 1.24 2.318 2.845 3.478 4.816 3.478.699 0 1.366-.144 2.002-.429a5.393 5.393 0 001.622-1.096.917.917 0 00.047-.763c-.095-.254-.302-.349-.62-.285-.318.254-.619.46-.905.619-.287.159-.78.239-1.478.239-1.273 0-2.21-.985-2.813-2.955-.605-1.969-.907-4.479-.907-7.529 0-3.049.271-6.146.811-9.291a65.05 65.05 0 012.432-9.578 374.718 374.718 0 0013.494-12.198c4.419-4.193 8.392-8.18 11.921-11.961 3.528-3.779 6.374-7.162 8.535-10.149 2.161-2.985 3.243-5.241 3.243-6.766zm-2.575.19c0 1.334-.97 3.272-2.909 5.813-1.939 2.541-4.451 5.448-7.534 8.72-3.084 3.272-6.596 6.766-10.538 10.483a431.032 431.032 0 01-12.017 10.911 94.302 94.302 0 016.486-13.818c2.543-4.447 5.213-8.418 8.011-11.913 2.797-3.494 5.626-6.29 8.487-8.385 2.861-2.097 5.5-3.145 7.916-3.145.699 0 1.24.142 1.62.429.382.285.542.587.478.905zm2.956 36.214c0-1.526-.413-2.287-1.24-2.287-.318 0-1.367.952-3.147 2.858-1.78 1.906-4.513 4.289-8.202 7.148-.953.699-2.034 1.525-3.242 2.478a135.986 135.986 0 01-3.623 2.763 65.672 65.672 0 01-3.291 2.288c-.985.635-1.733.953-2.24.953-.446 0-.7-.112-.764-.334a2.61 2.61 0 01-.095-.714c0-.128.366-.763 1.097-1.906a635.62 635.62 0 002.384-3.765c.858-1.366 1.653-2.637 2.384-3.812.732-1.175 1.097-1.858 1.097-2.049 0-.318-.254-.747-.763-1.286-.509-.54-.986-.811-1.431-.811-.318 0-1.001.604-2.05 1.811a58.605 58.605 0 00-3.29 4.193 53.51 53.51 0 00-3.052 4.718c-.89 1.556-1.335 2.684-1.335 3.383 0 1.397.413 2.493 1.24 3.287s1.685 1.192 2.574 1.192c.573 0 1.415-.302 2.528-.905a55.192 55.192 0 003.719-2.24 76.074 76.074 0 004.148-2.907 191.005 191.005 0 003.91-3.002c1.208-.952 2.21-1.763 3.004-2.429.795-.668 1.256-1.065 1.384-1.192.318-.254.54-.159.667.286a74.222 74.222 0 01-2.146 5.003 149.378 149.378 0 01-2.527 5.098c-5.087 1.525-10.427 3.558-16.021 6.1a166.488 166.488 0 00-16.499 8.608 180.589 180.589 0 00-15.401 10.182c-4.864 3.574-9.156 7.195-12.875 10.848-3.72 3.638-6.676 7.211-8.87 10.705-2.194 3.478-3.29 6.687-3.29 9.61 0 1.763.604 3.129 1.812 4.081 1.208.954 2.543 1.43 4.006 1.43 3.306 0 7.04-.858 11.206-2.573 4.164-1.715 8.504-4.034 13.017-6.988 4.514-2.955 9.092-6.386 13.733-10.277a176.119 176.119 0 0013.351-12.468 182.904 182.904 0 0011.921-13.612c3.687-4.654 6.803-9.181 9.346-13.549 1.081.064 1.908.207 2.479.429.573.223 1.002.476 1.288.763.286.285.508.539.668.746.158.222.333.333.524.333.827 0 1.24-.507 1.24-1.508 0-.954-.477-1.668-1.431-2.144-.953-.478-2.129-.779-3.529-.906 1.78-3.304 3.164-6.449 4.149-9.434.985-2.987 1.478-5.719 1.478-8.196zm-13.637 20.108a134.832 134.832 0 01-9.203 13.77c-3.401 4.48-6.882 8.561-10.443 12.246-1.716 1.78-3.782 3.765-6.198 5.957a310.032 310.032 0 01-7.725 6.766 166.576 166.576 0 01-8.535 6.766c-2.957 2.192-5.849 4.146-8.679 5.862-2.829 1.715-5.499 3.096-8.011 4.145-2.511 1.048-4.689 1.572-6.533 1.572-1.081 0-1.923-.365-2.527-1.095-.604-.732-.906-1.605-.906-2.622 0-2.541 1.033-5.432 3.099-8.672 2.067-3.239 4.833-6.575 8.298-10.006s7.502-6.893 12.112-10.388a164.933 164.933 0 0114.59-9.863 184.726 184.726 0 0115.545-8.386c5.246-2.51 10.284-4.528 15.116-6.052z" fill="#3FAB3C"/></svg>