<svg width="605" height="75" fill="none" xmlns="http://www.w3.org/2000/svg"><path d="M70.728 58.328l.628.778-.628-.778zm-26.4 8.064l-.028-1-.972.028v.972h1zm0 6.912v1h1v-1h-1zm-6.624 0h-1v1h1v-1zm0-6.912h1v-.967l-.966-.032-.034.999zm-26.496-8.16l-.628.779.004.003.624-.782zm0-41.856l-.624-.782-.004.004.628.778zm26.496-8.16l.034 1 .966-.033v-.967h-1zm0-6.72v-1h-1v1h1zm6.624 0h1v-1h-1v1zm0 6.72h-1v.966l.966.033.034-.999zm26.4 8.256l-.628.778.004.004.624-.782zm-26.4 44.256h-1v1.042l1.041-.043-.041-.999zm21.504-6.624l-.623-.782.623.782zm-.096-33.6l-.624.782.005.004.619-.786zm-21.408-6.528l.035-1-1.035-.035v1.035h1zM16.2 54.104l-.623.782.01.008.613-.79zm21.504 6.624l-.049.999 1.049.05v-1.049h-1zm0-46.752h1v-1.042l-1.041.043.041.999zm-21.6 6.624l.622.783.002-.001-.624-.782zm63.128 16.704c0 8.626-3.055 15.335-9.132 20.246l1.257 1.556c6.594-5.33 9.875-12.636 9.875-21.802h-2zM70.1 57.549c-6.044 4.873-14.604 7.527-25.8 7.843l.056 2c11.46-.324 20.5-3.046 27-8.285L70.1 57.55zm-26.772 8.843v6.912h2v-6.912h-2zm1 5.912h-6.624v2h6.624v-2zm-5.624 1v-6.912h-2v6.912h2zm-.966-7.911c-11.197-.38-19.794-3.065-25.906-7.943l-1.248 1.564c6.56 5.234 15.627 7.989 27.086 8.377l.068-1.998zm-25.902-7.94C5.826 52.61 2.8 45.933 2.8 37.304h-2c0 9.163 3.246 16.44 9.78 21.706l1.256-1.556zM2.8 37.304c0-8.63 3.026-15.305 9.036-20.15l-1.256-1.556C4.046 20.864.8 28.14.8 37.303h2zm9.032-20.146c6.112-4.878 14.71-7.563 25.906-7.943l-.068-1.998c-11.46.388-20.526 3.143-27.086 8.377l1.248 1.564zm26.872-8.942v-6.72h-2v6.72h2zm-1-5.72h6.624v-2h-6.624v2zm5.624-1v6.72h2v-6.72h-2zm.966 7.72c11.129.379 19.692 3.094 25.806 8.034l1.257-1.556c-6.56-5.3-15.596-8.089-26.995-8.477l-.068 1.998zm25.81 8.038c6.075 4.847 9.128 11.491 9.128 20.05h2c0-9.105-3.283-16.35-9.88-21.614l-1.248 1.564zM44.37 61.727c9.403-.389 16.806-2.63 22.087-6.841l-1.248-1.564c-4.831 3.853-11.764 6.028-20.921 6.407l.082 1.998zm22.087-6.841c5.321-4.244 7.96-10.147 7.96-17.582h-2c0 6.901-2.417 12.198-7.207 16.018l1.246 1.564zm7.96-17.582c0-7.44-2.674-13.343-8.061-17.586l-1.238 1.572c4.853 3.821 7.299 9.117 7.299 16.014h2zM66.36 19.722c-5.282-4.212-12.655-6.421-21.997-6.745l-.07 1.998c9.09.316 15.99 2.459 20.82 6.31l1.246-1.563zm-23.032-5.746v46.752h2V13.976h-2zM7.616 37.304c0 7.435 2.639 13.338 7.96 17.582l1.247-1.564c-4.79-3.82-7.207-9.117-7.207-16.018h-2zm7.971 17.59c5.338 4.137 12.731 6.379 22.068 6.833l.098-1.998c-9.095-.442-16.038-2.616-20.94-6.415l-1.226 1.58zm23.117 5.834V13.976h-2v46.752h2zm-1.041-47.751c-9.465.389-16.901 2.63-22.182 6.841l1.246 1.564c4.831-3.852 11.795-6.028 21.018-6.407l-.082-1.998zm-22.181 6.84C10.219 24 7.616 29.874 7.616 37.304h2c0-6.906 2.389-12.168 7.11-15.921l-1.244-1.566zm86.925 48.399l-.497.867.01.007.487-.874zM93.191 59l-.867.498.867-.498zm0-26.496l-.867-.498.867.498zm35.52-9.12l-.487.873.487-.873zm9.12 9.12l-.873.487.006.01.867-.497zm0 26.496l-.867-.498-.006.011.873.487zm-9.12 9.216l.487.874.011-.007-.498-.867zm-3.552-5.184l.494.87.007-.004-.501-.866zm6.72-7.008l.883.47-.883-.47zm0-20.544l.883-.47-.883.47zm-6.72-6.912l-.508.86.011.008.012.006.485-.874zm-19.296 0l.494.87.007-.004-.501-.866zm-6.72 6.912l-.875-.484-.004.007-.004.007.883.47zm0 20.544l-.883.47.004.007.004.007.875-.484zm6.72 7.008l-.508.86.011.008.012.006.485-.874zm9.696 7.448c-4.709 0-8.923-1.052-12.665-3.138l-.974 1.748c4.066 2.266 8.62 3.39 13.639 3.39v-2zm-12.654-3.131c-3.75-2.152-6.695-5.097-8.846-8.847l-1.735.996c2.328 4.058 5.528 7.257 9.586 9.585l.995-1.734zm-8.846-8.847c-2.145-3.738-3.228-7.98-3.228-12.75h-2c0 5.086 1.158 9.676 3.493 13.746l1.735-.996zm-3.228-12.75c0-4.77 1.083-9.012 3.228-12.75l-1.735-.996c-2.335 4.07-3.493 8.66-3.493 13.746h2zm3.228-12.75c2.15-3.748 5.09-6.658 8.835-8.745l-.974-1.747c-4.063 2.266-7.266 5.436-9.596 9.496l1.735.996zm8.835-8.745c3.742-2.085 7.956-3.137 12.665-3.137v-2c-5.019 0-9.573 1.124-13.639 3.39l.974 1.747zm12.665-3.137c4.709 0 8.923 1.052 12.665 3.137l.974-1.747c-4.066-2.266-8.62-3.39-13.639-3.39v2zm12.665 3.137c3.742 2.086 6.648 4.992 8.734 8.734l1.747-.974c-2.267-4.066-5.441-7.24-9.507-9.507l-.974 1.747zm8.74 8.745c2.145 3.738 3.227 7.98 3.227 12.75h2c0-5.086-1.157-9.676-3.492-13.746l-1.735.996zm3.227 12.75c0 4.77-1.082 9.012-3.227 12.75l1.735.996c2.335-4.07 3.492-8.66 3.492-13.746h-2zm-3.233 12.761c-2.087 3.744-4.997 6.685-8.744 8.836l.995 1.734c4.06-2.33 7.231-5.532 9.496-9.596l-1.747-.974zm-8.734 8.83c-3.742 2.085-7.956 3.137-12.665 3.137v2c5.019 0 9.573-1.124 13.639-3.39l-.974-1.748zm-12.665-.911c3.739 0 7.112-.836 10.094-2.53l-.988-1.74c-2.65 1.506-5.676 2.27-9.106 2.27v2zm10.101-2.534c3.046-1.76 5.416-4.235 7.102-7.404l-1.766-.94c-1.514 2.847-3.623 5.044-6.337 6.612l1.001 1.732zm7.102-7.404c1.686-3.17 2.517-6.76 2.517-10.742h-2c0 3.697-.769 6.956-2.283 9.802l1.766.94zm2.517-10.742c0-3.983-.831-7.572-2.517-10.742l-1.766.94c1.514 2.845 2.283 6.105 2.283 9.802h2zm-2.517-10.742c-1.687-3.172-4.062-5.62-7.117-7.316l-.971 1.748c2.705 1.503 4.81 3.664 6.322 6.508l1.766-.94zm-7.094-7.303c-2.985-1.764-6.363-2.635-10.109-2.635v2c3.423 0 6.444.793 9.092 2.357l1.017-1.722zm-10.109-2.635c-3.745 0-7.152.872-10.196 2.63l1.001 1.732c2.716-1.57 5.773-2.362 9.195-2.362v-2zm-10.19 2.627c-2.986 1.696-5.353 4.138-7.1 7.297l1.749.968c1.581-2.857 3.693-5.023 6.339-6.526l-.988-1.74zM98.26 35.01c-1.686 3.17-2.517 6.76-2.517 10.742h2c0-3.697.77-6.957 2.283-9.802l-1.766-.94zm-2.517 10.742c0 3.983.831 7.572 2.517 10.742l1.766-.94c-1.514-2.846-2.283-6.105-2.283-9.802h-2zm2.525 10.756c1.746 3.156 4.109 5.625 7.087 7.385l1.017-1.722c-2.655-1.569-4.771-3.77-6.354-6.631l-1.75.968zm7.11 7.398c3.041 1.69 6.443 2.526 10.181 2.526v-2c-3.429 0-6.492-.764-9.21-2.274l-.971 1.748zm84.026-37.354v1h1v-1h-1zm-19.105 0v-1h-1v1h1zm0 44.448v1h1v-1h-1zm-6.815 0h-1v1h1v-1zm0-44.448h1v-1h-1v1zm-19.104 0h-1v1h1v-1zm0-6.048v-1h-1v1h1zm45.024 0h1v-1h-1v1zm0 5.048h-19.105v2h19.105v-2zm-20.105 1V71h2V26.552h-2zm1 43.448h-6.815v2h6.815v-2zm-5.815 1V26.552h-2V71h2zm-1-45.448H144.38v2h19.104v-2zm-18.104 1v-6.048h-2v6.048h2zm-1-5.048h45.024v-2H144.38v2zm44.024-1v6.048h2v-6.048h-2zm16.191 47.712l-.498.867.011.007.487-.874zM195.379 59l-.868.498.868-.498zm0-26.496l-.868-.498.868.498zm35.52-9.12l-.487.873.487-.873zm9.12 9.12l-.874.487.006.01.868-.497zm0 26.496l-.868-.498-.006.011.874.487zm-9.12 9.216l.487.874.01-.007-.497-.867zm-3.552-5.184l.494.87.006-.004-.5-.866zm6.72-7.008l.883.47-.883-.47zm0-20.544l.883-.47-.883.47zm-6.72-6.912l-.509.86.011.008.012.006.486-.874zm-19.296 0l.494.87.006-.004-.5-.866zm-6.72 6.912l-.875-.484-.004.007-.004.007.883.47zm0 20.544l-.883.47.004.007.004.007.875-.484zm6.72 7.008l-.509.86.011.008.012.006.486-.874zm9.696 7.448c-4.709 0-8.923-1.052-12.665-3.138l-.974 1.748c4.066 2.266 8.62 3.39 13.639 3.39v-2zm-12.655-3.131c-3.75-2.152-6.694-5.097-8.846-8.847l-1.735.996c2.329 4.058 5.528 7.257 9.586 9.585l.995-1.734zm-8.846-8.847c-2.145-3.738-3.227-7.98-3.227-12.75h-2c0 5.086 1.157 9.676 3.492 13.746l1.735-.996zm-3.227-12.75c0-4.77 1.082-9.012 3.227-12.75l-1.735-.996c-2.335 4.07-3.492 8.66-3.492 13.746h2zm3.227-12.75c2.15-3.748 5.091-6.658 8.836-8.745l-.974-1.747c-4.064 2.266-7.267 5.436-9.597 9.496l1.735.996zm8.836-8.745c3.742-2.085 7.956-3.137 12.665-3.137v-2c-5.019 0-9.573 1.124-13.639 3.39l.974 1.747zm12.665-3.137c4.709 0 8.923 1.052 12.665 3.137l.974-1.747c-4.066-2.266-8.62-3.39-13.639-3.39v2zm12.665 3.137c3.742 2.086 6.648 4.992 8.733 8.734l1.747-.974c-2.266-4.066-5.44-7.24-9.506-9.507l-.974 1.747zm8.739 8.745c2.145 3.738 3.228 7.98 3.228 12.75h2c0-5.086-1.158-9.676-3.493-13.746l-1.735.996zm3.228 12.75c0 4.77-1.083 9.012-3.228 12.75l1.735.996c2.335-4.07 3.493-8.66 3.493-13.746h-2zm-3.234 12.761c-2.087 3.744-4.996 6.685-8.744 8.836l.995 1.734c4.061-2.33 7.231-5.532 9.496-9.596l-1.747-.974zm-8.733 8.83c-3.742 2.085-7.956 3.137-12.665 3.137v2c5.019 0 9.573-1.124 13.639-3.39l-.974-1.748zm-12.665-.911c3.738 0 7.112-.836 10.094-2.53l-.988-1.74c-2.65 1.506-5.677 2.27-9.106 2.27v2zm10.1-2.534c3.046-1.76 5.417-4.235 7.103-7.404l-1.766-.94c-1.514 2.847-3.624 5.044-6.338 6.612l1.001 1.732zm7.103-7.404c1.686-3.17 2.517-6.76 2.517-10.742h-2c0 3.697-.769 6.956-2.283 9.802l1.766.94zm2.517-10.742c0-3.983-.831-7.572-2.517-10.742l-1.766.94c1.514 2.845 2.283 6.105 2.283 9.802h2zM234.95 35.01c-1.688-3.172-4.063-5.62-7.118-7.316l-.971 1.748c2.705 1.503 4.81 3.664 6.323 6.508l1.766-.94zm-7.095-7.303c-2.984-1.764-6.363-2.635-10.108-2.635v2c3.422 0 6.444.793 9.091 2.357l1.017-1.722zm-10.108-2.635c-3.746 0-7.153.872-10.197 2.63l1.001 1.732c2.716-1.57 5.773-2.362 9.196-2.362v-2zm-10.19 2.627c-2.986 1.696-5.354 4.138-7.101 7.297l1.75.968c1.58-2.857 3.693-5.023 6.339-6.526l-.988-1.74zm-7.109 7.311c-1.686 3.17-2.517 6.76-2.517 10.742h2c0-3.697.769-6.957 2.283-9.802l-1.766-.94zm-2.517 10.742c0 3.983.831 7.572 2.517 10.742l1.766-.94c-1.514-2.846-2.283-6.105-2.283-9.802h-2zm2.525 10.756c1.745 3.156 4.109 5.625 7.086 7.385l1.017-1.722c-2.654-1.569-4.771-3.77-6.353-6.631l-1.75.968zm7.109 7.398c3.042 1.69 6.443 2.526 10.182 2.526v-2c-3.43 0-6.492-.764-9.211-2.274l-.971 1.748zm83.186 4.31l-.498.867.011.007.487-.874zM281.535 59l-.867.498.867-.498zm0-26.496l-.867-.498.867.498zm35.52-9.12l-.487.873.487-.873zm9.12 9.12l-.874.487.007.01.867-.497zm0 26.496l-.867-.498-.006.011.873.487zm-9.12 9.216l.487.874.011-.007-.498-.867zm-3.552-5.184l.494.87.006-.004-.5-.866zm6.72-7.008l.883.47-.883-.47zm0-20.544l.883-.47-.883.47zm-6.72-6.912l-.509.86.012.008.011.006.486-.874zm-19.296 0l.494.87.006-.004-.5-.866zm-6.72 6.912l-.875-.484-.004.007-.004.007.883.47zm0 20.544l-.883.47.004.007.004.007.875-.484zm6.72 7.008l-.509.86.012.008.011.006.486-.874zm9.696 7.448c-4.709 0-8.923-1.052-12.665-3.138l-.974 1.748c4.066 2.266 8.62 3.39 13.639 3.39v-2zm-12.654-3.131c-3.75-2.152-6.695-5.097-8.847-8.847l-1.734.996c2.328 4.058 5.527 7.257 9.585 9.585l.996-1.734zm-8.847-8.847c-2.145-3.738-3.227-7.98-3.227-12.75h-2c0 5.086 1.158 9.676 3.493 13.746l1.734-.996zm-3.227-12.75c0-4.77 1.082-9.012 3.227-12.75l-1.734-.996c-2.335 4.07-3.493 8.66-3.493 13.746h2zm3.227-12.75c2.151-3.748 5.092-6.658 8.836-8.745l-.974-1.747c-4.064 2.266-7.267 5.436-9.596 9.496l1.734.996zm8.836-8.745c3.742-2.085 7.956-3.137 12.665-3.137v-2c-5.019 0-9.573 1.124-13.639 3.39l.974 1.747zm12.665-3.137c4.709 0 8.923 1.052 12.665 3.137l.974-1.747c-4.066-2.266-8.62-3.39-13.639-3.39v2zm12.665 3.137c3.742 2.086 6.648 4.992 8.734 8.734l1.746-.974c-2.266-4.066-5.44-7.24-9.506-9.507l-.974 1.747zm8.74 8.745c2.145 3.738 3.227 7.98 3.227 12.75h2c0-5.086-1.158-9.676-3.493-13.746l-1.734.996zm3.227 12.75c0 4.77-1.082 9.012-3.227 12.75l1.734.996c2.335-4.07 3.493-8.66 3.493-13.746h-2zm-3.233 12.761c-2.087 3.744-4.997 6.685-8.745 8.836l.996 1.734c4.06-2.33 7.23-5.532 9.495-9.596l-1.746-.974zm-8.734 8.83c-3.742 2.085-7.956 3.137-12.665 3.137v2c5.019 0 9.573-1.124 13.639-3.39l-.974-1.748zm-12.665-.911c3.738 0 7.112-.836 10.094-2.53l-.988-1.74c-2.65 1.506-5.676 2.27-9.106 2.27v2zm10.1-2.534c3.046-1.76 5.417-4.235 7.103-7.404l-1.766-.94c-1.514 2.847-3.624 5.044-6.337 6.612l1 1.732zm7.103-7.404c1.686-3.17 2.517-6.76 2.517-10.742h-2c0 3.697-.769 6.956-2.283 9.802l1.766.94zm2.517-10.742c0-3.983-.831-7.572-2.517-10.742l-1.766.94c1.514 2.845 2.283 6.105 2.283 9.802h2zm-2.517-10.742c-1.687-3.172-4.063-5.62-7.117-7.316l-.972 1.748c2.706 1.503 4.81 3.664 6.323 6.508l1.766-.94zm-7.094-7.303c-2.985-1.764-6.364-2.635-10.109-2.635v2c3.423 0 6.444.793 9.091 2.357l1.018-1.722zm-10.109-2.635c-3.746 0-7.152.872-10.196 2.63l1 1.732c2.716-1.57 5.774-2.362 9.196-2.362v-2zm-10.19 2.627c-2.986 1.696-5.354 4.138-7.101 7.297l1.75.968c1.581-2.857 3.693-5.023 6.339-6.526l-.988-1.74zm-7.109 7.311c-1.686 3.17-2.517 6.76-2.517 10.742h2c0-3.697.769-6.957 2.283-9.802l-1.766-.94zm-2.517 10.742c0 3.983.831 7.572 2.517 10.742l1.766-.94c-1.514-2.846-2.283-6.105-2.283-9.802h-2zm2.525 10.756c1.746 3.156 4.109 5.625 7.086 7.385l1.018-1.722c-2.655-1.569-4.772-3.77-6.354-6.631l-1.75.968zm7.109 7.398c3.042 1.69 6.443 2.526 10.182 2.526v-2c-3.429 0-6.492-.764-9.21-2.274l-.972 1.748zm84.026-37.354v1h1v-1h-1zm-19.104 0v-1h-1v1h1zm0 44.448v1h1v-1h-1zm-6.816 0h-1v1h1v-1zm0-44.448h1v-1h-1v1zm-19.104 0h-1v1h1v-1zm0-6.048v-1h-1v1h1zm45.024 0h1v-1h-1v1zm0 5.048h-19.104v2h19.104v-2zm-20.104 1V71h2V26.552h-2zm1 43.448h-6.816v2h6.816v-2zm-5.816 1V26.552h-2V71h2zm-1-45.448h-19.104v2h19.104v-2zm-18.104 1v-6.048h-2v6.048h2zm-1-5.048h45.024v-2h-45.024v2zm44.024-1v6.048h2v-6.048h-2zm48.967 0h1v-1h-1v1zm0 50.496v1h1v-1h-1zm-6.816 0h-1v1h1v-1zm0-21.024h1v-1.532l-1.402.616.402.916zm-31.392-.288l-.639.77.009.007.63-.777zm-5.088-29.184v-1h-1v1h1zm6.816 0h1v-1h-1v1zm3.648 24.864l-.632.775.006.005.007.005.619-.785zm26.016-.864l.391.92.609-.258v-.662h-1zm0-24v-1h-1v1h1zm5.816 0V71h2V20.504h-2zm1 49.496h-6.816v2h6.816v-2zm-5.816 1V49.976h-2V71h2zm-1.402-21.94c-5.714 2.512-11.305 3.756-16.782 3.756v2c5.788 0 11.652-1.316 17.587-3.925l-.805-1.83zm-16.782 3.756c-5.939 0-10.422-1.345-13.578-3.905l-1.26 1.554c3.629 2.944 8.618 4.351 14.838 4.351v-2zm-13.569-3.897c-3.105-2.578-4.727-6.451-4.727-11.807h-2c0 5.78 1.77 10.291 5.449 13.345l1.278-1.538zm-4.727-11.807V20.504h-2v16.608h2zm-1-15.608h6.816v-2h-6.816v2zm5.816-1v16.224h2V20.504h-2zm0 16.224c0 4.009 1.304 7.202 4.016 9.415l1.264-1.55c-2.151-1.755-3.28-4.322-3.28-7.865h-2zm4.029 9.425c2.665 2.104 6.272 3.095 10.699 3.095v-2c-4.148 0-7.261-.93-9.46-2.665l-1.239 1.57zm10.699 3.095c4.908 0 10.356-1.292 16.327-3.823l-.781-1.842c-5.805 2.461-10.982 3.665-15.546 3.665v2zm16.936-4.744v-24h-2v24h2zm-1-23h6.816v-2h-6.816v2zm70.333 26.36v1h.956l.043-.955-.999-.045zm-42.24 0v-1h-1.076l.079 1.073.997-.073zm6.048 12.768l-.667.745.008.007.659-.752zm22.464 3.168l.383.924.01-.004.009-.004-.402-.916zm6.816-4.992l.755-.656-.75-.862-.755.856.75.662zm3.84 4.416l.768.64.545-.654-.558-.642-.755.656zm-8.448 6.144l-.383-.924-.007.003.39.921zm-24.864-1.152l-.492.87.009.005.008.005.475-.88zM443.535 59l-.867.498.867-.498zm-.192-26.496l-.874-.487-.006.011.88.476zm8.832-9.12l-.499-.867-.007.004.506.863zm33.984 9.12l-.88.476.004.006.876-.482zm3.168 13.248l.999.045.001-.022v-.023h-1zM452.559 30.68l.685.728h.001l-.686-.728zm-5.568 12.096l-.996-.09-.098 1.09h1.094v-1zm35.808 0v1h1.094l-.098-1.09-.996.09zm-5.664-12.096l-.693.721.007.007.008.007.678-.735zm12.096 16.184h-42.24v2h42.24v-2zm-43.237 1.073c.401 5.485 2.522 9.99 6.378 13.44l1.334-1.49c-3.44-3.078-5.351-7.085-5.718-12.096l-1.994.146zm6.386 13.447c3.857 3.383 8.71 5.048 14.483 5.048v-2c-5.363 0-9.726-1.535-13.165-4.552l-1.318 1.504zm14.483 5.048c3.254 0 6.266-.565 9.023-1.708l-.766-1.848c-2.491 1.033-5.239 1.556-8.257 1.556v2zm9.042-1.716a20.387 20.387 0 007.164-5.246l-1.5-1.324a18.39 18.39 0 01-6.468 4.738l.804 1.832zm5.659-5.252l3.84 4.416 1.51-1.312-3.84-4.416-1.51 1.312zm3.827 3.12c-2.132 2.557-4.813 4.511-8.063 5.86l.766 1.848c3.534-1.467 6.485-3.61 8.833-6.428l-1.536-1.28zm-8.07 5.863c-3.191 1.35-6.736 2.033-10.65 2.033v2c4.15 0 7.965-.725 11.43-2.191l-.78-1.842zm-10.65 2.033c-5.04 0-9.481-1.057-13.349-3.144l-.95 1.76c4.196 2.265 8.971 3.384 14.299 3.384v-2zm-13.332-3.135c-3.814-2.153-6.787-5.097-8.937-8.843l-1.734.996c2.33 4.062 5.565 7.262 9.687 9.589l.984-1.742zm-8.937-8.843c-2.145-3.738-3.227-7.98-3.227-12.75h-2c0 5.086 1.158 9.676 3.493 13.746l1.734-.996zm-3.227-12.75c0-4.78 1.023-9.03 3.048-12.772l-1.76-.952c-2.199 4.066-3.288 8.648-3.288 13.724h2zm3.041-12.761c2.093-3.755 4.913-6.662 8.465-8.744l-1.012-1.726c-3.872 2.27-6.94 5.443-9.199 9.496l1.746.974zm8.458-8.74c3.614-2.083 7.663-3.131 12.173-3.131v-2c-4.834 0-9.233 1.128-13.171 3.398l.998 1.732zm12.173-3.131c4.51 0 8.525 1.048 12.07 3.127l1.012-1.726c-3.879-2.273-8.248-3.401-13.082-3.401v2zm12.07 3.127c3.55 2.08 6.334 4.984 8.362 8.733l1.76-.952c-2.197-4.06-5.236-7.235-9.11-9.507l-1.012 1.726zm8.366 8.739c2.02 3.673 3.044 7.919 3.044 12.766h2c0-5.137-1.088-9.723-3.292-13.73l-1.752.964zm3.045 12.72l-.096 2.113 1.998.09.096-2.112-1.998-.09zm-23.481-20.73c-5.101 0-9.448 1.654-12.974 4.976l1.372 1.456c3.13-2.95 6.975-4.432 11.602-4.432v-2zm-12.973 4.976c-3.464 3.26-5.412 7.53-5.879 12.735l1.992.178c.429-4.779 2.193-8.573 5.257-11.457l-1.37-1.456zm-4.883 13.824h35.808v-2h-35.808v2zm36.804-1.09c-.468-5.21-2.451-9.482-5.982-12.74l-1.356 1.469c3.125 2.885 4.918 6.677 5.346 11.45l1.992-.178zm-5.967-12.727c-3.468-3.332-7.82-4.983-12.981-4.983v2c4.695 0 8.535 1.485 11.595 4.425l1.386-1.442zm59.857-3.407v1h1v-1h-1zm-19.104 0v-1h-1v1h1zm0 44.448v1h1v-1h-1zm-6.816 0h-1v1h1v-1zm0-44.448h1v-1h-1v1zm-19.104 0h-1v1h1v-1zm0-6.048v-1h-1v1h1zm45.024 0h1v-1h-1v1zm0 5.048h-19.104v2h19.104v-2zm-20.104 1V71h2V26.552h-2zm1 43.448h-6.816v2h6.816v-2zm-5.816 1V26.552h-2V71h2zm-1-45.448h-19.104v2h19.104v-2zm-18.104 1v-6.048h-2v6.048h2zm-1-5.048h45.024v-2h-45.024v2zm44.024-1v6.048h2v-6.048h-2zm32.071 17.856l-.014 1h.004l.01-1zm14.496 4.224l-.637.77.637-.77zm-.384 24.288l-.627-.78.627.78zm-15.36 4.224l.009-1h-.004l-.005 1zM547.54 71h-1v.995l.995.005.005-1zm0-50.496v-1h-1v1h1zm6.816 0h1v-1h-1v1zm0 17.664h-1v.987l.986.013.014-1zm42.336-17.664v-1h-1v1h1zm6.816 0h1v-1h-1v1zm0 50.496v1h1v-1h-1zm-6.816 0h-1v1h1v-1zm-29.568-5.088l-.015 1h.001l.014-1zm10.56-2.784l.63.777.002-.002-.632-.775zm.096-16.896l.603-.797-.603.797zm-10.656-2.784l-.015 1h.001l.014-1zm-12.768-.192l.015-1-1.015-.015v1.015h1zm0 22.464h-1v.985l.985.015.015-1zm14.39-26.36c6.21.063 10.783 1.443 13.869 3.995l1.274-1.542c-3.571-2.952-8.662-4.388-15.123-4.453l-.02 2zm13.869 3.995c3.051 2.523 4.629 6.181 4.629 11.133h2c0-5.416-1.751-9.694-5.355-12.675l-1.274 1.542zm4.629 11.133c0 5.13-1.696 8.948-5.003 11.605l1.253 1.558c3.862-3.103 5.75-7.541 5.75-13.163h-2zm-5.003 11.605c-3.338 2.682-8.198 4.066-14.724 4.003l-.019 2c6.786.065 12.167-1.367 15.996-4.445l-1.253-1.558zm-14.728 4.003L547.545 70l-.01 2 19.968.096.01-2zM548.54 71V20.504h-2V71h2zm-1-49.496h6.816v-2h-6.816v2zm5.816-1v17.664h2V20.504h-2zm.986 18.664l14.4.192.027-2-14.4-.192-.027 2zm42.35-17.664h6.816v-2h-6.816v2zm5.816-1V71h2V20.504h-2zm1 49.496h-6.816v2h6.816v-2zm-5.816 1V20.504h-2V71h2zm-30.582-4.088c4.787.066 8.579-.88 11.204-3.007l-1.26-1.554c-2.111 1.712-5.36 2.624-9.917 2.561l-.027 2zm11.206-3.01c2.712-2.212 4.016-5.405 4.016-9.414h-2c0 3.543-1.129 6.11-3.28 7.865l1.264 1.55zm4.016-9.414c0-3.938-1.269-7.026-3.949-9.053l-1.207 1.594c2.057 1.557 3.156 3.973 3.156 7.459h2zm-3.949-9.053c-2.612-1.977-6.414-2.922-11.246-2.987l-.027 2c4.64.063 7.943.974 10.066 2.581l1.207-1.594zm-11.244-2.987l-12.768-.192-.03 2 12.768.192.03-2zm-13.783.808V65.72h2V43.256h-2zm.985 23.464l12.768.192.03-2-12.768-.192-.03 2z" fill="#fff"/></svg>