<svg width="478" height="211" fill="none" xmlns="http://www.w3.org/2000/svg"><path d="M379.007 26.841c8.736 0 15.678 2.528 20.826 7.585 5.147 5.058 7.72 12.47 7.72 22.238v39.55h-12.457V58.09c0-6.656-1.6-11.67-4.801-15.041-3.2-3.372-7.785-5.057-13.754-5.057-6.747 0-12.068 1.966-15.96 5.9-3.893 3.932-5.839 9.573-5.839 16.921v35.4h-12.457V0h12.457v37.214c2.595-3.285 5.99-5.835 10.185-7.65 4.196-1.816 8.889-2.723 14.08-2.723zm-50.998 65.353c-1.817 1.556-4.065 2.745-6.747 3.566a28.206 28.206 0 01-8.305 1.232c-6.92 0-12.284-1.86-16.09-5.576-3.806-3.717-5.709-9.034-5.709-15.95V12.449h12.457V27.49h19.723v10.244h-19.723v37.215c0 3.716.93 6.57 2.79 8.558 1.859 1.988 4.519 2.982 7.979 2.982 3.806 0 7.051-1.08 9.732-3.242l3.893 8.948zM221.404 62.5l43.988-8.299c-4.744-23.268-45.529-22.92-43.988 8.299zm25.303 23.6c8.218 0 14.836-2.767 19.853-8.3l6.747 8.04c-6.689 8.022-16.815 11.152-26.989 11.152-21.297 0-36.982-13.712-36.982-35.14 0-19.912 14.084-35.01 34.516-35.01 12.119 0 22.954 5.56 29.196 16.078 3.025 5.098 4.585 10.979 4.671 17.635l-54.628 10.632C226.854 81.53 236.124 86.1 246.707 86.1zM141.214 62.5l43.989-8.299c-4.745-23.268-45.529-22.92-43.989 8.299zm25.303 23.6c8.218 0 14.836-2.767 19.854-8.3l6.746 8.04c-6.689 8.022-16.815 11.152-26.989 11.152-21.297 0-36.981-13.712-36.981-35.14 0-19.912 14.083-35.01 34.515-35.01 12.119 0 22.954 5.56 29.197 16.078 3.025 5.098 4.584 10.979 4.671 17.635l-54.629 10.632C146.664 81.53 155.935 86.1 166.517 86.1zm-47.028 6.094c-1.817 1.556-4.066 2.745-6.748 3.566a28.194 28.194 0 01-8.304 1.232c-6.92 0-12.284-1.859-16.09-5.576-3.807-3.718-5.71-9.034-5.71-15.95V12.449h12.457v62.5c0 3.717.93 6.57 2.79 8.558 1.86 1.988 4.52 2.982 7.98 2.982 3.806 0 7.05-1.08 9.732-3.242l3.893 8.948zM2.206 27.49h12.457v68.724H2.206V27.489z" fill="#3B4768"/><path d="M8.434 16.209c-2.422 0-4.433-.778-6.034-2.334C.8 12.319 0 10.417 0 8.17 0 5.922.8 3.998 2.4 2.4 4 .8 6.012 0 8.434 0c2.423 0 4.434.757 6.034 2.27 1.6 1.512 2.4 3.392 2.4 5.64 0 2.334-.8 4.3-2.4 5.9-1.6 1.6-3.611 2.399-6.034 2.399zm419.898 80.782c-2.422 0-4.433-.778-6.034-2.334-1.6-1.556-2.4-3.458-2.4-5.705 0-2.248.8-4.171 2.4-5.77 1.601-1.6 3.612-2.4 6.034-2.4 2.423 0 4.434.757 6.034 2.27 1.6 1.513 2.401 3.393 2.401 5.64 0 2.335-.801 4.301-2.401 5.9-1.6 1.6-3.611 2.4-6.034 2.4z" fill="#3FAB3C"/><path fill-rule="evenodd" clip-rule="evenodd" d="M121.493 39.611a101.465 101.465 0 00-17.005-.798C70.94 40.058 41.84 57.56 24.478 83.449c17.394-32.967 51-56.258 90.617-58.9a15.837 15.837 0 00-.159 2.893 15.639 15.639 0 006.557 12.169z" fill="#3FAB3C"/><path d="M385.876 89.283c0-1.842-.875-3.399-2.623-4.67-1.748-1.27-4.434-1.905-8.058-1.905-3.752 0-7.836.412-12.255 1.239-4.419.825-8.853 1.97-13.304 3.43a101.142 101.142 0 00-12.826 5.194c-4.101 2.001-7.741 4.193-10.919 6.576-3.181 2.382-5.723 4.891-7.631 7.528-1.907 2.637-2.861 5.321-2.861 8.054 0 2.223.731 4.589 2.194 7.099a156.742 156.742 0 004.815 7.719 132.773 132.773 0 014.817 7.815c1.463 2.573 2.194 5.003 2.194 7.291 0 2.413-.62 4.526-1.859 6.337-1.24 1.81-2.862 3.335-4.865 4.574-2.003 1.239-4.228 2.176-6.676 2.812-2.447.635-4.847.952-7.2.952-2.225 0-4.355-.19-6.389-.572-2.035-.38-3.815-.921-5.341-1.619-1.526-.699-2.734-1.541-3.624-2.526-.89-.985-1.335-2.049-1.335-3.192 0-1.144.413-2.32 1.24-3.527a21.153 21.153 0 012.956-3.43 37.64 37.64 0 013.528-2.954 80.535 80.535 0 012.957-2.097c-.127-.89-.699-1.208-1.717-.953-.762.381-1.811 1.032-3.147 1.953a32.872 32.872 0 00-3.957 3.241 24.532 24.532 0 00-3.386 3.955c-.954 1.397-1.43 2.731-1.43 4.002 0 1.462.429 2.907 1.287 4.336.858 1.43 2.146 2.685 3.862 3.765 1.717 1.079 3.831 1.953 6.342 2.62 2.512.668 5.42 1.001 8.727 1.001 3.687 0 7.072-.413 10.156-1.239 3.083-.826 5.739-1.906 7.964-3.24 2.224-1.334 3.957-2.827 5.197-4.479 1.24-1.652 1.86-3.304 1.86-4.956 0-1.969-.382-3.97-1.144-6.003a41.825 41.825 0 00-2.862-6.052 121.71 121.71 0 00-3.671-6.004 242.803 242.803 0 01-3.673-5.813c-1.144-1.875-2.098-3.685-2.86-5.433-.764-1.746-1.145-3.383-1.145-4.907 0-1.652 1.065-3.494 3.194-5.527 2.131-2.033 4.913-4.099 8.346-6.195 3.433-2.097 7.296-4.145 11.587-6.147a157.815 157.815 0 0112.875-5.337c4.291-1.556 8.376-2.81 12.254-3.764 3.878-.954 7.12-1.43 9.727-1.43 2.289 0 3.831.27 4.626.81.794.54 1.192 1.256 1.192 2.145 0 1.334-.588 2.795-1.765 4.383a37.265 37.265 0 01-3.909 4.48c-1.431 1.398-2.782 2.572-4.053 3.526-1.272.953-2.035 1.429-2.289 1.429-.255 0-.445-.047-.573-.143a2.138 2.138 0 01-.381-.381 1.412 1.412 0 00-.477-.382c-.191-.095-.476-.142-.858-.142-.445 0-1.287.397-2.527 1.191-1.24.795-2.671 1.795-4.291 3.002a112.351 112.351 0 00-5.103 4.05 122.616 122.616 0 00-4.911 4.336c-1.494 1.398-2.718 2.653-3.672 3.764-.954 1.112-1.43 1.891-1.43 2.335 0 .89.302 1.604.906 2.145.603.54 1.255.81 1.954.81.573 0 1.876-.635 3.911-1.906 2.034-1.271 4.387-2.939 7.056-5.003 2.671-2.065 5.5-4.384 8.489-6.957a121.925 121.925 0 008.201-7.72c2.479-2.572 4.53-5.034 6.151-7.385 1.621-2.351 2.432-4.32 2.432-5.909zm7.63 8.958c0-.317-.16-.619-.478-.905a4.366 4.366 0 00-1.096-.715 8.215 8.215 0 00-1.335-.476c-.478-.127-.875-.19-1.193-.19-.254 0-.826.492-1.716 1.477-.891.984-1.987 2.255-3.29 3.812a194.3 194.3 0 00-4.292 5.336 987.323 987.323 0 00-4.672 6.052 302.66 302.66 0 00-4.388 5.861 145.528 145.528 0 00-3.385 4.812c-.254.318-.493.652-.715 1.001a10.91 10.91 0 01-.811 1.096c-1.525 0-2.734.016-3.623.048a51.2 51.2 0 00-1.956.095c-.413.031-.715.047-.906.047h-.381c-.382 0-.731.096-1.05.287-.318.19-.476.444-.476.761 0 .318.222.445.667.382a9.379 9.379 0 011.336-.095h.953c.318 0 .811.015 1.478.047.668.032 1.637.048 2.909.048a178.413 178.413 0 00-4.339 6.862 84.417 84.417 0 00-4.101 7.671 62.622 62.622 0 00-3.099 7.91c-.826 2.637-1.24 5.13-1.24 7.481 0 2.033.509 3.621 1.525 4.765 1.018 1.144 2.322 1.716 3.911 1.716a9.351 9.351 0 003.051-.525 15.744 15.744 0 002.767-1.239 21.64 21.64 0 002.193-1.43 61.69 61.69 0 001.43-1.095.804.804 0 000-.762 1.244 1.244 0 00-.572-.572 49 49 0 01-1.382 1.048c-.605.445-1.304.874-2.099 1.286-.795.413-1.637.778-2.527 1.096a7.894 7.894 0 01-2.67.477c-.891 0-1.653-.381-2.289-1.144-.636-.762-.954-1.811-.954-3.145 0-1.969.572-4.257 1.717-6.861 1.144-2.605 2.542-5.289 4.196-8.053a117.004 117.004 0 015.388-8.195 298.624 298.624 0 015.388-7.291h2.67c.127 0 .191.063.191.191 0 .127-.016.254-.047.381a1.552 1.552 0 00-.048.38c0 .255.048.414.143.478.095.063.366.095.81.095.255 0 .78-.048 1.574-.143a20.9 20.9 0 002.384-.43 11.968 11.968 0 002.146-.714c.636-.286.954-.62.954-1.001 0-.254-.191-.492-.573-.714-.381-.222-.826-.334-1.334-.334h-2.576c-1.399 0-3.115.032-5.149.096a355.678 355.678 0 016.437-8.625 399.013 399.013 0 015.817-7.386 236.223 236.223 0 014.387-5.289 146.822 146.822 0 002.146-2.525 67.467 67.467 0 001.478-1.525c.476-.508.716-1.08.716-1.716zm11.634 52.891c0-.127-.127-.19-.382-.19-.445 0-1.081-.079-1.907-.238-.826-.159-1.24-.62-1.24-1.382 0-1.524.286-2.923.859-4.193.571-1.271.858-2.669.858-4.193 0-1.017-.287-2.033-.858-3.05-.573-1.017-1.272-1.525-2.098-1.525-.191 0-.414.111-.668.334-.254.222-.572.492-.954.81-.889.953-2.018 2.239-3.385 3.859a63.29 63.29 0 01-4.53 4.813 61.436 61.436 0 01-3.195 2.811 45.573 45.573 0 01-2.957 2.24 24.237 24.237 0 01-2.479 1.525c-.731.381-1.287.572-1.669.572-.508 0-.843-.238-1.001-.715a4.34 4.34 0 01-.238-1.366c0-.89.318-2.145.953-3.749a58.717 58.717 0 012.241-4.987c.858-1.715 1.717-3.32 2.575-4.844.858-1.509 1.542-2.621 2.05-3.32.064-.063.095-.222.095-.476 0-.509-.285-1.16-.858-1.938-.571-.795-1.08-1.191-1.525-1.191-.509 0-1.081.269-1.717.809-.636.541-1.287 1.255-1.955 2.129a31.799 31.799 0 00-2.05 3.145 49.795 49.795 0 00-2.003 3.796 72.49 72.49 0 00-2.813 7.258c-.795 2.446-1.193 4.384-1.193 5.845 0 .509.16 1.001.478 1.478.318.461.731.89 1.239 1.271.509.38 1.065.698 1.669.952.604.255 1.161.382 1.669.382.699 0 1.653-.349 2.861-1.049 1.208-.699 2.496-1.588 3.862-2.668a78.524 78.524 0 004.196-3.574 285.157 285.157 0 003.911-3.621 154.048 154.048 0 002.956-2.859l1.382-1.382.191.191c-.254.445-.587 1.239-1.001 2.382-.413 1.144-.619 2.636-.619 4.48 0 1.715.413 3.223 1.239 4.526.827 1.303 1.78 1.953 2.861 1.953.382 0 .795-.19 1.24-.571.445-.381.89-.81 1.335-1.287.445-.476.827-.953 1.145-1.429.317-.477.54-.779.667-.906.508-.508.763-.794.763-.858zm71.812-55.94c0-3.367-1.749-5.051-5.246-5.051-2.352 0-4.736.635-7.152 1.906-2.416 1.27-4.8 3.002-7.153 5.194-2.352 2.192-4.64 4.781-6.866 7.767a86.032 86.032 0 00-6.199 9.625 107.581 107.581 0 00-5.197 10.721 81.53 81.53 0 00-3.767 11.103 284.694 284.694 0 01-8.631 7.242c-2.765 2.224-5.276 4.146-7.534 5.766-2.257 1.62-4.196 2.906-5.817 3.86-1.621.952-2.782 1.43-3.481 1.43-.318 0-.477-.287-.477-.859 0-.889.445-2.144 1.335-3.764.891-1.62 2.035-3.383 3.433-5.289a80.445 80.445 0 014.674-5.766 90.835 90.835 0 015.054-5.289c1.653-1.588 3.162-2.891 4.53-3.907 1.367-1.017 2.432-1.525 3.194-1.525.764 0 1.176.174 1.24.524.064.35.095.683.095 1.001 0 .254.143.429.43.524.286.095.588.143.906.143.318 0 .667-.048 1.049-.143.382-.095.572-.46.572-1.096 0-1.461-.509-2.621-1.526-3.479-1.017-.857-2.226-1.286-3.624-1.286-1.398 0-2.988.524-4.769 1.573-1.78 1.048-3.591 2.413-5.435 4.097-1.844 1.684-3.64 3.606-5.388 5.766a65.037 65.037 0 00-4.721 6.623c-1.398 2.256-2.511 4.448-3.338 6.576-.827 2.128-1.24 4.019-1.24 5.671 0 1.27.239 2.16.716 2.668s.937.762 1.382.762c.891 0 2.21-.445 3.959-1.334 1.747-.89 3.782-2.113 6.103-3.669 2.32-1.556 4.88-3.415 7.677-5.575 2.797-2.16 5.69-4.479 8.678-6.957a66.737 66.737 0 00-1.144 6.671 53.67 53.67 0 00-.382 6.29c0 4.447.62 7.83 1.86 10.149 1.24 2.319 2.845 3.479 4.816 3.479.699 0 1.366-.144 2.002-.429a5.393 5.393 0 001.622-1.096.917.917 0 00.047-.763c-.095-.254-.302-.349-.62-.285-.318.254-.619.46-.905.619-.287.159-.78.238-1.478.238-1.273 0-2.21-.985-2.813-2.954-.605-1.97-.907-4.479-.907-7.529 0-3.049.271-6.147.811-9.292.54-3.145 1.351-6.337 2.432-9.577a374.718 374.718 0 0013.494-12.198c4.419-4.194 8.392-8.18 11.921-11.961 3.528-3.779 6.374-7.162 8.535-10.149 2.161-2.986 3.243-5.242 3.243-6.766zm-2.575.19c0 1.334-.97 3.273-2.909 5.813-1.939 2.542-4.451 5.449-7.534 8.721-3.084 3.272-6.596 6.766-10.538 10.483a432.604 432.604 0 01-12.017 10.911 94.302 94.302 0 016.486-13.818c2.543-4.448 5.213-8.418 8.011-11.913 2.797-3.494 5.626-6.29 8.487-8.385 2.861-2.097 5.5-3.146 7.916-3.146.699 0 1.24.143 1.62.43.382.285.542.587.478.904zm2.956 36.214c0-1.525-.413-2.287-1.24-2.287-.318 0-1.367.953-3.147 2.859-1.78 1.906-4.513 4.289-8.202 7.147-.953.7-2.034 1.526-3.242 2.478a133.947 133.947 0 01-3.623 2.764 64.943 64.943 0 01-3.291 2.287c-.985.636-1.733.954-2.24.954-.446 0-.7-.112-.764-.334a2.612 2.612 0 01-.095-.715c0-.127.366-.762 1.097-1.906a602.587 602.587 0 002.384-3.764c.858-1.366 1.653-2.637 2.384-3.812.732-1.176 1.097-1.859 1.097-2.049 0-.318-.254-.747-.763-1.287-.509-.54-.986-.81-1.431-.81-.318 0-1.001.604-2.05 1.81a58.863 58.863 0 00-3.29 4.194 53.646 53.646 0 00-3.052 4.717c-.89 1.556-1.335 2.684-1.335 3.384 0 1.397.413 2.493 1.24 3.287s1.685 1.191 2.574 1.191c.573 0 1.415-.301 2.528-.905a55.144 55.144 0 003.719-2.239 76.632 76.632 0 004.148-2.907 198.433 198.433 0 003.91-3.002c1.208-.953 2.21-1.763 3.004-2.43.795-.667 1.256-1.064 1.384-1.191.318-.254.54-.159.667.285a74.025 74.025 0 01-2.146 5.004 149.378 149.378 0 01-2.527 5.098c-5.087 1.525-10.427 3.558-16.021 6.099a166.498 166.498 0 00-16.499 8.609 180.35 180.35 0 00-15.401 10.182c-4.864 3.573-9.156 7.194-12.875 10.848-3.72 3.637-6.676 7.211-8.87 10.705-2.194 3.478-3.29 6.687-3.29 9.61 0 1.762.604 3.129 1.812 4.081 1.208.953 2.543 1.43 4.006 1.43 3.306 0 7.04-.858 11.206-2.573 4.164-1.715 8.504-4.034 13.017-6.988 4.514-2.956 9.092-6.386 13.733-10.278a175.915 175.915 0 0013.351-12.468 182.502 182.502 0 0011.921-13.612c3.687-4.653 6.803-9.18 9.346-13.548 1.081.063 1.908.207 2.479.429.573.222 1.002.476 1.288.762.286.286.508.54.668.747.158.222.333.333.524.333.827 0 1.24-.508 1.24-1.508 0-.954-.477-1.668-1.431-2.145-.953-.477-2.129-.778-3.529-.906 1.78-3.303 3.164-6.448 4.149-9.433.985-2.987 1.478-5.719 1.478-8.197zm-13.637 20.108a134.735 134.735 0 01-9.203 13.771c-3.401 4.48-6.882 8.561-10.443 12.246-1.716 1.78-3.782 3.764-6.198 5.957a312.103 312.103 0 01-7.725 6.766 166.576 166.576 0 01-8.535 6.766c-2.957 2.192-5.849 4.146-8.679 5.861-2.829 1.716-5.499 3.097-8.011 4.145-2.511 1.049-4.689 1.573-6.533 1.573-1.081 0-1.923-.365-2.527-1.096-.604-.731-.906-1.604-.906-2.621 0-2.541 1.033-5.432 3.099-8.672 2.067-3.24 4.833-6.575 8.298-10.006 3.465-3.432 7.502-6.893 12.112-10.388a164.716 164.716 0 0114.59-9.863 184.739 184.739 0 0115.545-8.387c5.246-2.509 10.284-4.527 15.116-6.052z" fill="#3FAB3C"/></svg>