<svg width="245" height="55" fill="none" xmlns="http://www.w3.org/2000/svg"><path d="M35.507 8.96a14.928 14.928 0 01-1.888 3.274 20.812 20.812 0 01-2.892 3.094 21.4 21.4 0 01-3.7 2.611 20.47 20.47 0 01-4.279 1.788c-1.507.44-3.07.663-4.64.662a6.505 6.505 0 01-1.627-.2 4.51 4.51 0 01-1.366-.583 3.418 3.418 0 01-.944-.9 1.911 1.911 0 01-.18-1.929c.112-.254.261-.49.442-.7.16-.188.336-.362.523-.523.173-.146.314-.261.421-.341.053-.026.107-.007.161.061a.75.75 0 01.121.221 4.604 4.604 0 00-.544.743 2.05 2.05 0 00-.34 1.1.974.974 0 00.6.824c.632.272 1.32.39 2.008.341a12.877 12.877 0 004.017-.683 21.023 21.023 0 004.057-1.827 27.12 27.12 0 006.79-5.624 15.85 15.85 0 002.088-3.033 5.993 5.993 0 00.762-2.691 2.612 2.612 0 00-1.164-2.21 6.834 6.834 0 00-3.9-.843 17.34 17.34 0 00-2.973.281 52.93 52.93 0 00-3.415.722c.168.297.296.614.382.943.097.291.157.594.18.9a4.93 4.93 0 01-.985 1.2 577.028 577.028 0 00-6.306 6.8 124.02 124.02 0 00-4.319 5 178.732 178.732 0 00-3.474 4.333 281.017 281.017 0 00-2.772 3.631 67.823 67.823 0 00-1.847 2.569c-.263.34-.485.709-.663 1.1l.121.08c.08-.079.213-.227.4-.44a30.818 30.818 0 011.266-1.345 3.66 3.66 0 01.422-.381c.188-.053.281.028.281.241-.08.133-.287.521-.623 1.164-.335.643-.71 1.324-1.124 2.045a32.199 32.199 0 01-1.206 1.946c-.388.575-.676.862-.864.863a.91.91 0 01-.622-.282 2.914 2.914 0 01-.544-.7 4.46 4.46 0 01-.38-.863 2.554 2.554 0 01-.142-.764 4.85 4.85 0 01.7-1.829 48.09 48.09 0 011.808-3.033 78.902 78.902 0 012.53-3.7 98.044 98.044 0 012.873-3.776 220.086 220.086 0 013.8-4.66 433.053 433.053 0 013.7-4.359 310.735 310.735 0 013.174-3.635 192.731 192.731 0 012.236-2.483 69.456 69.456 0 00-4.5 1.567c-1.526.59-3 1.198-4.419 1.827a94.713 94.713 0 00-3.976 1.868 65.903 65.903 0 00-3.215 1.707 30 30 0 00-2.169 1.346c-.537.376-.8.629-.8.764s.094.2.281.2a5.884 5.884 0 002.01-.683 45.743 45.743 0 003.132-1.647 71.88 71.88 0 002.13-1.226c.696-.417 1.345-.806 1.947-1.165a61.1 61.1 0 001.527-.944c.418-.269.706-.443.864-.523.132-.026.268-.026.4 0a.3.3 0 01.241.282c-.238.252-.5.481-.783.683a46.41 46.41 0 01-1.526 1.124c-.603.428-1.28.883-2.03 1.366-.75.482-1.512.95-2.289 1.406a53.791 53.791 0 01-3.675 1.964c-.487.242-.99.45-1.507.623a3.77 3.77 0 01-1.085.221 1.168 1.168 0 01-.844-.422 1.476 1.476 0 01-.4-1.064c0-.295.422-.804 1.266-1.527a32.273 32.273 0 013.374-2.451c1.405-.91 3.032-1.847 4.881-2.811a67.762 67.762 0 015.784-2.671A47.042 47.042 0 0122.332.965a23.29 23.29 0 015.785-.784 13.665 13.665 0 013.7.435 7.043 7.043 0 012.491 1.206 4.894 4.894 0 011.427 1.775c.313.694.47 1.449.462 2.21a8.325 8.325 0 01-.69 3.153zm5.543 14.543c-.3.336-.636.711-1.024 1.125-.388.414-.784.831-1.185 1.245-.4.414-.737.743-1 .984-.296.24-.637.536-1.025.885-.387.35-.787.683-1.2 1-.398.31-.82.585-1.265.824-.342.202-.727.32-1.124.341a1.083 1.083 0 01-1.045-.723 4.338 4.338 0 01-.32-1.768c.008-.432.055-.862.14-1.285.044-.314.118-.624.22-.924a.206.206 0 00-.08-.257.175.175 0 00-.08-.022 2.33 2.33 0 00-.422.321c-.254.215-.563.475-.924.783l-1.164 1c-.415.357-.8.7-1.145 1.024-.345.324-.77.7-1.266 1.144-.496.444-.984.858-1.467 1.245-.483.387-.924.723-1.326 1a1.892 1.892 0 01-.883.422.761.761 0 01-.662-.482 2.249 2.249 0 01-.26-1.085 6.93 6.93 0 01.481-2.33 18.79 18.79 0 011.265-2.732c.536-.96 1.14-1.88 1.808-2.752a20.93 20.93 0 012.13-2.411 12.08 12.08 0 012.23-1.728 4.167 4.167 0 012.087-.662c.487-.016.965.14 1.347.442a1.66 1.66 0 01.542 1.365c-.013.226-.06.45-.14.662-.095.281-.216.59-.363.924-.146.335-.313.676-.5 1.024-.188.349-.361.657-.52.924a1.55 1.55 0 01.6-.2c.28-.013.557.072.782.241a.97.97 0 01.3.8c-.01.294-.064.586-.16.864a25.38 25.38 0 01-.363 1.045c-.133.362-.254.716-.362 1.064-.098.299-.151.61-.159.924-.004.192.03.383.1.562a.409.409 0 00.422.241 3.022 3.022 0 001.447-.8 38.55 38.55 0 002.13-1.848c.4-.4.801-.808 1.205-1.224.404-.416.779-.798 1.123-1.145a23.846 23.846 0 001.407-1.524c.08 0 .167.067.261.2s.074.349-.06.643a11.04 11.04 0 01-.533.634zm-7.833-4.4a2.517 2.517 0 00-1.206.56c-.631.451-1.235.94-1.809 1.462a27.097 27.097 0 00-2.047 2.061 36.883 36.883 0 00-1.929 2.321 20.723 20.723 0 00-1.809 2.723 4.41 4.41 0 00-.643 1.841c0 .268.041.4.121.4.256-.099.493-.24.7-.42a40.63 40.63 0 002.992-2.403c.564-.493 1.073-.94 1.527-1.341.482-.427.95-.854 1.406-1.281.456-.427.884-.814 1.285-1.161a1.974 1.974 0 01-.482-.2c-.134-.08-.2-.146-.2-.2 0-.054.054-.126.162-.22a2.79 2.79 0 00.321-.34c.146-.185.28-.379.4-.581a36.95 36.95 0 001.286-2.181c.134-.208.23-.439.28-.681a.318.318 0 00-.358-.358l.003-.001z" fill="#00B926"/><path d="M48.22 20.67a.33.33 0 01-.3.16.31.31 0 01-.322-.2 2.48 2.48 0 00-.242-.44 1.5 1.5 0 00-.5-.442 2.18 2.18 0 00-1.065-.2 3.36 3.36 0 00-1.446.32 4.498 4.498 0 00-1.206.824 3.78 3.78 0 00-.823 1.165 3.308 3.308 0 00-.3 1.386c-.002.444.095.883.282 1.285.186.4.395.8.623 1.206.228.406.435.8.622 1.2.188.403.284.842.282 1.286a2.947 2.947 0 01-.423 1.547 4.74 4.74 0 01-1.084 1.244c-.439.36-.934.646-1.467.844-.5.194-1.03.295-1.567.3a2.979 2.979 0 01-1.226-.3 1.372 1.372 0 01-.823-.944.546.546 0 01.4-.161c.212.03.412.113.582.24.3.173.64.257.985.243a2.563 2.563 0 001.827-.8 2.473 2.473 0 00.824-1.808 2.18 2.18 0 00-.34-1.185 20.398 20.398 0 00-.764-1.125 8.959 8.959 0 01-.763-1.265 3.65 3.65 0 01-.342-1.647c-.004-.754.154-1.5.462-2.19a5.581 5.581 0 011.247-1.767 5.856 5.856 0 014.036-1.586c.28.031.548.128.783.282.349.196.678.425.984.682.301.247.578.523.825.824.186.19.306.436.341.7a.6.6 0 01-.103.322zm8.958 0a.332.332 0 01-.3.16.31.31 0 01-.32-.2 2.462 2.462 0 00-.242-.44 1.502 1.502 0 00-.5-.442 2.183 2.183 0 00-1.065-.2c-.5-.002-.994.107-1.447.32a4.474 4.474 0 00-1.2.824 3.742 3.742 0 00-.823 1.165 3.31 3.31 0 00-.3 1.386c-.002.444.094.883.282 1.285.188.4.395.802.623 1.206.228.404.436.804.623 1.2.188.403.284.842.282 1.286a2.948 2.948 0 01-.422 1.547 4.762 4.762 0 01-1.084 1.244 5.17 5.17 0 01-1.467.844 4.44 4.44 0 01-1.567.3 2.979 2.979 0 01-1.226-.3 1.367 1.367 0 01-.823-.944.544.544 0 01.4-.161c.211.03.412.113.582.24a1.8 1.8 0 00.985.243 2.563 2.563 0 001.827-.8 2.473 2.473 0 00.824-1.808 2.18 2.18 0 00-.342-1.185 21.603 21.603 0 00-.762-1.125 9.06 9.06 0 01-.765-1.265 3.65 3.65 0 01-.34-1.647c-.005-.754.153-1.5.461-2.19a5.548 5.548 0 011.247-1.767 5.856 5.856 0 014.036-1.586c.28.031.548.128.783.282.348.197.678.425.984.682.301.247.577.523.824.824.186.19.306.436.342.7a.61.61 0 01-.11.322zm5.906 6.588c-.255.216-.536.442-.845.683a64.46 64.46 0 01-.943.723c-.321.241-.59.429-.8.562-.457.268-1.011.57-1.668.9a4.183 4.183 0 01-1.908.5c-.374.01-.74-.104-1.045-.321a1.4 1.4 0 01-.441-1.206 4.551 4.551 0 01.4-1.727c.261-.632.57-1.242.924-1.827.347-.577.675-1.072.985-1.487.307-.414.487-.662.54-.743a1.43 1.43 0 00.4-.885 1.15 1.15 0 01.183-.521 3.24 3.24 0 01.462-.623c.182-.196.391-.364.622-.5.211-.128.453-.197.7-.2.289-.01.572.083.8.261a.72.72 0 01.32.542 5.729 5.729 0 01-.12.965 2.416 2.416 0 01-.321.924c-.08.079-.215.228-.4.441-.185.213-.4.449-.643.7-.243.251-.5.523-.762.8a10 10 0 00-.684.782c-.4.51-.795 1.045-1.185 1.607a2.65 2.65 0 00-.582 1.326.623.623 0 00.12.342.408.408 0 00.362.18 3.41 3.41 0 001.346-.382 20.755 20.755 0 001.708-.9c.533-.347 1.049-.689 1.547-1.024a10.92 10.92 0 001.1-.824.349.349 0 01.24.121.4.4 0 01.08.362c-.066.089-.24.236-.492.449zm1.606-10.143a2.11 2.11 0 01-.261.361c-.1.113-.208.22-.321.321a.459.459 0 01-.282.141.718.718 0 01-.341-.141 3.16 3.16 0 01-.442-.341 2.665 2.665 0 01-.382-.422.724.724 0 01-.161-.421c.027-.333.161-.649.382-.9a1.061 1.061 0 01.823-.5c.508 0 .79.133.844.4.072.203.126.411.162.623.044.205.07.413.08.623a.655.655 0 01-.101.257v-.001z" fill="#00B926"/><path d="M75.035 23.522a1.687 1.687 0 00-.361.061 5.247 5.247 0 01-.523.1 19.428 19.428 0 01-1.606 2.309 18.58 18.58 0 01-2.23 2.35 14.682 14.682 0 01-2.551 1.828 5.25 5.25 0 01-2.571.743 3.428 3.428 0 01-2.15-.662 2.35 2.35 0 01-.863-1.989 4.83 4.83 0 01.4-1.768c.292-.717.656-1.403 1.084-2.049a23.66 23.66 0 011.507-2.049 20.01 20.01 0 011.667-1.808c.492-.48 1.03-.91 1.607-1.286.389-.28.848-.447 1.326-.482a.4.4 0 01.32.141c.087.102.168.21.242.321.08.121.153.228.22.321a.277.277 0 00.222.141 4.35 4.35 0 00.924-.161c.38-.1.771-.155 1.165-.161a1.916 1.916 0 011.365.582 2.571 2.571 0 01.6 1.909v.241c.08.215.153.421.22.623a1.1 1.1 0 00.18.382c.192.243.127.364-.194.363zm-2.048-3.012a4.646 4.646 0 00-1.848.441c-.7.313-1.366.697-1.988 1.145a16.244 16.244 0 00-1.91 1.607 18.735 18.735 0 00-1.646 1.827 9.832 9.832 0 00-1.144 1.809c-.25.472-.395.993-.422 1.526a.994.994 0 001.125 1.124 2.95 2.95 0 001.346-.421c.574-.314 1.124-.67 1.647-1.065.601-.45 1.178-.933 1.727-1.446a27.808 27.808 0 001.568-1.567c.407-.434.783-.897 1.123-1.386.222-.272.367-.597.422-.944a4.493 4.493 0 01-.221-.241 1.122 1.122 0 01-.14-.683 1.508 1.508 0 01.382-1.085c.253-.267.38-.428.38-.482 0-.105-.134-.159-.401-.159zm17.695 2.29A18.82 18.82 0 0190 24.629c-.281.656-.576 1.332-.885 2.028a47.755 47.755 0 01-.883 1.889c-.28.562-.508 1.024-.683 1.386a4.964 4.964 0 00-.26.582c0 .16.066.241.2.241.202-.025.396-.101.561-.221.178-.124.384-.2.6-.22a.186.186 0 01.2.14c.026.085.04.172.041.261 0 .081-.12.229-.362.442-.276.243-.564.47-.864.683-.333.24-.661.455-.985.643-.215.15-.463.246-.723.282-.16 0-.388-.175-.682-.523a1.75 1.75 0 01-.442-1.165c.032-.463.14-.918.32-1.346.216-.575.478-1.198.785-1.868.308-.67.641-1.36 1-2.068.363-.71.7-1.373 1.006-1.989.306-.616.568-1.151.782-1.606.16-.287.269-.6.321-.924a.5.5 0 00-.56-.562 4.47 4.47 0 00-1.628.381 16.82 16.82 0 00-2.029 1 32.53 32.53 0 00-2.25 1.426 69.67 69.67 0 00-2.29 1.647 60.16 60.16 0 00-2.27 1.748c-.709.575-1.345 1.083-1.908 1.526-.563.442-1.012.804-1.347 1.085a3.957 3.957 0 01-.542.422.831.831 0 01-.3-.121 5.404 5.404 0 01-.482-.3 3.313 3.313 0 01-.462-.381.56.56 0 01-.2-.362 2.07 2.07 0 01.382-.723c.256-.375.582-.824.985-1.346a77.42 77.42 0 012.692-3.295c.43-.496.81-.9 1.144-1.224.335-.324.57-.483.7-.483a.707.707 0 01.561.3.9.9 0 01.241.542c-.041.145-.109.28-.2.4-.133.215-.313.496-.54.844l-.765 1.165c-.281.43-.569.858-.864 1.286a79.71 79.71 0 012.591-2.009c1.005-.75 2.05-1.46 3.135-2.13a26.913 26.913 0 013.214-1.706 7.18 7.18 0 012.871-.7c.486.01.957.17 1.347.461a1.5 1.5 0 01.662 1.306 4.819 4.819 0 01-.252 1.327zm32.037-15.667c-.376.295-.684.549-.924.762l-.24.5c-.133.279-.242.42-.321.42-.136 0-.322-.153-.563-.461a1.392 1.392 0 01-.361-.662 1.25 1.25 0 01.16-.442c.106-.215.234-.463.382-.744.149-.285.277-.58.383-.883.1-.277.154-.57.16-.864.004-.22-.037-.44-.12-.643-.081-.187-.268-.282-.563-.282a2.233 2.233 0 00-1.426.864 16.99 16.99 0 00-1.607 1.989c-.523.75-.998 1.5-1.426 2.25-.428.75-.723 1.285-.885 1.606a342.156 342.156 0 00-2.37 4.68 194.985 194.985 0 01-2.409 4.68c.362.003.724.03 1.084.08a34.349 34.349 0 012.25.38c.321.065.563.114.723.14a.563.563 0 00.242.042c.133 0 .2.053.2.16a.542.542 0 01-.182.382.413.413 0 01-.382.14l-4.419-.441a1421.359 1421.359 0 01-3.836 7.212 185.139 185.139 0 01-4 7.091c-.322.533-.77 1.223-1.345 2.068a26.908 26.908 0 01-1.91 2.471 14.848 14.848 0 01-2.17 2.068 3.586 3.586 0 01-2.167.864 1.788 1.788 0 01-1.065-.3 2.663 2.663 0 01-.7-.743 2.742 2.742 0 01-.381-1 6.168 6.168 0 01-.1-1.085v-.482a4.83 4.83 0 01.26-1.165c.175-.562.383-1.144.625-1.747.214-.55.476-1.082.782-1.588.281-.455.556-.683.825-.682.159 0 .267.12.32.36-.512.814-.93 1.683-1.244 2.592a8.416 8.416 0 00-.524 2.833c.002.221.016.442.04.662.025.24.079.474.162.7.078.212.201.404.362.563a.866.866 0 00.643.24c.428 0 .97-.347 1.626-1.044a21.36 21.36 0 002.11-2.712 56.45 56.45 0 002.309-3.756 173.632 173.632 0 002.31-4.218c.533-.99 1.042-1.967 1.526-2.932.484-.965.919-1.848 1.307-2.651l1.023-2.109c.294-.606.508-1.055.642-1.347a10.21 10.21 0 00-1.064.062c-.389.04-.789.093-1.2.16-.412.069-.814.142-1.206.22-.389.08-.717.161-.984.242a.328.328 0 01-.342-.14.601.601 0 01-.141-.382.373.373 0 01.18-.322c.116-.077.246-.132.383-.161.321-.08.688-.166 1.1-.261a25.757 25.757 0 012.631-.461c.455-.053.87-.093 1.245-.12.24-.483.522-1.065.844-1.748.322-.683.696-1.433 1.124-2.25.429-.816.891-1.686 1.386-2.611a61.334 61.334 0 011.589-2.791 63.131 63.131 0 011.809-2.791 19.835 19.835 0 011.888-2.371 10.214 10.214 0 011.908-1.627 3.454 3.454 0 011.868-.6 1.132 1.132 0 01.9.4c.236.283.413.611.521.964.121.378.195.769.221 1.165a6.42 6.42 0 010 1c.187-.107.367-.207.544-.3.188-.1.382-.187.582-.261a.53.53 0 01.382.236.525.525 0 01.059.446c-.388.058-.75.226-1.043.486zm1.808 16.389a1.662 1.662 0 00-.361.061 5.26 5.26 0 01-.524.1 19.33 19.33 0 01-1.606 2.309 18.525 18.525 0 01-2.229 2.35 14.739 14.739 0 01-2.552 1.828 5.249 5.249 0 01-2.571.743 3.427 3.427 0 01-2.149-.662 2.348 2.348 0 01-.864-1.989c.021-.61.157-1.209.4-1.768.293-.717.657-1.403 1.085-2.049.465-.71.968-1.393 1.507-2.049a20.094 20.094 0 011.666-1.808c.493-.48 1.031-.91 1.607-1.286a2.6 2.6 0 011.326-.482.398.398 0 01.321.141c.087.102.167.209.241.321.08.121.154.228.221.321a.277.277 0 00.222.141c.312-.02.622-.074.923-.161.38-.1.771-.155 1.165-.161a1.918 1.918 0 011.365.582 2.579 2.579 0 01.6 1.909v.241c.08.215.154.421.221.623.034.138.096.267.18.382.193.243.127.363-.194.363zm-2.05-3.012a4.636 4.636 0 00-1.847.441c-.7.313-1.367.697-1.989 1.145a16.048 16.048 0 00-1.908 1.607 18.494 18.494 0 00-1.647 1.827 9.676 9.676 0 00-1.144 1.809 3.656 3.656 0 00-.423 1.526.988.988 0 00.281.843.995.995 0 00.843.281c.475-.03.937-.174 1.345-.421a13.34 13.34 0 001.647-1.065c.602-.45 1.178-.933 1.727-1.446a27.252 27.252 0 001.568-1.567 12.28 12.28 0 001.124-1.386c.221-.272.366-.598.421-.944a4.962 4.962 0 01-.221-.241 1.122 1.122 0 01-.14-.683 1.507 1.507 0 01.382-1.085c.253-.267.382-.428.382-.482.002-.105-.133-.159-.401-.159zm13.779 6.447a23.324 23.324 0 01-2.371 2.23 14.817 14.817 0 01-2.37 1.667 4.77 4.77 0 01-2.327.7 1.93 1.93 0 01-1.24-.462 1.678 1.678 0 01-.571-1.386 3.39 3.39 0 01.649-1.768c.433-.667.909-1.33 1.426-1.988.517-.659.997-1.261 1.44-1.808.336-.335.566-.761.662-1.226 0-.187-.214-.282-.643-.282-.395.003-.79.03-1.183.08-.48.056-.963.083-1.447.08a2.54 2.54 0 01-1.428-.373 1.21 1.21 0 01-.562-1.073 2.56 2.56 0 01.5-1.226 10.642 10.642 0 012.717-2.832c.411-.33.914-.527 1.44-.563.829 0 1.245.228 1.245.684-.08.308-.223.595-.422.843a9.67 9.67 0 01-1.064 1.326c-.375.43-.709.818-1 1.165a2.447 2.447 0 00-.441.6c0 .133.154.214.461.241.307.026.69.04 1.145.04a3.578 3.578 0 011.888.464 1.676 1.676 0 01.764 1.553 2.893 2.893 0 01-.662 1.535 30.411 30.411 0 01-1.447 1.856c-.521.62-1.004 1.191-1.447 1.715-.328.31-.558.71-.662 1.15 0 .376.161.565.482.565a3.825 3.825 0 001.467-.483 12.122 12.122 0 002.149-1.406c.4-.321.809-.676 1.226-1.064l1.165-1.085c.362-.334.669-.629.924-.883l.5-.5c.134 0 .195.088.182.261-.01.163-.058.321-.141.462-.312.415-.647.813-1.004 1.191zm37.601-18.539a45.906 45.906 0 01-3.6 4.279 117.162 117.162 0 01-5.021 5.041 160.154 160.154 0 01-5.684 5.142 27.264 27.264 0 00-1.025 4.038 23.064 23.064 0 00-.342 3.917 10.97 10.97 0 00.383 3.174c.253.83.648 1.244 1.185 1.245a1.4 1.4 0 00.623-.1c.134-.077.261-.165.381-.262a.2.2 0 01.262.121.392.392 0 01-.02.321c-.198.194-.43.35-.683.462-.266.12-.553.18-.844.18a2.305 2.305 0 01-2.028-1.467 9.294 9.294 0 01-.783-4.279 22.37 22.37 0 01.16-2.651c.112-.945.273-1.883.483-2.811a138.877 138.877 0 01-3.657 2.932 60.483 60.483 0 01-3.233 2.35 25.568 25.568 0 01-2.571 1.547 4.203 4.203 0 01-1.667.562.835.835 0 01-.583-.321 1.636 1.636 0 01-.3-1.125 6.73 6.73 0 01.521-2.39c.382-.965.853-1.893 1.407-2.771a27.116 27.116 0 011.988-2.792 22.143 22.143 0 012.27-2.431 13.845 13.845 0 012.289-1.726 4.058 4.058 0 012.009-.663 2.293 2.293 0 011.527.542 1.814 1.814 0 01.643 1.467c0 .267-.081.421-.241.462a1.876 1.876 0 01-.443.059 1.196 1.196 0 01-.381-.059.227.227 0 01-.13-.078.23.23 0 01-.05-.143 2.596 2.596 0 00-.04-.422c-.029-.146-.2-.22-.524-.22a2.62 2.62 0 00-1.346.643c-.669.51-1.306 1.06-1.908 1.647a37.92 37.92 0 00-2.13 2.229 33.748 33.748 0 00-1.968 2.43 20.437 20.437 0 00-1.446 2.23 3.675 3.675 0 00-.563 1.588c0 .24.067.361.2.361a3.563 3.563 0 001.467-.6c.683-.4 1.5-.942 2.45-1.627a78.427 78.427 0 003.174-2.43 120.05 120.05 0 003.636-3.053c.416-1.596.946-3.16 1.586-4.68a45.63 45.63 0 012.188-4.52 36.468 36.468 0 012.612-4.056 24.35 24.35 0 012.892-3.274 14.099 14.099 0 013.013-2.19 6.438 6.438 0 013.013-.8c1.472 0 2.208.71 2.209 2.13a5.825 5.825 0 01-1.36 2.842zm.08-3.153a1.122 1.122 0 00-.683-.18 5.786 5.786 0 00-3.335 1.325 19.283 19.283 0 00-3.576 3.536 39.016 39.016 0 00-3.374 5.021 39.597 39.597 0 00-2.732 5.824 182.7 182.7 0 005.062-4.6 107.404 107.404 0 004.438-4.419 47.64 47.64 0 003.174-3.676 4.837 4.837 0 001.226-2.45.394.394 0 00-.2-.382v.001z" fill="#00B926"/><path d="M175.223 24.587a34.52 34.52 0 01-2.893 2.832 53.528 53.528 0 01-1.888 1.568c-.614.488-1.258.938-1.928 1.346-.605.37-1.244.679-1.908.924a5.274 5.274 0 01-1.789.341 3.335 3.335 0 01-2.37-.864 3.26 3.26 0 01-.924-2.511 8.195 8.195 0 01.924-3.7 15.556 15.556 0 012.208-3.314 14.536 14.536 0 012.592-2.371 4.113 4.113 0 012.109-.9 1.28 1.28 0 01.945.382c.226.232.475.44.742.623.242.161.537.334.886.521a.968.968 0 01.521.924 2.145 2.145 0 01-.883 1.507 13.6 13.6 0 01-2.11 1.506c-.826.486-1.684.916-2.57 1.285a17.52 17.52 0 01-2.271.8 11.358 11.358 0 00-.723 1.688 4.975 4.975 0 00-.282 1.566c-.026.454.11.902.383 1.266a1.251 1.251 0 001.023.462 4.247 4.247 0 001.427-.282 9.425 9.425 0 001.628-.783 20.26 20.26 0 001.706-1.145 32.493 32.493 0 001.708-1.365 44.56 44.56 0 002.912-2.772c.723-.735 1.4-1.513 2.028-2.33a.436.436 0 01.463.342.792.792 0 01-.101.662c-.32.378-.842.975-1.565 1.792zm-4.44-4.439a1.162 1.162 0 00-.823-.2 1.857 1.857 0 00-.883.3c-.392.231-.76.5-1.101.8-.418.364-.807.76-1.165 1.185-.392.462-.759.945-1.099 1.447a8.186 8.186 0 001.688-.583 15.7 15.7 0 001.706-.9c.461-.28.904-.588 1.325-.924.362-.295.544-.51.545-.644a.7.7 0 00-.193-.481z" fill="#00B926"/><path d="M188.742 22.8a18.909 18.909 0 01-.683 1.829c-.282.656-.577 1.332-.885 2.028a45.575 45.575 0 01-.883 1.889c-.281.562-.509 1.024-.683 1.386a5.126 5.126 0 00-.261.582c0 .161.066.241.2.241.203-.025.396-.101.562-.221.177-.124.384-.2.6-.22a.186.186 0 01.2.14c.025.085.039.172.041.261 0 .081-.121.229-.362.442-.276.242-.564.47-.864.683-.333.24-.662.455-.985.643-.216.15-.463.246-.723.282-.161 0-.388-.175-.682-.523a1.755 1.755 0 01-.443-1.165c.032-.463.141-.918.321-1.346a28.41 28.41 0 01.784-1.868c.307-.67.641-1.36 1-2.068a177.67 177.67 0 001.783-3.595c.16-.287.269-.6.321-.924a.497.497 0 00-.335-.54.497.497 0 00-.226-.022 4.471 4.471 0 00-1.627.381c-.698.288-1.376.622-2.03 1-.723.416-1.473.891-2.25 1.426a66.86 66.86 0 00-2.289 1.647c-.8.59-1.556 1.173-2.269 1.748a287.35 287.35 0 01-1.908 1.526c-.563.442-1.012.804-1.347 1.085a3.88 3.88 0 01-.542.422.83.83 0 01-.3-.121 5.223 5.223 0 01-.482-.3 3.313 3.313 0 01-.462-.381.561.561 0 01-.2-.362 2.03 2.03 0 01.382-.723c.255-.375.583-.824.984-1.346a79.006 79.006 0 012.693-3.295 18.3 18.3 0 011.144-1.224c.333-.323.567-.484.7-.483a.71.71 0 01.562.3c.139.148.224.34.241.542a1.25 1.25 0 01-.2.4c-.133.215-.314.496-.541.844l-.763 1.165c-.282.43-.57.858-.864 1.286a79.601 79.601 0 012.591-2.009 42.644 42.644 0 013.134-2.13 26.913 26.913 0 013.214-1.706 7.18 7.18 0 012.871-.7c.486.01.957.17 1.347.461a1.498 1.498 0 01.662 1.306c-.02.452-.103.899-.248 1.327zm17.071-15.225c-.2.216-.408.429-.622.644-.108.133-.408.488-.9 1.064-.492.576-1.108 1.32-1.848 2.23-.738.91-1.555 1.947-2.451 3.112a148.444 148.444 0 00-2.711 3.636c.856-.027 1.578-.04 2.168-.041h1.085c.196-.004.39.045.562.141.162.095.241.195.241.3 0 .16-.134.301-.4.422a5.31 5.31 0 01-.9.3c-.33.078-.664.138-1 .18-.336.04-.556.061-.663.061a.806.806 0 01-.341-.041c-.041-.026-.061-.094-.061-.2 0-.054.007-.108.02-.161a.727.727 0 00.021-.161.088.088 0 00-.003-.032.09.09 0 00-.017-.028.071.071 0 00-.028-.018.07.07 0 00-.032-.003h-1.126a119.91 119.91 0 00-2.268 3.074 50.47 50.47 0 00-2.271 3.455 30.307 30.307 0 00-1.767 3.394 7.351 7.351 0 00-.723 2.892 2 2 0 00.4 1.326 1.209 1.209 0 00.964.483 3.322 3.322 0 001.124-.2c.365-.13.721-.284 1.065-.462a6.85 6.85 0 00.883-.542c.254-.187.449-.336.583-.441a.52.52 0 01.241.241.345.345 0 010 .321c-.134.107-.334.26-.6.462a9.35 9.35 0 01-.924.6 6.664 6.664 0 01-1.165.523c-.414.145-.848.22-1.286.221a2.108 2.108 0 01-1.647-.723 2.918 2.918 0 01-.642-2.009c.013-1.072.19-2.135.523-3.154.359-1.14.795-2.254 1.306-3.334a35.369 35.369 0 011.727-3.235 73.067 73.067 0 011.827-2.892c-.536 0-.943-.007-1.224-.02-.281-.013-.49-.02-.624-.02h-.4c-.188 0-.376.013-.562.04-.188.028-.282-.026-.282-.161a.369.369 0 01.2-.321.843.843 0 01.441-.121h.145c.08 0 .207-.006.382-.02.175-.014.448-.026.824-.04.376-.014.882-.02 1.526-.02.123-.147.237-.301.341-.462.092-.146.192-.286.3-.421.375-.563.85-1.24 1.426-2.03.575-.79 1.191-1.613 1.848-2.47.656-.857 1.312-1.708 1.968-2.551a77.097 77.097 0 011.809-2.25 56.928 56.928 0 011.385-1.607c.374-.415.616-.623.724-.622.169.005.337.032.5.08.192.05.38.118.562.2.168.076.324.177.462.3a.522.522 0 01.2.382 1.041 1.041 0 01-.295.729z" fill="#00B926"/><path d="M204.007 27.258c-.256.216-.536.442-.845.683a64.46 64.46 0 01-.943.723c-.321.241-.59.429-.8.562a32.64 32.64 0 01-1.667.9 4.187 4.187 0 01-1.909.5 1.724 1.724 0 01-1.044-.321 1.396 1.396 0 01-.441-1.206 4.559 4.559 0 01.4-1.727c.261-.632.569-1.242.924-1.827.346-.577.674-1.072.984-1.487.308-.414.489-.662.542-.743.231-.24.373-.553.4-.885.017-.186.08-.365.182-.521.128-.225.283-.434.462-.623.182-.196.391-.364.622-.5.211-.128.453-.197.7-.2.289-.01.572.083.8.261a.724.724 0 01.321.542 5.802 5.802 0 01-.12.965 2.416 2.416 0 01-.321.924c-.08.079-.215.228-.4.441-.185.213-.4.449-.642.7-.242.251-.5.523-.764.8-.241.249-.469.51-.683.782-.4.51-.795 1.045-1.185 1.607-.314.38-.515.839-.582 1.326a.621.621 0 00.12.342.405.405 0 00.361.18 3.42 3.42 0 001.347-.382 20.856 20.856 0 001.707-.9c.533-.347 1.049-.689 1.547-1.024.383-.251.751-.526 1.1-.824a.345.345 0 01.241.121.407.407 0 01.08.362c-.073.089-.241.236-.494.449zm1.606-10.143c-.074.13-.162.25-.262.361a3.7 3.7 0 01-.32.321.463.463 0 01-.282.141.711.711 0 01-.341-.141 3.165 3.165 0 01-.824-.763.714.714 0 01-.161-.421c.027-.333.161-.649.382-.9a1.06 1.06 0 01.823-.5c.508 0 .789.133.844.4.072.202.126.41.161.623.044.205.071.413.081.623a.682.682 0 01-.101.257v-.001z" fill="#00B926"/><path d="M214.089 20.67a.332.332 0 01-.3.161.31.31 0 01-.321-.2 2.462 2.462 0 00-.241-.441 1.513 1.513 0 00-.5-.442 2.185 2.185 0 00-1.065-.2 3.35 3.35 0 00-1.447.321 4.45 4.45 0 00-1.2.823 3.731 3.731 0 00-.823 1.165 3.298 3.298 0 00-.3 1.386c-.002.444.094.883.282 1.285.187.4.4.8.624 1.206.224.406.435.8.622 1.2.187.403.283.842.282 1.286a2.953 2.953 0 01-.434 1.55 4.779 4.779 0 01-1.084 1.244c-.44.36-.935.645-1.467.844-.5.194-1.031.295-1.567.3a2.975 2.975 0 01-1.226-.3 1.364 1.364 0 01-.823-.944.538.538 0 01.4-.161c.211.03.411.113.582.241.298.172.64.256.985.242a2.567 2.567 0 001.828-.8 2.472 2.472 0 00.824-1.808 2.19 2.19 0 00-.342-1.185 21.603 21.603 0 00-.762-1.125 8.927 8.927 0 01-.764-1.265 3.643 3.643 0 01-.342-1.647 5.26 5.26 0 01.462-2.189 5.53 5.53 0 011.246-1.768 5.854 5.854 0 014.036-1.586c.279.031.547.128.783.282.348.197.677.425.984.682.301.247.577.523.824.824.186.19.305.436.342.7a.622.622 0 01-.098.319z" fill="#00B926"/><path d="M229.114 7.575c-.2.216-.408.429-.622.644-.108.133-.408.488-.9 1.064a121.04 121.04 0 00-1.847 2.23c-.738.91-1.555 1.947-2.451 3.112a151.056 151.056 0 00-2.712 3.636c.857-.027 1.58-.04 2.17-.041h1.084c.196-.004.391.044.563.141.162.095.241.195.241.3 0 .16-.134.301-.4.422a5.31 5.31 0 01-.9.3c-.33.079-.664.139-1 .18-.334.04-.556.061-.662.061a.798.798 0 01-.341-.041c-.041-.026-.062-.094-.062-.2a.584.584 0 01.021-.161.727.727 0 00.021-.161.073.073 0 00-.004-.033.071.071 0 00-.077-.048h-1.124c-.697.91-1.454 1.935-2.27 3.074a49.358 49.358 0 00-2.27 3.455 30.349 30.349 0 00-1.768 3.394 7.353 7.353 0 00-.723 2.892 2 2 0 00.4 1.326 1.21 1.21 0 00.964.483 3.328 3.328 0 001.125-.2 8.68 8.68 0 001.065-.462 6.84 6.84 0 00.882-.542c.255-.187.45-.336.584-.441a.524.524 0 01.24.241.345.345 0 010 .321c-.134.107-.334.26-.6.462a9.46 9.46 0 01-.924.6 6.687 6.687 0 01-1.165.523c-.414.145-.848.22-1.286.221a2.108 2.108 0 01-1.647-.723 2.913 2.913 0 01-.643-2.009c.013-1.072.189-2.135.523-3.154a26.36 26.36 0 011.3-3.334 35.378 35.378 0 011.728-3.235 73.067 73.067 0 011.827-2.892c-.537 0-.944-.007-1.226-.02a15.21 15.21 0 00-.623-.02h-.4c-.188 0-.376.013-.562.04-.188.028-.282-.026-.282-.161a.36.36 0 01.2-.321.843.843 0 01.441-.121h.162c.08 0 .207-.006.381-.02.174-.014.449-.026.824-.04.375-.014.883-.02 1.527-.02.123-.147.237-.301.341-.462.092-.146.192-.286.3-.421.375-.563.85-1.24 1.426-2.03.575-.79 1.191-1.613 1.848-2.47.655-.857 1.311-1.708 1.968-2.551a82.563 82.563 0 011.808-2.25 55.142 55.142 0 011.386-1.607c.375-.415.616-.623.723-.622.169.005.337.032.5.08.193.05.381.118.563.2.168.076.324.177.462.3a.535.535 0 01.2.382 1.032 1.032 0 01-.307.729z" fill="#00B926"/><path d="M232.628 26.957a23.302 23.302 0 01-2.37 2.23 14.811 14.811 0 01-2.37 1.667 4.77 4.77 0 01-2.327.7 1.925 1.925 0 01-1.24-.462 1.678 1.678 0 01-.571-1.386c.045-.639.27-1.252.649-1.768a27.68 27.68 0 011.426-1.988c.517-.659.997-1.261 1.439-1.808.336-.335.567-.761.663-1.226 0-.187-.213-.282-.642-.282-.395.003-.79.03-1.183.08-.48.056-.964.083-1.448.08a2.53 2.53 0 01-1.427-.373 1.21 1.21 0 01-.562-1.073 2.56 2.56 0 01.5-1.226 10.586 10.586 0 012.717-2.832c.411-.33.914-.527 1.44-.563.829 0 1.244.228 1.245.684-.08.308-.223.595-.422.843a9.677 9.677 0 01-1.065 1.326c-.374.43-.707.818-1 1.165a2.45 2.45 0 00-.44.6c0 .134.154.215.461.241.307.026.69.04 1.145.04a3.578 3.578 0 011.888.464 1.676 1.676 0 01.764 1.553 2.893 2.893 0 01-.662 1.535 30.411 30.411 0 01-1.447 1.856c-.521.62-1.004 1.191-1.447 1.715-.328.31-.558.71-.662 1.15 0 .376.161.565.482.565a3.825 3.825 0 001.467-.483 12.192 12.192 0 002.149-1.406c.4-.321.809-.676 1.226-1.064l1.165-1.085c.362-.333.67-.628.923-.883l.5-.5c.135 0 .195.088.182.261a1.02 1.02 0 01-.14.462c-.313.415-.649.813-1.006 1.191z" fill="#00B926"/><path d="M243.855 24.366a25.085 25.085 0 01-1.747 3.977 4.134 4.134 0 011.485.381.967.967 0 01.6.9c0 .428-.174.642-.523.643a.276.276 0 01-.221-.141 2.642 2.642 0 00-.281-.321 1.578 1.578 0 00-.542-.32 3.627 3.627 0 00-1.044-.182 49.024 49.024 0 01-3.937 5.717 77.075 77.075 0 01-5.022 5.736A73.917 73.917 0 01227 46.01a60.132 60.132 0 01-5.786 4.333 33.26 33.26 0 01-5.482 2.948 12.616 12.616 0 01-4.721 1.083 2.664 2.664 0 01-1.687-.6 2.073 2.073 0 01-.765-1.725 7.758 7.758 0 011.386-4.051 25.186 25.186 0 013.737-4.512 50.545 50.545 0 015.422-4.572 77.872 77.872 0 016.489-4.292 71.778 71.778 0 016.95-3.63 53.852 53.852 0 016.749-2.569c.375-.723.73-1.439 1.065-2.149.335-.71.635-1.413.9-2.109-.054-.187-.148-.228-.281-.121-.054.054-.248.22-.582.5-.334.28-.756.621-1.265 1.025-.509.4-1.059.822-1.648 1.265-.589.443-1.172.852-1.747 1.226-.577.375-1.099.69-1.567.944a2.543 2.543 0 01-1.065.382 1.554 1.554 0 01-1.084-.5 1.824 1.824 0 01-.523-1.385c.079-.512.271-1 .562-1.427a22.49 22.49 0 011.285-1.988c.482-.667.944-1.256 1.385-1.768.443-.508.73-.764.865-.764a.883.883 0 01.6.342c.165.139.279.33.321.541-.113.308-.268.6-.461.865l-1 1.606a181.04 181.04 0 01-1 1.586 4.48 4.48 0 00-.462.8 1.05 1.05 0 00.041.3c.026.094.134.141.321.141.343-.05.668-.188.944-.4.415-.267.877-.588 1.386-.965a64.238 64.238 0 001.526-1.165c.508-.4.963-.748 1.366-1.044a30.616 30.616 0 003.455-3.013c.749-.8 1.191-1.2 1.326-1.2.348 0 .522.321.523.964a11.17 11.17 0 01-.623 3.454zm-11.49 7.573a77.968 77.968 0 00-6.547 3.536 69.314 69.314 0 00-6.147 4.158 51.396 51.396 0 00-5.1 4.378 25 25 0 00-3.494 4.218 7.037 7.037 0 00-1.306 3.657c-.008.4.128.79.382 1.1a1.294 1.294 0 001.065.462 7.331 7.331 0 002.752-.663 25.58 25.58 0 003.374-1.747A46.945 46.945 0 00221 48.567a72.768 72.768 0 003.6-2.852 128.928 128.928 0 003.254-2.853 55.22 55.22 0 002.601-2.502c3.178-3.32 5.955-7 8.276-10.967-2.179.7-4.305 1.55-6.365 2.546h-.001z" fill="#00B926"/></svg>