<svg width="20" height="20" fill="none" xmlns="http://www.w3.org/2000/svg"><path d="M2 18c0-1.5.616-2.939 1.712-4a5.944 5.944 0 014.132-1.656c1.55 0 3.037.596 4.133 1.657A5.566 5.566 0 0113.688 18h-1.46a4.174 4.174 0 00-1.284-3 4.458 4.458 0 00-3.1-1.242A4.458 4.458 0 004.744 15a4.174 4.174 0 00-1.283 3H2zm5.844-6.363c-2.422 0-4.383-1.898-4.383-4.242 0-2.344 1.961-4.242 4.383-4.242 2.422 0 4.383 1.898 4.383 4.242 0 2.344-1.961 4.242-4.383 4.242zm0-1.414c1.615 0 2.922-1.266 2.922-2.828 0-1.563-1.307-2.828-2.922-2.828-1.614 0-2.922 1.265-2.922 2.828 0 1.562 1.308 2.828 2.922 2.828zM17.011 3a9.597 9.597 0 011.06 4.395 9.6 9.6 0 01-1.06 4.395l-1.202-.846a8.224 8.224 0 00.801-3.55 8.228 8.228 0 00-.801-3.548L17.011 3zm-2.412 1.697c.364.855.551 1.772.55 2.698a6.852 6.852 0 01-.55 2.698l-1.226-.863c.21-.59.316-1.21.315-1.835a5.476 5.476 0 00-.314-1.836l1.224-.862z" fill="#3FAB3C" stroke="#3FAB3C" stroke-width=".4" opacity=".6"/></svg>