<svg width="31" height="24" fill="none" xmlns="http://www.w3.org/2000/svg"><path fill-rule="evenodd" clip-rule="evenodd" d="M25.938 2.975c-1.146.444-2.27.99-3.361 1.644-6.333 3.8-10.097 10.34-10.716 17.292-.12-8.355 3.903-16.515 11.258-21.233.072.2.163.397.274.588a3.465 3.465 0 002.544 1.71z" fill="#3FAB3C"/><path fill-rule="evenodd" clip-rule="evenodd" d="M3.382 12.395a13.41 13.41 0 012.06 1.007c3.881 2.329 6.188 6.337 6.568 10.599.073-5.121-2.392-10.123-6.9-13.015a2.18 2.18 0 01-.168.361 2.124 2.124 0 01-1.56 1.048z" fill="#3FAB3C"/></svg>