<svg width="20" height="20" fill="none" xmlns="http://www.w3.org/2000/svg"><path d="M10 17.5a24.808 24.808 0 01-2.917-2.943c-1.333-1.592-2.916-3.964-2.916-6.224a5.833 5.833 0 019.96-4.125 5.796 5.796 0 011.706 4.125c0 2.26-1.583 4.632-2.916 6.224A24.804 24.804 0 0110 17.5zm0-13.333a4.172 4.172 0 00-4.167 4.166c0 .972.44 2.655 2.53 5.155A23.29 23.29 0 0010 15.25a23.424 23.424 0 001.638-1.76c2.09-2.503 2.529-4.186 2.529-5.157A4.172 4.172 0 0010 4.167zm0 6.666a2.5 2.5 0 110-5 2.5 2.5 0 010 5z" fill="#3FAB3C" opacity=".6"/></svg>