<svg width="16" height="18" fill="none" xmlns="http://www.w3.org/2000/svg"><path d="M13.833 17.333H2.167c-.92 0-1.667-.746-1.667-1.666V4c0-.92.746-1.667 1.667-1.667h1.666V.667H5.5v1.666h5V.667h1.667v1.666h1.666c.92 0 1.667.747 1.667 1.667v11.667c0 .92-.746 1.666-1.667 1.666zm-11.666-10v8.334h11.666V7.333H2.167zm0-3.333v1.667h11.666V4H2.167zm10 10H10.5v-1.667h1.667V14zm-3.334 0H7.167v-1.667h1.666V14zM5.5 14H3.833v-1.667H5.5V14zm6.667-3.333H10.5V9h1.667v1.667zm-3.334 0H7.167V9h1.666v1.667zm-3.333 0H3.833V9H5.5v1.667z" fill="#3FAB3C"/></svg>