<svg width="12" height="16" fill="none" xmlns="http://www.w3.org/2000/svg"><path d="M6 15.5a24.806 24.806 0 01-2.916-2.943C1.75 10.965.167 8.593.167 6.333a5.833 5.833 0 019.96-4.125 5.796 5.796 0 011.707 4.125c0 2.26-1.584 4.632-2.917 6.224A24.807 24.807 0 016 15.5zM6 2.167a4.172 4.172 0 00-4.166 4.166c0 .972.439 2.655 2.529 5.155A23.283 23.283 0 006 13.25a23.415 23.415 0 001.639-1.76c2.089-2.503 2.528-4.186 2.528-5.157A4.172 4.172 0 006 2.167zm0 6.666a2.5 2.5 0 110-5 2.5 2.5 0 010 5z" fill="#3FAB3C"/></svg>