<svg width="871" height="90" fill="none" xmlns="http://www.w3.org/2000/svg"><path d="M57.872 1.8h1v-1h-1v1zm0 67.2v1h1v-1h-1zm-7.008 0h-1v1h1v-1zm0-61.056h1v-1h-1v1zm-42.528 0v-1h-1v1h1zm0 61.056v1h1v-1h-1zm-7.008 0h-1v1h1v-1zm0-67.2v-1h-1v1h1zm55.544 0V69h2V1.8h-2zm1 66.2h-7.008v2h7.008v-2zm-6.008 1V7.944h-2V69h2zm-1-62.056H8.336v2h42.528v-2zm-43.528 1V69h2V7.944h-2zm1 60.056H1.328v2h7.008v-2zm-6.008 1V1.8h-2V69h2zm-1-66.2h56.544v-2H1.328v2zm116.467 18.584l-.493.87.011.006.482-.876zm9.024 9.024l-.874.487.874-.487zm0 26.784l.873.487-.873-.487zm-9.024 9.12l.488.873.005-.003-.493-.87zm-24 .672l-.468.884.01.005.01.005.448-.894zm-8.064-7.488l.84-.543-1.84-2.843v3.386h1zm0 28.128v1h1v-1h-1zm-6.816 0h-1v1h1v-1zm0-69.12v-1h-1v1h1zm6.528 0h1v-1h-1v1zm0 9.984h-1v3.533l1.851-3.009-.851-.524zm8.064-7.68l-.467-.884-.007.003.474.881zm20.544 40.224l.485.874.008-.004.007-.004-.5-.866zm6.72-7.008l-.875-.484-.004.007-.004.007.883.47zm0-20.448l-.883.47.006.01.006.012.871-.492zm-6.72-7.008l.5-.866-.5.866zm-19.296 0l-.5-.866-.009.005.509.861zm-6.72 7.008l-.875-.484-.004.007.879.477zm0 20.448l-.883.47.004.007.004.007.875-.484zm6.72 7.008l-.509.86.011.008.012.006.486-.874zM104.93 19.12c4.576 0 8.692 1.05 12.371 3.134l.986-1.74c-4.002-2.267-8.461-3.394-13.357-3.394v2zm12.382 3.14c3.672 2.02 6.546 4.891 8.632 8.635l1.747-.974c-2.265-4.064-5.407-7.209-9.415-9.413l-.964 1.752zm8.632 8.635c2.084 3.738 3.138 8.015 3.138 12.857h2c0-5.142-1.122-9.761-3.391-13.83l-1.747.973zm3.138 12.857c0 4.908-1.055 9.217-3.138 12.953l1.747.974c2.27-4.072 3.391-8.723 3.391-13.927h-2zm-3.138 12.953c-2.088 3.746-4.965 6.653-8.643 8.737l.986 1.74c4.001-2.268 7.14-5.441 9.404-9.503l-1.747-.974zm-8.638 8.734c-3.611 2.02-7.728 3.041-12.376 3.041v2c4.952 0 9.411-1.09 13.352-3.295l-.976-1.746zM104.93 68.48c-3.957 0-7.513-.803-10.689-2.39l-.895 1.788c3.48 1.74 7.348 2.602 11.584 2.602v-2zM94.263 66.1c-3.105-1.644-5.668-4.019-7.693-7.147l-1.679 1.086c2.2 3.4 5.013 6.017 8.436 7.829l.936-1.768zm-9.532-6.604v28.128h2V59.496h-2zm1 27.128h-6.816v2h6.816v-2zm-5.816 1v-69.12h-2v69.12h2zm-1-68.12h6.528v-2h-6.528v2zm5.528-1v9.984h2v-9.984h-2zm1.851 10.508c1.96-3.183 4.52-5.618 7.687-7.323l-.948-1.762c-3.489 1.879-6.305 4.564-8.442 8.037l1.703 1.048zm7.68-7.32c3.234-1.708 6.879-2.572 10.957-2.572v-2c-4.37 0-8.341.928-11.891 2.804l.934 1.768zm10.477 42.74c3.678 0 7.047-.838 10.085-2.526l-.971-1.748c-2.721 1.512-5.752 2.274-9.114 2.274v2zm10.1-2.534c3.046-1.76 5.417-4.235 7.103-7.404l-1.766-.94c-1.514 2.847-3.624 5.044-6.338 6.612l1.001 1.732zm7.095-7.39c1.755-3.173 2.621-6.767 2.621-10.756h-2c0 3.69-.798 6.945-2.371 9.788l1.75.968zm2.621-10.756c0-3.989-.866-7.555-2.626-10.668l-1.741.984c1.568 2.775 2.367 5.993 2.367 9.684h2zm-2.613-10.646c-1.686-3.169-4.057-5.644-7.103-7.404l-1.001 1.732c2.714 1.568 4.824 3.765 6.338 6.612l1.766-.94zm-7.103-7.404c-3.041-1.757-6.415-2.63-10.1-2.63v2c3.355 0 6.381.79 9.099 2.362l1.001-1.732zm-10.1-2.63c-3.746 0-7.153.872-10.197 2.63l1.001 1.732c2.716-1.57 5.773-2.362 9.196-2.362v-2zm-10.205 2.635c-2.977 1.76-5.34 4.23-7.086 7.385l1.75.968c1.582-2.86 3.699-5.063 6.353-6.631l-1.017-1.722zm-7.09 7.392c-1.69 3.11-2.521 6.67-2.521 10.653h2c0-3.698.769-6.921 2.278-9.699l-1.757-.954zm-2.521 10.653c0 3.983.83 7.572 2.517 10.742l1.766-.94c-1.514-2.846-2.283-6.105-2.283-9.802h-2zm2.525 10.756c1.745 3.156 4.109 5.625 7.086 7.385l1.017-1.722c-2.654-1.569-4.77-3.77-6.353-6.631l-1.75.968zm7.11 7.398c3.04 1.69 6.442 2.526 10.181 2.526v-2c-3.43 0-6.492-.764-9.21-2.274l-.972 1.748zm58.137 4.31l-.497.867.01.007.487-.874zM143.191 57l-.867.498.867-.498zm0-26.496l-.867-.498.867.498zm35.52-9.12l-.487.873.487-.873zm9.12 9.12l-.873.487.006.01.867-.497zm0 26.496l-.867-.498-.006.011.873.487zm-9.12 9.216l.487.874.011-.007-.498-.867zm-3.552-5.184l.494.87.007-.004-.501-.866zm6.72-7.008l.883.47-.883-.47zm0-20.544l.883-.47-.883.47zm-6.72-6.912l-.508.86.011.008.012.006.485-.874zm-19.296 0l.494.87.007-.004-.501-.866zm-6.72 6.912l-.875-.484-.004.007-.004.007.883.47zm0 20.544l-.883.47.004.007.004.007.875-.484zm6.72 7.008l-.508.86.011.008.012.006.485-.874zm9.696 7.448c-4.709 0-8.923-1.052-12.665-3.138l-.974 1.748c4.066 2.266 8.62 3.39 13.639 3.39v-2zm-12.654-3.131c-3.75-2.152-6.695-5.097-8.846-8.847l-1.735.996c2.328 4.058 5.528 7.257 9.586 9.585l.995-1.734zm-8.846-8.847c-2.145-3.738-3.228-7.98-3.228-12.75h-2c0 5.086 1.158 9.676 3.493 13.746l1.735-.996zm-3.228-12.75c0-4.77 1.083-9.012 3.228-12.75l-1.735-.996c-2.335 4.07-3.493 8.66-3.493 13.746h2zm3.228-12.75c2.15-3.748 5.091-6.658 8.835-8.744l-.974-1.747c-4.063 2.265-7.266 5.435-9.596 9.495l1.735.996zm8.835-8.744c3.742-2.086 7.956-3.138 12.665-3.138v-2c-5.019 0-9.573 1.124-13.639 3.39l.974 1.747zm12.665-3.138c4.709 0 8.923 1.052 12.665 3.137l.974-1.747c-4.066-2.266-8.62-3.39-13.639-3.39v2zm12.665 3.137c3.742 2.086 6.648 4.992 8.734 8.734l1.747-.974c-2.267-4.066-5.441-7.24-9.507-9.506l-.974 1.747zm8.74 8.745c2.145 3.738 3.227 7.98 3.227 12.75h2c0-5.086-1.157-9.676-3.492-13.746l-1.735.996zm3.227 12.75c0 4.77-1.082 9.012-3.227 12.75l1.735.996c2.335-4.07 3.492-8.66 3.492-13.746h-2zm-3.233 12.761c-2.087 3.744-4.997 6.685-8.744 8.836l.995 1.734c4.06-2.33 7.231-5.532 9.496-9.596l-1.747-.974zm-8.734 8.83c-3.742 2.085-7.956 3.137-12.665 3.137v2c5.019 0 9.573-1.124 13.639-3.39l-.974-1.748zm-12.665-.911c3.739 0 7.112-.836 10.094-2.53l-.988-1.74c-2.65 1.506-5.676 2.27-9.106 2.27v2zm10.101-2.534c3.046-1.76 5.416-4.235 7.102-7.404l-1.766-.94c-1.514 2.847-3.623 5.044-6.337 6.612l1.001 1.732zm7.102-7.404c1.686-3.17 2.517-6.76 2.517-10.742h-2c0 3.697-.769 6.956-2.283 9.802l1.766.94zm2.517-10.742c0-3.983-.831-7.572-2.517-10.742l-1.766.94c1.514 2.845 2.283 6.105 2.283 9.802h2zm-2.517-10.742c-1.687-3.172-4.062-5.62-7.117-7.316l-.971 1.748c2.705 1.503 4.81 3.664 6.322 6.508l1.766-.94zm-7.094-7.303c-2.985-1.764-6.363-2.635-10.109-2.635v2c3.423 0 6.444.793 9.092 2.357l1.017-1.722zm-10.109-2.635c-3.745 0-7.152.872-10.196 2.63l1.001 1.732c2.716-1.57 5.773-2.362 9.195-2.362v-2zm-10.19 2.627c-2.986 1.696-5.353 4.138-7.101 7.297l1.75.968c1.581-2.857 3.693-5.023 6.339-6.526l-.988-1.74zm-7.109 7.311c-1.686 3.17-2.517 6.76-2.517 10.742h2c0-3.697.769-6.957 2.283-9.802l-1.766-.94zm-2.517 10.742c0 3.983.831 7.572 2.517 10.742l1.766-.94c-1.514-2.846-2.283-6.105-2.283-9.802h-2zm2.525 10.756c1.746 3.156 4.109 5.625 7.087 7.385l1.017-1.722c-2.655-1.569-4.771-3.77-6.354-6.631l-1.75.968zm7.11 7.398c3.041 1.69 6.443 2.526 10.181 2.526v-2c-3.429 0-6.492-.764-9.21-2.274l-.971 1.748zm86.093-37.354v1h1v-1h-1zm-28.897 0v-1h-1v1h1zm0 44.448v1h1v-1h-1zm-6.816 0h-1v1h1v-1zm0-50.496v-1h-1v1h1zm35.713 0h1v-1h-1v1zm0 5.048h-28.897v2h28.897v-2zm-29.897 1V69h2V24.552h-2zm1 43.448h-6.816v2h6.816v-2zm-5.816 1V18.504h-2V69h2zm-1-49.496h35.713v-2h-35.713v2zm34.713-1v6.048h2v-6.048h-2zm49.73 2.88l-.493.87.011.006.482-.876zm9.024 9.024l-.873.487.873-.487zm0 26.784l.873.487-.873-.487zm-9.024 9.12l.488.873.005-.003-.493-.87zm-24 .672l-.468.884.01.005.011.005.447-.894zm-8.064-7.488l.84-.543-1.84-2.843v3.386h1zm0 28.128v1h1v-1h-1zm-6.816 0h-1v1h1v-1zm0-69.12v-1h-1v1h1zm6.528 0h1v-1h-1v1zm0 9.984h-1v3.533l1.852-3.009-.852-.524zm8.064-7.68l-.467-.884-.007.003.474.881zm20.544 40.224l.486.874.007-.004.007-.004-.5-.866zm6.72-7.008l-.875-.484-.004.007-.004.007.883.47zm0-20.448l-.883.47.006.01.006.012.871-.492zm-6.72-7.008l.5-.866-.5.866zm-19.296 0l-.5-.866-.009.005.509.861zm-6.72 7.008l-.875-.484-.004.007.879.477zm0 20.448l-.883.47.004.007.004.007.875-.484zm6.72 7.008l-.509.86.012.008.011.006.486-.874zm10.176-41.912c4.576 0 8.692 1.05 12.371 3.134l.986-1.74c-4.001-2.267-8.461-3.394-13.357-3.394v2zm12.382 3.14c3.672 2.02 6.546 4.891 8.633 8.635l1.746-.974c-2.265-4.064-5.407-7.209-9.415-9.413l-.964 1.752zm8.633 8.635c2.083 3.738 3.137 8.015 3.137 12.857h2c0-5.142-1.122-9.761-3.391-13.83l-1.746.973zm3.137 12.857c0 4.908-1.055 9.217-3.137 12.953l1.746.974c2.27-4.072 3.391-8.723 3.391-13.927h-2zm-3.137 12.953c-2.088 3.746-4.966 6.653-8.644 8.737l.986 1.74c4.002-2.268 7.14-5.441 9.404-9.503l-1.746-.974zm-8.639 8.734c-3.611 2.02-7.728 3.041-12.376 3.041v2c4.952 0 9.411-1.09 13.352-3.295l-.976-1.746zm-12.376 3.041c-3.957 0-7.513-.803-10.689-2.39l-.894 1.788c3.48 1.74 7.348 2.602 11.583 2.602v-2zm-10.668-2.38c-3.105-1.644-5.668-4.019-7.692-7.147l-1.68 1.086c2.2 3.4 5.013 6.017 8.436 7.829l.936-1.768zm-9.532-6.604v28.128h2V59.496h-2zm1 27.128h-6.816v2h6.816v-2zm-5.816 1v-69.12h-2v69.12h2zm-1-68.12h6.528v-2h-6.528v2zm5.528-1v9.984h2v-9.984h-2zm1.852 10.508c1.959-3.183 4.519-5.618 7.686-7.323l-.948-1.762c-3.489 1.879-6.305 4.564-8.442 8.037l1.704 1.048zm7.679-7.32c3.234-1.708 6.879-2.572 10.957-2.572v-2c-4.37 0-8.341.928-11.891 2.804l.934 1.768zm10.477 42.74c3.678 0 7.047-.838 10.086-2.526l-.972-1.748c-2.721 1.512-5.752 2.274-9.114 2.274v2zm10.1-2.534c3.047-1.76 5.417-4.235 7.103-7.404l-1.766-.94c-1.514 2.847-3.623 5.044-6.337 6.612l1 1.732zm7.095-7.39c1.755-3.173 2.621-6.767 2.621-10.756h-2c0 3.69-.798 6.945-2.371 9.788l1.75.968zm2.621-10.756c0-3.989-.866-7.555-2.625-10.668l-1.742.984c1.569 2.775 2.367 5.993 2.367 9.684h2zm-2.613-10.646c-1.686-3.169-4.056-5.644-7.103-7.404l-1 1.732c2.714 1.568 4.823 3.765 6.337 6.612l1.766-.94zm-7.103-7.404c-3.041-1.757-6.415-2.63-10.1-2.63v2c3.355 0 6.381.79 9.1 2.362l1-1.732zm-10.1-2.63c-3.746 0-7.152.872-10.196 2.63l1 1.732c2.716-1.57 5.774-2.362 9.196-2.362v-2zm-10.205 2.635c-2.977 1.76-5.34 4.23-7.086 7.385l1.75.968c1.582-2.86 3.699-5.063 6.354-6.631l-1.018-1.722zm-7.09 7.392c-1.69 3.11-2.521 6.67-2.521 10.653h2c0-3.698.769-6.921 2.279-9.699l-1.758-.954zm-2.521 10.653c0 3.983.831 7.572 2.517 10.742l1.766-.94c-1.514-2.846-2.283-6.105-2.283-9.802h-2zm2.525 10.756c1.746 3.156 4.109 5.625 7.086 7.385l1.018-1.722c-2.655-1.569-4.772-3.77-6.354-6.631l-1.75.968zm7.109 7.398c3.042 1.69 6.443 2.526 10.182 2.526v-2c-3.429 0-6.492-.764-9.21-2.274l-.972 1.748zm82.721-38.794l-.687.727.007.006.68-.733zM354.676 69v1h1v-1h-1zm-6.528 0h-1v1h1v-1zm0-7.872h1V57.44l-1.863 3.183.863.505zm-6.816 6.144l-.439-.898-.008.004.447.894zm-24-1.824l.629-.778-.629.778zm-.384-21.024l-.642-.767-.007.007.649.76zm30.912-3.936v1h1v-1h-1zm-3.648-12.96l-.688.726.011.01.677-.736zm-19.872-1.824l.329.944.009-.003.009-.003-.347-.938zm-7.584 4.32l-.856.517.618 1.023.898-.789-.66-.751zm-3.072-5.088l-.647-.762-.648.55.439.729.856-.517zm9.216-4.992l.306.952.008-.002.008-.003-.322-.947zm18.816 41.568l.532.847.007-.005.007-.004-.546-.838zm6.144-7.68l.928.374.072-.18v-.194h-1zm0-8.256h1v-1h-1v1zm-25.44 16.032l-.611.792.008.005.007.006.596-.803zm11.808-42.488c6.43 0 11.205 1.621 14.481 4.719l1.374-1.454c-3.764-3.559-9.101-5.265-15.855-5.265v2zm14.488 4.725c3.253 3.016 4.96 7.573 4.96 13.859h2c0-6.642-1.812-11.813-5.6-15.325l-1.36 1.466zm4.96 13.859V69h2V37.704h-2zm1 30.296h-6.528v2h6.528v-2zm-5.528 1v-7.872h-2V69h2zm-1.863-8.377c-1.426 2.437-3.542 4.356-6.392 5.75l.879 1.797c3.166-1.55 5.594-3.726 7.239-6.537l-1.726-1.01zm-6.4 5.755c-2.775 1.387-6.135 2.102-10.113 2.102v2c4.214 0 7.895-.757 11.007-2.314l-.894-1.788zm-10.113 2.102c-5.476 0-9.711-1.306-12.811-3.81l-1.257 1.556c3.555 2.872 8.28 4.254 14.068 4.254v-2zm-12.811-3.81c-3.085-2.491-4.621-5.753-4.621-9.878h-2c0 4.707 1.792 8.55 5.364 11.434l1.257-1.556zm-4.621-9.878c0-4.016 1.423-7.187 4.258-9.608l-1.299-1.52c-3.31 2.826-4.959 6.568-4.959 11.128h2zm4.25-9.601c2.871-2.402 7.546-3.703 14.238-3.703v-2c-6.875 0-12.12 1.323-15.521 4.17l1.283 1.533zm14.238-3.703h16.032v-2h-16.032v2zm17.032-1v-3.072h-2v3.072h2zm0-3.072c0-4.538-1.273-8.14-3.97-10.623l-1.355 1.47c2.167 1.996 3.325 4.988 3.325 9.153h2zm-3.96-10.614c-2.68-2.54-6.518-3.73-11.344-3.73v2c4.518 0 7.785 1.113 9.969 3.182l1.375-1.452zm-11.344-3.73a27.37 27.37 0 00-9.562 1.694l.693 1.876a25.372 25.372 0 018.869-1.57v-2zm-9.544 1.688c-3.053 1.061-5.697 2.563-7.916 4.513l1.32 1.502c2.005-1.762 4.417-3.14 7.253-4.127l-.657-1.889zm-6.4 4.747l-3.072-5.088-1.712 1.034 3.072 5.088 1.712-1.034zm-3.28-3.81c2.448-2.08 5.4-3.684 8.874-4.801l-.612-1.904c-3.694 1.187-6.886 2.911-9.557 5.182l1.295 1.524zm8.89-4.806c3.475-1.18 7.142-1.771 11.006-1.771v-2c-4.072 0-7.957.624-11.649 1.877l.643 1.894zm8.606 44.213c3.994 0 7.482-.9 10.42-2.745l-1.064-1.694c-2.565 1.611-5.669 2.439-9.356 2.439v2zm10.434-2.754c2.94-1.914 5.112-4.644 6.526-8.144l-1.855-.748c-1.275 3.156-3.198 5.546-5.762 7.216l1.091 1.676zm6.598-8.518v-8.256h-2v8.256h2zm-1-9.256h-15.84v2h15.84v-2zm-15.84 0c-4.405 0-7.887.761-10.291 2.435-2.47 1.72-3.669 4.308-3.669 7.589h2c0-2.735.962-4.66 2.812-5.947 1.915-1.334 4.914-2.077 9.148-2.077v-2zM318.06 54.6c0 3.24 1.253 5.874 3.749 7.8l1.222-1.584c-1.983-1.53-2.971-3.567-2.971-6.216h-2zm3.764 7.81c2.474 1.839 5.85 2.694 10.004 2.694v-2c-3.909 0-6.805-.809-8.811-2.299l-1.193 1.606zm107.445-43.906h1v-1h-1v1zm0 50.496v1h1v-1h-1zm-6.24 0h-1v1h1v-1zm0-39.936h1V25.48l-1.856 3.066.856.518zm-20.448 33.792v1h.564l.292-.482-.856-.518zm-3.072 0l-.856.517.291.483h.565v-1zm-20.448-33.888l.856-.517-1.856-3.076v3.593h1zm0 40.032v1h1v-1h-1zm-6.24 0h-1v1h1v-1zm0-50.496v-1h-1v1h1zm6.912 0l.862-.507-.29-.493h-.572v1zm21.408 36.384l-.862.507.854 1.452.866-1.445-.858-.514zm21.792-36.384v-1h-.567l-.291.486.858.514zm5.336 0V69h2V18.504h-2zm1 49.496h-6.24v2h6.24v-2zm-5.24 1V29.064h-2V69h2zm-1.856-40.454l-20.448 33.792 1.712 1.036 20.448-33.792-1.712-1.036zm-19.592 33.31h-3.072v2h3.072v-2zm-2.216.483l-20.448-33.888-1.712 1.034 20.448 33.888 1.712-1.034zm-22.304-33.371V69h2V28.968h-2zm1 39.032h-6.24v2h6.24v-2zm-5.24 1V18.504h-2V69h2zm-1-49.496h6.912v-2h-6.912v2zm6.05-.493l21.408 36.384 1.724-1.014-21.408-36.384-1.724 1.014zm23.128 36.39l21.792-36.383-1.716-1.028-21.792 36.384 1.716 1.028zm20.934-35.897h6.336v-2h-6.336v2zm82.18-1h1v-1h-1v1zm0 50.496v1h1v-1h-1zm-6.24 0h-1v1h1v-1zm0-39.936h1V25.48l-1.856 3.066.856.518zm-20.448 33.792v1h.563l.292-.482-.855-.518zm-3.072 0l-.856.517.291.483h.565v-1zm-20.448-33.888l.856-.517-1.856-3.076v3.593h1zm0 40.032v1h1v-1h-1zm-6.24 0h-1v1h1v-1zm0-50.496v-1h-1v1h1zm6.912 0l.862-.507-.29-.493h-.572v1zm21.408 36.384l-.862.507.854 1.452.866-1.445-.858-.514zm21.792-36.384v-1h-.567l-.291.486.858.514zm5.336 0V69h2V18.504h-2zm1 49.496h-6.24v2h6.24v-2zm-5.24 1V29.064h-2V69h2zm-1.856-40.454l-20.448 33.792 1.711 1.036 20.448-33.792-1.711-1.036zm-19.592 33.31h-3.072v2h3.072v-2zm-2.216.483l-20.448-33.888-1.712 1.034 20.448 33.888 1.712-1.034zm-22.304-33.371V69h2V28.968h-2zm1 39.032h-6.24v2h6.24v-2zm-5.24 1V18.504h-2V69h2zm-1-49.496h6.912v-2h-6.912v2zm6.05-.493l21.408 36.384 1.724-1.014-21.408-36.384-1.724 1.014zm23.128 36.39l21.792-36.383-1.716-1.028-21.792 36.384 1.716 1.028zm20.934-35.897h6.336v-2h-6.336v2zm58.275 3.608l-.687.727.008.006.679-.733zM562.333 69v1h1v-1h-1zm-6.528 0h-1v1h1v-1zm0-7.872h1V57.44l-1.864 3.183.864.505zm-6.816 6.144l-.44-.898-.008.004.448.894zm-24-1.824l.628-.778-.628.778zm-.385-21.024l-.641-.767-.008.007.649.76zm30.912-3.936v1h1v-1h-1zm-3.647-12.96l-.688.726.01.01.678-.736zm-19.872-1.824l.328.944.009-.003.009-.003-.346-.938zm-7.585 4.32l-.856.517.618 1.023.899-.789-.661-.751zm-3.071-5.088l-.648-.762-.648.55.439.729.857-.517zm9.216-4.992l.305.952.008-.002.008-.003-.321-.947zm18.815 41.568l.532.847.007-.005.007-.004-.546-.838zm6.144-7.68l.928.374.072-.18v-.194h-1zm0-8.256h1v-1h-1v1zm-25.44 16.032l-.61.792.007.005.007.006.596-.803zm11.809-42.488c6.43 0 11.205 1.621 14.48 4.719l1.375-1.454c-3.765-3.559-9.102-5.265-15.855-5.265v2zm14.488 4.725c3.252 3.016 4.96 7.573 4.96 13.859h2c0-6.642-1.813-11.813-5.601-15.325l-1.359 1.466zm4.96 13.859V69h2V37.704h-2zm1 30.296h-6.528v2h6.528v-2zm-5.528 1v-7.872h-2V69h2zm-1.864-8.377c-1.426 2.437-3.542 4.356-6.392 5.75l.879 1.797c3.166-1.55 5.594-3.726 7.24-6.537l-1.727-1.01zm-6.4 5.755c-2.775 1.387-6.135 2.102-10.112 2.102v2c4.214 0 7.894-.757 11.007-2.314l-.895-1.788zm-10.112 2.102c-5.477 0-9.711-1.306-12.812-3.81l-1.257 1.556c3.555 2.872 8.281 4.254 14.069 4.254v-2zm-12.812-3.81c-3.084-2.491-4.62-5.753-4.62-9.878h-2c0 4.707 1.791 8.55 5.363 11.434l1.257-1.556zm-4.62-9.878c0-4.016 1.422-7.187 4.257-9.608l-1.299-1.52c-3.309 2.826-4.958 6.568-4.958 11.128h2zm4.249-9.601c2.871-2.402 7.546-3.703 14.238-3.703v-2c-6.875 0-12.12 1.323-15.521 4.17l1.283 1.533zm14.238-3.703h16.032v-2h-16.032v2zm17.032-1v-3.072h-2v3.072h2zm0-3.072c0-4.538-1.273-8.14-3.97-10.623l-1.355 1.47c2.167 1.996 3.325 4.988 3.325 9.153h2zm-3.96-10.614c-2.68-2.54-6.517-3.73-11.343-3.73v2c4.517 0 7.784 1.113 9.968 3.182l1.375-1.452zm-11.343-3.73a27.37 27.37 0 00-9.563 1.694l.693 1.876a25.374 25.374 0 018.87-1.57v-2zm-9.545 1.688c-3.053 1.061-5.697 2.563-7.916 4.513l1.321 1.502c2.005-1.762 4.417-3.14 7.252-4.127l-.657-1.889zm-6.399 4.747l-3.072-5.088-1.713 1.034 3.072 5.088 1.713-1.034zm-3.281-3.81c2.448-2.08 5.401-3.684 8.874-4.801l-.612-1.904c-3.694 1.187-6.885 2.911-9.557 5.182l1.295 1.524zm8.89-4.806c3.475-1.18 7.142-1.771 11.007-1.771v-2c-4.072 0-7.957.624-11.65 1.877l.643 1.894zm8.606 44.213c3.994 0 7.482-.9 10.42-2.745l-1.063-1.694c-2.566 1.611-5.67 2.439-9.357 2.439v2zm10.434-2.754c2.94-1.914 5.113-4.644 6.526-8.144l-1.855-.748c-1.274 3.156-3.198 5.546-5.762 7.216l1.091 1.676zm6.598-8.518v-8.256h-2v8.256h2zm-1-9.256h-15.839v2h15.839v-2zm-15.839 0c-4.406 0-7.888.761-10.292 2.435-2.47 1.72-3.669 4.308-3.669 7.589h2c0-2.735.962-4.66 2.812-5.947 1.916-1.334 4.914-2.077 9.149-2.077v-2zM525.716 54.6c0 3.24 1.253 5.874 3.75 7.8l1.221-1.584c-1.983-1.53-2.971-3.567-2.971-6.216h-2zm3.764 7.81c2.474 1.839 5.85 2.694 10.004 2.694v-2c-3.909 0-6.805-.809-8.811-2.299l-1.193 1.606zm94.458-15.874l.77-.638-.3-.362h-.47v1zm-11.52 0v-1h-1v1h1zm0 22.464v1h1v-1h-1zm-6.816 0h-1v1h1v-1zm0-50.496v-1h-1v1h1zm6.816 0h1v-1h-1v1zm0 22.176h-1v1h1v-1zm11.616 0v1h.481l.3-.375-.781-.625zm17.76-22.176v-1h-.48l-.3.375.78.625zm7.392 0l.777.63 1.323-1.63h-2.1v1zm-19.872 24.48l-.776-.63-.514.633.517.63.773-.633zM650.626 69v1h2.112l-1.338-1.634-.774.634zm-8.064 0l-.77.638.3.362h.47v-1zm-18.624-23.464h-11.52v2h11.52v-2zm-12.52 1V69h2V46.536h-2zm1 21.464h-6.816v2h6.816v-2zm-5.816 1V18.504h-2V69h2zm-1-49.496h6.816v-2h-6.816v2zm5.816-1V40.68h2V18.504h-2zm1 23.176h11.616v-2h-11.616v2zm12.397-.375l17.76-22.176-1.561-1.25-17.76 22.176 1.561 1.25zm16.979-21.801h7.392v-2h-7.392v2zm6.616-1.63l-19.872 24.48 1.553 1.26 19.872-24.48-1.553-1.26zm-19.869 25.744l21.312 26.016 1.547-1.268-21.312-26.016-1.547 1.268zM650.626 68h-8.064v2h8.064v-2zm-7.294.362l-18.624-22.464-1.54 1.276 18.624 22.464 1.54-1.276zm58.057-49.858l.913.408.629-1.408h-1.542v1zm-25.248 56.544l-.913-.408-.005.011.918.397zm-7.104 10.08l-.594-.805.594.805zm-16.512 1.824l.342-.94-.342.94zm-5.472-3.456l-.849-.529-.419.675.561.561.707-.707zm3.168-5.088l.707-.707-.89-.89-.666 1.068.849.529zm15.072 1.92l-.609-.793-.008.006-.007.006.624.781zm4.608-6.528l.909.417.003-.006-.912-.411zm2.208-4.896l.912.411.185-.41-.184-.41-.913.409zm-22.56-50.4v-1h-1.543l.631 1.409.912-.409zm7.104 0l.915-.405-.264-.595h-.651v1zm19.008 42.912l-.914.405.914 2.064.915-2.064-.915-.405zm19.008-42.912v-1h-.651l-.263.595.914.405zm5.807-.408L675.228 74.64l1.826.816 25.248-56.544-1.826-.816zm-25.253 56.555c-2.012 4.655-4.291 7.836-6.78 9.672l1.188 1.61c2.887-2.132 5.345-5.67 7.428-10.488l-1.836-.794zm-6.78 9.672c-2.494 1.841-5.51 2.781-9.102 2.781v2c3.961 0 7.408-1.044 10.29-3.171l-1.188-1.61zm-9.102 2.781c-2.325 0-4.48-.367-6.474-1.092l-.683 1.88c2.23.81 4.618 1.212 7.157 1.212v-2zm-6.474-1.092c-1.98-.72-3.678-1.794-5.107-3.223l-1.414 1.414c1.643 1.643 3.593 2.873 5.838 3.689l.683-1.88zm-4.965-1.987l3.168-5.088-1.698-1.058-3.168 5.088 1.698 1.058zm1.612-4.91c2.746 2.746 6.071 4.133 9.923 4.133v-2c-3.316 0-6.134-1.172-8.509-3.547l-1.414 1.414zm9.923 4.133c2.501 0 4.682-.7 6.481-2.14l-1.249-1.56c-1.401 1.12-3.125 1.7-5.232 1.7v2zm6.466-2.127c1.848-1.422 3.468-3.765 4.907-6.904l-1.818-.834c-1.377 3.005-2.829 5.014-4.308 6.152l1.219 1.586zm4.91-6.91l2.208-4.896-1.823-.822-2.208 4.896 1.823.822zm2.209-5.716l-22.56-50.4-1.825.818 22.56 50.4 1.825-.818zm-23.473-48.991h7.104v-2h-7.104v2zm6.19-.595l19.008 42.912 1.829-.81-19.008-42.912-1.829.81zm20.837 42.912l19.008-42.912-1.829-.81-19.008 42.912 1.829.81zm18.093-42.317h6.72v-2h-6.72v2zm56.219 1.88l-.493.87.012.006.481-.876zm9.024 9.024l-.873.487.873-.487zm0 26.784l.874.487-.874-.487zm-9.024 9.12l.489.873.005-.003-.494-.87zm-24 .672l-.467.884.01.005.01.005.447-.894zm-8.063-7.488l.839-.543-1.839-2.843v3.386h1zm0 28.128v1h1v-1h-1zm-6.817 0h-1v1h1v-1zm0-69.12v-1h-1v1h1zm6.528 0h1v-1h-1v1zm0 9.984h-1v3.533l1.852-3.009-.852-.524zm8.065-7.68l-.468-.884-.007.003.475.881zm20.544 40.224l.485.874.008-.004.007-.004-.5-.866zm6.72-7.008l-.876-.484-.004.007-.003.007.883.47zm0-20.448l-.883.47.006.01.006.012.871-.492zm-6.72-7.008l.5-.866-.5.866zm-19.296 0l-.501-.866-.008.005.509.861zm-6.721 7.008l-.875-.484-.003.007.878.477zm0 20.448l-.882.47.004.007.003.007.875-.484zm6.721 7.008l-.509.86.011.008.012.006.486-.874zm10.175-41.912c4.577 0 8.693 1.05 12.372 3.134l.986-1.74c-4.002-2.267-8.462-3.394-13.358-3.394v2zm12.383 3.14c3.672 2.02 6.546 4.891 8.632 8.635l1.747-.974c-2.265-4.064-5.408-7.209-9.416-9.413l-.963 1.752zm8.632 8.635c2.084 3.738 3.138 8.015 3.138 12.857h2c0-5.142-1.123-9.761-3.391-13.83l-1.747.973zm3.138 12.857c0 4.908-1.055 9.217-3.138 12.953l1.747.974c2.269-4.072 3.391-8.723 3.391-13.927h-2zm-3.138 12.953c-2.088 3.746-4.965 6.653-8.643 8.737l.986 1.74c4.001-2.268 7.14-5.441 9.404-9.503l-1.747-.974zM750.4 65.44c-3.611 2.02-7.727 3.041-12.376 3.041v2c4.952 0 9.412-1.09 13.353-3.295l-.977-1.746zm-12.376 3.041c-3.956 0-7.513-.803-10.688-2.39l-.895 1.788c3.481 1.74 7.348 2.602 11.583 2.602v-2zm-10.668-2.38c-3.105-1.644-5.668-4.019-7.692-7.147l-1.679 1.086c2.2 3.4 5.013 6.017 8.436 7.829l.935-1.768zm-9.531-6.604v28.128h2V59.496h-2zm1 27.128h-6.817v2h6.817v-2zm-5.817 1v-69.12h-2v69.12h2zm-1-68.12h6.528v-2h-6.528v2zm5.528-1v9.984h2v-9.984h-2zm1.852 10.508c1.959-3.183 4.519-5.618 7.687-7.323l-.949-1.762c-3.488 1.879-6.304 4.564-8.441 8.037l1.703 1.048zm7.68-7.32c3.234-1.708 6.879-2.572 10.956-2.572v-2c-4.37 0-8.341.928-11.891 2.804l.935 1.768zm10.476 42.74c3.678 0 7.047-.838 10.086-2.526l-.971-1.748c-2.721 1.512-5.752 2.274-9.115 2.274v2zm10.101-2.534c3.046-1.76 5.417-4.235 7.102-7.404l-1.765-.94c-1.515 2.847-3.624 5.044-6.338 6.612l1.001 1.732zm7.095-7.39c1.755-3.173 2.62-6.767 2.62-10.756h-2c0 3.69-.798 6.945-2.371 9.788l1.751.968zm2.62-10.756c0-3.989-.865-7.555-2.625-10.668l-1.741.984c1.568 2.775 2.366 5.993 2.366 9.684h2zm-2.613-10.646c-1.685-3.169-4.056-5.644-7.102-7.404l-1.001 1.732c2.714 1.568 4.823 3.765 6.338 6.612l1.765-.94zm-7.102-7.404c-3.041-1.757-6.416-2.63-10.101-2.63v2c3.355 0 6.381.79 9.1 2.362l1.001-1.732zm-10.101-2.63c-3.745 0-7.152.872-10.196 2.63l1.001 1.732c2.716-1.57 5.773-2.362 9.195-2.362v-2zm-10.204 2.635c-2.978 1.76-5.341 4.23-7.087 7.385l1.751.968c1.582-2.86 3.699-5.063 6.353-6.631l-1.017-1.722zm-7.09 7.392c-1.691 3.11-2.521 6.67-2.521 10.653h2c0-3.698.769-6.921 2.278-9.699l-1.757-.954zm-2.521 10.653c0 3.983.83 7.572 2.517 10.742l1.765-.94c-1.513-2.846-2.282-6.105-2.282-9.802h-2zm2.524 10.756c1.746 3.156 4.109 5.625 7.087 7.385l1.017-1.722c-2.654-1.569-4.771-3.77-6.353-6.631l-1.751.968zm7.11 7.398c3.041 1.69 6.443 2.526 10.181 2.526v-2c-3.429 0-6.491-.764-9.21-2.274l-.971 1.748zm58.138 4.31l-.487.874.006.003.481-.877zm-9.216-9.12l-.871.492.004.006.867-.498zm0-26.592l-.867-.498.867.498zm9.216-9.12l-.481-.877-.006.003.487.874zm25.056-.672l-.454.891.01.005.01.005.434-.901zm8.16 7.392l.562.827.786-.534-.493-.812-.855.519zm-5.088 3.456l-.832.555.56.839.834-.567-.562-.827zm-6.336-5.568l-.447.894.009.005.009.004.429-.903zm-18.24.576l.486.874.006-.003-.492-.871zm-6.816 6.912l-.875-.484-.004.007-.004.007.883.47zm0 20.64l-.883.47.006.01.006.012.871-.492zm6.816 6.912l-.5.866.011.006.012.007.477-.879zm18.24.576l-.429-.903.429.903zm6.336-5.568l.562-.827-.834-.567-.56.84.832.554zm5.088 3.456l.855.52.493-.813-.786-.534-.562.827zm-8.16 7.488l.434.901.007-.003.006-.004-.447-.894zm-11.616 1.496c-4.842 0-9.153-1.054-12.959-3.14l-.962 1.753c4.13 2.265 8.779 3.387 13.921 3.387v-2zm-12.953-3.138c-3.744-2.086-6.685-4.996-8.836-8.744l-1.734.996c2.329 4.06 5.532 7.23 9.596 9.495l.974-1.746zm-8.832-8.738c-2.149-3.806-3.231-8.082-3.231-12.852h-2c0 5.086 1.158 9.706 3.489 13.836l1.742-.984zm-3.231-12.852c0-4.77 1.082-9.012 3.227-12.75l-1.734-.996c-2.335 4.07-3.493 8.66-3.493 13.746h2zm3.227-12.75c2.151-3.748 5.092-6.658 8.836-8.744l-.974-1.747c-4.064 2.265-7.267 5.435-9.596 9.495l1.734.996zm8.83-8.741c3.806-2.087 8.117-3.141 12.959-3.141v-2c-5.142 0-9.791 1.122-13.921 3.387l.962 1.754zm12.959-3.141c4.217 0 7.93.836 11.162 2.483l.908-1.782c-3.552-1.81-7.583-2.701-12.07-2.701v2zm11.182 2.493c3.283 1.58 5.856 3.912 7.739 7.01l1.71-1.038c-2.085-3.43-4.952-6.027-8.581-7.774l-.868 1.802zm8.032 5.664l-5.088 3.456 1.124 1.654 5.088-3.456-1.124-1.654zm-3.694 3.728c-1.758-2.637-4.006-4.618-6.739-5.916l-.858 1.806c2.387 1.134 4.363 2.865 5.933 5.22l1.664-1.11zm-6.721-5.907c-2.706-1.353-5.644-2.026-8.799-2.026v2c2.861 0 5.491.607 7.905 1.814l.894-1.788zm-8.799-2.026c-3.806 0-7.274.87-10.38 2.625l.984 1.742c2.782-1.573 5.906-2.367 9.396-2.367v-2zm-10.374 2.622c-3.051 1.695-5.454 4.137-7.205 7.302l1.75.968c1.577-2.851 3.718-5.017 6.427-6.522l-.972-1.748zm-7.213 7.316c-1.686 3.17-2.517 6.76-2.517 10.742h2c0-3.697.769-6.957 2.283-9.802l-1.766-.94zm-2.517 10.742c0 4.044.83 7.665 2.517 10.838l1.766-.94c-1.513-2.843-2.283-6.134-2.283-9.898h-2zm2.529 10.86c1.751 3.097 4.149 5.531 7.187 7.286l1-1.732c-2.722-1.573-4.868-3.747-6.445-6.538l-1.742.984zm7.21 7.299c3.103 1.686 6.565 2.521 10.365 2.521v-2c-3.496 0-6.626-.765-9.41-2.279l-.955 1.758zm10.365 2.521c3.147 0 6.079-.637 8.781-1.92l-.858-1.807c-2.418 1.148-5.054 1.727-7.923 1.727v2zm8.781-1.92c2.733-1.299 4.981-3.28 6.739-5.917l-1.664-1.11c-1.57 2.355-3.546 4.086-5.933 5.22l.858 1.806zm5.345-5.645l5.088 3.456 1.124-1.654-5.088-3.456-1.124 1.654zm4.795 2.11c-1.885 3.1-4.463 5.468-7.752 7.113l.894 1.788c3.623-1.81 6.485-4.436 8.568-7.863l-1.71-1.038zm-7.739 7.106c-3.305 1.591-7.026 2.397-11.182 2.397v2c4.42 0 8.443-.859 12.05-2.595l-.868-1.802zm54.336-42.971l-.687.727.007.006.68-.733zM869.739 69v1h1v-1h-1zm-6.528 0h-1v1h1v-1zm0-7.872h1V57.44l-1.863 3.183.863.505zm-6.816 6.144l-.44-.898-.007.004.447.894zm-24-1.824l.628-.778-.628.778zm-.384-21.024l-.642-.767-.008.007.65.76zm30.912-3.936v1h1v-1h-1zm-3.648-12.96l-.688.726.01.01.678-.736zm-19.872-1.824l.328.944.009-.003.009-.003-.346-.938zm-7.584 4.32l-.856.517.618 1.023.898-.789-.66-.751zm-3.072-5.088l-.648-.762-.648.55.44.729.856-.517zm9.216-4.992l.306.952.007-.002.008-.003-.321-.947zm18.816 41.568l.532.847.007-.005.006-.004-.545-.838zm6.144-7.68l.927.374.073-.18v-.194h-1zm0-8.256h1v-1h-1v1zm-25.44 16.032l-.611.792.007.005.007.006.597-.803zm11.808-42.488c6.43 0 11.205 1.621 14.481 4.719l1.374-1.454c-3.764-3.559-9.102-5.265-15.855-5.265v2zm14.488 4.725c3.252 3.016 4.96 7.573 4.96 13.859h2c0-6.642-1.813-11.813-5.6-15.325l-1.36 1.466zm4.96 13.859V69h2V37.704h-2zm1 30.296h-6.528v2h6.528v-2zm-5.528 1v-7.872h-2V69h2zm-1.863-8.377c-1.427 2.437-3.543 4.356-6.393 5.75l.879 1.797c3.166-1.55 5.594-3.726 7.24-6.537l-1.726-1.01zm-6.4 5.755c-2.776 1.387-6.135 2.102-10.113 2.102v2c4.214 0 7.894-.757 11.007-2.314l-.894-1.788zm-10.113 2.102c-5.476 0-9.711-1.306-12.812-3.81l-1.257 1.556c3.556 2.872 8.281 4.254 14.069 4.254v-2zm-12.812-3.81c-3.084-2.491-4.62-5.753-4.62-9.878h-2c0 4.707 1.792 8.55 5.363 11.434l1.257-1.556zm-4.62-9.878c0-4.016 1.423-7.187 4.257-9.608l-1.299-1.52c-3.309 2.826-4.958 6.568-4.958 11.128h2zm4.249-9.601c2.871-2.402 7.546-3.703 14.239-3.703v-2c-6.876 0-12.121 1.323-15.522 4.17l1.283 1.533zm14.239-3.703h16.032v-2h-16.032v2zm17.032-1v-3.072h-2v3.072h2zm0-3.072c0-4.538-1.274-8.14-3.971-10.623l-1.355 1.47c2.167 1.996 3.326 4.988 3.326 9.153h2zm-3.96-10.614c-2.681-2.54-6.518-3.73-11.344-3.73v2c4.518 0 7.784 1.113 9.968 3.182l1.376-1.452zm-11.344-3.73a27.37 27.37 0 00-9.563 1.694l.693 1.876a25.378 25.378 0 018.87-1.57v-2zm-9.545 1.688c-3.053 1.061-5.696 2.563-7.915 4.513l1.32 1.502c2.005-1.762 4.417-3.14 7.252-4.127l-.657-1.889zm-6.399 4.747l-3.072-5.088-1.712 1.034 3.072 5.088 1.712-1.034zm-3.281-3.81c2.449-2.08 5.401-3.684 8.875-4.801l-.612-1.904c-3.694 1.187-6.886 2.911-9.558 5.182l1.295 1.524zm8.89-4.806c3.476-1.18 7.143-1.771 11.007-1.771v-2c-4.072 0-7.957.624-11.65 1.877l.643 1.894zm8.607 44.213c3.993 0 7.481-.9 10.42-2.745l-1.064-1.694c-2.566 1.611-5.67 2.439-9.356 2.439v2zm10.433-2.754c2.94-1.914 5.113-4.644 6.526-8.144l-1.855-.748c-1.274 3.156-3.198 5.546-5.762 7.216l1.091 1.676zm6.599-8.518v-8.256h-2v8.256h2zm-1-9.256h-15.84v2h15.84v-2zm-15.84 0c-4.406 0-7.887.761-10.292 2.435-2.47 1.72-3.668 4.308-3.668 7.589h2c0-2.735.961-4.66 2.811-5.947 1.916-1.334 4.914-2.077 9.149-2.077v-2zM833.123 54.6c0 3.24 1.252 5.874 3.749 7.8l1.222-1.584c-1.984-1.53-2.971-3.567-2.971-6.216h-2zm3.763 7.81c2.474 1.839 5.85 2.694 10.005 2.694v-2c-3.909 0-6.806-.809-8.812-2.299l-1.193 1.606z" fill="#fff"/></svg>