<svg width="962" height="91" fill="none" xmlns="http://www.w3.org/2000/svg"><path d="M38.512 34.864l-.29-.957-3.483 1.057 3.534.871.239-.971zm10.368 5.952l-.756.655.009.01.747-.665zm.192 20.64l-.771-.637.771.637zm-9.696 6.816l.356.935.013-.005-.369-.93zm-26.4.192l-.325.946.009.003.008.002.308-.951zM1.36 61.936l-.891-.454-.362.711.613.511.64-.768zm2.592-5.088l.647-.763-.964-.817-.574 1.126.891.454zm10.08 5.76l-.335.942.007.003.007.002.321-.947zm21.504.192l.351.936-.351-.936zm7.296-4.896l-.76-.649-.003.002.763.647zM13.648 38.032h-1v1h1v-1zm0-5.76v-1h-1v1h1zm25.056-2.976l.603.798.003-.003-.606-.795zm-1.056-17.76l-.562.827.01.008.552-.835zM15.184 9.52l.265.964.008-.002.01-.003-.283-.959zm-9.312 4.128l-.925.38.451 1.1 1.007-.634-.533-.846zm-2.4-5.856l-.512-.859-.74.441.327.797.925-.379zm34.08-3.744l.363-.932-.363.932zm8.928 6.336l-.784.62.004.006.004.005.776-.631zm.384 19.008l.79.613.008-.01-.798-.603zm-8.591 6.443c4.255 1.048 7.515 2.94 9.851 5.636l1.512-1.31c-2.656-3.064-6.308-5.14-10.885-6.268l-.478 1.942zm9.86 5.645c2.389 2.688 3.587 5.905 3.587 9.704h2c0-4.264-1.362-7.96-4.093-11.032l-1.494 1.328zm3.587 9.704c0 3.677-1.139 6.875-3.419 9.635l1.542 1.274c2.584-3.128 3.877-6.778 3.877-10.909h-2zm-3.419 9.635c-2.31 2.797-5.397 4.977-9.294 6.523l.738 1.86c4.167-1.654 7.545-4.019 10.098-7.11l-1.542-1.273zm-9.281 6.519c-3.908 1.488-8.17 2.238-12.796 2.238v2c4.846 0 9.352-.786 13.508-2.37l-.712-1.868zm-12.796 2.238c-4.373 0-8.686-.687-12.94-2.063l-.616 1.902c4.45 1.44 8.97 2.161 13.556 2.161v-2zm-12.923-2.058A35.502 35.502 0 012 61.168L.72 62.704a37.502 37.502 0 0011.93 6.706l.65-1.892zM2.25 62.39l2.592-5.088-1.782-.908-2.592 5.088 1.782.908zm1.054-4.78c3.04 2.578 6.506 4.557 10.392 5.94l.67-1.884c-3.666-1.305-6.92-3.166-9.768-5.58L3.305 57.61zm10.406 5.945c3.875 1.314 7.792 1.973 11.745 1.973v-2c-3.727 0-7.426-.62-11.103-1.867l-.642 1.894zm11.745 1.973c3.755 0 7.235-.593 10.431-1.792l-.702-1.872c-2.948 1.105-6.188 1.664-9.729 1.664v2zm10.431-1.792c3.202-1.2 5.786-2.921 7.707-5.185l-1.525-1.294c-1.663 1.96-3.942 3.503-6.884 4.607l.702 1.872zm7.706-5.183c2.015-2.363 3.023-5.155 3.023-8.329h-2c0 2.714-.848 5.042-2.545 7.031l1.522 1.298zm3.023-8.329c0-4.215-1.683-7.54-5.041-9.848l-1.134 1.648c2.786 1.915 4.175 4.607 4.175 8.2h2zm-5.041-9.848c-3.303-2.27-7.85-3.344-13.527-3.344v2c5.46 0 9.552 1.038 12.393 2.992l1.133-1.648zm-13.527-3.344h-14.4v2h14.4v-2zm-13.4 1v-5.76h-2v5.76h2zm-1-4.76h14.016v-2H13.648v2zm14.016 0c4.861 0 8.784-1.017 11.643-3.178L38.1 28.498c-2.389 1.806-5.826 2.774-10.437 2.774v2zm11.646-3.18c2.953-2.25 4.426-5.37 4.426-9.244h-2c0 3.294-1.215 5.807-3.638 7.653l1.212 1.59zm4.426-9.244c0-4.314-1.873-7.727-5.537-10.146l-1.102 1.668c3.12 2.06 4.639 4.856 4.639 8.478h2zm-5.526-10.14C34.615 8.268 30.15 7.08 24.88 7.08v2c4.97 0 9.017 1.117 12.206 3.283l1.124-1.654zM24.88 7.08c-3.301 0-6.628.495-9.978 1.48l.564 1.92c3.178-.935 6.315-1.4 9.414-1.4v-2zm-9.96 1.476a35.52 35.52 0 00-9.581 4.246l1.066 1.692a33.52 33.52 0 019.044-4.01l-.53-1.928zm-8.123 4.713l-2.4-5.856-1.85.758 2.4 5.856 1.85-.758zM3.984 8.65c6.501-3.875 13.524-5.81 21.088-5.81v-2C17.148.84 9.771 2.873 2.96 6.933l1.024 1.718zm21.088-5.81c4.435 0 8.47.718 12.117 2.14l.726-1.864C34.01 1.594 29.725.84 25.072.84v2zm12.117 2.14c3.636 1.417 6.457 3.432 8.507 6.024l1.568-1.24c-2.302-2.912-5.433-5.121-9.349-6.648L37.19 4.98zm8.515 6.035c2.088 2.565 3.136 5.572 3.136 9.065h2c0-3.93-1.192-7.388-3.584-10.327l-1.552 1.262zm3.136 9.065c0 3.387-.933 6.274-2.774 8.709l1.596 1.206c2.127-2.813 3.178-6.134 3.178-9.915h-2zm-2.766 8.7c-1.838 2.371-4.435 4.09-7.852 5.127l.58 1.914c3.75-1.139 6.722-3.068 8.852-5.816l-1.58-1.226zm55.197-4.668l-.687.727.007.006.68-.733zM106.551 70v1h1v-1h-1zm-6.528 0h-1v1h1v-1zm0-7.872h1V58.44l-1.863 3.183.863.505zm-6.816 6.144l-.44-.898-.007.004.447.894zm-24-1.824l.629-.778-.629.778zm-.384-21.024l-.641-.767-.008.007.65.76zm30.912-3.936v1h1v-1h-1zm-3.648-12.96l-.688.726.01.01.678-.736zm-19.872-1.824l.329.944.009-.003.009-.003-.347-.938zm-7.584 4.32l-.856.517.618 1.024.898-.79-.66-.751zm-3.072-5.088l-.647-.762-.648.55.44.729.855-.517zm9.216-4.992l.306.952.008-.002.008-.003-.322-.947zm18.816 41.568l.532.847.007-.005.007-.004-.546-.838zm6.144-7.68l.927.374.073-.18v-.194h-1zm0-8.256h1v-1h-1v1zm-25.44 16.032l-.61.792.007.005.007.006.596-.803zM86.103 20.12c6.43 0 11.205 1.621 14.481 4.719l1.374-1.454c-3.764-3.559-9.101-5.265-15.855-5.265v2zm14.488 4.725c3.253 3.016 4.96 7.573 4.96 13.859h2c0-6.642-1.812-11.813-5.6-15.325l-1.36 1.466zm4.96 13.859V70h2V38.704h-2zm1 30.296h-6.528v2h6.528v-2zm-5.528 1v-7.872h-2V70h2zm-1.863-8.377c-1.426 2.437-3.542 4.356-6.392 5.75l.879 1.797c3.166-1.55 5.594-3.726 7.239-6.537l-1.726-1.01zm-6.4 5.755c-2.775 1.387-6.135 2.102-10.113 2.102v2c4.214 0 7.895-.757 11.007-2.314l-.894-1.788zM82.647 69.48c-5.476 0-9.71-1.306-12.811-3.81l-1.257 1.556c3.555 2.872 8.28 4.254 14.068 4.254v-2zm-12.811-3.81c-3.085-2.491-4.62-5.753-4.62-9.878h-2c0 4.707 1.791 8.55 5.363 11.434l1.257-1.556zm-4.62-9.878c0-4.016 1.422-7.187 4.257-9.608l-1.3-1.52c-3.309 2.826-4.958 6.568-4.958 11.128h2zm4.249-9.601c2.87-2.402 7.546-3.703 14.238-3.703v-2c-6.876 0-12.12 1.323-15.522 4.17l1.284 1.533zm14.238-3.703h16.032v-2H83.703v2zm17.032-1v-3.072h-2v3.072h2zm0-3.072c0-4.538-1.273-8.14-3.97-10.623l-1.355 1.47c2.167 1.996 3.325 4.988 3.325 9.153h2zm-3.96-10.614c-2.68-2.54-6.518-3.73-11.344-3.73v2c4.518 0 7.785 1.113 9.969 3.182l1.375-1.452zm-11.344-3.73c-3.316 0-6.505.564-9.562 1.694l.693 1.876a25.373 25.373 0 018.87-1.57v-2zm-9.544 1.688c-3.053 1.061-5.697 2.563-7.916 4.513l1.32 1.502c2.005-1.762 4.418-3.14 7.253-4.127l-.657-1.889zm-6.4 4.747l-3.072-5.088-1.712 1.034 3.072 5.088 1.712-1.034zm-3.28-3.81c2.448-2.08 5.4-3.684 8.874-4.801l-.612-1.904c-3.694 1.187-6.886 2.911-9.557 5.182l1.295 1.524zm8.89-4.806c3.475-1.18 7.142-1.771 11.006-1.771v-2c-4.072 0-7.957.624-11.649 1.877l.643 1.894zm8.606 44.213c3.994 0 7.482-.9 10.42-2.745l-1.064-1.694c-2.565 1.611-5.67 2.439-9.356 2.439v2zm10.434-2.754c2.94-1.914 5.112-4.644 6.525-8.144l-1.854-.748c-1.275 3.156-3.198 5.546-5.762 7.216l1.09 1.676zm6.598-8.518v-8.256h-2v8.256h2zm-1-9.256h-15.84v2h15.84v-2zm-15.84 0c-4.405 0-7.887.761-10.291 2.435-2.47 1.72-3.669 4.308-3.669 7.589h2c0-2.735.962-4.66 2.812-5.947 1.915-1.334 4.913-2.077 9.148-2.077v-2zM69.935 55.6c0 3.24 1.253 5.874 3.75 7.8l1.221-1.584c-1.983-1.53-2.97-3.567-2.97-6.216h-2zm3.764 7.81c2.474 1.839 5.85 2.694 10.004 2.694v-2c-3.909 0-6.805-.809-8.811-2.299l-1.193 1.606zm96.309-43.906h1v-1h-1v1zm0 50.496v1h1v-1h-1zm-6.816 0h-1v1h1v-1zm0-44.448h1v-1h-1v1zm-31.68 0v-1h-1v1h1zm0 44.448v1h1v-1h-1zm-6.816 0h-1v1h1v-1zm0-50.496v-1h-1v1h1zm44.312 0V70h2V19.504h-2zm1 49.496h-6.816v2h6.816v-2zm-5.816 1V25.552h-2V70h2zm-1-45.448h-31.68v2h31.68v-2zm-32.68 1V70h2V25.552h-2zm1 43.448h-6.816v2h6.816v-2zm-5.816 1V19.504h-2V70h2zm-1-49.496h45.312v-2h-45.312v2zm64.687-1v-1h-1v1h1zm6.816 0h1v-1h-1v1zm0 40.128h-1v2.746l1.766-2.103-.766-.643zm33.697-40.128v-1h-.467l-.299.357.766.643zm6.047 0h1v-1h-1v1zm0 50.496v1h1v-1h-1zm-6.815 0h-1v1h1v-1zm0-40.128h1V27.12l-1.767 2.11.767.642zM195.527 70v1h.467l.3-.358-.767-.642zm-6.144 0h-1v1h1v-1zm0-49.496h6.816v-2h-6.816v2zm5.816-1v40.128h2V19.504h-2zm1.766 40.771l33.696-40.128-1.531-1.286-33.696 40.128 1.531 1.286zm32.931-39.771h6.047v-2h-6.047v2zm5.047-1V70h2V19.504h-2zm1 49.496h-6.815v2h6.815v-2zm-5.815 1V29.872h-2V70h2zm-1.767-40.77l-33.6 40.128 1.533 1.284 33.6-40.128-1.533-1.284zM195.527 69h-6.144v2h6.144v-2zm-5.144 1V19.504h-2V70h2zm72.774-2.784l-.487.874.006.003.481-.877zm-9.216-9.12l-.871.492.004.006.867-.498zm0-26.592l-.867-.498.867.498zm9.216-9.12l-.481-.877-.006.003.487.874zm25.056-.672l-.454.891.01.005.01.005.434-.901zm8.16 7.392l.562.827.787-.534-.494-.812-.855.519zm-5.088 3.456l-.832.555.56.839.834-.567-.562-.827zm-6.336-5.568l-.447.894.009.005.009.004.429-.903zm-18.24.576l.486.874.006-.003-.492-.871zm-6.816 6.912l-.875-.484-.004.007-.004.007.883.47zm0 20.64l-.883.47.006.01.007.012.87-.492zm6.816 6.912l-.5.866.011.006.012.007.477-.879zm18.24.576l-.429-.903.429.903zm6.336-5.568l.562-.827-.834-.567-.56.84.832.554zm5.088 3.456l.855.52.494-.813-.787-.534-.562.827zm-8.16 7.488l.434.901.007-.003.006-.004-.447-.894zm-11.616 1.496c-4.841 0-9.153-1.054-12.959-3.14l-.962 1.753c4.131 2.265 8.779 3.387 13.921 3.387v-2zm-12.953-3.138c-3.744-2.086-6.685-4.996-8.835-8.744l-1.735.996c2.33 4.06 5.533 7.23 9.596 9.495l.974-1.746zm-8.832-8.738c-2.148-3.806-3.231-8.082-3.231-12.852h-2c0 5.086 1.158 9.706 3.489 13.836l1.742-.984zm-3.231-12.852c0-4.77 1.083-9.012 3.228-12.75l-1.735-.996c-2.335 4.07-3.493 8.66-3.493 13.746h2zm3.228-12.75c2.15-3.748 5.091-6.658 8.835-8.745l-.974-1.747c-4.063 2.266-7.266 5.436-9.596 9.496l1.735.996zm8.829-8.741c3.806-2.087 8.118-3.141 12.959-3.141v-2c-5.142 0-9.79 1.122-13.921 3.387l.962 1.754zm12.959-3.141c4.217 0 7.93.836 11.162 2.483l.908-1.782c-3.551-1.81-7.583-2.701-12.07-2.701v2zm11.182 2.493c3.283 1.58 5.857 3.912 7.74 7.01l1.709-1.038c-2.085-3.43-4.952-6.027-8.581-7.774l-.868 1.802zm8.032 5.664l-5.088 3.456 1.124 1.654 5.088-3.456-1.124-1.654zm-3.694 3.728c-1.758-2.637-4.006-4.618-6.739-5.916l-.858 1.806c2.387 1.134 4.363 2.865 5.933 5.22l1.664-1.11zm-6.721-5.907c-2.705-1.353-5.644-2.026-8.799-2.026v2c2.861 0 5.491.607 7.905 1.814l.894-1.788zm-8.799-2.026c-3.806 0-7.274.87-10.38 2.625l.984 1.742c2.782-1.573 5.907-2.367 9.396-2.367v-2zm-10.373 2.622c-3.051 1.695-5.455 4.137-7.206 7.302l1.75.968c1.578-2.852 3.718-5.017 6.427-6.522l-.971-1.748zm-7.214 7.316c-1.686 3.17-2.517 6.76-2.517 10.742h2c0-3.697.769-6.957 2.283-9.802l-1.766-.94zm-2.517 10.742c0 4.044.83 7.665 2.517 10.838l1.766-.94c-1.512-2.843-2.283-6.134-2.283-9.898h-2zm2.53 10.86c1.75 3.097 4.149 5.531 7.186 7.286l1.001-1.732c-2.723-1.573-4.868-3.747-6.446-6.538l-1.741.984zm7.209 7.299c3.103 1.686 6.566 2.521 10.365 2.521v-2c-3.496 0-6.626-.765-9.41-2.279l-.955 1.758zm10.365 2.521c3.147 0 6.079-.637 8.781-1.92l-.858-1.807c-2.418 1.148-5.054 1.727-7.923 1.727v2zm8.781-1.92c2.733-1.299 4.981-3.28 6.739-5.917l-1.664-1.11c-1.57 2.355-3.546 4.086-5.933 5.22l.858 1.806zm5.345-5.645l5.088 3.456 1.124-1.654-5.088-3.456-1.124 1.654zm4.796 2.11c-1.885 3.1-4.463 5.468-7.753 7.113l.894 1.788c3.623-1.81 6.485-4.436 8.568-7.863l-1.709-1.038zm-7.74 7.106c-3.305 1.591-7.026 2.397-11.182 2.397v2c4.421 0 8.444-.859 12.05-2.595l-.868-1.802zm54.336-42.971l-.687.727.007.006.68-.733zM347.395 70v1h1v-1h-1zm-6.528 0h-1v1h1v-1zm0-7.872h1V58.44l-1.863 3.183.863.505zm-6.816 6.144l-.44-.898-.007.004.447.894zm-24-1.824l.628-.778-.628.778zm-.384-21.024l-.642-.767-.007.007.649.76zm30.912-3.936v1h1v-1h-1zm-3.648-12.96l-.688.726.011.01.677-.736zm-19.872-1.824l.329.944.009-.003.009-.003-.347-.938zm-7.584 4.32l-.856.517.618 1.024.898-.79-.66-.751zm-3.072-5.088l-.648-.762-.648.55.44.729.856-.517zm9.216-4.992l.306.952.008-.002.007-.003-.321-.947zm18.816 41.568l.532.847.007-.005.007-.004-.546-.838zm6.144-7.68l.927.374.073-.18v-.194h-1zm0-8.256h1v-1h-1v1zm-25.44 16.032l-.611.792.007.005.008.006.596-.803zm11.808-42.488c6.43 0 11.205 1.621 14.481 4.719l1.374-1.454c-3.764-3.559-9.101-5.265-15.855-5.265v2zm14.488 4.725c3.252 3.016 4.96 7.573 4.96 13.859h2c0-6.642-1.812-11.813-5.6-15.325l-1.36 1.466zm4.96 13.859V70h2V38.704h-2zm1 30.296h-6.528v2h6.528v-2zm-5.528 1v-7.872h-2V70h2zm-1.863-8.377c-1.427 2.437-3.543 4.356-6.393 5.75l.88 1.797c3.166-1.55 5.594-3.726 7.239-6.537l-1.726-1.01zm-6.4 5.755c-2.776 1.387-6.135 2.102-10.113 2.102v2c4.214 0 7.895-.757 11.007-2.314l-.894-1.788zm-10.113 2.102c-5.476 0-9.711-1.306-12.812-3.81l-1.256 1.556c3.555 2.872 8.28 4.254 14.068 4.254v-2zm-12.812-3.81c-3.084-2.491-4.62-5.753-4.62-9.878h-2c0 4.707 1.792 8.55 5.364 11.434l1.256-1.556zm-4.62-9.878c0-4.016 1.423-7.187 4.257-9.608l-1.298-1.52c-3.31 2.826-4.959 6.568-4.959 11.128h2zm4.25-9.601c2.87-2.402 7.546-3.703 14.238-3.703v-2c-6.876 0-12.12 1.323-15.522 4.17l1.284 1.533zm14.238-3.703h16.032v-2h-16.032v2zm17.032-1v-3.072h-2v3.072h2zm0-3.072c0-4.538-1.273-8.14-3.971-10.623l-1.354 1.47c2.166 1.996 3.325 4.988 3.325 9.153h2zm-3.96-10.614c-2.681-2.54-6.518-3.73-11.344-3.73v2c4.518 0 7.785 1.113 9.968 3.182l1.376-1.452zm-11.344-3.73a27.38 27.38 0 00-9.563 1.694l.694 1.876a25.368 25.368 0 018.869-1.57v-2zm-9.545 1.688c-3.052 1.061-5.696 2.563-7.915 4.513l1.32 1.502c2.005-1.762 4.417-3.14 7.253-4.127l-.658-1.889zm-6.399 4.747l-3.072-5.088-1.712 1.034 3.072 5.088 1.712-1.034zm-3.28-3.81c2.448-2.08 5.4-3.684 8.874-4.801l-.612-1.904c-3.694 1.187-6.886 2.911-9.558 5.182l1.296 1.524zm8.889-4.806c3.476-1.18 7.143-1.771 11.007-1.771v-2c-4.072 0-7.957.624-11.649 1.877l.642 1.894zm8.607 44.213c3.993 0 7.481-.9 10.42-2.745l-1.064-1.694c-2.565 1.611-5.669 2.439-9.356 2.439v2zm10.434-2.754c2.939-1.914 5.112-4.644 6.525-8.144l-1.854-.748c-1.275 3.156-3.198 5.546-5.763 7.216l1.092 1.676zm6.598-8.518v-8.256h-2v8.256h2zm-1-9.256h-15.84v2h15.84v-2zm-15.84 0c-4.405 0-7.887.761-10.291 2.435-2.47 1.72-3.669 4.308-3.669 7.589h2c0-2.735.961-4.66 2.811-5.947 1.916-1.334 4.914-2.077 9.149-2.077v-2zM310.779 55.6c0 3.24 1.252 5.874 3.749 7.8l1.222-1.584c-1.983-1.53-2.971-3.567-2.971-6.216h-2zm3.764 7.81c2.474 1.839 5.849 2.694 10.004 2.694v-2c-3.909 0-6.806-.809-8.812-2.299l-1.192 1.606zm86.517-37.858v1h1v-1h-1zm-19.104 0v-1h-1v1h1zm0 44.448v1h1v-1h-1zm-6.816 0h-1v1h1v-1zm0-44.448h1v-1h-1v1zm-19.104 0h-1v1h1v-1zm0-6.048v-1h-1v1h1zm45.024 0h1v-1h-1v1zm0 5.048h-19.104v2h19.104v-2zm-20.104 1V70h2V25.552h-2zm1 43.448h-6.816v2h6.816v-2zm-5.816 1V25.552h-2V70h2zm-1-45.448h-19.104v2h19.104v-2zm-18.104 1v-6.048h-2v6.048h2zm-1-5.048h45.024v-2h-45.024v2zm44.024-1v6.048h2v-6.048h-2zm32.551 17.856l-.013 1h.003l.01-1zm14.4 4.224l-.645.765.007.006.638-.771zm-.384 24.288l-.627-.78-.007.006.634.774zm-15.36 4.224l.009-1h-.005l-.004 1zM410.915 70h-1v.995l.995.005.005-1zm0-50.496v-1h-1v1h1zm6.816 0h1v-1h-1v1zm0 17.664h-1v.987l.987.013.013-1zm13.152 27.744l-.015 1h.001l.014-1zm10.56-2.784l.63.777.002-.002-.632-.775zm.096-16.896l.603-.797-.603.797zm-10.656-2.784l-.015 1h.001l.014-1zm-13.152-.192l.014-1-1.014-.015v1.015h1zm0 22.464h-1v.986l.985.014.015-1zm14.87-26.36c6.212.063 10.747 1.444 13.765 3.989l1.289-1.53c-3.51-2.959-8.574-4.394-15.034-4.459l-.02 2zm13.772 3.995c3.052 2.523 4.63 6.181 4.63 11.133h2c0-5.416-1.751-9.694-5.355-12.675l-1.275 1.542zm4.63 11.133c0 5.13-1.696 8.948-5.003 11.605l1.253 1.558c3.862-3.103 5.75-7.541 5.75-13.163h-2zm-5.01 11.61c-3.269 2.675-8.123 4.06-14.717 3.998l-.019 2c6.846.065 12.233-1.365 16.003-4.45l-1.267-1.548zm-14.722 3.998L410.919 69l-.009 2 20.352.096.009-2zM411.915 70V19.504h-2V70h2zm-1-49.496h6.816v-2h-6.816v2zm5.816-1v17.664h2V19.504h-2zm.987 18.664l14.88.192.026-2-14.88-.192-.026 2zm13.151 27.744c4.787.066 8.579-.88 11.204-3.007l-1.26-1.554c-2.111 1.712-5.36 2.623-9.917 2.561l-.027 2zm11.206-3.01c2.712-2.212 4.016-5.405 4.016-9.414h-2c0 3.543-1.129 6.11-3.28 7.865l1.264 1.55zm4.016-9.414c0-3.938-1.269-7.026-3.949-9.053l-1.207 1.594c2.057 1.557 3.156 3.973 3.156 7.459h2zm-3.949-9.053c-2.612-1.977-6.414-2.922-11.246-2.987l-.027 2c4.64.063 7.943.974 10.066 2.581l1.207-1.594zm-11.245-2.987l-13.152-.192-.029 2 13.152.192.029-2zm-14.166.808V64.72h2V42.256h-2zm.985 23.464l13.152.192.029-2-13.152-.192-.029 2zm54.973 1.496l-.487.874.006.003.481-.877zm-9.216-9.12l-.871.492.003.006.868-.498zm0-26.592l-.868-.498.868.498zm9.216-9.12l-.481-.877-.006.003.487.874zm25.056-.672l-.454.891.01.005.01.005.434-.901zm8.16 7.392l.561.827.787-.534-.494-.812-.854.519zm-5.089 3.456l-.832.555.56.839.834-.567-.562-.827zm-6.336-5.568l-.447.894.009.005.009.004.429-.903zm-18.239.576l.485.874.007-.003-.492-.871zm-6.817 6.912l-.875-.484-.003.007-.004.007.882.47zm0 20.64l-.882.47.006.01.006.012.87-.492zm6.817 6.912l-.501.866.012.006.011.007.478-.879zm18.239.576l-.429-.903.429.903zm6.336-5.568l.562-.827-.834-.567-.56.84.832.554zm5.089 3.456l.854.52.494-.813-.787-.534-.561.827zm-8.16 7.488l.433.901.007-.003.007-.004-.447-.894zm-11.616 1.496c-4.842 0-9.154-1.054-12.96-3.14l-.961 1.753c4.13 2.265 8.778 3.387 13.921 3.387v-2zm-12.954-3.138c-3.744-2.086-6.685-4.996-8.835-8.744l-1.735.996c2.33 4.06 5.533 7.23 9.597 9.495l.973-1.746zm-8.832-8.738c-2.148-3.806-3.231-8.082-3.231-12.852h-2c0 5.086 1.158 9.706 3.49 13.836l1.741-.984zm-3.231-12.852c0-4.77 1.083-9.012 3.228-12.75l-1.735-.996c-2.335 4.07-3.493 8.66-3.493 13.746h2zm3.228-12.75c2.15-3.748 5.091-6.658 8.835-8.745l-.973-1.747c-4.064 2.266-7.267 5.436-9.597 9.496l1.735.996zm8.829-8.741c3.806-2.087 8.118-3.141 12.96-3.141v-2c-5.143 0-9.791 1.122-13.921 3.387l.961 1.754zm12.96-3.141c4.216 0 7.929.836 11.162 2.483l.907-1.782c-3.551-1.81-7.582-2.701-12.069-2.701v2zm11.182 2.493c3.282 1.58 5.856 3.912 7.739 7.01l1.709-1.038c-2.085-3.43-4.951-6.027-8.581-7.774l-.867 1.802zm8.032 5.664l-5.088 3.456 1.123 1.654 5.088-3.456-1.123-1.654zm-3.694 3.728c-1.759-2.637-4.006-4.618-6.739-5.916l-.859 1.806c2.387 1.134 4.364 2.865 5.933 5.22l1.665-1.11zm-6.721-5.907c-2.706-1.353-5.644-2.026-8.799-2.026v2c2.86 0 5.49.607 7.904 1.814l.895-1.788zm-8.799-2.026c-3.807 0-7.275.87-10.381 2.625l.985 1.742c2.782-1.573 5.906-2.367 9.396-2.367v-2zm-10.374 2.622c-3.051 1.695-5.455 4.137-7.206 7.302l1.751.968c1.577-2.852 3.717-5.017 6.426-6.522l-.971-1.748zm-7.213 7.316c-1.687 3.17-2.517 6.76-2.517 10.742h2c0-3.697.769-6.957 2.282-9.802l-1.765-.94zm-2.517 10.742c0 4.044.829 7.665 2.517 10.838l1.765-.94c-1.512-2.843-2.282-6.134-2.282-9.898h-2zm2.529 10.86c1.75 3.097 4.149 5.531 7.186 7.286l1.001-1.732c-2.723-1.573-4.868-3.747-6.446-6.538l-1.741.984zm7.209 7.299c3.103 1.686 6.566 2.521 10.366 2.521v-2c-3.497 0-6.626-.765-9.411-2.279l-.955 1.758zm10.366 2.521c3.147 0 6.078-.637 8.781-1.92l-.859-1.807c-2.417 1.148-5.054 1.727-7.922 1.727v2zm8.781-1.92c2.733-1.299 4.98-3.28 6.739-5.917l-1.665-1.11c-1.569 2.355-3.546 4.086-5.933 5.22l.859 1.806zm5.345-5.645l5.088 3.456 1.123-1.654-5.088-3.456-1.123 1.654zm4.795 2.11c-1.885 3.1-4.463 5.468-7.753 7.113l.895 1.788c3.622-1.81 6.484-4.436 8.567-7.863l-1.709-1.038zm-7.739 7.106c-3.306 1.591-7.027 2.397-11.182 2.397v2c4.42 0 8.443-.859 12.049-2.595l-.867-1.802zm58.888-47.579h1v-1h-1v1zm0 50.496v1h1v-1h-1zm-6.24 0h-1v1h1v-1zm0-16.704h1v-1h-1v1zm-17.76 0v-1h-.52l-.299.426.819.574zM520.487 70v1h.52l.299-.426-.819-.574zm-7.392 0l-.815-.58-1.125 1.58h1.94v-1zm12.576-17.664l.814.58.827-1.16-1.373-.383-.268.963zm24.288-4.128v1h1v-1h-1zm0-22.656h1v-1h-1v1zm5.24-6.048V70h2V19.504h-2zm1 49.496h-6.24v2h6.24v-2zm-5.24 1V53.296h-2V70h2zm-1-17.704h-15.84v2h15.84v-2zm-15.84 0h-1.92v2h1.92v-2zm-2.739.426l-11.712 16.704 1.638 1.148 11.712-16.704-1.638-1.148zM520.487 69h-7.392v2h7.392v-2zm-6.578 1.58l12.576-17.664-1.629-1.16L512.28 69.42l1.629 1.16zm12.03-19.207c-3.744-1.044-6.557-2.801-8.513-5.232l-1.558 1.254c2.267 2.817 5.471 4.772 9.534 5.904l.537-1.926zm-8.513-5.232c-1.942-2.413-2.947-5.506-2.947-9.357h-2c0 4.213 1.107 7.776 3.389 10.611l1.558-1.254zm-2.947-9.357c0-5.379 1.817-9.348 5.368-12.07l-1.217-1.588c-4.129 3.166-6.151 7.773-6.151 13.658h2zm5.368-12.07c3.61-2.768 8.618-4.21 15.136-4.21v-2c-6.795 0-12.283 1.502-16.353 4.622l1.217 1.588zm15.136-4.21h21.216v-2h-21.216v2zm-15.592 16.472c0 3.971 1.276 7.105 3.958 9.21 2.636 2.07 6.474 3.022 11.346 3.022v-2c-4.665 0-7.979-.92-10.111-2.594-2.086-1.639-3.193-4.121-3.193-7.638h-2zm15.304 12.232h15.264v-2h-15.264v2zm16.264-1V25.552h-2v22.656h2zm-1-23.656h-14.784v2h14.784v-2zm-14.784 0c-5.029 0-8.985.967-11.7 3.065-2.764 2.136-4.084 5.318-4.084 9.359h2c0-3.575 1.143-6.104 3.307-7.777 2.213-1.71 5.65-2.647 10.477-2.647v-2zm65.583-5.048v-1h-1v1h1zm6.817 0h1v-1h-1v1zm0 22.368h-1v1h1v-1zm31.776 0v1h1v-1h-1zm0-22.368v-1h-1v1h1zm6.816 0h1v-1h-1v1zm0 50.496v1h1v-1h-1zm-6.816 0h-1v1h1v-1zm0-22.272h1v-1h-1v1zm-31.776 0v-1h-1v1h1zm0 22.272v1h1v-1h-1zm-6.817 0h-1v1h1v-1zm0-49.496h6.817v-2h-6.817v2zm5.817-1v22.368h2V19.504h-2zm1 23.368h31.776v-2h-31.776v2zm32.776-1V19.504h-2v22.368h2zm-1-21.368h6.816v-2h-6.816v2zm5.816-1V70h2V19.504h-2zm1 49.496h-6.816v2h6.816v-2zm-5.816 1V47.728h-2V70h2zm-1-23.272h-31.776v2h31.776v-2zm-32.776 1V70h2V47.728h-2zm1 21.272h-6.817v2h6.817v-2zm-5.817 1V19.504h-2V70h2zm96.326-45.888l-.687.727.007.006.68-.733zM703.364 70v1h1v-1h-1zm-6.528 0h-1v1h1v-1zm0-7.872h1V58.44l-1.863 3.183.863.505zm-6.816 6.144l-.44-.898-.007.004.447.894zm-24-1.824l.628-.778-.628.778zm-.384-21.024l-.642-.767-.008.007.65.76zm30.912-3.936v1h1v-1h-1zm-3.648-12.96l-.688.726.01.01.678-.736zm-19.872-1.824l.328.944.009-.003.009-.003-.346-.938zm-7.584 4.32l-.856.517.618 1.024.898-.79-.66-.751zm-3.072-5.088l-.648-.762-.648.55.44.729.856-.517zm9.216-4.992l.306.952.007-.002.008-.003-.321-.947zm18.816 41.568l.532.847.007-.005.006-.004-.545-.838zm6.144-7.68l.927.374.073-.18v-.194h-1zm0-8.256h1v-1h-1v1zm-25.44 16.032l-.611.792.007.005.007.006.597-.803zm11.808-42.488c6.43 0 11.205 1.621 14.481 4.719l1.374-1.454c-3.764-3.559-9.102-5.265-15.855-5.265v2zm14.488 4.725c3.252 3.016 4.96 7.573 4.96 13.859h2c0-6.642-1.813-11.813-5.6-15.325l-1.36 1.466zm4.96 13.859V70h2V38.704h-2zm1 30.296h-6.528v2h6.528v-2zm-5.528 1v-7.872h-2V70h2zm-1.863-8.377c-1.427 2.437-3.543 4.356-6.393 5.75l.879 1.797c3.166-1.55 5.594-3.726 7.24-6.537l-1.726-1.01zm-6.4 5.755c-2.776 1.387-6.135 2.102-10.113 2.102v2c4.214 0 7.894-.757 11.007-2.314l-.894-1.788zM679.46 69.48c-5.476 0-9.711-1.306-12.812-3.81l-1.257 1.556c3.556 2.872 8.281 4.254 14.069 4.254v-2zm-12.812-3.81c-3.084-2.491-4.62-5.753-4.62-9.878h-2c0 4.707 1.792 8.55 5.363 11.434l1.257-1.556zm-4.62-9.878c0-4.016 1.423-7.187 4.257-9.608l-1.299-1.52c-3.309 2.826-4.958 6.568-4.958 11.128h2zm4.249-9.601c2.871-2.402 7.546-3.703 14.239-3.703v-2c-6.876 0-12.121 1.323-15.522 4.17l1.283 1.533zm14.239-3.703h16.032v-2h-16.032v2zm17.032-1v-3.072h-2v3.072h2zm0-3.072c0-4.538-1.274-8.14-3.971-10.623l-1.355 1.47c2.167 1.996 3.326 4.988 3.326 9.153h2zm-3.96-10.614c-2.681-2.54-6.518-3.73-11.344-3.73v2c4.518 0 7.784 1.113 9.968 3.182l1.376-1.452zm-11.344-3.73a27.37 27.37 0 00-9.563 1.694l.693 1.876a25.378 25.378 0 018.87-1.57v-2zm-9.545 1.688c-3.053 1.061-5.696 2.563-7.915 4.513l1.32 1.502c2.005-1.762 4.417-3.14 7.252-4.127l-.657-1.889zm-6.399 4.747l-3.072-5.088-1.712 1.034 3.072 5.088 1.712-1.034zm-3.281-3.81c2.449-2.08 5.401-3.684 8.875-4.801l-.612-1.904c-3.694 1.187-6.886 2.911-9.558 5.182l1.295 1.524zm8.89-4.806c3.476-1.18 7.143-1.771 11.007-1.771v-2c-4.072 0-7.957.624-11.65 1.877l.643 1.894zm8.607 44.213c3.993 0 7.481-.9 10.42-2.745l-1.064-1.694c-2.566 1.611-5.67 2.439-9.356 2.439v2zm10.433-2.754c2.94-1.914 5.113-4.644 6.526-8.144l-1.855-.748c-1.274 3.156-3.198 5.546-5.762 7.216l1.091 1.676zm6.599-8.518v-8.256h-2v8.256h2zm-1-9.256h-15.84v2h15.84v-2zm-15.84 0c-4.406 0-7.887.761-10.292 2.435-2.47 1.72-3.668 4.308-3.668 7.589h2c0-2.735.961-4.66 2.811-5.947 1.916-1.334 4.914-2.077 9.149-2.077v-2zM666.748 55.6c0 3.24 1.252 5.874 3.749 7.8l1.222-1.584c-1.984-1.53-2.971-3.567-2.971-6.216h-2zm3.763 7.81c2.474 1.839 5.85 2.694 10.005 2.694v-2c-3.909 0-6.806-.809-8.812-2.299l-1.193 1.606zm94.458-15.874l.77-.638-.3-.362h-.47v1zm-11.519 0v-1h-1v1h1zm0 22.464v1h1v-1h-1zm-6.817 0h-1v1h1v-1zm0-50.496v-1h-1v1h1zm6.817 0h1v-1h-1v1zm0 22.176h-1v1h1v-1zm11.615 0v1h.481l.3-.375-.781-.625zm17.761-22.176v-1h-.481l-.3.375.781.625zm7.392 0l.776.63 1.323-1.63h-2.099v1zm-19.872 24.48l-.777-.63-.514.633.517.63.774-.633zM791.658 70v1h2.111l-1.338-1.634-.773.634zm-8.064 0l-.77.638.3.362h.47v-1zm-18.625-23.464H753.45v2h11.519v-2zm-12.519 1V70h2V47.536h-2zm1 21.464h-6.817v2h6.817v-2zm-5.817 1V19.504h-2V70h2zm-1-49.496h6.817v-2h-6.817v2zm5.817-1V41.68h2V19.504h-2zm1 23.176h11.615v-2H753.45v2zm12.396-.375l17.76-22.176-1.561-1.25-17.76 22.176 1.561 1.25zm16.98-21.801h7.392v-2h-7.392v2zm6.615-1.63l-19.872 24.48 1.553 1.26 19.872-24.48-1.553-1.26zm-19.869 25.744l21.312 26.016 1.547-1.268-21.312-26.016-1.547 1.268zM791.658 69h-8.064v2h8.064v-2zm-7.295.362l-18.624-22.464-1.539 1.276 18.624 22.464 1.539-1.276zm58.058-49.858l.913.408.628-1.408h-1.541v1zm-25.249 56.544l-.913-.408-.004.011.917.397zm-7.104 10.08l-.593-.805.593.805zm-16.511 1.824l.341-.94-.341.94zm-5.473-3.456l-.848-.529-.42.675.561.561.707-.707zm3.169-5.088l.707-.707-.891-.89-.665 1.068.849.529zm15.072 1.92l-.61-.793-.008.006-.007.006.625.781zm4.607-6.528l.91.417.002-.006-.912-.411zm2.209-4.896l.911.411.185-.41-.184-.41-.912.409zm-22.56-50.4v-1h-1.544l.631 1.409.913-.409zm7.104 0l.914-.405-.264-.595h-.65v1zm19.008 42.912l-.915.405.915 2.064.914-2.064-.914-.405zm19.008-42.912v-1h-.651l-.264.595.915.405zm5.806-.408L816.259 75.64l1.827.816 25.248-56.544-1.827-.816zm-25.252 56.555c-2.013 4.655-4.292 7.836-6.78 9.672l1.187 1.61c2.888-2.132 5.345-5.67 7.428-10.488l-1.835-.794zm-6.78 9.672c-2.494 1.841-5.511 2.781-9.103 2.781v2c3.961 0 7.408-1.044 10.29-3.171l-1.187-1.61zm-9.103 2.781c-2.325 0-4.48-.367-6.474-1.092l-.683 1.88c2.23.81 4.619 1.212 7.157 1.212v-2zm-6.474-1.092c-1.979-.72-3.677-1.794-5.106-3.223l-1.415 1.414c1.643 1.643 3.593 2.873 5.838 3.689l.683-1.88zm-4.965-1.987l3.168-5.088-1.697-1.058-3.168 5.088 1.697 1.058zm1.612-4.91c2.746 2.746 6.071 4.133 9.924 4.133v-2c-3.316 0-6.135-1.172-8.509-3.547l-1.415 1.414zm9.924 4.133c2.501 0 4.681-.7 6.48-2.14l-1.249-1.56c-1.401 1.12-3.125 1.7-5.231 1.7v2zm6.465-2.127c1.849-1.422 3.469-3.765 4.908-6.904l-1.819-.834c-1.377 3.005-2.829 5.014-4.308 6.152l1.219 1.586zm4.91-6.91l2.208-4.896-1.823-.822-2.208 4.896 1.823.822zm2.209-5.716l-22.56-50.4-1.825.818 22.56 50.4 1.825-.818zm-23.472-48.991h7.104v-2h-7.104v2zm6.189-.595l19.008 42.912 1.829-.81-19.008-42.912-1.829.81zm20.837 42.912l19.008-42.912-1.829-.81-19.008 42.912 1.829.81zm18.094-42.317h6.72v-2h-6.72v2zm56.219 1.88l-.493.87.011.006.482-.876zm9.024 9.024l-.874.487.874-.487zm0 26.784l.873.487-.873-.487zm-9.024 9.12l.488.873.005-.003-.493-.87zm-24 .672l-.468.884.01.005.011.005.447-.894zm-8.064-7.488l.839-.543-1.839-2.843v3.386h1zm0 28.128v1h1v-1h-1zm-6.816 0h-1v1h1v-1zm0-69.12v-1h-1v1h1zm6.528 0h1v-1h-1v1zm0 9.984h-1v3.533l1.851-3.009-.851-.524zm8.064-7.68l-.467-.884-.007.003.474.881zm20.544 40.224l.485.874.008-.004.007-.004-.5-.866zm6.72-7.008l-.875-.484-.004.007-.004.007.883.47zm0-20.448l-.883.47.006.01.006.012.871-.492zm-6.72-7.008l.5-.866-.5.866zm-19.296 0l-.501-.866-.008.005.509.861zm-6.72 7.008l-.875-.484-.004.007.879.477zm0 20.448l-.883.47.004.007.004.007.875-.484zm6.72 7.008l-.509.86.011.008.012.006.486-.874zm10.176-41.912c4.576 0 8.692 1.05 12.371 3.134l.986-1.74c-4.002-2.267-8.461-3.394-13.357-3.394v2zm12.382 3.14c3.672 2.02 6.546 4.891 8.632 8.635l1.747-.974c-2.265-4.064-5.407-7.209-9.415-9.413l-.964 1.752zm8.632 8.635c2.084 3.738 3.138 8.015 3.138 12.857h2c0-5.142-1.122-9.761-3.391-13.83l-1.747.973zm3.138 12.857c0 4.908-1.055 9.217-3.138 12.953l1.747.974c2.27-4.072 3.391-8.723 3.391-13.927h-2zm-3.138 12.953c-2.088 3.746-4.965 6.653-8.643 8.737l.986 1.74c4.001-2.268 7.14-5.441 9.404-9.503l-1.747-.974zm-8.638 8.734c-3.611 2.02-7.728 3.041-12.376 3.041v2c4.952 0 9.411-1.09 13.352-3.295l-.976-1.746zm-12.376 3.041c-3.957 0-7.513-.803-10.689-2.39l-.894 1.788c3.48 1.74 7.347 2.602 11.583 2.602v-2zm-10.668-2.38c-3.105-1.644-5.668-4.019-7.693-7.147l-1.679 1.086c2.2 3.4 5.013 6.017 8.436 7.829l.936-1.768zm-9.532-6.604v28.128h2V60.496h-2zm1 27.128h-6.816v2h6.816v-2zm-5.816 1v-69.12h-2v69.12h2zm-1-68.12h6.528v-2h-6.528v2zm5.528-1v9.984h2v-9.984h-2zm1.851 10.508c1.959-3.183 4.519-5.618 7.687-7.323l-.948-1.762c-3.489 1.879-6.305 4.564-8.442 8.037l1.703 1.048zm7.68-7.32c3.234-1.708 6.879-2.572 10.957-2.572v-2c-4.37 0-8.341.928-11.891 2.804l.934 1.768zm10.477 42.74c3.678 0 7.047-.838 10.085-2.526l-.971-1.748c-2.721 1.512-5.752 2.274-9.114 2.274v2zm10.1-2.534c3.046-1.76 5.417-4.235 7.103-7.404l-1.766-.94c-1.514 2.847-3.624 5.044-6.338 6.612l1.001 1.732zm7.095-7.39c1.755-3.173 2.621-6.767 2.621-10.756h-2c0 3.69-.798 6.945-2.371 9.788l1.75.968zm2.621-10.756c0-3.989-.866-7.555-2.626-10.668l-1.741.984c1.568 2.775 2.367 5.993 2.367 9.684h2zm-2.613-10.646c-1.686-3.169-4.057-5.644-7.103-7.404l-1.001 1.732c2.714 1.568 4.824 3.765 6.338 6.612l1.766-.94zm-7.103-7.404c-3.041-1.757-6.415-2.63-10.1-2.63v2c3.355 0 6.38.79 9.099 2.362l1.001-1.732zm-10.1-2.63c-3.746 0-7.153.872-10.197 2.63l1.001 1.732c2.716-1.57 5.773-2.362 9.196-2.362v-2zm-10.205 2.635c-2.977 1.76-5.341 4.23-7.086 7.385l1.75.968c1.582-2.86 3.699-5.063 6.353-6.631l-1.017-1.722zm-7.09 7.392c-1.69 3.11-2.521 6.67-2.521 10.653h2c0-3.698.769-6.921 2.278-9.699l-1.757-.954zm-2.521 10.653c0 3.983.831 7.572 2.517 10.742l1.766-.94c-1.514-2.846-2.283-6.105-2.283-9.802h-2zm2.525 10.756c1.745 3.156 4.109 5.625 7.086 7.385l1.017-1.722c-2.654-1.569-4.771-3.77-6.353-6.631l-1.75.968zm7.109 7.398c3.041 1.69 6.443 2.526 10.182 2.526v-2c-3.43 0-6.492-.764-9.211-2.274l-.971 1.748zm58.138 4.31l-.487.874.006.003.481-.877zm-9.216-9.12l-.871.492.004.006.867-.498zm0-26.592l-.867-.498.867.498zm9.216-9.12l-.481-.877-.006.003.487.874zm25.056-.672l-.454.891.01.005.01.005.434-.901zm8.16 7.392l.562.827.787-.534-.494-.812-.855.519zm-5.088 3.456l-.832.555.56.839.834-.567-.562-.827zm-6.336-5.568l-.447.894.009.005.009.004.429-.903zm-18.24.576l.486.874.006-.003-.492-.871zm-6.816 6.912l-.875-.484-.004.007-.004.007.883.47zm0 20.64l-.883.47.006.01.007.012.87-.492zm6.816 6.912l-.5.866.011.006.012.007.477-.879zm18.24.576l-.429-.903.429.903zm6.336-5.568l.562-.827-.834-.567-.56.84.832.554zm5.088 3.456l.855.52.494-.813-.787-.534-.562.827zm-8.16 7.488l.434.901.007-.003.006-.004-.447-.894zm-11.616 1.496c-4.841 0-9.153-1.054-12.959-3.14l-.962 1.753c4.131 2.265 8.779 3.387 13.921 3.387v-2zm-12.953-3.138c-3.744-2.086-6.685-4.996-8.835-8.744l-1.735.996c2.33 4.06 5.533 7.23 9.596 9.495l.974-1.746zm-8.832-8.738c-2.148-3.806-3.231-8.082-3.231-12.852h-2c0 5.086 1.158 9.706 3.489 13.836l1.742-.984zm-3.231-12.852c0-4.77 1.083-9.012 3.228-12.75l-1.735-.996c-2.335 4.07-3.493 8.66-3.493 13.746h2zm3.228-12.75c2.15-3.748 5.091-6.658 8.835-8.745l-.974-1.747c-4.063 2.266-7.266 5.436-9.596 9.496l1.735.996zm8.829-8.741c3.806-2.087 8.118-3.141 12.959-3.141v-2c-5.142 0-9.79 1.122-13.921 3.387l.962 1.754zm12.959-3.141c4.217 0 7.93.836 11.162 2.483l.908-1.782c-3.551-1.81-7.583-2.701-12.07-2.701v2zm11.182 2.493c3.283 1.58 5.857 3.912 7.74 7.01l1.709-1.038c-2.085-3.43-4.952-6.027-8.581-7.774l-.868 1.802zm8.032 5.664l-5.088 3.456 1.124 1.654 5.088-3.456-1.124-1.654zm-3.694 3.728c-1.758-2.637-4.006-4.618-6.739-5.916l-.858 1.806c2.387 1.134 4.363 2.865 5.933 5.22l1.664-1.11zm-6.721-5.907c-2.706-1.353-5.644-2.026-8.799-2.026v2c2.861 0 5.491.607 7.905 1.814l.894-1.788zm-8.799-2.026c-3.806 0-7.274.87-10.38 2.625l.984 1.742c2.782-1.573 5.907-2.367 9.396-2.367v-2zm-10.373 2.622c-3.051 1.695-5.455 4.137-7.206 7.302l1.75.968c1.578-2.852 3.718-5.017 6.427-6.522l-.971-1.748zm-7.214 7.316c-1.686 3.17-2.517 6.76-2.517 10.742h2c0-3.697.769-6.957 2.283-9.802l-1.766-.94zm-2.517 10.742c0 4.044.83 7.665 2.517 10.838l1.766-.94c-1.512-2.843-2.283-6.134-2.283-9.898h-2zm2.53 10.86c1.75 3.097 4.149 5.531 7.186 7.286l1.001-1.732c-2.723-1.573-4.869-3.747-6.446-6.538l-1.741.984zm7.209 7.299c3.103 1.686 6.566 2.521 10.365 2.521v-2c-3.496 0-6.626-.765-9.41-2.279l-.955 1.758zm10.365 2.521c3.147 0 6.079-.637 8.781-1.92l-.858-1.807c-2.418 1.148-5.054 1.727-7.923 1.727v2zm8.781-1.92c2.733-1.299 4.981-3.28 6.739-5.917l-1.664-1.11c-1.57 2.355-3.546 4.086-5.933 5.22l.858 1.806zm5.345-5.645l5.088 3.456 1.124-1.654-5.088-3.456-1.124 1.654zm4.796 2.11c-1.885 3.1-4.463 5.468-7.753 7.113l.894 1.788c3.623-1.81 6.485-4.436 8.568-7.863l-1.709-1.038zm-7.74 7.106c-3.305 1.591-7.026 2.397-11.182 2.397v2c4.421 0 8.444-.859 12.05-2.595l-.868-1.802z" fill="#fff" fill-opacity=".2"/></svg>