<svg width="287" height="71" fill="none" xmlns="http://www.w3.org/2000/svg"><path d="M18.656 65.16l-.488.873.012.007.476-.88zM5.984 52.872l-.865.502.005.008.86-.51zm0-34.944l-.86-.51-.005.008.865.502zM18.656 5.736l.48.877.004-.002-.484-.875zm36.096-.096l-.485.875.005.002.48-.877zm12.672 12.288l-.863.505.003.005.86-.51zm0 35.04l.86.51.003-.005-.863-.505zM54.752 65.16l-.48-.877-.005.002.485.875zM51.2 59.688l.483.875.01-.005-.493-.87zm10.08-9.984l.867.499.003-.006-.87-.493zm0-28.512l-.87.493.003.006.867-.499zM51.2 11.208l-.493.87.01.005.483-.875zm-28.896 0l.483.875.005-.002-.488-.873zm-10.176 9.984l-.864-.503-.003.004.867.499zm0 28.512l-.87.493.005.008.004.008.861-.509zm10.176 9.984l-.493.87.007.004.008.004.478-.878zM36.8 68.576c-6.503 0-12.385-1.436-17.668-4.295l-.952 1.758c5.597 3.03 11.81 4.537 18.62 4.537v-2zm-17.656-4.289c-5.225-2.924-9.32-6.896-12.3-11.925l-1.72 1.02c3.164 5.339 7.518 9.559 13.044 12.65l.976-1.745zM6.85 52.37C3.936 47.35 2.472 41.702 2.472 35.4h-2c0 6.626 1.544 12.626 4.647 17.974l1.73-1.004zM2.472 35.4c0-6.302 1.464-11.95 4.377-16.97l-1.73-1.004C2.016 22.775.472 28.774.472 35.4h2zm4.372-16.962c2.98-5.027 7.07-8.965 12.292-11.825l-.96-1.754c-5.53 3.028-9.887 7.218-13.052 12.56l1.72 1.019zM19.14 6.61C24.42 3.691 30.3 2.224 36.8 2.224v-2c-6.813 0-13.03 1.541-18.628 4.637l.968 1.75zM36.8 2.224c6.503 0 12.318 1.437 17.467 4.29l.97-1.749C49.763 1.731 43.609.224 36.8.224v2zm17.472 4.293c5.218 2.858 9.31 6.826 12.289 11.916l1.726-1.01c-3.164-5.406-7.521-9.63-13.055-12.66l-.96 1.754zm12.292 11.92c2.974 5.02 4.468 10.665 4.468 16.963h2c0-6.63-1.578-12.632-4.748-17.982l-1.72 1.02zM71.032 35.4c0 6.298-1.494 11.978-4.471 17.063l1.726 1.01c3.167-5.41 4.745-11.443 4.745-18.073h-2zm-4.468 17.058c-2.98 5.027-7.07 8.965-12.292 11.825l.96 1.754c5.53-3.029 9.887-7.218 13.052-12.56l-1.72-1.019zM54.267 64.285c-5.15 2.854-10.964 4.291-17.467 4.291v2c6.809 0 12.963-1.507 18.437-4.541l-.97-1.75zM36.8 64.24c5.466 0 10.435-1.22 14.883-3.677l-.966-1.75c-4.128 2.28-8.76 3.427-13.917 3.427v2zm14.893-3.682c4.442-2.52 7.931-5.974 10.454-10.355l-1.734-.998c-2.341 4.068-5.572 7.268-9.706 9.613l.986 1.74zm10.457-10.36c2.523-4.449 3.778-9.389 3.778-14.798h-2c0 5.087-1.177 9.683-3.518 13.81l1.74.987zM65.928 35.4c0-5.41-1.255-10.32-3.781-14.707l-1.734.998c2.338 4.06 3.515 8.622 3.515 13.709h2zM62.15 20.699c-2.523-4.448-6.016-7.909-10.467-10.366l-.966 1.75c4.125 2.278 7.352 5.474 9.693 9.602l1.74-.986zm-10.457-10.36C47.243 7.813 42.271 6.56 36.8 6.56v2c5.153 0 9.78 1.178 13.907 3.518l.986-1.74zM36.8 6.56c-5.471 0-10.473 1.254-14.984 3.775l.976 1.746C26.985 9.738 31.647 8.56 36.8 8.56v-2zm-14.98 3.773c-4.448 2.456-7.97 5.914-10.556 10.356l1.728 1.006c2.406-4.134 5.668-7.332 9.795-9.612l-.966-1.75zm-10.559 10.36C8.735 25.08 7.48 29.991 7.48 35.4h2c0-5.087 1.177-9.648 3.515-13.709l-1.734-.998zM7.48 35.4c0 5.41 1.255 10.35 3.778 14.797l1.74-.986C10.657 45.083 9.48 40.487 9.48 35.4h-2zm3.787 14.813c2.585 4.375 6.105 7.827 10.544 10.345l.986-1.74c-4.136-2.346-7.401-5.55-9.808-9.623l-1.722 1.018zm10.56 10.353c4.508 2.454 9.506 3.674 14.973 3.674v-2c-5.157 0-9.823-1.148-14.018-3.43l-.956 1.756zm128.762-42.062h1v-1h-1v1zm0 50.496v1h1v-1h-1zm-6.816 0h-1v1h1v-1zm0-21.024h1v-1.532l-1.402.616.402.916zm-31.392-.288l-.639.77.009.007.63-.777zm-5.088-29.184v-1h-1v1h1zm6.816 0h1v-1h-1v1zm3.648 24.864l-.632.775.006.005.007.005.619-.785zm26.016-.864l.391.92.609-.258v-.662h-1zm0-24v-1h-1v1h1zm5.816 0V69h2V18.504h-2zm1 49.496h-6.816v2h6.816v-2zm-5.816 1V47.976h-2V69h2zm-1.402-21.94c-5.714 2.512-11.305 3.756-16.782 3.756v2c5.788 0 11.652-1.316 17.587-3.925l-.805-1.83zm-16.782 3.756c-5.939 0-10.422-1.345-13.578-3.905l-1.26 1.554c3.629 2.944 8.618 4.351 14.838 4.351v-2zm-13.569-3.897c-3.105-2.578-4.727-6.451-4.727-11.807h-2c0 5.78 1.77 10.291 5.449 13.345l1.278-1.538zm-4.727-11.807V18.504h-2v16.608h2zm-1-15.608h6.816v-2h-6.816v2zm5.816-1v16.224h2V18.504h-2zm0 16.224c0 4.009 1.304 7.202 4.016 9.415l1.264-1.55c-2.151-1.755-3.28-4.322-3.28-7.865h-2zm4.029 9.425c2.665 2.104 6.272 3.095 10.699 3.095v-2c-4.148 0-7.261-.93-9.46-2.665l-1.239 1.57zm10.699 3.095c4.908 0 10.356-1.292 16.327-3.823l-.781-1.842c-5.805 2.461-10.982 3.665-15.546 3.665v2zm16.936-4.744v-24h-2v24h2zm-1-23h6.816v-2h-6.816v2zm70.333 26.36v1h.956l.043-.955-.999-.045zm-42.24 0v-1h-1.076l.079 1.073.997-.073zm6.048 12.768l-.667.745.008.007.659-.752zm22.464 3.168l.383.924.01-.004.009-.004-.402-.916zm6.816-4.992l.755-.656-.75-.862-.755.856.75.662zm3.84 4.416l.768.64.545-.654-.558-.642-.755.656zm-8.448 6.144l-.383-.924-.007.003.39.921zm-24.864-1.152l-.492.87.009.005.008.005.475-.88zM168.41 57l-.867.498.867-.498zm-.192-26.496l-.874-.487-.006.011.88.476zm8.832-9.12l-.499-.867-.007.004.506.863zm33.984 9.12l-.88.476.004.006.876-.482zm3.168 13.248l.999.045.001-.022v-.023h-1zM177.434 28.68l.685.728h.001l-.686-.728zm-5.568 12.096l-.996-.09-.098 1.09h1.094v-1zm35.808 0v1h1.094l-.098-1.09-.996.09zM202.01 28.68l-.693.721.007.007.008.007.678-.735zm12.096 16.184h-42.24v2h42.24v-2zm-43.237 1.073c.401 5.485 2.522 9.99 6.378 13.44l1.334-1.49c-3.44-3.078-5.351-7.085-5.718-12.096l-1.994.146zm6.386 13.447c3.857 3.383 8.71 5.048 14.483 5.048v-2c-5.363 0-9.726-1.535-13.165-4.552l-1.318 1.504zm14.483 5.048c3.254 0 6.266-.565 9.023-1.708l-.766-1.848c-2.491 1.033-5.239 1.556-8.257 1.556v2zm9.042-1.716a20.387 20.387 0 007.164-5.246l-1.5-1.324a18.39 18.39 0 01-6.468 4.738l.804 1.832zm5.659-5.252l3.84 4.416 1.51-1.312-3.84-4.416-1.51 1.312zm3.827 3.12c-2.132 2.557-4.813 4.511-8.063 5.86l.766 1.848c3.534-1.467 6.485-3.61 8.833-6.428l-1.536-1.28zm-8.07 5.863c-3.191 1.35-6.736 2.033-10.65 2.033v2c4.15 0 7.965-.725 11.43-2.191l-.78-1.842zm-10.65 2.033c-5.04 0-9.481-1.057-13.349-3.144l-.95 1.76c4.196 2.265 8.971 3.384 14.299 3.384v-2zm-13.332-3.135c-3.814-2.153-6.787-5.097-8.937-8.843l-1.734.996c2.33 4.062 5.565 7.262 9.687 9.589l.984-1.742zm-8.937-8.843c-2.145-3.738-3.227-7.98-3.227-12.75h-2c0 5.086 1.158 9.676 3.493 13.746l1.734-.996zm-3.227-12.75c0-4.78 1.023-9.03 3.048-12.772l-1.76-.952c-2.199 4.066-3.288 8.648-3.288 13.724h2zm3.041-12.761c2.093-3.755 4.913-6.662 8.465-8.744l-1.012-1.726c-3.872 2.27-6.94 5.443-9.199 9.496l1.746.974zm8.458-8.74c3.614-2.083 7.663-3.131 12.173-3.131v-2c-4.834 0-9.233 1.128-13.171 3.398l.998 1.732zm12.173-3.131c4.51 0 8.525 1.048 12.07 3.127l1.012-1.726c-3.879-2.273-8.248-3.401-13.082-3.401v2zm12.07 3.127c3.55 2.08 6.335 4.984 8.362 8.733l1.76-.952c-2.197-4.06-5.236-7.235-9.11-9.507l-1.012 1.726zm8.366 8.739c2.02 3.673 3.044 7.919 3.044 12.766h2c0-5.137-1.088-9.723-3.292-13.73l-1.752.964zm3.045 12.72l-.096 2.113 1.998.09.096-2.112-1.998-.09zm-23.481-20.73c-5.101 0-9.448 1.654-12.974 4.976l1.372 1.456c3.13-2.95 6.975-4.432 11.602-4.432v-2zm-12.973 4.976c-3.464 3.26-5.412 7.53-5.879 12.735l1.992.178c.429-4.779 2.193-8.573 5.257-11.457l-1.37-1.456zm-4.883 13.824h35.808v-2h-35.808v2zm36.804-1.09c-.468-5.21-2.451-9.482-5.982-12.74l-1.356 1.469c3.125 2.885 4.918 6.677 5.346 11.45l1.992-.178zm-5.967-12.727c-3.468-3.332-7.82-4.983-12.981-4.983v2c4.695 0 8.535 1.485 11.595 4.425l1.386-1.442zm83.035-9.455h1v-1h-1v1zm0 50.496v1h1v-1h-1zm-6.24 0h-1v1h1v-1zm0-39.936h1V25.48l-1.856 3.066.856.518zM259.05 62.856v1h.563l.292-.482-.855-.518zm-3.072 0l-.856.517.291.483h.565v-1zM235.53 28.968l.856-.517-1.856-3.076v3.593h1zm0 40.032v1h1v-1h-1zm-6.24 0h-1v1h1v-1zm0-50.496v-1h-1v1h1zm6.912 0l.862-.507-.29-.493h-.572v1zm21.408 36.384l-.862.507.854 1.452.866-1.445-.858-.514zm21.792-36.384v-1h-.567l-.291.486.858.514zm5.336 0V69h2V18.504h-2zm1 49.496h-6.24v2h6.24v-2zm-5.24 1V29.064h-2V69h2zm-1.856-40.454l-20.448 33.792 1.711 1.036 20.448-33.792-1.711-1.036zm-19.592 33.31h-3.072v2h3.072v-2zm-2.216.483l-20.448-33.888-1.712 1.034 20.448 33.888 1.712-1.034zM234.53 28.968V69h2V28.968h-2zm1 39.032h-6.24v2h6.24v-2zm-5.24 1V18.504h-2V69h2zm-1-49.496h6.912v-2h-6.912v2zm6.05-.493l21.408 36.384 1.724-1.014-21.408-36.384-1.724 1.014zm23.128 36.39l21.792-36.383-1.716-1.028-21.792 36.384 1.716 1.028zm20.934-35.897h6.336v-2h-6.336v2z" fill="#F7F7F7"/></svg>