<svg width="594" height="71" fill="none" xmlns="http://www.w3.org/2000/svg"><path d="M46.64 7.944l.644-.765-.644.765zm0 33.792l.638.77.006-.005-.644-.765zM8.432 47.784v-1h-1v1h1zm0 21.216v1h1v-1h-1zm-7.104 0h-1v1h1v-1zm0-67.2v-1h-1v1h1zm40.224 35.424l.633.774.009-.007-.642-.767zm0-24.864l-.642.767.009.007.633-.774zM8.432 7.944v-1h-1v1h1zm0 33.6h-1v1h1v-1zM26.48 2.8c8.423 0 14.887 2.01 19.516 5.909l1.288-1.53C42.185 2.885 35.21.8 26.48.8v2zm19.516 5.909c4.608 3.88 6.94 9.216 6.94 16.131h2c0-7.42-2.532-13.35-7.652-17.66l-1.288 1.529zm6.94 16.131c0 6.915-2.332 12.25-6.94 16.131l1.288 1.53c5.12-4.312 7.652-10.24 7.652-17.661h-2zm-6.934 16.126c-4.63 3.838-11.096 5.818-19.522 5.818v2c8.726 0 15.7-2.052 20.798-6.278l-1.276-1.54zM26.48 46.784H8.432v2H26.48v-2zm-19.048 1V69h2V47.784h-2zm1 20.216H1.328v2h7.104v-2zm-6.104 1V1.8h-2V69h2zm-1-66.2H26.48v-2H1.328v2zm24.96 39.744c6.783 0 12.132-1.465 15.897-4.546L40.92 36.45c-3.275 2.68-8.102 4.094-14.631 4.094v2zm15.906-4.553c3.784-3.165 5.638-7.595 5.638-13.151h-2c0 5.068-1.666 8.894-4.922 11.617l1.284 1.534zm5.638-13.151c0-5.675-1.849-10.146-5.647-13.254l-1.266 1.548c3.242 2.652 4.913 6.5 4.913 11.706h2zm-5.638-13.247c-3.766-3.15-9.119-4.649-15.906-4.649v2c6.525 0 11.348 1.445 14.622 4.183l1.284-1.534zM26.288 6.944H8.432v2h17.856v-2zm-18.856 1v33.6h2v-33.6h-2zm1 34.6h17.856v-2H8.432v2zM98.99 23.112l-.687.727.007.006.68-.733zM104.27 69v1h1v-1h-1zm-6.528 0h-1v1h1v-1zm0-7.872h1V57.44l-1.863 3.183.863.505zm-6.816 6.144l-.44-.898-.007.004.447.894zm-24-1.824l.628-.778-.628.778zm-.384-21.024l-.642-.767-.008.007.65.76zm30.912-3.936v1h1v-1h-1zm-3.648-12.96l-.688.726.01.01.678-.736zm-19.872-1.824l.329.944.009-.003.009-.003-.347-.938zm-7.584 4.32l-.856.517.618 1.023.898-.789-.66-.751zm-3.072-5.088l-.648-.762-.648.55.44.729.856-.517zm9.216-4.992l.306.952.008-.002.007-.003-.321-.947zM91.31 61.512l.532.847.007-.005.007-.004-.546-.838zm6.144-7.68l.927.374.073-.18v-.194h-1zm0-8.256h1v-1h-1v1zm-25.44 16.032l-.61.792.006.005.008.006.596-.803zM83.822 19.12c6.43 0 11.205 1.621 14.481 4.719l1.374-1.454c-3.764-3.559-9.101-5.265-15.855-5.265v2zm14.488 4.725c3.252 3.016 4.96 7.573 4.96 13.859h2c0-6.642-1.812-11.813-5.6-15.325l-1.36 1.466zm4.96 13.859V69h2V37.704h-2zm1 30.296h-6.528v2h6.528v-2zm-5.528 1v-7.872h-2V69h2zm-1.863-8.377c-1.427 2.437-3.543 4.356-6.392 5.75l.879 1.797c3.166-1.55 5.594-3.726 7.239-6.537l-1.726-1.01zm-6.4 5.755c-2.776 1.387-6.135 2.102-10.113 2.102v2c4.214 0 7.895-.757 11.007-2.314l-.894-1.788zM80.366 68.48c-5.476 0-9.711-1.306-12.812-3.81l-1.256 1.556c3.555 2.872 8.28 4.254 14.068 4.254v-2zm-12.812-3.81c-3.084-2.491-4.62-5.753-4.62-9.878h-2c0 4.707 1.792 8.55 5.364 11.434l1.256-1.556zm-4.62-9.878c0-4.016 1.423-7.187 4.258-9.608l-1.3-1.52c-3.309 2.826-4.958 6.568-4.958 11.128h2zm4.25-9.601c2.87-2.402 7.546-3.703 14.238-3.703v-2c-6.876 0-12.12 1.323-15.522 4.17l1.284 1.533zm14.238-3.703h16.032v-2H81.422v2zm17.032-1v-3.072h-2v3.072h2zm0-3.072c0-4.538-1.273-8.14-3.97-10.623l-1.355 1.47c2.166 1.996 3.325 4.988 3.325 9.153h2zm-3.96-10.614c-2.68-2.54-6.518-3.73-11.344-3.73v2c4.518 0 7.785 1.113 9.968 3.182l1.376-1.452zm-11.344-3.73a27.37 27.37 0 00-9.563 1.694l.694 1.876a25.374 25.374 0 018.869-1.57v-2zm-9.544 1.688c-3.053 1.061-5.697 2.563-7.916 4.513l1.32 1.502c2.005-1.762 4.417-3.14 7.252-4.127l-.656-1.889zm-6.4 4.747l-3.072-5.088-1.712 1.034 3.072 5.088 1.712-1.034zm-3.28-3.81c2.448-2.08 5.4-3.684 8.874-4.801l-.612-1.904c-3.694 1.187-6.886 2.911-9.558 5.182l1.296 1.524zm8.89-4.806c3.475-1.18 7.142-1.771 11.006-1.771v-2c-4.072 0-7.957.624-11.65 1.877l.643 1.894zm8.606 44.213c3.993 0 7.481-.9 10.42-2.745l-1.064-1.694c-2.565 1.611-5.67 2.439-9.356 2.439v2zm10.434-2.754c2.94-1.914 5.112-4.644 6.525-8.144l-1.854-.748c-1.275 3.156-3.198 5.546-5.763 7.216l1.092 1.676zm6.598-8.518v-8.256h-2v8.256h2zm-1-9.256h-15.84v2h15.84v-2zm-15.84 0c-4.405 0-7.887.761-10.291 2.435-2.47 1.72-3.669 4.308-3.669 7.589h2c0-2.735.961-4.66 2.811-5.947 1.916-1.334 4.914-2.077 9.149-2.077v-2zM67.654 54.6c0 3.24 1.252 5.874 3.75 7.8l1.22-1.584c-1.982-1.53-2.97-3.567-2.97-6.216h-2zm3.764 7.81c2.474 1.839 5.85 2.694 10.004 2.694v-2c-3.91 0-6.806-.809-8.812-2.299l-1.192 1.606zm58.677 3.806l-.487.874.006.003.481-.877zm-9.216-9.12l-.871.492.003.006.868-.498zm0-26.592l-.868-.498.868.498zm9.216-9.12l-.481-.877-.006.003.487.874zm25.056-.672l-.454.891.01.005.01.005.434-.901zm8.16 7.392l.562.827.786-.534-.494-.812-.854.519zm-5.088 3.456l-.832.555.559.839.835-.567-.562-.827zm-6.336-5.568l-.447.894.009.005.009.004.429-.903zm-18.24.576l.485.874.007-.003-.492-.871zm-6.816 6.912l-.875-.484-.004.007-.004.007.883.47zm0 20.64l-.883.47.006.01.006.012.871-.492zm6.816 6.912l-.501.866.012.006.011.007.478-.879zm18.24.576l-.429-.903.429.903zm6.336-5.568l.562-.827-.835-.567-.559.84.832.554zm5.088 3.456l.854.52.494-.813-.786-.534-.562.827zm-8.16 7.488l.434.901.006-.003.007-.004-.447-.894zm-11.616 1.496c-4.842 0-9.154-1.054-12.959-3.14l-.962 1.753c4.13 2.265 8.778 3.387 13.921 3.387v-2zm-12.953-3.138c-3.745-2.086-6.686-4.996-8.836-8.744l-1.735.996c2.33 4.06 5.533 7.23 9.597 9.495l.974-1.746zm-8.832-8.738c-2.149-3.806-3.231-8.082-3.231-12.852h-2c0 5.086 1.157 9.706 3.489 13.836l1.742-.984zm-3.231-12.852c0-4.77 1.082-9.012 3.227-12.75l-1.735-.996c-2.335 4.07-3.492 8.66-3.492 13.746h2zm3.227-12.75c2.15-3.748 5.091-6.658 8.836-8.744l-.974-1.747c-4.064 2.265-7.267 5.435-9.597 9.495l1.735.996zm8.83-8.741c3.805-2.087 8.117-3.141 12.959-3.141v-2c-5.143 0-9.791 1.122-13.921 3.387l.962 1.754zm12.959-3.141c4.217 0 7.929.836 11.162 2.483l.908-1.782c-3.552-1.81-7.583-2.701-12.07-2.701v2zm11.182 2.493c3.283 1.58 5.856 3.912 7.739 7.01l1.709-1.038c-2.085-3.43-4.951-6.027-8.58-7.774l-.868 1.802zm8.032 5.664l-5.088 3.456 1.124 1.654 5.088-3.456-1.124-1.654zm-3.694 3.728c-1.758-2.637-4.006-4.618-6.739-5.916l-.858 1.806c2.387 1.134 4.363 2.865 5.933 5.22l1.664-1.11zm-6.721-5.907c-2.706-1.353-5.644-2.026-8.799-2.026v2c2.861 0 5.49.607 7.905 1.814l.894-1.788zm-8.799-2.026c-3.807 0-7.274.87-10.38 2.625l.984 1.742c2.782-1.573 5.906-2.367 9.396-2.367v-2zm-10.374 2.622c-3.051 1.695-5.455 4.137-7.205 7.302l1.75.968c1.577-2.851 3.717-5.017 6.426-6.522l-.971-1.748zm-7.213 7.316c-1.686 3.17-2.517 6.76-2.517 10.742h2c0-3.697.769-6.957 2.283-9.802l-1.766-.94zm-2.517 10.742c0 4.044.829 7.665 2.517 10.838l1.766-.94c-1.513-2.843-2.283-6.134-2.283-9.898h-2zm2.529 10.86c1.75 3.097 4.149 5.531 7.186 7.286l1.001-1.732c-2.723-1.573-4.868-3.747-6.446-6.538l-1.741.984zm7.209 7.299c3.104 1.686 6.566 2.521 10.366 2.521v-2c-3.497 0-6.626-.765-9.411-2.279l-.955 1.758zm10.366 2.521c3.147 0 6.079-.637 8.781-1.92l-.858-1.807c-2.418 1.148-5.054 1.727-7.923 1.727v2zm8.781-1.92c2.733-1.299 4.981-3.28 6.739-5.917l-1.664-1.11c-1.57 2.355-3.546 4.086-5.933 5.22l.858 1.806zm5.345-5.645l5.088 3.456 1.124-1.654-5.088-3.456-1.124 1.654zm4.795 2.11c-1.885 3.1-4.463 5.468-7.752 7.113l.894 1.788c3.622-1.81 6.484-4.436 8.567-7.863l-1.709-1.038zm-7.739 7.106c-3.306 1.591-7.027 2.397-11.182 2.397v2c4.42 0 8.443-.859 12.05-2.595l-.868-1.802zm67.103-47.579h1v-1h-1v1zm0 50.496v1h1v-1h-1zm-6.815 0h-1v1h1v-1zm0-44.448h1v-1h-1v1zm-31.681 0v-1h-1v1h1zm0 44.448v1h1v-1h-1zm-6.816 0h-1v1h1v-1zm0-50.496v-1h-1v1h1zm44.312 0V69h2V18.504h-2zm1 49.496h-6.815v2h6.815v-2zm-5.815 1V24.552h-2V69h2zm-1-45.448h-31.681v2h31.681v-2zm-32.681 1V69h2V24.552h-2zm1 43.448h-6.816v2h6.816v-2zm-5.816 1V18.504h-2V69h2zm-1-49.496h45.312v-2h-45.312v2zm64.688-1v-1h-1v1h1zm6.816 0h1v-1h-1v1zm0 40.128h-1v2.746l1.766-2.103-.766-.643zm33.696-40.128v-1h-.466l-.3.357.766.643zm6.048 0h1v-1h-1v1zm0 50.496v1h1v-1h-1zm-6.816 0h-1v1h1v-1zm0-40.128h1V26.12l-1.767 2.11.767.642zM247.34 69v1h.467l.3-.358-.767-.642zm-6.144 0h-1v1h1v-1zm0-49.496h6.816v-2h-6.816v2zm5.816-1v40.128h2V18.504h-2zm1.766 40.771l33.696-40.128-1.532-1.286-33.696 40.128 1.532 1.286zm32.93-39.771h6.048v-2h-6.048v2zm5.048-1V69h2V18.504h-2zm1 49.496h-6.816v2h6.816v-2zm-5.816 1V28.872h-2V69h2zm-1.767-40.77l-33.6 40.128 1.534 1.284 33.6-40.128-1.534-1.284zM247.34 68h-6.144v2h6.144v-2zm-5.144 1V18.504h-2V69h2zm72.774-2.784l-.487.874.006.003.481-.877zm-9.216-9.12l-.871.492.003.006.868-.498zm0-26.592l-.868-.498.868.498zm9.216-9.12l-.481-.877-.006.003.487.874zm25.056-.672l-.454.891.01.005.01.005.434-.901zm8.16 7.392l.562.827.786-.534-.494-.812-.854.519zm-5.088 3.456l-.832.555.559.839.835-.567-.562-.827zm-6.336-5.568l-.447.894.009.005.009.004.429-.903zm-18.24.576l.485.874.007-.003-.492-.871zm-6.816 6.912l-.875-.484-.004.007-.004.007.883.47zm0 20.64l-.883.47.006.01.006.012.871-.492zm6.816 6.912l-.501.866.012.006.011.007.478-.879zm18.24.576l-.429-.903.429.903zm6.336-5.568l.562-.827-.835-.567-.559.84.832.554zm5.088 3.456l.854.52.494-.813-.786-.534-.562.827zm-8.16 7.488l.434.901.006-.003.007-.004-.447-.894zM328.41 68.48c-4.842 0-9.154-1.054-12.959-3.14l-.962 1.753c4.13 2.265 8.778 3.387 13.921 3.387v-2zm-12.953-3.138c-3.745-2.086-6.686-4.996-8.836-8.744l-1.735.996c2.33 4.06 5.533 7.23 9.597 9.495l.974-1.746zm-8.832-8.738c-2.149-3.806-3.231-8.082-3.231-12.852h-2c0 5.086 1.157 9.706 3.489 13.836l1.742-.984zm-3.231-12.852c0-4.77 1.082-9.012 3.227-12.75l-1.735-.996c-2.335 4.07-3.492 8.66-3.492 13.746h2zm3.227-12.75c2.15-3.748 5.091-6.658 8.836-8.744l-.974-1.747c-4.064 2.265-7.267 5.435-9.597 9.495l1.735.996zm8.83-8.741c3.805-2.087 8.117-3.141 12.959-3.141v-2c-5.143 0-9.791 1.122-13.921 3.387l.962 1.754zm12.959-3.141c4.217 0 7.929.836 11.162 2.483l.908-1.782c-3.552-1.81-7.583-2.701-12.07-2.701v2zm11.182 2.493c3.283 1.58 5.856 3.912 7.739 7.01l1.709-1.038c-2.085-3.43-4.951-6.027-8.58-7.774l-.868 1.802zm8.032 5.664l-5.088 3.456 1.124 1.654 5.088-3.456-1.124-1.654zm-3.694 3.728c-1.758-2.637-4.006-4.618-6.739-5.916l-.858 1.806c2.387 1.134 4.363 2.865 5.933 5.22l1.664-1.11zm-6.721-5.907c-2.706-1.353-5.644-2.026-8.799-2.026v2c2.861 0 5.49.607 7.905 1.814l.894-1.788zm-8.799-2.026c-3.807 0-7.274.87-10.38 2.625l.984 1.742c2.782-1.573 5.906-2.367 9.396-2.367v-2zm-10.374 2.622c-3.051 1.695-5.455 4.137-7.205 7.302l1.75.968c1.577-2.851 3.717-5.017 6.426-6.522l-.971-1.748zm-7.213 7.316c-1.686 3.17-2.517 6.76-2.517 10.742h2c0-3.697.769-6.957 2.283-9.802l-1.766-.94zm-2.517 10.742c0 4.044.829 7.665 2.517 10.838l1.766-.94c-1.513-2.843-2.283-6.134-2.283-9.898h-2zm2.529 10.86c1.75 3.097 4.149 5.531 7.186 7.286l1.001-1.732c-2.723-1.573-4.868-3.747-6.446-6.538l-1.741.984zm7.209 7.299c3.104 1.686 6.566 2.521 10.366 2.521v-2c-3.497 0-6.626-.765-9.411-2.279l-.955 1.758zm10.366 2.521c3.147 0 6.079-.637 8.781-1.92l-.858-1.807c-2.418 1.148-5.054 1.727-7.923 1.727v2zm8.781-1.92c2.733-1.299 4.981-3.28 6.739-5.917l-1.664-1.11c-1.57 2.355-3.546 4.086-5.933 5.22l.858 1.806zm5.345-5.645l5.088 3.456 1.124-1.654-5.088-3.456-1.124 1.654zm4.795 2.11c-1.885 3.1-4.463 5.468-7.752 7.113l.894 1.788c3.622-1.81 6.484-4.436 8.567-7.863l-1.709-1.038zm-7.739 7.106c-3.306 1.591-7.027 2.397-11.182 2.397v2c4.42 0 8.443-.859 12.05-2.595l-.868-1.802zm54.335-42.971l-.687.727.008.006.679-.733zM399.207 69v1h1v-1h-1zm-6.527 0h-1v1h1v-1zm0-7.872h1V57.44l-1.864 3.183.864.505zm-6.817 6.144l-.439-.898-.008.004.447.894zm-24-1.824l.629-.778-.629.778zm-.384-21.024l-.641-.767-.008.007.649.76zm30.913-3.936v1h1v-1h-1zm-3.649-12.96l-.687.726.01.01.677-.736zm-19.872-1.824l.329.944.009-.003.009-.003-.347-.938zm-7.583 4.32l-.857.517.618 1.023.899-.789-.66-.751zm-3.072-5.088l-.648-.762-.648.55.439.729.857-.517zm9.215-4.992l.307.952.007-.002.008-.003-.322-.947zm18.816 41.568l.532.847.007-.005.007-.004-.546-.838zm6.145-7.68l.927.374.073-.18v-.194h-1zm0-8.256h1v-1h-1v1zm-25.44 16.032l-.611.792.007.005.007.006.597-.803zm11.807-42.488c6.431 0 11.206 1.621 14.481 4.719l1.375-1.454c-3.765-3.559-9.102-5.265-15.856-5.265v2zm14.489 4.725c3.252 3.016 4.959 7.573 4.959 13.859h2c0-6.642-1.812-11.813-5.6-15.325l-1.359 1.466zm4.959 13.859V69h2V37.704h-2zm1 30.296h-6.527v2h6.527v-2zm-5.527 1v-7.872h-2V69h2zm-1.864-8.377c-1.426 2.437-3.542 4.356-6.392 5.75l.879 1.797c3.166-1.55 5.594-3.726 7.24-6.537l-1.727-1.01zm-6.4 5.755c-2.775 1.387-6.135 2.102-10.113 2.102v2c4.215 0 7.895-.757 11.008-2.314l-.895-1.788zm-10.113 2.102c-5.476 0-9.711-1.306-12.811-3.81l-1.257 1.556c3.555 2.872 8.281 4.254 14.068 4.254v-2zm-12.811-3.81c-3.084-2.491-4.621-5.753-4.621-9.878h-2c0 4.707 1.792 8.55 5.364 11.434l1.257-1.556zm-4.621-9.878c0-4.016 1.423-7.187 4.258-9.608l-1.299-1.52c-3.309 2.826-4.959 6.568-4.959 11.128h2zm4.25-9.601c2.871-2.402 7.546-3.703 14.238-3.703v-2c-6.875 0-12.12 1.323-15.521 4.17l1.283 1.533zm14.238-3.703h16.033v-2h-16.033v2zm17.033-1v-3.072h-2v3.072h2zm0-3.072c0-4.538-1.274-8.14-3.971-10.623l-1.355 1.47c2.167 1.996 3.326 4.988 3.326 9.153h2zm-3.961-10.614c-2.68-2.54-6.517-3.73-11.344-3.73v2c4.518 0 7.785 1.113 9.969 3.182l1.375-1.452zm-11.344-3.73c-3.315 0-6.505.564-9.562 1.694l.693 1.876a25.372 25.372 0 018.869-1.57v-2zm-9.544 1.688c-3.053 1.061-5.697 2.563-7.916 4.513l1.321 1.502c2.005-1.762 4.417-3.14 7.252-4.127l-.657-1.889zm-6.399 4.747l-3.072-5.088-1.713 1.034 3.072 5.088 1.713-1.034zm-3.281-3.81c2.448-2.08 5.401-3.684 8.875-4.801l-.613-1.904c-3.694 1.187-6.885 2.911-9.557 5.182l1.295 1.524zm8.89-4.806c3.475-1.18 7.142-1.771 11.006-1.771v-2c-4.071 0-7.956.624-11.649 1.877l.643 1.894zm8.606 44.213c3.994 0 7.482-.9 10.42-2.745l-1.063-1.694c-2.566 1.611-5.67 2.439-9.357 2.439v2zm10.434-2.754c2.94-1.914 5.113-4.644 6.526-8.144l-1.855-.748c-1.275 3.156-3.198 5.546-5.762 7.216l1.091 1.676zm6.599-8.518v-8.256h-2v8.256h2zm-1-9.256h-15.84v2h15.84v-2zm-15.84 0c-4.406 0-7.888.761-10.292 2.435-2.47 1.72-3.669 4.308-3.669 7.589h2c0-2.735.962-4.66 2.812-5.947 1.916-1.334 4.914-2.077 9.149-2.077v-2zM362.591 54.6c0 3.24 1.253 5.874 3.75 7.8l1.221-1.584c-1.983-1.53-2.971-3.567-2.971-6.216h-2zm3.764 7.81c2.474 1.839 5.85 2.694 10.004 2.694v-2c-3.909 0-6.805-.809-8.811-2.299l-1.193 1.606zm50.997-43.906v-1h-1v1h1zm6.816 0h1v-1h-1v1zm0 22.368h-1v1h1v-1zm31.776 0v1h1v-1h-1zm0-22.368v-1h-1v1h1zm6.816 0h1v-1h-1v1zm0 50.496v1h1v-1h-1zm-6.816 0h-1v1h1v-1zm0-22.272h1v-1h-1v1zm-31.776 0v-1h-1v1h1zm0 22.272v1h1v-1h-1zm-6.816 0h-1v1h1v-1zm0-49.496h6.816v-2h-6.816v2zm5.816-1v22.368h2V18.504h-2zm1 23.368h31.776v-2h-31.776v2zm32.776-1V18.504h-2v22.368h2zm-1-21.368h6.816v-2h-6.816v2zm5.816-1V69h2V18.504h-2zm1 49.496h-6.816v2h6.816v-2zm-5.816 1V46.728h-2V69h2zm-1-23.272h-31.776v2h31.776v-2zm-32.776 1V69h2V46.728h-2zm1 21.272h-6.816v2h6.816v-2zm-5.816 1V18.504h-2V69h2zm63.782-50.496v-1h-1v1h1zm6.815 0h1v-1h-1v1zm0 40.128h-1v2.746l1.766-2.103-.766-.643zm33.697-40.128v-1h-.467l-.299.357.766.643zm6.047 0h1v-1h-1v1zm0 50.496v1h1v-1h-1zm-6.815 0h-1v1h1v-1zm0-40.128h1V26.12l-1.767 2.11.767.642zM488.277 69v1h.467l.3-.358-.767-.642zm-6.143 0h-1v1h1v-1zm0-49.496h6.815v-2h-6.815v2zm5.815-1v40.128h2V18.504h-2zm1.766 40.771l33.696-40.128-1.531-1.286-33.696 40.128 1.531 1.286zm32.931-39.771h6.047v-2h-6.047v2zm5.047-1V69h2V18.504h-2zm1 49.496h-6.815v2h6.815v-2zm-5.815 1V28.872h-2V69h2zm-1.767-40.77l-33.6 40.128 1.533 1.284 33.6-40.128-1.533-1.284zM488.277 68h-6.143v2h6.143v-2zm-5.143 1V18.504h-2V69h2zm109.253-23.136v1h.956l.043-.955-.999-.045zm-42.24 0v-1h-1.076l.079 1.073.997-.073zm6.048 12.768l-.667.745.008.007.659-.752zm22.464 3.168l.383.924.01-.004.009-.004-.402-.916zm6.816-4.992l.755-.656-.749-.862-.756.856.75.662zm3.84 4.416l.768.64.545-.654-.558-.642-.755.656zm-8.448 6.144l-.383-.924-.006.003.389.921zm-24.864-1.152l-.491.87.008.005.008.005.475-.88zM546.691 57l-.867.498.867-.498zm-.192-26.496l-.873-.487-.006.011.879.476zm8.832-9.12l-.499-.867-.006.004.505.863zm33.984 9.12l-.879.476.003.006.876-.482zm3.168 13.248l.999.045.001-.022v-.023h-1zM555.715 28.68l.686.728-.686-.728zm-5.568 12.096l-.996-.09-.098 1.09h1.094v-1zm35.808 0v1h1.094l-.098-1.09-.996.09zm-5.664-12.096l-.693.721.008.007.007.007.678-.735zm12.096 16.184h-42.24v2h42.24v-2zm-43.237 1.073c.401 5.485 2.522 9.99 6.378 13.44l1.334-1.49c-3.439-3.078-5.351-7.085-5.717-12.096l-1.995.146zm6.386 13.447c3.857 3.383 8.711 5.048 14.483 5.048v-2c-5.363 0-9.725-1.535-13.164-4.552l-1.319 1.504zm14.483 5.048c3.254 0 6.266-.565 9.023-1.708l-.766-1.848c-2.49 1.033-5.238 1.556-8.257 1.556v2zm9.042-1.716a20.387 20.387 0 007.164-5.246l-1.5-1.324a18.38 18.38 0 01-6.468 4.738l.804 1.832zm5.66-5.252l3.84 4.416 1.509-1.312-3.84-4.416-1.509 1.312zm3.826 3.12c-2.131 2.557-4.813 4.511-8.063 5.86l.767 1.848c3.533-1.467 6.484-3.61 8.832-6.428l-1.536-1.28zm-8.069 5.863c-3.192 1.35-6.737 2.033-10.651 2.033v2c4.151 0 7.965-.725 11.43-2.191l-.779-1.842zm-10.651 2.033c-5.04 0-9.481-1.057-13.349-3.144l-.95 1.76c4.196 2.265 8.972 3.384 14.299 3.384v-2zm-13.332-3.135c-3.814-2.153-6.787-5.097-8.936-8.843l-1.735.996c2.33 4.062 5.565 7.262 9.688 9.589l.983-1.742zm-8.936-8.843c-2.145-3.738-3.228-7.98-3.228-12.75h-2c0 5.086 1.158 9.676 3.493 13.746l1.735-.996zm-3.228-12.75c0-4.78 1.023-9.03 3.048-12.772l-1.759-.952c-2.2 4.066-3.289 8.648-3.289 13.724h2zm3.042-12.761c2.092-3.755 4.912-6.662 8.464-8.744l-1.011-1.726c-3.873 2.27-6.941 5.443-9.2 9.496l1.747.974zm8.458-8.74c3.613-2.083 7.662-3.131 12.172-3.131v-2c-4.834 0-9.232 1.128-13.171 3.398l.999 1.732zm12.172-3.131c4.51 0 8.525 1.048 12.071 3.127l1.011-1.726c-3.878-2.273-8.248-3.401-13.082-3.401v2zm12.071 3.127c3.549 2.08 6.334 4.984 8.362 8.733l1.759-.952c-2.196-4.06-5.235-7.235-9.11-9.507l-1.011 1.726zm8.365 8.739c2.02 3.673 3.044 7.919 3.044 12.766h2c0-5.137-1.088-9.723-3.292-13.73l-1.752.964zm3.045 12.72l-.096 2.113 1.998.09.096-2.112-1.998-.09zm-23.481-20.73c-5.101 0-9.447 1.654-12.974 4.976l1.372 1.456c3.13-2.95 6.975-4.432 11.602-4.432v-2zm-12.973 4.976c-3.464 3.26-5.412 7.53-5.879 12.735l1.992.178c.429-4.779 2.193-8.573 5.258-11.457l-1.371-1.456zm-4.883 13.824h35.808v-2h-35.808v2zm36.804-1.09c-.467-5.21-2.451-9.482-5.981-12.74l-1.357 1.469c3.126 2.885 4.918 6.677 5.346 11.45l1.992-.178zm-5.967-12.727c-3.468-3.332-7.82-4.983-12.981-4.983v2c4.695 0 8.535 1.485 11.595 4.425l1.386-1.442z" fill="#F6F6F6"/></svg>