<svg width="805" height="90" fill="none" xmlns="http://www.w3.org/2000/svg"><path d="M23.6 38.184l.792-.61-.3-.39H23.6v1zm-15.36 0v-1h-1v1h1zM8.24 69v1h1v-1h-1zm-6.912 0h-1v1h1v-1zm0-67.2v-1h-1v1h1zm6.912 0h1v-1h-1v1zm0 30.144h-1v1h1v-1zm15.36 0v1h.498l.3-.398-.798-.602zM46.352 1.8v-1h-.498l-.3.398.798.602zm7.68 0l.794.607L56.056.8h-2.024v1zm-24.96 32.64l-.794-.607-.465.607.464.607.795-.607zM55.472 69v1h2.022l-1.227-1.607-.795.607zm-8.16 0l-.792.61.3.39h.492v-1zM23.6 37.184H8.24v2H23.6v-2zm-16.36 1V69h2V38.184h-2zM8.24 68H1.328v2H8.24v-2zm-5.912 1V1.8h-2V69h2zm-1-66.2H8.24v-2H1.328v2zm5.912-1v30.144h2V1.8h-2zm1 31.144H23.6v-2H8.24v2zm16.158-.398L47.15 2.402l-1.596-1.204-22.752 30.144 1.596 1.204zM46.352 2.8h7.68v-2h-7.68v2zm6.886-1.607l-24.96 32.64 1.588 1.214 24.96-32.64-1.588-1.214zm-24.96 33.854l26.4 34.56 1.589-1.214-26.4-34.56-1.59 1.214zM55.471 68h-8.16v2h8.16v-2zm-7.367.39L24.393 37.574l-1.585 1.22L46.52 69.61l1.584-1.22zm23.771-2.174l-.498.867.011.007.487-.874zM62.66 57l-.867.498.867-.498zm0-26.496l-.867-.498.867.498zm35.52-9.12l-.487.873.487-.873zm9.12 9.12l-.874.487.007.01.867-.497zm0 26.496l-.867-.498-.006.011.873.487zm-9.12 9.216l.487.874.01-.007-.497-.867zm-3.552-5.184l.494.87.006-.004-.5-.866zm6.72-7.008l.883.47-.883-.47zm0-20.544l.883-.47-.883.47zm-6.72-6.912l-.509.86.012.008.011.006.486-.874zm-19.296 0l.494.87.006-.004-.5-.866zm-6.72 6.912l-.875-.484-.004.007-.004.007.883.47zm0 20.544l-.883.47.004.007.004.007.875-.484zm6.72 7.008l-.509.86.012.008.011.006.486-.874zm9.696 7.448c-4.709 0-8.923-1.052-12.665-3.138l-.974 1.748c4.066 2.266 8.62 3.39 13.639 3.39v-2zm-12.654-3.131c-3.75-2.152-6.695-5.097-8.847-8.847l-1.734.996c2.328 4.058 5.527 7.257 9.585 9.585l.996-1.734zm-8.847-8.847c-2.145-3.738-3.227-7.98-3.227-12.75h-2c0 5.086 1.158 9.676 3.493 13.746l1.734-.996zM60.3 43.752c0-4.77 1.082-9.012 3.227-12.75l-1.734-.996c-2.335 4.07-3.493 8.66-3.493 13.746h2zm3.227-12.75c2.15-3.748 5.092-6.658 8.836-8.744l-.974-1.747c-4.064 2.265-7.267 5.435-9.596 9.495l1.734.996zm8.836-8.744c3.742-2.086 7.956-3.138 12.665-3.138v-2c-5.019 0-9.573 1.124-13.639 3.39l.974 1.747zm12.665-3.138c4.709 0 8.923 1.052 12.665 3.137l.974-1.747c-4.066-2.266-8.62-3.39-13.639-3.39v2zm12.665 3.137c3.742 2.086 6.648 4.992 8.734 8.734l1.746-.974c-2.266-4.066-5.44-7.24-9.506-9.506l-.974 1.747zm8.74 8.745c2.145 3.738 3.227 7.98 3.227 12.75h2c0-5.086-1.158-9.676-3.493-13.746l-1.734.996zm3.227 12.75c0 4.77-1.082 9.012-3.227 12.75l1.734.996c2.335-4.07 3.493-8.66 3.493-13.746h-2zm-3.233 12.761c-2.087 3.744-4.997 6.685-8.745 8.836l.996 1.734c4.06-2.33 7.23-5.532 9.495-9.596l-1.746-.974zm-8.734 8.83c-3.742 2.085-7.956 3.137-12.665 3.137v2c5.019 0 9.573-1.124 13.639-3.39l-.974-1.748zm-12.665-.911c3.738 0 7.112-.836 10.094-2.53l-.988-1.74c-2.65 1.506-5.676 2.27-9.106 2.27v2zm10.1-2.534c3.046-1.76 5.417-4.235 7.103-7.404l-1.766-.94c-1.514 2.847-3.624 5.044-6.337 6.612l1 1.732zm7.103-7.404c1.686-3.17 2.517-6.76 2.517-10.742h-2c0 3.697-.769 6.956-2.283 9.802l1.766.94zm2.517-10.742c0-3.983-.831-7.572-2.517-10.742l-1.766.94c1.514 2.845 2.283 6.105 2.283 9.802h2zm-2.517-10.742c-1.687-3.172-4.063-5.62-7.117-7.316l-.972 1.748c2.706 1.503 4.81 3.664 6.323 6.508l1.766-.94zm-7.094-7.303c-2.985-1.764-6.364-2.635-10.109-2.635v2c3.423 0 6.444.793 9.091 2.357l1.018-1.722zm-10.109-2.635c-3.746 0-7.153.872-10.196 2.63l1 1.732c2.717-1.57 5.774-2.362 9.196-2.362v-2zm-10.19 2.627c-2.986 1.696-5.354 4.138-7.101 7.297l1.75.968c1.58-2.857 3.693-5.023 6.339-6.526l-.988-1.74zm-7.109 7.311c-1.686 3.17-2.517 6.76-2.517 10.742h2c0-3.697.77-6.957 2.283-9.802l-1.766-.94zm-2.517 10.742c0 3.983.83 7.572 2.517 10.742l1.766-.94c-1.514-2.846-2.283-6.105-2.283-9.802h-2zm2.525 10.756c1.746 3.156 4.109 5.625 7.086 7.385l1.018-1.722c-2.655-1.569-4.772-3.77-6.354-6.631l-1.75.968zm7.11 7.398c3.04 1.69 6.442 2.526 10.181 2.526v-2c-3.43 0-6.492-.764-9.21-2.274l-.972 1.748zm106.828-43.402h1v-1h-1v1zm0 50.496v1h1v-1h-1zm-6.24 0h-1v1h1v-1zm0-39.936h1V25.48l-1.855 3.066.855.518zm-20.448 33.792v1h.564l.292-.482-.856-.518zm-3.072 0l-.856.517.292.483h.564v-1zm-20.448-33.888l.856-.517-1.856-3.076v3.593h1zm0 40.032v1h1v-1h-1zm-6.24 0h-1v1h1v-1zm0-50.496v-1h-1v1h1zm6.912 0l.862-.507-.29-.493h-.572v1zm21.408 36.384l-.862.507.855 1.452.865-1.445-.858-.514zm21.792-36.384v-1h-.566l-.292.486.858.514zm5.336 0V69h2V18.504h-2zm1 49.496h-6.24v2h6.24v-2zm-5.24 1V29.064h-2V69h2zm-1.855-40.454l-20.448 33.792 1.711 1.036 20.448-33.792-1.711-1.036zm-19.593 33.31h-3.072v2h3.072v-2zm-2.216.483l-20.448-33.888-1.712 1.034 20.448 33.888 1.712-1.034zm-22.304-33.371V69h2V28.968h-2zm1 39.032h-6.24v2h6.24v-2zm-5.24 1V18.504h-2V69h2zm-1-49.496h6.912v-2h-6.912v2zm6.05-.493l21.408 36.384 1.724-1.014-21.408-36.384-1.724 1.014zm23.128 36.39l21.792-36.383-1.716-1.028-21.792 36.384 1.716 1.028zm20.934-35.897h6.336v-2h-6.336v2zm68.644-1l.913.408.629-1.408h-1.542v1zm-25.248 56.544l-.913-.408-.005.011.918.397zm-7.104 10.08l-.594-.805.594.805zm-16.512 1.824l.342-.94-.342.94zm-5.472-3.456l-.849-.529-.42.675.562.561.707-.707zm3.168-5.088l.707-.707-.89-.89-.666 1.068.849.529zm15.072 1.92l-.61-.793-.007.006-.008.006.625.781zm4.608-6.528l.909.417.003-.006-.912-.411zm2.208-4.896l.912.411.184-.41-.183-.41-.913.409zm-22.56-50.4v-1H190.6l.63 1.409.913-.409zm7.104 0l.914-.405-.263-.595h-.651v1zm19.008 42.912l-.914.405.914 2.064.914-2.064-.914-.405zm19.008-42.912v-1h-.651l-.263.595.914.405zm5.807-.408L217.822 74.64l1.826.816 25.248-56.544-1.826-.816zm-25.253 56.555c-2.013 4.655-4.291 7.836-6.78 9.672l1.188 1.61c2.887-2.132 5.345-5.67 7.428-10.488l-1.836-.794zm-6.78 9.672c-2.494 1.841-5.511 2.781-9.102 2.781v2c3.961 0 7.408-1.044 10.29-3.171l-1.188-1.61zm-9.102 2.781c-2.325 0-4.48-.367-6.474-1.092l-.684 1.88c2.23.81 4.619 1.212 7.158 1.212v-2zm-6.474-1.092c-1.98-.72-3.678-1.794-5.107-3.223l-1.414 1.414c1.643 1.643 3.593 2.873 5.837 3.689l.684-1.88zm-4.965-1.987l3.168-5.088-1.698-1.058-3.168 5.088 1.698 1.058zm1.612-4.91c2.745 2.746 6.071 4.133 9.923 4.133v-2c-3.316 0-6.134-1.172-8.509-3.547l-1.414 1.414zm9.923 4.133c2.501 0 4.681-.7 6.481-2.14l-1.25-1.56c-1.4 1.12-3.124 1.7-5.231 1.7v2zm6.466-2.127c1.848-1.422 3.468-3.765 4.907-6.904l-1.818-.834c-1.377 3.005-2.829 5.014-4.309 6.152l1.22 1.586zm4.91-6.91l2.208-4.896-1.824-.822-2.208 4.896 1.824.822zm2.209-5.716l-22.56-50.4-1.826.818 22.56 50.4 1.826-.818zm-23.473-48.991h7.104v-2h-7.104v2zm6.19-.595l19.008 42.912 1.828-.81-19.008-42.912-1.828.81zm20.836 42.912l19.008-42.912-1.828-.81-19.008 42.912 1.828.81zm18.094-42.317h6.72v-2h-6.72v2zm42.464-1v-1h-1v1h1zm6.816 0h1v-1h-1v1zm0 40.128h-1v2.746l1.766-2.103-.766-.643zm33.696-40.128v-1h-.466l-.3.357.766.643zm6.048 0h1v-1h-1v1zm0 50.496v1h1v-1h-1zm-6.816 0h-1v1h1v-1zm0-40.128h1V26.12l-1.766 2.11.766.642zM285.871 69v1h.467l.3-.358-.767-.642zm-6.144 0h-1v1h1v-1zm0-49.496h6.816v-2h-6.816v2zm5.816-1v40.128h2V18.504h-2zm1.766 40.771l33.696-40.128-1.532-1.286-33.696 40.128 1.532 1.286zm32.93-39.771h6.048v-2h-6.048v2zm5.048-1V69h2V18.504h-2zm1 49.496h-6.816v2h6.816v-2zm-5.816 1V28.872h-2V69h2zm-1.766-40.77l-33.6 40.128 1.533 1.284 33.6-40.128-1.533-1.284zM285.871 68h-6.144v2h6.144v-2zm-5.144 1V18.504h-2V69h2zm65.094-50.496v-1h-1v1h1zm6.816 0h1v-1h-1v1zm0 22.368h-1v1h1v-1zm31.776 0v1h1v-1h-1zm0-22.368v-1h-1v1h1zm6.816 0h1v-1h-1v1zm0 50.496v1h1v-1h-1zm-6.816 0h-1v1h1v-1zm0-22.272h1v-1h-1v1zm-31.776 0v-1h-1v1h1zm0 22.272v1h1v-1h-1zm-6.816 0h-1v1h1v-1zm0-49.496h6.816v-2h-6.816v2zm5.816-1v22.368h2V18.504h-2zm1 23.368h31.776v-2h-31.776v2zm32.776-1V18.504h-2v22.368h2zm-1-21.368h6.816v-2h-6.816v2zm5.816-1V69h2V18.504h-2zm1 49.496h-6.816v2h6.816v-2zm-5.816 1V46.728h-2V69h2zm-1-23.272h-31.776v2h31.776v-2zm-32.776 1V69h2V46.728h-2zm1 21.272h-6.816v2h6.816v-2zm-5.816 1V18.504h-2V69h2zm99.301-44.448v1h1v-1h-1zm-19.104 0v-1h-1v1h1zm0 44.448v1h1v-1h-1zm-6.816 0h-1v1h1v-1zm0-44.448h1v-1h-1v1zm-19.104 0h-1v1h1v-1zm0-6.048v-1h-1v1h1zm45.024 0h1v-1h-1v1zm0 5.048h-19.104v2h19.104v-2zm-20.104 1V69h2V24.552h-2zm1 43.448h-6.816v2h6.816v-2zm-5.816 1V24.552h-2V69h2zm-1-45.448h-19.104v2h19.104v-2zm-18.104 1v-6.048h-2v6.048h2zm-1-5.048h45.024v-2h-45.024v2zm44.024-1v6.048h2v-6.048h-2zm52.672 27.36v1h.955l.043-.955-.998-.045zm-42.241 0v-1h-1.075l.078 1.073.997-.073zm6.049 12.768l-.667.745.007.007.66-.752zm22.463 3.168l.384.924.009-.004.009-.004-.402-.916zm6.817-4.992l.754-.656-.749-.862-.755.856.75.662zm3.839 4.416l.769.64.545-.654-.559-.642-.755.656zm-8.448 6.144l-.383-.924-.006.003.389.921zm-24.863-1.152l-.492.87.008.005.009.005.475-.88zM452.098 57l-.868.498.868-.498zm-.193-26.496l-.873-.487-.006.011.879.476zm8.832-9.12l-.499-.867-.006.004.505.863zm33.984 9.12l-.879.476.003.006.876-.482zm3.168 13.248l.999.045.001-.022v-.023h-1zM461.121 28.68l.686.728-.686-.728zm-5.568 12.096l-.996-.09-.097 1.09h1.093v-1zm35.809 0v1h1.093l-.097-1.09-.996.09zm-5.664-12.096l-.693.721.007.007.007.007.679-.735zm12.096 16.184h-42.241v2h42.241v-2zm-43.238 1.073c.402 5.485 2.522 9.99 6.379 13.44l1.333-1.49c-3.439-3.078-5.351-7.085-5.717-12.096l-1.995.146zm6.386 13.447c3.857 3.383 8.711 5.048 14.484 5.048v-2c-5.364 0-9.726-1.535-13.165-4.552l-1.319 1.504zm14.484 5.048c3.253 0 6.265-.565 9.023-1.708l-.767-1.848c-2.49 1.033-5.238 1.556-8.256 1.556v2zm9.041-1.716a20.387 20.387 0 007.164-5.246l-1.499-1.324a18.39 18.39 0 01-6.468 4.738l.803 1.832zm5.66-5.252l3.84 4.416 1.509-1.312-3.84-4.416-1.509 1.312zm3.826 3.12c-2.131 2.557-4.813 4.511-8.063 5.86l.767 1.848c3.534-1.467 6.484-3.61 8.833-6.428l-1.537-1.28zm-8.069 5.863c-3.191 1.35-6.737 2.033-10.651 2.033v2c4.151 0 7.965-.725 11.43-2.191l-.779-1.842zm-10.651 2.033c-5.04 0-9.481-1.057-13.349-3.144l-.949 1.76c4.196 2.265 8.971 3.384 14.298 3.384v-2zm-13.332-3.135c-3.813-2.153-6.787-5.097-8.936-8.843l-1.735.996c2.331 4.062 5.565 7.262 9.688 9.589l.983-1.742zm-8.936-8.843c-2.145-3.738-3.228-7.98-3.228-12.75h-2c0 5.086 1.158 9.676 3.493 13.746l1.735-.996zm-3.228-12.75c0-4.78 1.024-9.03 3.048-12.772l-1.759-.952c-2.2 4.066-3.289 8.648-3.289 13.724h2zm3.042-12.761c2.093-3.755 4.912-6.662 8.464-8.744l-1.011-1.726c-3.872 2.27-6.941 5.443-9.2 9.496l1.747.974zm8.458-8.74c3.613-2.083 7.663-3.131 12.173-3.131v-2c-4.835 0-9.233 1.128-13.172 3.398l.999 1.732zm12.173-3.131c4.509 0 8.524 1.048 12.07 3.127l1.011-1.726c-3.878-2.273-8.247-3.401-13.081-3.401v2zm12.07 3.127c3.549 2.08 6.334 4.984 8.362 8.733l1.759-.952c-2.196-4.06-5.235-7.235-9.11-9.507l-1.011 1.726zm8.365 8.739c2.02 3.673 3.044 7.919 3.044 12.766h2c0-5.137-1.087-9.723-3.291-13.73l-1.753.964zm3.046 12.72l-.096 2.113 1.997.09.096-2.112-1.997-.09zm-23.481-20.73c-5.102 0-9.448 1.654-12.974 4.976l1.371 1.456c3.13-2.95 6.976-4.432 11.603-4.432v-2zm-12.974 4.976c-3.463 3.26-5.411 7.53-5.879 12.735l1.992.178c.429-4.779 2.193-8.573 5.258-11.457l-1.371-1.456zm-4.883 13.824h35.809v-2h-35.809v2zm36.805-1.09c-.468-5.21-2.452-9.482-5.982-12.74l-1.357 1.469c3.126 2.885 4.918 6.677 5.347 11.45l1.992-.178zM486.39 27.96c-3.467-3.332-7.819-4.983-12.98-4.983v2c4.694 0 8.534 1.485 11.595 4.425l1.385-1.442zm65.467-6.575l-.493.87.011.006.482-.876zm9.024 9.024l-.873.487.873-.487zm0 26.784l.874.487-.874-.487zm-9.024 9.12l.488.873.005-.003-.493-.87zm-24 .672l-.468.884.011.005.01.005.447-.894zm-8.064-7.488l.84-.543-1.84-2.843v3.386h1zm0 28.128v1h1v-1h-1zm-6.816 0h-1v1h1v-1zm0-69.12v-1h-1v1h1zm6.528 0h1v-1h-1v1zm0 9.984h-1v3.533l1.852-3.009-.852-.524zm8.064-7.68l-.467-.884-.007.003.474.881zm20.544 40.224l.486.874.007-.004.008-.004-.501-.866zm6.72-7.008l-.875-.484-.004.007-.004.007.883.47zm0-20.448l-.883.47.006.01.007.012.87-.492zm-6.72-7.008l.501-.866-.501.866zm-19.296 0l-.5-.866-.008.005.508.861zm-6.72 7.008l-.875-.484-.003.007.878.477zm0 20.448l-.883.47.004.007.004.007.875-.484zm6.72 7.008l-.508.86.011.008.012.006.485-.874zm10.176-41.912c4.576 0 8.693 1.05 12.371 3.134l.986-1.74c-4.001-2.267-8.461-3.394-13.357-3.394v2zm12.382 3.14c3.672 2.02 6.546 4.891 8.633 8.635l1.747-.974c-2.266-4.064-5.408-7.209-9.416-9.413l-.964 1.752zm8.633 8.635c2.083 3.738 3.137 8.015 3.137 12.857h2c0-5.142-1.122-9.761-3.39-13.83l-1.747.973zm3.137 12.857c0 4.908-1.055 9.217-3.137 12.953l1.747.974c2.269-4.072 3.39-8.723 3.39-13.927h-2zm-3.137 12.953c-2.088 3.746-4.965 6.653-8.644 8.737l.986 1.74c4.002-2.268 7.141-5.441 9.405-9.503l-1.747-.974zm-8.639 8.734c-3.611 2.02-7.728 3.041-12.376 3.041v2c4.952 0 9.411-1.09 13.352-3.295l-.976-1.746zm-12.376 3.041c-3.956 0-7.513-.803-10.689-2.39l-.894 1.788c3.48 1.74 7.348 2.602 11.583 2.602v-2zm-10.668-2.38c-3.105-1.644-5.668-4.019-7.692-7.147l-1.679 1.086c2.199 3.4 5.012 6.017 8.435 7.829l.936-1.768zm-9.532-6.604v28.128h2V59.496h-2zm1 27.128h-6.816v2h6.816v-2zm-5.816 1v-69.12h-2v69.12h2zm-1-68.12h6.528v-2h-6.528v2zm5.528-1v9.984h2v-9.984h-2zm1.852 10.508c1.959-3.183 4.519-5.618 7.686-7.323l-.948-1.762c-3.488 1.879-6.304 4.564-8.441 8.037l1.703 1.048zm7.679-7.32c3.234-1.708 6.879-2.572 10.957-2.572v-2c-4.37 0-8.341.928-11.891 2.804l.934 1.768zm10.477 42.74c3.678 0 7.047-.838 10.086-2.526l-.971-1.748c-2.722 1.512-5.753 2.274-9.115 2.274v2zm10.101-2.534c3.046-1.76 5.416-4.235 7.102-7.404l-1.766-.94c-1.514 2.847-3.623 5.044-6.337 6.612l1.001 1.732zm7.094-7.39c1.756-3.173 2.621-6.767 2.621-10.756h-2c0 3.69-.798 6.945-2.371 9.788l1.75.968zm2.621-10.756c0-3.989-.865-7.555-2.625-10.668l-1.741.984c1.568 2.775 2.366 5.993 2.366 9.684h2zm-2.613-10.646c-1.686-3.169-4.056-5.644-7.102-7.404l-1.001 1.732c2.714 1.568 4.823 3.765 6.337 6.612l1.766-.94zm-7.102-7.404c-3.041-1.757-6.416-2.63-10.101-2.63v2c3.355 0 6.381.79 9.1 2.362l1.001-1.732zm-10.101-2.63c-3.745 0-7.152.872-10.196 2.63l1.001 1.732c2.716-1.57 5.773-2.362 9.195-2.362v-2zm-10.204 2.635c-2.978 1.76-5.341 4.23-7.087 7.385l1.75.968c1.583-2.86 3.699-5.063 6.354-6.631l-1.017-1.722zm-7.09 7.392c-1.691 3.11-2.522 6.67-2.522 10.653h2c0-3.698.769-6.921 2.279-9.699l-1.757-.954zm-2.522 10.653c0 3.983.831 7.572 2.517 10.742l1.766-.94c-1.514-2.846-2.283-6.105-2.283-9.802h-2zm2.525 10.756c1.746 3.156 4.109 5.625 7.087 7.385l1.017-1.722c-2.655-1.569-4.771-3.77-6.354-6.631l-1.75.968zm7.11 7.398c3.041 1.69 6.443 2.526 10.181 2.526v-2c-3.429 0-6.492-.764-9.21-2.274l-.971 1.748zm94.618-16.042v1h.955l.044-.955-.999-.045zm-42.24 0v-1h-1.076l.078 1.073.998-.073zm6.048 12.768l-.667.745.007.007.66-.752zm22.464 3.168l.383.924.009-.004.01-.004-.402-.916zm6.816-4.992l.754-.656-.749-.862-.755.856.75.662zm3.84 4.416l.768.64.545-.654-.559-.642-.754.656zm-8.448 6.144l-.384-.924-.006.003.39.921zm-24.864-1.152l-.492.87.008.005.009.005.475-.88zM577.254 57l-.868.498.868-.498zm-.192-26.496l-.874-.487-.006.011.88.476zm8.832-9.12l-.5-.867-.006.004.506.863zm33.984 9.12l-.88.476.004.006.876-.482zm3.168 13.248l.999.045.001-.022v-.023h-1zM586.278 28.68l.685.728h.001l-.686-.728zm-5.568 12.096l-.996-.09-.098 1.09h1.094v-1zm35.808 0v1h1.094l-.098-1.09-.996.09zm-5.664-12.096l-.693.721.007.007.007.007.679-.735zm12.096 16.184h-42.24v2h42.24v-2zm-43.238 1.073c.402 5.485 2.522 9.99 6.379 13.44l1.334-1.49c-3.44-3.078-5.351-7.085-5.718-12.096l-1.995.146zm6.386 13.447c3.857 3.383 8.711 5.048 14.484 5.048v-2c-5.364 0-9.726-1.535-13.165-4.552l-1.319 1.504zm14.484 5.048c3.254 0 6.265-.565 9.023-1.708l-.766-1.848c-2.491 1.033-5.239 1.556-8.257 1.556v2zm9.042-1.716a20.387 20.387 0 007.164-5.246l-1.5-1.324a18.39 18.39 0 01-6.468 4.738l.804 1.832zm5.659-5.252l3.84 4.416 1.509-1.312-3.84-4.416-1.509 1.312zm3.827 3.12c-2.132 2.557-4.813 4.511-8.064 5.86l.767 1.848c3.534-1.467 6.484-3.61 8.833-6.428l-1.536-1.28zm-8.07 5.863c-3.191 1.35-6.737 2.033-10.65 2.033v2c4.15 0 7.965-.725 11.429-2.191l-.779-1.842zm-10.65 2.033c-5.041 0-9.481-1.057-13.349-3.144l-.95 1.76c4.196 2.265 8.971 3.384 14.299 3.384v-2zm-13.333-3.135c-3.813-2.153-6.786-5.097-8.936-8.843l-1.735.996c2.331 4.062 5.566 7.262 9.688 9.589l.983-1.742zm-8.936-8.843c-2.145-3.738-3.227-7.98-3.227-12.75h-2c0 5.086 1.157 9.676 3.492 13.746l1.735-.996zm-3.227-12.75c0-4.78 1.023-9.03 3.047-12.772l-1.759-.952c-2.199 4.066-3.288 8.648-3.288 13.724h2zm3.041-12.761c2.093-3.755 4.913-6.662 8.464-8.744l-1.011-1.726c-3.872 2.27-6.94 5.443-9.2 9.496l1.747.974zm8.458-8.74c3.613-2.083 7.663-3.131 12.173-3.131v-2c-4.834 0-9.233 1.128-13.172 3.398l.999 1.732zm12.173-3.131c4.51 0 8.524 1.048 12.07 3.127l1.011-1.726c-3.878-2.273-8.247-3.401-13.081-3.401v2zm12.07 3.127c3.549 2.08 6.334 4.984 8.362 8.733l1.759-.952c-2.196-4.06-5.235-7.235-9.11-9.507l-1.011 1.726zm8.366 8.739c2.02 3.673 3.044 7.919 3.044 12.766h2c0-5.137-1.088-9.723-3.292-13.73l-1.752.964zm3.045 12.72l-.096 2.113 1.998.09.096-2.112-1.998-.09zm-23.481-20.73c-5.101 0-9.448 1.654-12.974 4.976l1.372 1.456c3.129-2.95 6.975-4.432 11.602-4.432v-2zm-12.974 4.976c-3.463 3.26-5.411 7.53-5.878 12.735l1.992.178c.429-4.779 2.193-8.573 5.257-11.457l-1.371-1.456zm-4.882 13.824h35.808v-2H580.71v2zm36.804-1.09c-.468-5.21-2.452-9.482-5.982-12.74l-1.357 1.469c3.126 2.885 4.918 6.677 5.347 11.45l1.992-.178zm-5.967-12.727c-3.468-3.332-7.82-4.983-12.981-4.983v2c4.695 0 8.535 1.485 11.595 4.425l1.386-1.442zm34.266 38.257l-.486.874.006.003.48-.877zm-9.216-9.12l-.87.492.003.006.867-.498zm0-26.592l-.867-.498.867.498zm9.216-9.12l-.48-.877-.006.003.486.874zm25.057-.672l-.454.891.01.005.01.005.434-.901zm8.159 7.392l.562.827.787-.534-.494-.812-.855.519zm-5.087 3.456l-.833.555.56.839.834-.567-.561-.827zm-6.336-5.568l-.448.894.009.005.009.004.43-.903zm-18.241.576l.486.874.007-.003-.493-.871zm-6.816 6.912l-.875-.484-.004.007-.003.007.882.47zm0 20.64l-.882.47.006.01.006.012.87-.492zm6.816 6.912l-.5.866.012.006.011.007.477-.879zm18.241.576l-.43-.903.43.903zm6.336-5.568l.561-.827-.834-.567-.56.84.833.554zm5.087 3.456l.855.52.494-.813-.787-.534-.562.827zm-8.159 7.488l.433.901.007-.003.007-.004-.447-.894zm-11.617 1.496c-4.841 0-9.153-1.054-12.959-3.14l-.961 1.753c4.13 2.265 8.778 3.387 13.92 3.387v-2zM646.3 65.342c-3.744-2.086-6.685-4.996-8.835-8.744l-1.735.996c2.33 4.06 5.533 7.23 9.597 9.495l.973-1.746zm-8.832-8.738c-2.148-3.806-3.231-8.082-3.231-12.852h-2c0 5.086 1.158 9.706 3.49 13.836l1.741-.984zm-3.231-12.852c0-4.77 1.083-9.012 3.228-12.75l-1.735-.996c-2.335 4.07-3.493 8.66-3.493 13.746h2zm3.228-12.75c2.15-3.748 5.091-6.658 8.835-8.744l-.973-1.747c-4.064 2.265-7.267 5.435-9.597 9.495l1.735.996zm8.829-8.741c3.806-2.087 8.118-3.141 12.959-3.141v-2c-5.142 0-9.79 1.122-13.92 3.387l.961 1.754zm12.959-3.141c4.217 0 7.93.836 11.163 2.483l.907-1.782c-3.551-1.81-7.582-2.701-12.07-2.701v2zm11.183 2.493c3.282 1.58 5.856 3.912 7.739 7.01l1.709-1.038c-2.085-3.43-4.951-6.027-8.581-7.774l-.867 1.802zm8.032 5.664l-5.088 3.456 1.123 1.654 5.088-3.456-1.123-1.654zm-3.694 3.728c-1.759-2.637-4.006-4.618-6.739-5.916l-.859 1.806c2.387 1.134 4.364 2.865 5.933 5.22l1.665-1.11zm-6.721-5.907c-2.706-1.353-5.644-2.026-8.8-2.026v2c2.861 0 5.491.607 7.905 1.814l.895-1.788zm-8.8-2.026c-3.806 0-7.274.87-10.38 2.625l.985 1.742c2.782-1.573 5.906-2.367 9.395-2.367v-2zm-10.373 2.622c-3.051 1.695-5.455 4.137-7.206 7.302l1.751.968c1.577-2.851 3.717-5.017 6.426-6.522l-.971-1.748zm-7.213 7.316c-1.687 3.17-2.518 6.76-2.518 10.742h2c0-3.697.77-6.957 2.283-9.802l-1.765-.94zm-2.518 10.742c0 4.044.83 7.665 2.518 10.838l1.765-.94c-1.512-2.843-2.283-6.134-2.283-9.898h-2zm2.53 10.86c1.75 3.097 4.149 5.531 7.186 7.286l1.001-1.732c-2.723-1.573-4.868-3.747-6.446-6.538l-1.741.984zm7.209 7.299c3.103 1.686 6.566 2.521 10.365 2.521v-2c-3.496 0-6.625-.765-9.41-2.279l-.955 1.758zm10.365 2.521c3.148 0 6.079-.637 8.782-1.92l-.859-1.807c-2.417 1.148-5.054 1.727-7.923 1.727v2zm8.782-1.92c2.733-1.299 4.98-3.28 6.739-5.917l-1.665-1.11c-1.569 2.355-3.546 4.086-5.933 5.22l.859 1.806zm5.345-5.645l5.088 3.456 1.123-1.654-5.088-3.456-1.123 1.654zm4.795 2.11c-1.885 3.1-4.463 5.468-7.753 7.113l.895 1.788c3.622-1.81 6.484-4.436 8.567-7.863l-1.709-1.038zm-7.739 7.106c-3.306 1.591-7.027 2.397-11.183 2.397v2c4.421 0 8.444-.859 12.05-2.595l-.867-1.802zm21.791-47.579v-1h-1v1h1zm6.816 0h1v-1h-1v1zm0 22.368h-1v1h1v-1zm31.776 0v1h1v-1h-1zm0-22.368v-1h-1v1h1zm6.816 0h1v-1h-1v1zm0 50.496v1h1v-1h-1zm-6.816 0h-1v1h1v-1zm0-22.272h1v-1h-1v1zm-31.776 0v-1h-1v1h1zm0 22.272v1h1v-1h-1zm-6.816 0h-1v1h1v-1zm0-49.496h6.816v-2h-6.816v2zm5.816-1v22.368h2V18.504h-2zm1 23.368h31.776v-2h-31.776v2zm32.776-1V18.504h-2v22.368h2zm-1-21.368h6.816v-2h-6.816v2zm5.816-1V69h2V18.504h-2zm1 49.496h-6.816v2h6.816v-2zm-5.816 1V46.728h-2V69h2zm-1-23.272h-31.776v2h31.776v-2zm-32.776 1V69h2V46.728h-2zm1 21.272h-6.816v2h6.816v-2zm-5.816 1V18.504h-2V69h2zm71.461-2.784l-.497.867.011.007.486-.874zM755.472 57l-.867.498.867-.498zm0-26.496l-.867-.498.867.498zm35.52-9.12l-.486.873.486-.873zm9.12 9.12l-.873.487.006.01.867-.497zm0 26.496l-.867-.498-.006.011.873.487zm-9.12 9.216l.487.874.011-.007-.498-.867zm-3.552-5.184l.495.87.006-.004-.501-.866zm6.721-7.008l.882.47-.882-.47zm0-20.544l.882-.47-.882.47zm-6.721-6.912l-.508.86.011.008.012.006.485-.874zm-19.295 0l.494.87.006-.004-.5-.866zm-6.721 6.912l-.875-.484-.004.007-.003.007.882.47zm0 20.544l-.882.47.003.007.004.007.875-.484zm6.721 7.008l-.509.86.011.008.012.006.486-.874zm9.696 7.448c-4.71 0-8.923-1.052-12.666-3.138l-.973 1.748c4.065 2.266 8.62 3.39 13.639 3.39v-2zm-12.655-3.131c-3.75-2.152-6.694-5.097-8.846-8.847l-1.735.996c2.328 4.058 5.528 7.257 9.586 9.585l.995-1.734zm-8.846-8.847c-2.145-3.738-3.228-7.98-3.228-12.75h-2c0 5.086 1.158 9.676 3.493 13.746l1.735-.996zm-3.228-12.75c0-4.77 1.083-9.012 3.228-12.75l-1.735-.996c-2.335 4.07-3.493 8.66-3.493 13.746h2zm3.228-12.75c2.15-3.748 5.091-6.658 8.835-8.744l-.973-1.747c-4.064 2.265-7.267 5.435-9.597 9.495l1.735.996zm8.835-8.744c3.743-2.086 7.956-3.138 12.666-3.138v-2c-5.019 0-9.574 1.124-13.639 3.39l.973 1.747zm12.666-3.138c4.709 0 8.922 1.052 12.665 3.137l.973-1.747c-4.065-2.266-8.62-3.39-13.638-3.39v2zm12.665 3.137c3.741 2.086 6.648 4.992 8.733 8.734l1.747-.974c-2.266-4.066-5.44-7.24-9.507-9.506l-.973 1.747zm8.739 8.745c2.145 3.738 3.228 7.98 3.228 12.75h2c0-5.086-1.158-9.676-3.493-13.746l-1.735.996zm3.228 12.75c0 4.77-1.083 9.012-3.228 12.75l1.735.996c2.335-4.07 3.493-8.66 3.493-13.746h-2zm-3.234 12.761c-2.087 3.744-4.997 6.685-8.744 8.836l.995 1.734c4.06-2.33 7.231-5.532 9.496-9.596l-1.747-.974zm-8.733 8.83c-3.743 2.085-7.956 3.137-12.665 3.137v2c5.018 0 9.573-1.124 13.638-3.39l-.973-1.748zm-12.665-.911c3.738 0 7.111-.836 10.094-2.53l-.989-1.74c-2.649 1.506-5.676 2.27-9.105 2.27v2zm10.1-2.534c3.046-1.76 5.417-4.235 7.102-7.404l-1.765-.94c-1.515 2.847-3.624 5.044-6.338 6.612l1.001 1.732zm7.102-7.404c1.687-3.17 2.517-6.76 2.517-10.742h-2c0 3.697-.769 6.956-2.282 9.802l1.765.94zm2.517-10.742c0-3.983-.83-7.572-2.517-10.742l-1.765.94c1.513 2.845 2.282 6.105 2.282 9.802h2zm-2.517-10.742c-1.687-3.172-4.062-5.62-7.117-7.316l-.971 1.748c2.705 1.503 4.81 3.664 6.323 6.508l1.765-.94zm-7.094-7.303c-2.984-1.764-6.363-2.635-10.108-2.635v2c3.422 0 6.443.793 9.091 2.357l1.017-1.722zm-10.108-2.635c-3.746 0-7.153.872-10.197 2.63l1.001 1.732c2.716-1.57 5.773-2.362 9.196-2.362v-2zm-10.19 2.627c-2.987 1.696-5.354 4.138-7.102 7.297l1.751.968c1.58-2.857 3.692-5.023 6.338-6.526l-.987-1.74zm-7.109 7.311c-1.687 3.17-2.518 6.76-2.518 10.742h2c0-3.697.77-6.957 2.283-9.802l-1.765-.94zm-2.518 10.742c0 3.983.831 7.572 2.518 10.742l1.765-.94c-1.513-2.846-2.283-6.105-2.283-9.802h-2zm2.525 10.756c1.746 3.156 4.109 5.625 7.087 7.385l1.017-1.722c-2.654-1.569-4.771-3.77-6.353-6.631l-1.751.968zm7.11 7.398c3.041 1.69 6.443 2.526 10.182 2.526v-2c-3.43 0-6.492-.764-9.211-2.274l-.971 1.748z" fill="#fff"/></svg>