<svg width="15" height="15" fill="none" xmlns="http://www.w3.org/2000/svg"><path fill-rule="evenodd" clip-rule="evenodd" d="M4.844 10.616V15h-.938v-4.375a3.594 3.594 0 017.188 0V15h-.938v-4.375a2.656 2.656 0 00-2.5-2.652l-.147-.004H7.5a2.656 2.656 0 00-2.652 2.5l-.004.147zm-2.189-1.23a4.958 4.958 0 00-.146.93l-.08-.004h-.007a1.484 1.484 0 00-1.478 1.342v.008l-.006.127V15H0v-3.203a2.422 2.422 0 012.655-2.41zm9.923.927c-.03 0-.058 0-.087.002a4.972 4.972 0 00-.146-.929A2.422 2.422 0 0115 11.796V15h-.938v-3.203a1.485 1.485 0 00-1.341-1.478h-.008l-.127-.007h-.008zM2.422 4.686a1.64 1.64 0 110 3.282 1.64 1.64 0 010-3.282zm10.156 0a1.64 1.64 0 110 3.282 1.64 1.64 0 010-3.282zm-10.156.938a.703.703 0 100 1.406.703.703 0 000-1.406zm10.156 0a.703.703 0 100 1.406.703.703 0 000-1.406zM7.5 0a2.813 2.813 0 110 5.625A2.813 2.813 0 017.5 0zm0 .938a1.875 1.875 0 100 3.75 1.875 1.875 0 000-3.75z" fill="#5E7A8C"/></svg>