<svg width="15" height="15" fill="none" xmlns="http://www.w3.org/2000/svg"><g clip-path="url(#clip0)" fill="#5E7A8C"><path d="M14.982 1.12A1.166 1.166 0 0013.88.018C12.678-.048 10.325.016 8.076 1.18c-1.147.593-2.36 1.599-3.328 2.759l-.035.043-2.197.17a1.16 1.16 0 00-.884.52L.134 6.938a.8.8 0 00-.065.768.8.8 0 00.612.47l1.85.286-.019.108c-.061.368.06.747.327 1.013l2.578 2.578a1.168 1.168 0 001.014.327l.108-.02.286 1.851A.8.8 0 007.62 15a.8.8 0 00.443-.133l2.267-1.499c.302-.2.492-.522.52-.884l.17-2.196.042-.036c1.16-.968 2.166-2.18 2.76-3.327 1.163-2.25 1.227-4.603 1.161-5.805zM9.844 12.635l-2.168 1.433-.28-1.803a9.843 9.843 0 002.687-1.28l-.11 1.432a.286.286 0 01-.13.218zM6.038 11.54L3.46 8.962a.285.285 0 01-.08-.247 7.56 7.56 0 01.342-1.306l3.868 3.868a7.584 7.584 0 01-1.304.344.285.285 0 01-.248-.081zM2.584 5.028l1.43-.11a9.844 9.844 0 00-1.279 2.686l-1.803-.28 1.433-2.168a.286.286 0 01.219-.128zm7.914 4.55c-.71.591-1.399 1.02-2.034 1.33L4.092 6.536c.406-.83.902-1.52 1.33-2.034.897-1.074 2.01-2 3.057-2.542C10.544.892 12.72.835 13.832.895a.288.288 0 01.273.273c.06 1.113.003 3.288-1.065 5.353-.541 1.047-1.468 2.16-2.542 3.056z"/><path d="M10.275 6.921a2.19 2.19 0 002.197-2.196c0-.587-.228-1.139-.643-1.554a2.2 2.2 0 00-3.75 1.554c0 .587.228 1.139.643 1.554.428.428.99.642 1.553.642zm-.932-3.128c.257-.257.595-.386.932-.386a1.314 1.314 0 011.319 1.318 1.32 1.32 0 01-2.637 0c0-.352.137-.683.386-.932zM.448 12.361a.438.438 0 00.311-.128l1.435-1.435a.44.44 0 10-.622-.621L.138 11.61a.44.44 0 00.31.75zm3.061-.869a.44.44 0 00-.622 0L.13 14.25a.44.44 0 10.621.621l2.759-2.758a.44.44 0 000-.621zm.693 1.314l-1.435 1.435a.44.44 0 10.622.621l1.435-1.434a.44.44 0 00-.622-.622z"/></g><defs><clipPath id="clip0"><path fill="#fff" d="M0 0h15v15H0z"/></clipPath></defs></svg>