<svg width="116" height="52" fill="none" xmlns="http://www.w3.org/2000/svg"><path d="M92.105 6.523c2.123 0 3.81.614 5.06 1.843 1.252 1.23 1.877 3.03 1.877 5.404v9.611h-3.027v-9.264c0-1.617-.39-2.836-1.167-3.655-.778-.82-1.892-1.23-3.343-1.23-1.64 0-2.932.479-3.878 1.435-.946.956-1.42 2.326-1.42 4.112v8.602h-3.026V.002h3.027v9.043c.63-.799 1.456-1.418 2.475-1.86 1.02-.44 2.16-.661 3.422-.661zM79.712 22.405c-.441.378-.988.667-1.64.866-.651.2-1.324.3-2.018.3-1.682 0-2.985-.452-3.91-1.355-.925-.904-1.387-2.196-1.387-3.876V3.025h3.027V6.68h4.793v2.49h-4.793v9.044c0 .903.226 1.596.678 2.08.452.482 1.098.724 1.939.724.925 0 1.713-.262 2.365-.788l.946 2.175zm-25.907-7.217l10.69-2.016c-1.153-5.655-11.065-5.57-10.69 2.016zm6.149 5.736c1.997 0 3.605-.672 4.825-2.017l1.64 1.954c-1.626 1.95-4.087 2.71-6.56 2.71-5.175 0-8.987-3.333-8.987-8.54 0-4.839 3.423-8.508 8.388-8.508 2.945 0 5.578 1.351 7.095 3.907.736 1.24 1.114 2.668 1.135 4.286L54.215 17.3c.914 2.513 3.167 3.624 5.739 3.624zm-25.636-5.736l10.69-2.016c-1.154-5.655-11.065-5.57-10.69 2.016zm6.149 5.736c1.997 0 3.605-.672 4.824-2.017l1.64 1.954c-1.626 1.95-4.086 2.71-6.559 2.71-5.175 0-8.987-3.333-8.987-8.54 0-4.839 3.422-8.508 8.388-8.508 2.945 0 5.578 1.351 7.095 3.907.735 1.24 1.114 2.668 1.135 4.286L34.727 17.3c.915 2.513 3.168 3.624 5.74 3.624zm-11.429 1.481c-.442.378-.988.667-1.64.866-.652.2-1.324.3-2.018.3-1.682 0-2.985-.452-3.91-1.355-.925-.904-1.388-2.196-1.388-3.876V3.025h3.027v15.189c0 .903.227 1.596.678 2.08.452.483 1.099.724 1.94.724.925 0 1.713-.262 2.365-.788l.946 2.175zM.536 6.68h3.027v16.702H.536V6.68z" fill="#3B4768"/><path d="M2.05 3.939c-.589 0-1.078-.19-1.467-.567A1.86 1.86 0 010 1.985C0 1.44.194.972.583.583.973.194 1.461 0 2.05 0c.588 0 1.077.184 1.466.551.389.368.583.825.583 1.371 0 .567-.194 1.045-.583 1.434-.389.389-.878.583-1.466.583zM104.092 23.57c-.588 0-1.077-.189-1.466-.567a1.86 1.86 0 01-.584-1.386c0-.546.195-1.014.584-1.402.389-.39.878-.583 1.466-.583.589 0 1.078.183 1.466.551.389.368.584.825.584 1.37a1.95 1.95 0 01-.584 1.435c-.388.388-.877.583-1.466.583z" fill="#3FAB3C"/><path fill-rule="evenodd" clip-rule="evenodd" d="M29.525 9.626a24.656 24.656 0 00-4.133-.194c-8.152.303-15.224 4.556-19.444 10.848C10.175 12.268 18.342 6.608 27.97 5.966a3.8 3.8 0 001.555 3.66z" fill="#3FAB3C"/><path d="M93.774 21.697c0-.447-.212-.826-.637-1.134-.425-.31-1.078-.464-1.958-.464-.912 0-1.904.1-2.978.302a25.19 25.19 0 00-3.233.833c-1.082.355-2.12.776-3.117 1.262a16.402 16.402 0 00-2.654 1.598c-.773.58-1.39 1.19-1.854 1.83-.464.64-.696 1.293-.696 1.957 0 .54.178 1.115.534 1.725.355.61.745 1.235 1.17 1.876.425.64.815 1.274 1.17 1.9.356.625.534 1.215.534 1.771 0 .587-.151 1.1-.452 1.54-.302.44-.696.81-1.183 1.112a5.866 5.866 0 01-1.622.683 6.956 6.956 0 01-1.75.231c-.54 0-1.058-.046-1.552-.139a5.596 5.596 0 01-1.298-.393c-.371-.17-.665-.375-.881-.614-.216-.24-.324-.498-.324-.776s.1-.563.3-.857c.202-.293.441-.571.72-.833.277-.263.563-.502.857-.718.293-.217.533-.386.718-.51-.03-.216-.17-.293-.417-.231-.185.092-.44.25-.765.474a7.995 7.995 0 00-.961.788 5.951 5.951 0 00-.823.961c-.232.34-.348.664-.348.973 0 .355.105.706.313 1.053.209.348.521.653.939.915.417.263.93.475 1.54.637.611.162 1.318.243 2.121.243.897 0 1.72-.1 2.469-.301.749-.2 1.394-.463 1.935-.787.54-.325.962-.687 1.263-1.089.301-.401.452-.803.452-1.204a4.15 4.15 0 00-.278-1.46 10.168 10.168 0 00-.695-1.47 29.715 29.715 0 00-.893-1.459 58.504 58.504 0 01-.892-1.413c-.278-.455-.51-.895-.695-1.32-.186-.424-.279-.822-.279-1.192 0-.402.26-.85.777-1.343.518-.495 1.194-.997 2.028-1.506a28.638 28.638 0 012.816-1.494 38.34 38.34 0 013.129-1.297 29.199 29.199 0 012.978-.914c.942-.232 1.73-.348 2.363-.348.557 0 .931.066 1.124.197.194.131.29.305.29.521 0 .325-.143.68-.429 1.065a9.033 9.033 0 01-.95 1.089c-.347.34-.676.625-.985.857-.309.231-.494.347-.556.347-.062 0-.108-.011-.139-.034a.523.523 0 01-.093-.093.344.344 0 00-.116-.093.486.486 0 00-.208-.035c-.108 0-.313.097-.614.29-.302.193-.65.436-1.043.73a30.54 30.54 0 00-2.434 2.037c-.363.34-.66.645-.892.915-.232.27-.348.46-.348.568 0 .216.074.39.22.52a.7.7 0 00.476.198c.139 0 .456-.155.95-.464a21.469 21.469 0 001.715-1.215 50.993 50.993 0 002.063-1.691 29.55 29.55 0 001.993-1.876c.602-.625 1.1-1.224 1.495-1.795.393-.571.59-1.05.59-1.436zm1.855 2.177c0-.077-.04-.15-.116-.22a1.061 1.061 0 00-.267-.173 1.993 1.993 0 00-.324-.116 1.167 1.167 0 00-.29-.046c-.062 0-.2.12-.417.358-.217.24-.483.549-.8.927-.316.378-.664.81-1.043 1.297-.378.486-.757.976-1.135 1.47-.379.495-.734.97-1.066 1.425-.333.455-.607.845-.823 1.17-.062.076-.12.157-.174.242a2.62 2.62 0 01-.197.267c-.37 0-.664.004-.88.011-.217.008-.375.016-.476.023-.1.008-.173.012-.22.012h-.093a.487.487 0 00-.255.07c-.077.046-.115.107-.115.185 0 .077.054.108.162.092a2.3 2.3 0 01.324-.023h.232c.077 0 .197.004.36.012.161.008.397.011.706.011-.34.51-.691 1.066-1.054 1.668a20.538 20.538 0 00-.997 1.864 15.33 15.33 0 00-.753 1.922 6.115 6.115 0 00-.301 1.819c0 .494.123.88.37 1.158.248.277.564.416.95.416.248 0 .495-.042.742-.127a3.81 3.81 0 00.672-.301 5.25 5.25 0 00.533-.348c.155-.115.27-.204.348-.266a.196.196 0 000-.185.303.303 0 00-.139-.139c-.077.062-.19.147-.336.255a3.847 3.847 0 01-.51.312c-.193.1-.398.19-.614.267a1.919 1.919 0 01-.649.116.702.702 0 01-.556-.279c-.155-.185-.232-.44-.232-.764 0-.478.139-1.034.417-1.667.278-.633.618-1.285 1.02-1.957.402-.672.838-1.336 1.31-1.992a69.74 69.74 0 011.309-1.772h.649c.03 0 .046.016.046.047 0 .03-.004.062-.011.093a.382.382 0 00-.012.092c0 .062.011.1.034.116.024.015.09.023.198.023.061 0 .189-.012.382-.035.193-.023.386-.058.58-.104.193-.046.367-.104.52-.174.155-.07.233-.15.233-.243 0-.062-.047-.12-.14-.174a.633.633 0 00-.324-.08h-.626c-.34 0-.757.007-1.251.023a97.32 97.32 0 012.978-3.89c.425-.526.78-.954 1.066-1.287.286-.331.46-.536.522-.613.123-.124.243-.247.359-.37a.594.594 0 00.174-.418zm2.827 12.854c0-.031-.03-.047-.093-.047a2.64 2.64 0 01-.463-.057c-.201-.039-.302-.151-.302-.336 0-.37.07-.71.209-1.02.139-.308.209-.648.209-1.018a1.5 1.5 0 00-.209-.741c-.14-.247-.31-.371-.51-.371-.046 0-.1.027-.162.081-.062.054-.14.12-.232.197-.216.232-.49.544-.823.938-.332.394-.699.784-1.1 1.17a15.05 15.05 0 01-.777.683c-.255.208-.494.39-.718.544a5.88 5.88 0 01-.603.37c-.177.093-.313.14-.405.14-.124 0-.205-.058-.244-.174a1.057 1.057 0 01-.058-.332c0-.216.078-.521.232-.911.155-.394.336-.8.545-1.212.208-.417.417-.807.625-1.177a9.32 9.32 0 01.499-.807c.015-.016.023-.054.023-.116 0-.123-.07-.282-.209-.47-.139-.194-.262-.29-.37-.29-.124 0-.263.065-.418.196a3.342 3.342 0 00-.475.518c-.162.216-.328.47-.498.764-.17.29-.332.598-.487.922-.262.583-.49 1.174-.683 1.765-.194.594-.29 1.065-.29 1.42 0 .123.038.243.116.359.077.112.177.216.301.309.124.092.259.17.406.231.146.062.282.093.405.093.17 0 .402-.085.695-.255a8 8 0 00.939-.648 19.47 19.47 0 001.02-.869c.347-.316.664-.61.95-.88.286-.27.525-.502.718-.695l.336-.335.047.046a4.19 4.19 0 00-.244.579c-.1.278-.15.64-.15 1.088 0 .417.1.784.301 1.1.201.317.433.475.695.475.093 0 .194-.046.302-.139a3.92 3.92 0 00.324-.313c.108-.115.201-.231.278-.347a1.76 1.76 0 01.162-.22c.124-.123.186-.193.186-.208zm17.451-13.595c0-.818-.425-1.227-1.274-1.227-.572 0-1.151.154-1.738.463a8.09 8.09 0 00-1.739 1.262 14.07 14.07 0 00-1.668 1.888 20.953 20.953 0 00-1.507 2.339 26.385 26.385 0 00-1.263 2.605 19.808 19.808 0 00-.915 2.698 69.083 69.083 0 01-2.098 1.76 42.204 42.204 0 01-1.831 1.401 18.77 18.77 0 01-1.413.938c-.394.232-.676.348-.846.348-.077 0-.116-.07-.116-.209 0-.216.108-.52.324-.914.217-.394.495-.822.835-1.286a22.03 22.03 0 012.364-2.686 11.54 11.54 0 011.101-.95c.332-.247.591-.37.776-.37.185 0 .286.042.301.127.016.085.023.166.023.243 0 .062.035.105.105.128a.694.694 0 00.22.034c.077 0 .162-.011.255-.034.093-.023.139-.112.139-.267 0-.355-.124-.637-.371-.845a1.323 1.323 0 00-.881-.313c-.34 0-.726.128-1.159.383a8.018 8.018 0 00-1.32.995c-.448.41-.885.877-1.31 1.401a15.785 15.785 0 00-1.147 1.61c-.34.548-.61 1.08-.811 1.598-.201.517-.302.977-.302 1.378 0 .309.058.525.174.648.116.124.228.186.336.186.217 0 .537-.108.962-.324a14.95 14.95 0 001.483-.892 34.96 34.96 0 001.866-1.355 77.363 77.363 0 002.109-1.69 16.432 16.432 0 00-.278 1.62 13.035 13.035 0 00-.093 1.53c0 1.08.151 1.902.452 2.466.301.563.692.845 1.171.845.169 0 .332-.035.486-.104a1.3 1.3 0 00.394-.267.223.223 0 00.012-.185c-.023-.062-.074-.085-.151-.07a1.626 1.626 0 01-.22.151c-.07.039-.189.058-.359.058-.309 0-.537-.24-.684-.718-.147-.479-.22-1.088-.22-1.83 0-.74.066-1.493.197-2.258.131-.764.328-1.54.591-2.327a91.327 91.327 0 003.279-2.965 67.568 67.568 0 002.897-2.906c.858-.919 1.549-1.74 2.074-2.466.526-.726.788-1.274.788-1.645zm-.625.047c0 .324-.236.795-.707 1.412a27.765 27.765 0 01-1.831 2.12 61.97 61.97 0 01-2.561 2.547c-.958.903-1.931 1.787-2.92 2.651a22.851 22.851 0 011.576-3.358 22.476 22.476 0 011.947-2.895c.679-.849 1.367-1.528 2.062-2.037.695-.51 1.337-.765 1.924-.765.17 0 .301.035.394.105.092.069.131.142.116.22zm.718 8.8c0-.37-.1-.556-.301-.556-.078 0-.332.232-.765.695-.433.463-1.097 1.042-1.993 1.737-.232.17-.495.37-.788.602a32.17 32.17 0 01-.881.672c-.293.216-.56.401-.799.556-.24.154-.421.231-.545.231-.108 0-.17-.027-.185-.08a.609.609 0 01-.023-.175c0-.03.088-.185.266-.463a257.094 257.094 0 001.159-1.841c.178-.285.266-.451.266-.498 0-.077-.061-.181-.185-.312-.124-.132-.24-.197-.348-.197-.077 0-.243.146-.498.44a14.599 14.599 0 00-1.541 2.165c-.216.378-.325.652-.325.822 0 .34.101.606.302.8.201.192.409.289.625.289.139 0 .344-.074.615-.22.27-.147.571-.328.903-.544a17.88 17.88 0 001.008-.707 46.2 46.2 0 00.951-.73c.293-.23.537-.428.73-.59.193-.162.305-.258.336-.29.077-.061.131-.038.162.07a17.78 17.78 0 01-.521 1.216c-.193.41-.398.822-.614 1.239a30.91 30.91 0 00-3.894 1.482 40.384 40.384 0 00-4.009 2.092 43.778 43.778 0 00-3.743 2.474 28.76 28.76 0 00-3.13 2.637c-.903.884-1.621 1.752-2.154 2.601-.534.846-.8 1.625-.8 2.336 0 .428.147.76.44.991.294.232.618.348.974.348.803 0 1.71-.209 2.723-.625 1.012-.417 2.067-.98 3.163-1.699a35.398 35.398 0 003.338-2.497 44.137 44.137 0 006.141-6.338 28.146 28.146 0 002.272-3.293c.262.016.463.05.602.105a.91.91 0 01.313.185c.07.07.124.131.162.181.039.054.081.081.128.081.201 0 .301-.123.301-.366 0-.232-.116-.406-.348-.521a2.39 2.39 0 00-.857-.22c.432-.803.768-1.568 1.008-2.293.239-.726.359-1.39.359-1.992zm-3.314 4.887a32.791 32.791 0 01-2.236 3.346 33.077 33.077 0 01-2.538 2.976c-.417.433-.919.915-1.507 1.448a74.081 74.081 0 01-1.877 1.644 40.545 40.545 0 01-2.074 1.644 27.293 27.293 0 01-2.109 1.425 14.74 14.74 0 01-1.947 1.007c-.61.255-1.14.382-1.587.382-.263 0-.468-.088-.615-.266a.969.969 0 01-.22-.637c0-.618.251-1.32.753-2.108.503-.787 1.175-1.597 2.017-2.431a29.554 29.554 0 012.943-2.525 40.014 40.014 0 013.546-2.396 44.813 44.813 0 013.778-2.039 28.21 28.21 0 013.673-1.47z" fill="#3FAB3C"/></svg>