<svg width="380" height="88" fill="none" xmlns="http://www.w3.org/2000/svg"><path d="M1.734 1.05v-1h-1v1h1zm49.152 0h1v-1h-1v1zm0 6.048v1h1v-1h-1zm-42.144 0v-1h-1v1h1zm0 21.984h-1v1h1v-1zm40.032 4.896l-.623.783.006.004.617-.787zm-.48 29.088l-.61-.791-.006.004.616.787zM1.734 68.25h-1v1h1v-1zm41.376-9.215l-.595-.804-.007.005.602.799zm.096-20.832l-.6.8.01.007.009.006.581-.813zM8.742 34.745v-1h-1v1h1zm0 27.84h-1v1h1v-1zM1.734 2.05h49.152v-2H1.734v2zm48.152-1v6.048h2V1.05h-2zm1 5.048H8.742v2h42.144v-2zm-43.144 1v21.984h2V7.098h-2zm1 22.984h21.984v-2H8.742v2zm21.984 0c7.821 0 13.577 1.612 17.425 4.678l1.246-1.564c-4.343-3.461-10.62-5.113-18.67-5.113v2zm17.431 4.683c3.875 3.04 5.857 7.46 5.857 13.422h2c0-6.456-2.177-11.508-6.623-14.995l-1.234 1.573zm5.857 13.422c0 6.204-2.133 10.85-6.33 14.088l1.221 1.583c4.763-3.674 7.11-8.948 7.11-15.671h-2zm-6.336 14.092C43.505 65.545 37.39 67.25 29.19 67.25v2c8.44 0 15.061-1.75 19.72-5.396l-1.232-1.575zM29.19 67.25H1.734v2H29.19v-2zm-26.456 1V1.05h-2v67.2h2zm26.36-4.663c6.308 0 11.234-1.199 14.619-3.755l-1.205-1.596c-2.888 2.18-7.306 3.35-13.414 3.35v2zm14.611-3.749c3.501-2.59 5.205-6.437 5.205-11.364h-2c0 4.418-1.496 7.612-4.395 9.757l1.19 1.607zm5.205-11.364c0-4.859-1.67-8.62-5.122-11.085l-1.163 1.627c2.82 2.014 4.285 5.102 4.285 9.459h2zm-5.104-11.071c-3.325-2.495-8.288-3.657-14.712-3.657v2c6.248 0 10.694 1.143 13.512 3.256l1.2-1.6zm-14.712-3.657H8.742v2h20.352v-2zm-21.352 1v27.84h2v-27.84h-2zm1 28.84h20.352v-2H8.742v2zm99.99-42.951l-.493.87.011.006.482-.877zm9.024 9.023l-.873.487.873-.486zm0 26.785l.874.486-.874-.486zm-9.024 9.12l.488.872.005-.002-.493-.87zm-24 .671l-.468.884.01.006.011.005.447-.895zm-8.064-7.487l.84-.544-1.84-2.843v3.386h1zm0 28.127v1h1v-1h-1zm-6.816 0h-1v1h1v-1zm0-69.12v-1h-1v1h1zm6.528 0h1v-1h-1v1zm0 9.984h-1v3.534l1.852-3.01-.852-.524zm8.064-7.68l-.467-.884-.007.004.474.88zm20.544 40.225l.486.874.007-.004.008-.005-.501-.866zm6.72-7.008l-.875-.485-.004.008-.004.007.883.47zm0-20.448l-.883.47.006.01.007.011.87-.491zm-6.72-7.008l.501-.866-.501.866zm-19.296 0l-.5-.866-.008.005.508.86zm-6.72 7.008l-.875-.485-.003.007.878.478zm0 20.448l-.883.47.004.006.004.008.875-.484zm6.72 7.008l-.508.86.011.007.012.007.485-.874zM95.868 18.37c4.576 0 8.693 1.05 12.371 3.134l.986-1.74c-4.001-2.267-8.461-3.393-13.357-3.393v2zm12.382 3.14c3.672 2.02 6.546 4.892 8.633 8.635l1.747-.973c-2.266-4.065-5.408-7.21-9.416-9.414l-.964 1.753zm8.633 8.635c2.083 3.739 3.137 8.016 3.137 12.857h2c0-5.142-1.122-9.76-3.39-13.83l-1.747.973zm3.137 12.857c0 4.909-1.055 9.217-3.137 12.954l1.747.973c2.269-4.071 3.39-8.723 3.39-13.927h-2zm-3.137 12.954c-2.088 3.746-4.965 6.652-8.644 8.736l.986 1.74c4.002-2.267 7.141-5.44 9.405-9.503l-1.747-.973zm-8.639 8.734c-3.611 2.02-7.728 3.04-12.376 3.04v2c4.952 0 9.411-1.09 13.352-3.295l-.976-1.745zm-12.376 3.04c-3.956 0-7.513-.802-10.688-2.39l-.895 1.789c3.48 1.74 7.348 2.602 11.583 2.602v-2zM85.2 65.35c-3.105-1.643-5.668-4.018-7.692-7.147l-1.68 1.087c2.2 3.4 5.013 6.016 8.436 7.828l.936-1.767zm-9.532-6.603v28.127h2V58.748h-2zm1 27.127h-6.816v2h6.816v-2zm-5.816 1v-69.12h-2v69.12h2zm-1-68.12h6.528v-2h-6.528v2zm5.528-1v9.984h2v-9.983h-2zm1.852 10.509c1.959-3.184 4.519-5.618 7.686-7.324l-.948-1.761c-3.488 1.878-6.304 4.564-8.441 8.036l1.703 1.049zm7.68-7.32c3.233-1.709 6.878-2.573 10.956-2.573v-2c-4.37 0-8.34.929-11.89 2.804l.933 1.769zm10.476 42.74c3.678 0 7.047-.838 10.086-2.526l-.971-1.749c-2.722 1.512-5.753 2.274-9.115 2.274v2zm10.101-2.535c3.046-1.76 5.416-4.235 7.102-7.404l-1.766-.94c-1.514 2.848-3.623 5.045-6.337 6.613l1.001 1.731zm7.094-7.39c1.756-3.172 2.621-6.766 2.621-10.756h-2c0 3.691-.798 6.945-2.371 9.788l1.75.969zm2.621-10.756c0-3.988-.865-7.554-2.625-10.668l-1.741.984c1.568 2.775 2.366 5.993 2.366 9.684h2zm-2.613-10.645c-1.686-3.17-4.056-5.644-7.102-7.404l-1.001 1.731c2.714 1.568 4.823 3.765 6.337 6.612l1.766-.94zm-7.102-7.404c-3.041-1.757-6.416-2.63-10.1-2.63v2c3.354 0 6.38.79 9.099 2.361l1.001-1.731zm-10.1-2.63c-3.746 0-7.153.871-10.197 2.63l1 1.731c2.717-1.569 5.774-2.361 9.196-2.361v-2zm-10.206 2.635c-2.977 1.759-5.34 4.229-7.086 7.384l1.75.968c1.583-2.86 3.7-5.062 6.354-6.63l-1.017-1.722zm-7.09 7.391c-1.69 3.11-2.52 6.671-2.52 10.654h2c0-3.698.769-6.922 2.278-9.699l-1.757-.955zm-2.52 10.654c0 3.982.83 7.571 2.516 10.741l1.766-.94c-1.514-2.845-2.283-6.104-2.283-9.802h-2zm2.524 10.756c1.746 3.155 4.11 5.625 7.087 7.384l1.017-1.721c-2.655-1.569-4.771-3.771-6.354-6.632l-1.75.969zm7.11 7.398c3.041 1.69 6.443 2.526 10.181 2.526v-2c-3.43 0-6.492-.764-9.21-2.275l-.971 1.749zm94.618-16.042v1h.955l.044-.955-.999-.045zm-42.24 0v-1h-1.076l.078 1.072.998-.072zm6.048 12.767l-.667.746.007.006.66-.752zm22.464 3.169l.383.923.009-.004.01-.004-.402-.916zm6.816-4.992l.754-.657-.749-.861-.755.856.75.662zm3.84 4.416l.768.64.545-.654-.559-.643-.754.657zm-8.448 6.143l-.384-.923-.006.003.39.92zm-24.864-1.151l-.492.87.008.005.009.005.475-.88zm-9.312-9.216l-.868.497.868-.497zm-.192-26.496l-.874-.487-.006.01.88.477zm8.832-9.12l-.5-.867-.006.004.506.863zm33.984 9.12l-.88.475.004.006.876-.482zm3.168 13.247l.999.046.001-.023v-.023h-1zM143.153 27.93l.685.729h.001l-.686-.729zm-5.568 12.096l-.996-.089-.098 1.09h1.094v-1zm35.808 0v1h1.094l-.098-1.089-.996.09zm-5.664-12.096l-.693.722.007.006.007.007.679-.735zm12.096 16.184h-42.24v2h42.24v-2zm-43.238 1.074c.402 5.485 2.522 9.99 6.379 13.44l1.334-1.49c-3.44-3.078-5.351-7.086-5.718-12.096l-1.995.145zm6.386 13.446c3.857 3.384 8.711 5.048 14.484 5.048v-2c-5.364 0-9.726-1.535-13.165-4.551l-1.319 1.503zm14.484 5.048c3.253 0 6.265-.564 9.023-1.708l-.766-1.847c-2.491 1.032-5.239 1.555-8.257 1.555v2zm9.042-1.716a20.396 20.396 0 007.164-5.246l-1.5-1.323a18.388 18.388 0 01-6.468 4.738l.804 1.831zm5.659-5.251l3.84 4.416 1.509-1.313-3.84-4.416-1.509 1.313zm3.827 3.12c-2.132 2.557-4.813 4.51-8.064 5.86l.767 1.847c3.534-1.467 6.484-3.609 8.833-6.427l-1.536-1.28zm-8.07 5.863c-3.191 1.35-6.737 2.033-10.65 2.033v2c4.15 0 7.965-.726 11.429-2.191l-.779-1.843zm-10.65 2.033c-5.041 0-9.482-1.057-13.349-3.144l-.95 1.76c4.196 2.264 8.971 3.384 14.299 3.384v-2zm-13.333-3.135c-3.813-2.153-6.786-5.097-8.936-8.843l-1.735.995c2.331 4.062 5.566 7.262 9.688 9.59l.983-1.742zm-8.936-8.843c-2.145-3.739-3.227-7.98-3.227-12.75h-2c0 5.085 1.157 9.676 3.492 13.745l1.735-.995zm-3.227-12.75c0-4.781 1.023-9.03 3.047-12.773l-1.759-.951c-2.199 4.065-3.288 8.648-3.288 13.723h2zm3.041-12.762c2.093-3.754 4.913-6.662 8.464-8.744l-1.011-1.725c-3.872 2.27-6.94 5.442-9.2 9.496l1.747.973zm8.458-8.74c3.613-2.082 7.663-3.13 12.173-3.13v-2c-4.834 0-9.233 1.127-13.172 3.397l.999 1.733zm12.173-3.13c4.51 0 8.524 1.048 12.07 3.126l1.011-1.725c-3.878-2.274-8.247-3.401-13.081-3.401v2zm12.07 3.126c3.549 2.08 6.334 4.985 8.362 8.733l1.759-.951c-2.196-4.06-5.235-7.236-9.11-9.507l-1.011 1.725zm8.366 8.74c2.02 3.672 3.044 7.918 3.044 12.765h2c0-5.136-1.088-9.722-3.292-13.73l-1.752.964zm3.045 12.72l-.096 2.112 1.998.09.096-2.111-1.998-.09zm-23.481-20.73c-5.101 0-9.448 1.653-12.974 4.976l1.372 1.455c3.129-2.949 6.975-4.431 11.602-4.431v-2zm-12.974 4.975c-3.463 3.26-5.411 7.53-5.878 12.735l1.992.179c.429-4.78 2.193-8.573 5.257-11.457l-1.371-1.457zm-4.882 13.824h35.808v-2h-35.808v2zm36.804-1.089c-.468-5.21-2.452-9.483-5.982-12.741l-1.357 1.47c3.126 2.885 4.918 6.677 5.347 11.45l1.992-.179zm-5.967-12.728c-3.468-3.331-7.82-4.982-12.981-4.982v2c4.695 0 8.535 1.484 11.595 4.425l1.386-1.443zm26.586-9.454v-1h-1v1h1zm6.816 0h1v-1h-1v1zm0 22.368h-1v1h1v-1zm31.776 0v1h1v-1h-1zm0-22.368v-1h-1v1h1zm6.817 0h1v-1h-1v1zm0 50.496v1h1v-1h-1zm-6.817 0h-1v1h1v-1zm0-22.273h1v-1h-1v1zm-31.776 0v-1h-1v1h1zm0 22.273v1h1v-1h-1zm-6.816 0h-1v1h1v-1zm0-49.497h6.816v-2h-6.816v2zm5.816-1v22.369h2V17.755h-2zm1 23.369H233.6v-2h-31.776v2zm32.776-1V17.755h-2v22.368h2zm-1-21.368h6.817v-2H233.6v2zm5.817-1V68.25h2V17.754h-2zm1 49.496H233.6v2h6.817v-2zm-5.817 1V45.978h-2v22.273h2zm-1-23.273h-31.776v2H233.6v-2zm-32.776 1v22.273h2V45.978h-2zm1 21.273h-6.816v2h6.816v-2zm-5.816 1V17.754h-2V68.25h2zm113.03-5.953h1v-1h-1v1zm0 18.144v1h1v-1h-1zm-6.432 0h-1v1h1v-1zm0-12.191h1v-1h-1v1zm-45.216 0v-1h-1v1h1zm0 12.191v1h1v-1h-1zm-6.432 0h-1v1h1v-1zm0-18.143v-1h-1v1h1zm2.88 0v1h.028l.028-.002-.056-.998zm6.912-7.489l.969.246-.969-.245zm2.496-20.16l.998.052.001-.012-.999-.04zm.672-16.895v-1h-.961l-.038.96.999.04zm37.248 0h1v-1h-1v1zm0 44.543h-1v1h1v-1zm-31.68-27.264l-.999-.05v.006l.999.044zm-1.824 17.76l.981.191.001-.002-.982-.188zm-4.8 9.505l-.6-.8-2.4 1.8h3v-1zm31.488 0v1h1v-1h-1zm0-38.496h1v-1h-1v1zm-24.288 0v-1h-.95l-.049.948.999.051zm37.976 38.495v18.144h2V62.3h-2zm1 17.144h-6.432v2h6.432v-2zm-5.432 1V68.251h-2v12.191h2zm-1-13.191H257.39v2h45.216v-2zm-46.216 1v12.191h2V68.251h-2zm1 11.191h-6.432v2h6.432v-2zm-5.432 1V62.3h-2v18.143h2zm-1-17.143h2.88v-2h-2.88v2zm2.936-.002c1.955-.11 3.623-.897 4.951-2.336 1.305-1.414 2.243-3.412 2.874-5.905l-1.939-.491c-.584 2.307-1.406 3.957-2.405 5.04-.976 1.056-2.157 1.614-3.594 1.695l.113 1.997zm7.825-8.24c1.24-4.895 2.076-11.69 2.525-20.355l-1.997-.103c-.447 8.615-1.274 15.26-2.467 19.966l1.939.491zm2.526-20.367l.672-16.896-1.998-.08-.672 16.897 1.998.08zm-.327-15.935h37.248v-2h-37.248v2zm36.248-1v44.543h2V17.755h-2zm1 45.543h7.872v-2h-7.872v2zM268.487 34.99c-.319 7.141-.924 13.009-1.807 17.616l1.964.377c.908-4.737 1.52-10.71 1.841-17.904l-1.998-.09zm-1.807 17.614c-.877 4.508-2.405 7.385-4.418 8.895l1.2 1.6c2.595-1.947 4.266-5.407 5.181-10.114l-1.963-.381zm-3.818 10.694h31.488v-2h-31.488v2zm32.488-1V23.803h-2v38.495h2zm-1-39.495h-24.288v2h24.288v-2zm-25.287.948l-.576 11.232 1.997.103.576-11.232-1.997-.103zm74.474 11.86l-.013 1h.003l.01-1zm14.496 4.224l-.637.77.637-.77zm-.384 24.288l-.626-.78.626.78zm-15.36 4.224l.01-1h-.005l-.005 1zm-19.968-.096h-1v.995l.995.005.005-1zm0-50.497v-1h-1v1h1zm6.816 0h1v-1h-1v1zm0 17.665h-1v.986l.987.013.013-1zm42.336-17.664v-1h-1v1h1zm6.816 0h1v-1h-1v1zm0 50.496v1h1v-1h-1zm-6.816 0h-1v1h1v-1zm-29.568-5.089l-.015 1h.001l.014-1zm10.56-2.783l.63.776.002-.002-.632-.774zm.096-16.896l.603-.798-.603.797zm-10.656-2.784l-.015 1h.001l.014-1zm-12.768-.192l.015-1-1.015-.016v1.016h1zm0 22.464h-1v.985l.985.014.015-1zm14.39-26.36c6.21.062 10.783 1.443 13.869 3.994l1.274-1.541c-3.57-2.953-8.661-4.388-15.123-4.453l-.02 2zm13.869 3.994c3.052 2.524 4.629 6.182 4.629 11.134h2c0-5.417-1.751-9.695-5.355-12.675l-1.274 1.541zm4.629 11.134c0 5.13-1.696 8.947-5.002 11.604l1.252 1.559c3.862-3.103 5.75-7.542 5.75-13.163h-2zm-5.002 11.604c-3.339 2.683-8.199 4.066-14.724 4.004l-.02 2c6.787.065 12.167-1.368 15.996-4.445l-1.252-1.559zm-14.729 4.004l-19.968-.096-.01 2 19.968.096.01-2zm-18.973.904V17.754h-2V68.25h2zm-1-49.497h6.816v-2h-6.816v2zm5.816-1V35.42h2V17.755h-2zm.987 18.664l14.4.192.026-2-14.4-.191-.026 2zm42.349-17.663h6.816v-2h-6.816v2zm5.816-1V68.25h2V17.754h-2zm1 49.496h-6.816v2h6.816v-2zm-5.816 1V17.754h-2V68.25h2zm-30.582-4.089c4.787.066 8.579-.879 11.204-3.007l-1.26-1.553c-2.111 1.712-5.359 2.623-9.916 2.56l-.028 2zm11.206-3.009c2.713-2.212 4.016-5.406 4.016-9.414h-2c0 3.543-1.129 6.11-3.28 7.865l1.264 1.55zm4.016-9.414c0-3.939-1.269-7.026-3.949-9.054l-1.206 1.595c2.056 1.556 3.155 3.973 3.155 7.459h2zm-3.949-9.054c-2.612-1.977-6.414-2.921-11.245-2.986l-.028 2c4.641.062 7.943.974 10.067 2.58l1.206-1.594zM341.92 39.7l-12.768-.192-.03 2 12.768.191.03-2zm-13.783.808V62.97h2V40.507h-2zm.985 23.463l12.768.192.03-2-12.768-.191-.03 2z" fill="#fff"/></svg>