<svg width="808" height="90" fill="none" xmlns="http://www.w3.org/2000/svg"><path d="M18.781 65.16l-.485.875.005.002.48-.877zM6.205 52.968l-.868.497.004.007.004.006.86-.51zm0-35.04l-.863-.505-.002.003.865.502zM18.877 5.64l.48.877-.48-.877zm31.872-1.92l-.367.93.367-.93zm10.752 7.296l.707.707.678-.678-.65-.706-.735.677zm-4.512 4.512l-.711.703.707.715.711-.71-.707-.708zm-34.368-4.32l-.488-.873.488.873zm-10.272 9.984l-.861-.509-.006.01.867.499zm0 28.416l-.867.499.006.01.861-.509zm10.272 9.984l.488-.873-.488.873zm34.368-4.416l.707-.707-.72-.72-.707.733.72.694zm4.512 4.512l.736.677.65-.706-.679-.678-.707.707zM50.653 67.08l.367.93.007-.003-.374-.927zm-13.824 1.496c-6.503 0-12.351-1.437-17.568-4.293l-.96 1.754c5.535 3.032 11.719 4.539 18.528 4.539v-2zm-17.563-4.29c-5.158-2.86-9.22-6.798-12.2-11.828l-1.721 1.02c3.163 5.338 7.485 9.527 12.951 12.557l.97-1.75zM7.073 52.47c-2.916-5.085-4.38-10.77-4.38-17.07h-2c0 6.626 1.544 12.656 4.644 18.065l1.736-.994zM2.693 35.4c0-6.302 1.464-11.95 4.377-16.97l-1.73-1.004C2.237 22.775.693 28.774.693 35.4h2zm4.375-16.967c2.98-5.09 7.07-9.058 12.29-11.916l-.961-1.754c-5.534 3.03-9.89 7.254-13.055 12.66l1.726 1.01zm12.29-11.916c5.216-2.856 11.064-4.293 17.567-4.293v-2c-6.81 0-12.993 1.507-18.528 4.539l.96 1.754zm17.567-4.293c4.88 0 9.361.813 13.458 2.426l.732-1.86C46.764 1.075 42.03.224 36.925.224v2zM50.383 4.65c4.09 1.611 7.545 3.96 10.382 7.043l1.472-1.354c-3.051-3.316-6.763-5.832-11.122-7.55l-.733 1.861zm10.41 5.659l-4.511 4.512 1.414 1.414 4.512-4.512-1.414-1.414zM57.7 14.825C52.25 9.308 45.363 6.56 37.117 6.56v2c7.754 0 14.115 2.563 19.16 7.67l1.423-1.405zM37.117 6.56c-5.471 0-10.473 1.254-14.984 3.775l.976 1.746c4.193-2.343 8.855-3.521 14.008-3.521v-2zm-14.984 3.775c-4.504 2.517-8.057 5.97-10.645 10.348l1.722 1.018c2.404-4.07 5.699-7.273 9.899-9.62l-.976-1.746zm-10.65 10.358C8.955 25.08 7.7 29.991 7.7 35.4h2c0-5.087 1.177-9.648 3.515-13.709l-1.734-.998zM7.7 35.4c0 5.41 1.255 10.32 3.781 14.707l1.734-.998C10.878 45.049 9.7 40.487 9.7 35.4h-2zm3.787 14.717c2.588 4.379 6.141 7.831 10.645 10.348l.976-1.746c-4.2-2.347-7.495-5.55-9.9-9.62l-1.72 1.018zm10.645 10.348c4.511 2.52 9.513 3.775 14.984 3.775v-2c-5.153 0-9.815-1.178-14.008-3.52l-.976 1.745zm14.984 3.775c8.312 0 15.203-2.782 20.592-8.37l-1.44-1.388c-4.98 5.164-11.335 7.758-19.152 7.758v2zm19.165-8.357l4.512 4.512 1.414-1.414-4.512-4.512-1.414 1.414zm4.483 3.128c-2.837 3.084-6.327 5.465-10.486 7.142l.748 1.854c4.417-1.78 8.159-4.326 11.21-7.642l-1.472-1.354zM50.286 66.15c-4.096 1.613-8.578 2.426-13.457 2.426v2c5.105 0 9.839-.851 14.19-2.566l-.733-1.86zm29.684.066l-.498.867.01.007.488-.874zM70.754 57l-.868.498.868-.498zm0-26.496l-.868-.498.868.498zm35.52-9.12l-.487.873.487-.873zm9.12 9.12l-.874.487.006.01.868-.497zm0 26.496l-.868-.498-.006.011.874.487zm-9.12 9.216l.487.874.01-.007-.497-.867zm-3.552-5.184l.494.87.006-.004-.5-.866zm6.72-7.008l.883.47-.883-.47zm0-20.544l.883-.47-.883.47zm-6.72-6.912l-.509.86.011.008.012.006.486-.874zm-19.296 0l.494.87.006-.004-.5-.866zm-6.72 6.912l-.875-.484-.004.007-.004.007.883.47zm0 20.544l-.883.47.004.007.004.007.875-.484zm6.72 7.008l-.509.86.011.008.012.006.486-.874zm9.696 7.448c-4.71 0-8.923-1.052-12.665-3.138l-.974 1.748c4.066 2.266 8.62 3.39 13.639 3.39v-2zm-12.655-3.131c-3.75-2.152-6.694-5.097-8.846-8.847l-1.735.996c2.329 4.058 5.528 7.257 9.586 9.585l.995-1.734zm-8.846-8.847c-2.145-3.738-3.227-7.98-3.227-12.75h-2c0 5.086 1.157 9.676 3.492 13.746l1.735-.996zm-3.227-12.75c0-4.77 1.082-9.012 3.227-12.75l-1.735-.996c-2.335 4.07-3.492 8.66-3.492 13.746h2zm3.227-12.75c2.15-3.748 5.091-6.658 8.836-8.744l-.974-1.747c-4.064 2.265-7.267 5.435-9.597 9.495l1.735.996zm8.836-8.744c3.742-2.086 7.956-3.138 12.665-3.138v-2c-5.02 0-9.573 1.124-13.64 3.39l.975 1.747zm12.665-3.138c4.709 0 8.923 1.052 12.665 3.137l.974-1.747c-4.066-2.266-8.62-3.39-13.64-3.39v2zm12.665 3.137c3.742 2.086 6.648 4.992 8.733 8.734l1.747-.974c-2.266-4.066-5.44-7.24-9.506-9.506l-.974 1.747zm8.739 8.745c2.145 3.738 3.228 7.98 3.228 12.75h2c0-5.086-1.158-9.676-3.493-13.746l-1.735.996zm3.228 12.75c0 4.77-1.083 9.012-3.228 12.75l1.735.996c2.335-4.07 3.493-8.66 3.493-13.746h-2zm-3.234 12.761c-2.087 3.744-4.996 6.685-8.744 8.836l.995 1.734c4.061-2.33 7.231-5.532 9.496-9.596l-1.747-.974zm-8.733 8.83c-3.742 2.085-7.956 3.137-12.665 3.137v2c5.019 0 9.573-1.124 13.639-3.39l-.974-1.748zm-12.665-.911c3.738 0 7.112-.836 10.094-2.53l-.988-1.74c-2.65 1.506-5.676 2.27-9.106 2.27v2zm10.1-2.534c3.046-1.76 5.417-4.235 7.103-7.404l-1.766-.94c-1.514 2.847-3.624 5.044-6.338 6.612l1.001 1.732zm7.103-7.404c1.686-3.17 2.517-6.76 2.517-10.742h-2c0 3.697-.769 6.956-2.283 9.802l1.766.94zm2.517-10.742c0-3.983-.831-7.572-2.517-10.742l-1.766.94c1.514 2.845 2.283 6.105 2.283 9.802h2zm-2.517-10.742c-1.688-3.172-4.063-5.62-7.118-7.316l-.971 1.748c2.705 1.503 4.81 3.664 6.323 6.508l1.766-.94zm-7.095-7.303c-2.984-1.764-6.363-2.635-10.108-2.635v2c3.422 0 6.444.793 9.091 2.357l1.017-1.722zm-10.108-2.635c-3.746 0-7.153.872-10.197 2.63l1.001 1.732c2.716-1.57 5.773-2.362 9.196-2.362v-2zm-10.19 2.627c-2.986 1.696-5.354 4.138-7.101 7.297l1.75.968c1.58-2.857 3.693-5.023 6.339-6.526l-.988-1.74zm-7.11 7.311c-1.685 3.17-2.516 6.76-2.516 10.742h2c0-3.697.769-6.957 2.283-9.802l-1.766-.94zm-2.516 10.742c0 3.983.83 7.572 2.517 10.742l1.766-.94c-1.514-2.846-2.283-6.105-2.283-9.802h-2zm2.525 10.756c1.745 3.156 4.109 5.625 7.086 7.385l1.017-1.722c-2.654-1.569-4.771-3.77-6.353-6.631l-1.75.968zm7.11 7.398c3.04 1.69 6.442 2.526 10.18 2.526v-2c-3.429 0-6.491-.764-9.21-2.274l-.97 1.748zm84.025-37.354v1h1v-1h-1zm-19.104 0v-1h-1v1h1zm0 44.448v1h1v-1h-1zm-6.816 0h-1v1h1v-1zm0-44.448h1v-1h-1v1zm-19.104 0h-1v1h1v-1zm0-6.048v-1h-1v1h1zm45.024 0h1v-1h-1v1zm0 5.048h-19.104v2h19.104v-2zm-20.104 1V69h2V24.552h-2zm1 43.448h-6.816v2h6.816v-2zm-5.816 1V24.552h-2V69h2zm-1-45.448h-19.104v2h19.104v-2zm-18.104 1v-6.048h-2v6.048h2zm-1-5.048h45.024v-2h-45.024v2zm44.024-1v6.048h2v-6.048h-2zm49.735 2.88l-.493.87.011.006.482-.876zm9.024 9.024l-.873.487.873-.487zm0 26.784l.873.487-.873-.487zm-9.024 9.12l.488.873.005-.003-.493-.87zm-24 .672l-.468.884.01.005.011.005.447-.894zm-8.064-7.488l.84-.543-1.84-2.843v3.386h1zm0 28.128v1h1v-1h-1zm-6.816 0h-1v1h1v-1zm0-69.12v-1h-1v1h1zm6.528 0h1v-1h-1v1zm0 9.984h-1v3.533l1.852-3.009-.852-.524zm8.064-7.68l-.467-.884-.007.003.474.881zm20.544 40.224l.486.874.007-.004.007-.004-.5-.866zm6.72-7.008l-.875-.484-.004.007-.004.007.883.47zm0-20.448l-.883.47.006.01.006.012.871-.492zm-6.72-7.008l.5-.866-.5.866zm-19.296 0l-.5-.866-.009.005.509.861zm-6.72 7.008l-.875-.484-.004.007.879.477zm0 20.448l-.883.47.004.007.004.007.875-.484zm6.72 7.008l-.509.86.012.008.011.006.486-.874zm10.176-41.912c4.576 0 8.692 1.05 12.371 3.134l.986-1.74c-4.001-2.267-8.461-3.394-13.357-3.394v2zm12.382 3.14c3.672 2.02 6.546 4.891 8.633 8.635l1.746-.974c-2.265-4.064-5.407-7.209-9.415-9.413l-.964 1.752zm8.633 8.635c2.083 3.738 3.137 8.015 3.137 12.857h2c0-5.142-1.122-9.761-3.391-13.83l-1.746.973zm3.137 12.857c0 4.908-1.055 9.217-3.137 12.953l1.746.974c2.27-4.072 3.391-8.723 3.391-13.927h-2zm-3.137 12.953c-2.088 3.746-4.966 6.653-8.644 8.737l.986 1.74c4.002-2.268 7.14-5.441 9.404-9.503l-1.746-.974zm-8.639 8.734c-3.611 2.02-7.728 3.041-12.376 3.041v2c4.952 0 9.411-1.09 13.352-3.295l-.976-1.746zm-12.376 3.041c-3.957 0-7.513-.803-10.689-2.39l-.894 1.788c3.48 1.74 7.348 2.602 11.583 2.602v-2zm-10.668-2.38c-3.105-1.644-5.668-4.019-7.692-7.147l-1.68 1.086c2.2 3.4 5.013 6.017 8.436 7.829l.936-1.768zm-9.532-6.604v28.128h2V59.496h-2zm1 27.128h-6.816v2h6.816v-2zm-5.816 1v-69.12h-2v69.12h2zm-1-68.12h6.528v-2h-6.528v2zm5.528-1v9.984h2v-9.984h-2zm1.852 10.508c1.959-3.183 4.519-5.618 7.686-7.323l-.948-1.762c-3.489 1.879-6.305 4.564-8.442 8.037l1.704 1.048zm7.679-7.32c3.234-1.708 6.879-2.572 10.957-2.572v-2c-4.37 0-8.341.928-11.891 2.804l.934 1.768zm10.477 42.74c3.678 0 7.047-.838 10.086-2.526l-.972-1.748c-2.721 1.512-5.752 2.274-9.114 2.274v2zm10.1-2.534c3.046-1.76 5.417-4.235 7.103-7.404l-1.766-.94c-1.514 2.847-3.623 5.044-6.337 6.612l1 1.732zm7.095-7.39c1.755-3.173 2.621-6.767 2.621-10.756h-2c0 3.69-.798 6.945-2.371 9.788l1.75.968zm2.621-10.756c0-3.989-.866-7.555-2.625-10.668l-1.742.984c1.569 2.775 2.367 5.993 2.367 9.684h2zm-2.613-10.646c-1.686-3.169-4.057-5.644-7.103-7.404l-1 1.732c2.714 1.568 4.823 3.765 6.337 6.612l1.766-.94zm-7.103-7.404c-3.041-1.757-6.415-2.63-10.1-2.63v2c3.355 0 6.381.79 9.1 2.362l1-1.732zm-10.1-2.63c-3.746 0-7.152.872-10.196 2.63l1 1.732c2.716-1.57 5.774-2.362 9.196-2.362v-2zm-10.205 2.635c-2.977 1.76-5.34 4.23-7.086 7.385l1.75.968c1.582-2.86 3.699-5.063 6.354-6.631l-1.018-1.722zm-7.09 7.392c-1.69 3.11-2.521 6.67-2.521 10.653h2c0-3.698.769-6.921 2.279-9.699l-1.758-.954zm-2.521 10.653c0 3.983.831 7.572 2.517 10.742l1.766-.94c-1.514-2.846-2.283-6.105-2.283-9.802h-2zm2.525 10.756c1.746 3.156 4.109 5.625 7.086 7.385l1.018-1.722c-2.655-1.569-4.772-3.77-6.354-6.631l-1.75.968zm7.109 7.398c3.042 1.69 6.443 2.526 10.182 2.526v-2c-3.429 0-6.492-.764-9.21-2.274l-.972 1.748zm91.964-43.402l.913.408.629-1.408h-1.542v1zm-25.248 56.544l-.913-.408-.005.011.918.397zm-7.104 10.08l-.594-.805.594.805zm-16.512 1.824l.342-.94-.342.94zm-5.472-3.456l-.849-.529-.419.675.561.561.707-.707zm3.168-5.088l.707-.707-.89-.89-.666 1.068.849.529zm15.072 1.92l-.609-.793-.008.006-.007.006.624.781zm4.608-6.528l.909.417.003-.006-.912-.411zm2.208-4.896l.912.411.185-.41-.184-.41-.913.409zm-22.56-50.4v-1h-1.543l.631 1.409.912-.409zm7.104 0l.915-.405-.264-.595h-.651v1zm19.008 42.912l-.914.405.914 2.064.915-2.064-.915-.405zm19.008-42.912v-1h-.651l-.263.595.914.405zm5.807-.408L257.978 74.64l1.826.816 25.248-56.544-1.826-.816zm-25.253 56.555c-2.012 4.655-4.291 7.836-6.78 9.672l1.188 1.61c2.887-2.132 5.345-5.67 7.428-10.488l-1.836-.794zm-6.78 9.672c-2.494 1.841-5.51 2.781-9.102 2.781v2c3.961 0 7.408-1.044 10.29-3.171l-1.188-1.61zm-9.102 2.781c-2.325 0-4.48-.367-6.474-1.092l-.683 1.88c2.23.81 4.618 1.212 7.157 1.212v-2zm-6.474-1.092c-1.98-.72-3.678-1.794-5.107-3.223l-1.414 1.414c1.643 1.643 3.593 2.873 5.838 3.689l.683-1.88zm-4.965-1.987l3.168-5.088-1.698-1.058-3.168 5.088 1.698 1.058zm1.612-4.91c2.746 2.746 6.071 4.133 9.923 4.133v-2c-3.316 0-6.134-1.172-8.509-3.547l-1.414 1.414zm9.923 4.133c2.501 0 4.682-.7 6.481-2.14l-1.249-1.56c-1.401 1.12-3.125 1.7-5.232 1.7v2zm6.466-2.127c1.848-1.422 3.468-3.765 4.907-6.904l-1.818-.834c-1.377 3.005-2.829 5.014-4.308 6.152l1.219 1.586zm4.91-6.91l2.208-4.896-1.823-.822-2.208 4.896 1.823.822zm2.209-5.716l-22.56-50.4-1.825.818 22.56 50.4 1.825-.818zm-23.473-48.991h7.104v-2h-7.104v2zm6.19-.595l19.008 42.912 1.829-.81-19.008-42.912-1.829.81zm20.837 42.912l19.008-42.912-1.829-.81-19.008 42.912 1.829.81zm18.093-42.317h6.72v-2h-6.72v2zm64.338 43.544h1v-1h-1v1zm0 18.144v1h1v-1h-1zm-6.433 0h-1v1h1v-1zm0-12.192h1v-1h-1v1zm-45.216 0v-1h-1v1h1zm0 12.192v1h1v-1h-1zm-6.431 0h-1v1h1v-1zm0-18.144v-1h-1v1h1zm2.879 0v1h.029l.028-.002-.057-.998zm6.913-7.488l.969.246-.969-.246zm2.496-20.16l.998.052.001-.012-.999-.04zm.672-16.896v-1h-.962l-.038.96 1 .04zm37.247 0h1v-1h-1v1zm0 44.544h-1v1h1v-1zm-31.68-27.264l-.998-.051v.006l.998.045zm-1.824 17.76l.982.19.001-.002-.983-.188zm-4.799 9.504l-.601-.8-2.399 1.8h3v-1zm31.488 0v1h1v-1h-1zm0-38.496h1v-1h-1v1zm-24.289 0v-1h-.95l-.048.949.998.051zm37.977 38.496v18.144h2V63.048h-2zm1 17.144h-6.433v2h6.433v-2zm-5.433 1V69h-2v12.192h2zm-1-13.192h-45.216v2h45.216v-2zm-46.216 1v12.192h2V69h-2zm1 11.192h-6.431v2h6.431v-2zm-5.431 1V63.048h-2v18.144h2zm-1-17.144h2.879v-2h-2.879v2zm2.936-.002c1.955-.11 3.622-.897 4.95-2.336 1.305-1.413 2.243-3.412 2.875-5.904l-1.939-.492c-.584 2.308-1.406 3.958-2.405 5.04-.976 1.057-2.157 1.614-3.594 1.696l.113 1.996zm7.825-8.24c1.24-4.894 2.076-11.69 2.525-20.354l-1.997-.104c-.447 8.616-1.275 15.26-2.467 19.966l1.939.492zm2.526-20.366l.672-16.896-1.999-.08-.672 16.896 1.999.08zm-.327-15.936h37.247v-2h-37.247v2zm36.247-1v44.544h2V18.504h-2zm1 45.544h7.873v-2h-7.873v2zm-32.678-28.309c-.319 7.142-.924 13.01-1.808 17.617l1.965.376c.908-4.736 1.519-10.709 1.84-17.903l-1.997-.09zm-1.807 17.614c-.877 4.509-2.405 7.385-4.419 8.895l1.201 1.6c2.594-1.946 4.266-5.406 5.181-10.113l-1.963-.382zm-3.818 10.695h31.488v-2h-31.488v2zm32.488-1V24.552h-2v38.496h2zm-1-39.496H302.78v2h24.289v-2zm-25.287.949l-.576 11.232 1.997.102.576-11.232-1.997-.102zm53.258-5.997v-1h-1v1h1zm6.816 0h1v-1h-1v1zm0 22.368h-1v1h1v-1zm31.776 0v1h1v-1h-1zm0-22.368v-1h-1v1h1zm6.816 0h1v-1h-1v1zm0 50.496v1h1v-1h-1zm-6.816 0h-1v1h1v-1zm0-22.272h1v-1h-1v1zm-31.776 0v-1h-1v1h1zm0 22.272v1h1v-1h-1zm-6.816 0h-1v1h1v-1zm0-49.496h6.816v-2h-6.816v2zm5.816-1v22.368h2V18.504h-2zm1 23.368h31.776v-2h-31.776v2zm32.776-1V18.504h-2v22.368h2zm-1-21.368h6.816v-2h-6.816v2zm5.816-1V69h2V18.504h-2zm1 49.496h-6.816v2h6.816v-2zm-5.816 1V46.728h-2V69h2zm-1-23.272h-31.776v2h31.776v-2zm-32.776 1V69h2V46.728h-2zm1 21.272h-6.816v2h6.816v-2zm-5.816 1V18.504h-2V69h2zm63.781-50.496v-1h-1v1h1zm6.816 0h1v-1h-1v1zm0 40.128h-1v2.746l1.766-2.103-.766-.643zm33.696-40.128v-1h-.466l-.3.357.766.643zm6.048 0h1v-1h-1v1zm0 50.496v1h1v-1h-1zm-6.816 0h-1v1h1v-1zm0-40.128h1V26.12l-1.767 2.11.767.642zM425.965 69v1h.467l.3-.358-.767-.642zm-6.144 0h-1v1h1v-1zm0-49.496h6.816v-2h-6.816v2zm5.816-1v40.128h2V18.504h-2zm1.766 40.771l33.696-40.128-1.532-1.286-33.696 40.128 1.532 1.286zm32.93-39.771h6.048v-2h-6.048v2zm5.048-1V69h2V18.504h-2zm1 49.496h-6.816v2h6.816v-2zm-5.816 1V28.872h-2V69h2zm-1.767-40.77l-33.6 40.128 1.534 1.284 33.6-40.128-1.534-1.284zM425.965 68h-6.144v2h6.144v-2zm-5.144 1V18.504h-2V69h2zm103.206-50.496h1v-1h-1v1zm0 50.496v1h1v-1h-1zm-6.816 0h-1v1h1v-1zm0-21.024h1v-1.532l-1.403.616.403.916zm-31.392-.288l-.639.77.009.007.63-.777zm-5.088-29.184v-1h-1v1h1zm6.816 0h1v-1h-1v1zm3.648 24.864l-.632.775.006.005.006.005.62-.785zm26.016-.864l.39.92.61-.258v-.662h-1zm0-24v-1h-1v1h1zm5.816 0V69h2V18.504h-2zm1 49.496h-6.816v2h6.816v-2zm-5.816 1V47.976h-2V69h2zm-1.403-21.94c-5.713 2.512-11.305 3.756-16.781 3.756v2c5.787 0 11.652-1.316 17.586-3.925l-.805-1.83zm-16.781 3.756c-5.94 0-10.423-1.345-13.578-3.905l-1.26 1.554c3.628 2.944 8.617 4.351 14.838 4.351v-2zm-13.569-3.897c-3.105-2.578-4.727-6.451-4.727-11.807h-2c0 5.78 1.77 10.291 5.449 13.345l1.278-1.538zm-4.727-11.807V18.504h-2v16.608h2zm-1-15.608h6.816v-2h-6.816v2zm5.816-1v16.224h2V18.504h-2zm0 16.224c0 4.009 1.303 7.202 4.016 9.415l1.264-1.55c-2.152-1.755-3.28-4.322-3.28-7.865h-2zm4.028 9.425c2.665 2.104 6.272 3.095 10.7 3.095v-2c-4.149 0-7.262-.93-9.461-2.665l-1.239 1.57zm10.7 3.095c4.908 0 10.355-1.292 16.326-3.823l-.781-1.842c-5.805 2.461-10.981 3.665-15.545 3.665v2zm16.936-4.744v-24h-2v24h2zm-1-23h6.816v-2h-6.816v2zm70.333 26.36v1h.955l.043-.955-.998-.045zm-42.24 0v-1h-1.076l.078 1.073.998-.073zm6.048 12.768l-.667.745.007.007.66-.752zm22.463 3.168l.383.924.01-.004.009-.004-.402-.916zm6.817-4.992l.754-.656-.749-.862-.755.856.75.662zm3.839 4.416l.769.64.545-.654-.559-.642-.755.656zm-8.448 6.144l-.383-.924-.006.003.389.921zm-24.864-1.152l-.491.87.008.005.009.005.474-.88zM541.847 57l-.867.498.867-.498zm-.191-26.496l-.874-.487-.006.011.88.476zm8.831-9.12l-.499-.867-.006.004.505.863zm33.984 9.12l-.879.476.003.006.876-.482zm3.169 13.248l.998.045.002-.022v-.023h-1zM550.872 28.68l.685.728-.685-.728zm-5.568 12.096l-.997-.09-.097 1.09h1.094v-1zm35.808 0v1h1.093l-.098-1.09-.995.09zm-5.664-12.096l-.693.721.007.007.007.007.679-.735zm12.096 16.184h-42.24v2h42.24v-2zm-43.238 1.073c.402 5.485 2.522 9.99 6.379 13.44l1.333-1.49c-3.439-3.078-5.351-7.085-5.717-12.096l-1.995.146zm6.386 13.447c3.857 3.383 8.711 5.048 14.483 5.048v-2c-5.363 0-9.725-1.535-13.164-4.552l-1.319 1.504zm14.483 5.048c3.254 0 6.266-.565 9.023-1.708l-.766-1.848c-2.49 1.033-5.238 1.556-8.257 1.556v2zm9.042-1.716a20.387 20.387 0 007.164-5.246l-1.499-1.324a18.39 18.39 0 01-6.468 4.738l.803 1.832zm5.66-5.252l3.84 4.416 1.509-1.312-3.84-4.416-1.509 1.312zm3.826 3.12c-2.131 2.557-4.813 4.511-8.063 5.86l.767 1.848c3.534-1.467 6.484-3.61 8.833-6.428l-1.537-1.28zm-8.069 5.863c-3.191 1.35-6.737 2.033-10.65 2.033v2c4.15 0 7.964-.725 11.429-2.191l-.779-1.842zm-10.65 2.033c-5.041 0-9.482-1.057-13.35-3.144l-.949 1.76c4.196 2.265 8.971 3.384 14.299 3.384v-2zm-13.333-3.135c-3.813-2.153-6.787-5.097-8.936-8.843l-1.735.996c2.331 4.062 5.565 7.262 9.688 9.589l.983-1.742zm-8.936-8.843c-2.145-3.738-3.228-7.98-3.228-12.75h-2c0 5.086 1.158 9.676 3.493 13.746l1.735-.996zm-3.228-12.75c0-4.78 1.024-9.03 3.048-12.772l-1.759-.952c-2.2 4.066-3.289 8.648-3.289 13.724h2zm3.042-12.761c2.093-3.755 4.912-6.662 8.464-8.744l-1.011-1.726c-3.872 2.27-6.941 5.443-9.2 9.496l1.747.974zm8.458-8.74c3.613-2.083 7.663-3.131 12.172-3.131v-2c-4.834 0-9.232 1.128-13.171 3.398l.999 1.732zm12.172-3.131c4.51 0 8.525 1.048 12.071 3.127l1.011-1.726c-3.878-2.273-8.247-3.401-13.082-3.401v2zm12.071 3.127c3.549 2.08 6.334 4.984 8.362 8.733l1.759-.952c-2.196-4.06-5.235-7.235-9.11-9.507l-1.011 1.726zm8.365 8.739c2.02 3.673 3.045 7.919 3.045 12.766h2c0-5.137-1.088-9.723-3.292-13.73l-1.753.964zm3.046 12.72l-.096 2.113 1.997.09.096-2.112-1.997-.09zm-23.482-20.73c-5.101 0-9.447 1.654-12.973 4.976l1.371 1.456c3.13-2.95 6.976-4.432 11.602-4.432v-2zm-12.973 4.976c-3.464 3.26-5.411 7.53-5.879 12.735l1.992.178c.429-4.779 2.193-8.573 5.258-11.457l-1.371-1.456zm-4.882 13.824h35.808v-2h-35.808v2zm36.803-1.09c-.467-5.21-2.451-9.482-5.981-12.74l-1.357 1.469c3.126 2.885 4.918 6.677 5.346 11.45l1.992-.178zM576.14 27.96c-3.467-3.332-7.819-4.983-12.981-4.983v2c4.695 0 8.535 1.485 11.596 4.425l1.385-1.442zm34.267 38.257l-.487.874.006.003.481-.877zm-9.216-9.12l-.871.492.004.006.867-.498zm0-26.592l-.867-.498.867.498zm9.216-9.12l-.481-.877-.006.003.487.874zm25.056-.672l-.454.891.01.005.01.005.434-.901zm8.16 7.392l.562.827.787-.534-.494-.812-.855.519zm-5.088 3.456l-.832.555.56.839.834-.567-.562-.827zm-6.336-5.568l-.447.894.009.005.009.004.429-.903zm-18.24.576l.486.874.006-.003-.492-.871zm-6.816 6.912l-.875-.484-.004.007-.004.007.883.47zm0 20.64l-.883.47.006.01.007.012.87-.492zm6.816 6.912l-.5.866.011.006.012.007.477-.879zm18.24.576l-.429-.903.429.903zm6.336-5.568l.562-.827-.834-.567-.56.84.832.554zm5.088 3.456l.855.52.494-.813-.787-.534-.562.827zm-8.16 7.488l.434.901.007-.003.006-.004-.447-.894zm-11.616 1.496c-4.841 0-9.153-1.054-12.959-3.14l-.962 1.753c4.131 2.265 8.779 3.387 13.921 3.387v-2zm-12.953-3.138c-3.744-2.086-6.685-4.996-8.835-8.744l-1.735.996c2.33 4.06 5.533 7.23 9.596 9.495l.974-1.746zm-8.832-8.738c-2.148-3.806-3.231-8.082-3.231-12.852h-2c0 5.086 1.158 9.706 3.489 13.836l1.742-.984zm-3.231-12.852c0-4.77 1.083-9.012 3.228-12.75l-1.735-.996c-2.335 4.07-3.493 8.66-3.493 13.746h2zm3.228-12.75c2.15-3.748 5.091-6.658 8.835-8.744l-.974-1.747c-4.063 2.265-7.266 5.435-9.596 9.495l1.735.996zm8.829-8.741c3.806-2.087 8.118-3.141 12.959-3.141v-2c-5.142 0-9.79 1.122-13.921 3.387l.962 1.754zm12.959-3.141c4.217 0 7.93.836 11.162 2.483l.908-1.782c-3.551-1.81-7.583-2.701-12.07-2.701v2zm11.182 2.493c3.283 1.58 5.857 3.912 7.74 7.01l1.709-1.038c-2.085-3.43-4.952-6.027-8.581-7.774l-.868 1.802zm8.032 5.664l-5.088 3.456 1.124 1.654 5.088-3.456-1.124-1.654zm-3.694 3.728c-1.758-2.637-4.006-4.618-6.739-5.916l-.858 1.806c2.387 1.134 4.363 2.865 5.933 5.22l1.664-1.11zm-6.721-5.907c-2.706-1.353-5.644-2.026-8.799-2.026v2c2.861 0 5.491.607 7.905 1.814l.894-1.788zm-8.799-2.026c-3.806 0-7.274.87-10.38 2.625l.984 1.742c2.782-1.573 5.907-2.367 9.396-2.367v-2zm-10.373 2.622c-3.051 1.695-5.455 4.137-7.206 7.302l1.75.968c1.578-2.851 3.718-5.017 6.427-6.522l-.971-1.748zm-7.214 7.316c-1.686 3.17-2.517 6.76-2.517 10.742h2c0-3.697.769-6.957 2.283-9.802l-1.766-.94zm-2.517 10.742c0 4.044.83 7.665 2.517 10.838l1.766-.94c-1.512-2.843-2.283-6.134-2.283-9.898h-2zm2.53 10.86c1.75 3.097 4.149 5.531 7.186 7.286l1.001-1.732c-2.723-1.573-4.869-3.747-6.446-6.538l-1.741.984zm7.209 7.299c3.103 1.686 6.566 2.521 10.365 2.521v-2c-3.496 0-6.626-.765-9.41-2.279l-.955 1.758zm10.365 2.521c3.147 0 6.079-.637 8.781-1.92l-.858-1.807c-2.418 1.148-5.054 1.727-7.923 1.727v2zm8.781-1.92c2.733-1.299 4.981-3.28 6.739-5.917l-1.664-1.11c-1.57 2.355-3.546 4.086-5.933 5.22l.858 1.806zm5.345-5.645l5.088 3.456 1.124-1.654-5.088-3.456-1.124 1.654zm4.796 2.11c-1.885 3.1-4.463 5.468-7.753 7.113l.894 1.788c3.623-1.81 6.485-4.436 8.568-7.863l-1.709-1.038zm-7.74 7.106c-3.305 1.591-7.026 2.397-11.182 2.397v2c4.421 0 8.444-.859 12.05-2.595l-.868-1.802zm56.375-41.531v1h1v-1h-1zm-19.105 0v-1h-1v1h1zm0 44.448v1h1v-1h-1zm-6.815 0h-1v1h1v-1zm0-44.448h1v-1h-1v1zm-19.104 0h-1v1h1v-1zm0-6.048v-1h-1v1h1zm45.024 0h1v-1h-1v1zm0 5.048h-19.105v2h19.105v-2zm-20.105 1V69h2V24.552h-2zm1 43.448h-6.815v2h6.815v-2zm-5.815 1V24.552h-2V69h2zm-1-45.448H646.38v2h19.104v-2zm-18.104 1v-6.048h-2v6.048h2zm-1-5.048h45.024v-2H646.38v2zm44.024-1v6.048h2v-6.048h-2zm43.015 24.384l-.337-.942-3.199 1.143 3.308.773.228-.974zm5.375 22.56l-.587-.81.587.81zM701.258 69h-1v1h1v-1zm0-50.496v-1h-1v1h1zm35.809 3.36l.565-.825-.565.825zm2.592 16.704l-.791-.612-.003.004.794.608zm-31.776 2.4h-1v1h1v-1zm24.096-2.208l-.572-.82-.006.004-.006.004.584.812zm0-12.768l-.567.824.006.004.006.004.555-.832zm-24.096-2.112v-1h-1v1h1zm25.823 37.632l-.543-.84.543.84zm.289-13.248l-.596.803.008.006.009.007.579-.816zm-26.112-2.208v-1h-1v1h1zm0 17.568h-1v1h1v-1zm25.308-19.762c3.278.766 5.627 2.11 7.162 3.96 1.53 1.845 2.337 4.297 2.337 7.45h2c0-3.503-.904-6.443-2.798-8.726-1.889-2.278-4.676-3.798-8.246-4.632l-.455 1.948zm9.499 11.41c0 4.131-1.505 7.207-4.483 9.367l1.175 1.618c3.55-2.576 5.308-6.284 5.308-10.985h-2zm-4.483 9.367c-3.018 2.19-7.634 3.361-14.004 3.361v2c6.557 0 11.669-1.196 15.179-3.743l-1.175-1.618zM724.203 68h-22.945v2h22.945v-2zm-21.945 1V18.504h-2V69h2zm-1-49.496h22.273v-2h-22.273v2zm22.273 0c5.645 0 9.932 1.1 12.97 3.184l1.131-1.648c-3.49-2.396-8.227-3.536-14.101-3.536v2zm12.97 3.184c2.976 2.043 4.462 4.926 4.462 8.776h2c0-4.47-1.779-7.987-5.331-10.424l-1.131 1.649zm4.462 8.776c0 2.553-.708 4.7-2.095 6.492l1.581 1.224c1.685-2.176 2.514-4.765 2.514-7.716h-2zm-2.098 6.496c-1.335 1.741-3.243 3.08-5.783 3.986l.673 1.884c2.836-1.013 5.088-2.555 6.697-4.654l-1.587-1.216zm-30.982 4.008h15.167v-2h-15.167v2zm15.167 0c4.007 0 7.224-.751 9.512-2.396l-1.167-1.624c-1.808 1.3-4.543 2.02-8.345 2.02v2zm9.5-2.388c2.409-1.678 3.596-4.145 3.596-7.252h-2c0 2.525-.924 4.346-2.739 5.612l1.143 1.64zm3.596-7.252c0-3.107-1.189-5.552-3.613-7.168l-1.109 1.664c1.8 1.2 2.722 2.98 2.722 5.504h2zm-3.601-7.16c-2.285-1.571-5.495-2.288-9.495-2.288v2c3.809 0 6.551.691 8.362 1.936l1.133-1.648zm-9.495-2.288h-15.167v2h15.167v-2zm-16.167 1v17.088h2V23.88h-2zm17.031 40.744c4.428 0 7.922-.71 10.336-2.272l-1.087-1.68c-1.938 1.255-4.972 1.952-9.249 1.952v2zm10.336-2.272c2.51-1.625 3.721-4.18 3.721-7.464h-2c0 2.732-.966 4.593-2.808 5.784l1.087 1.68zm3.721-7.464c0-3.246-1.086-5.8-3.398-7.44l-1.157 1.632c1.656 1.175 2.555 3.038 2.555 5.808h2zm-3.381-7.427c-2.242-1.664-5.642-2.405-10.004-2.405v2c4.215 0 7.087.731 8.813 2.011l1.191-1.606zm-10.004-2.405h-16.703v2h16.703v-2zm-17.703 1v17.568h2V46.056h-2zm1 18.568h16.031v-2h-16.031v2zm59.462 1.592l-.498.867.011.007.487-.874zM758.129 57l-.868.498.868-.498zm0-26.496l-.868-.498.868.498zm35.52-9.12l-.487.873.487-.873zm9.12 9.12l-.874.487.006.01.868-.497zm0 26.496l-.868-.498-.006.011.874.487zm-9.12 9.216l.487.874.01-.007-.497-.867zm-3.552-5.184l.494.87.006-.004-.5-.866zm6.72-7.008l.883.47-.883-.47zm0-20.544l.883-.47-.883.47zm-6.72-6.912l-.509.86.011.008.012.006.486-.874zm-19.296 0l.494.87.006-.004-.5-.866zm-6.72 6.912l-.875-.484-.004.007-.004.007.883.47zm0 20.544l-.883.47.004.007.004.007.875-.484zm6.72 7.008l-.509.86.011.008.012.006.486-.874zm9.696 7.448c-4.709 0-8.923-1.052-12.665-3.138l-.974 1.748c4.066 2.266 8.62 3.39 13.639 3.39v-2zm-12.655-3.131c-3.75-2.152-6.694-5.097-8.846-8.847l-1.735.996c2.329 4.058 5.528 7.257 9.586 9.585l.995-1.734zm-8.846-8.847c-2.145-3.738-3.227-7.98-3.227-12.75h-2c0 5.086 1.157 9.676 3.492 13.746l1.735-.996zm-3.227-12.75c0-4.77 1.082-9.012 3.227-12.75l-1.735-.996c-2.335 4.07-3.492 8.66-3.492 13.746h2zm3.227-12.75c2.15-3.748 5.091-6.658 8.836-8.744l-.974-1.747c-4.064 2.265-7.267 5.435-9.597 9.495l1.735.996zm8.836-8.744c3.742-2.086 7.956-3.138 12.665-3.138v-2c-5.019 0-9.573 1.124-13.639 3.39l.974 1.747zm12.665-3.138c4.709 0 8.923 1.052 12.665 3.137l.974-1.747c-4.066-2.266-8.62-3.39-13.639-3.39v2zm12.665 3.137c3.742 2.086 6.648 4.992 8.733 8.734l1.747-.974c-2.266-4.066-5.44-7.24-9.506-9.506l-.974 1.747zm8.739 8.745c2.145 3.738 3.228 7.98 3.228 12.75h2c0-5.086-1.158-9.676-3.493-13.746l-1.735.996zm3.228 12.75c0 4.77-1.083 9.012-3.228 12.75l1.735.996c2.335-4.07 3.493-8.66 3.493-13.746h-2zm-3.234 12.761c-2.087 3.744-4.996 6.685-8.744 8.836l.995 1.734c4.061-2.33 7.231-5.532 9.496-9.596l-1.747-.974zm-8.733 8.83c-3.742 2.085-7.956 3.137-12.665 3.137v2c5.019 0 9.573-1.124 13.639-3.39l-.974-1.748zm-12.665-.911c3.738 0 7.112-.836 10.094-2.53l-.988-1.74c-2.65 1.506-5.677 2.27-9.106 2.27v2zm10.1-2.534c3.046-1.76 5.417-4.235 7.103-7.404l-1.766-.94c-1.514 2.847-3.624 5.044-6.338 6.612l1.001 1.732zm7.103-7.404c1.686-3.17 2.517-6.76 2.517-10.742h-2c0 3.697-.769 6.956-2.283 9.802l1.766.94zm2.517-10.742c0-3.983-.831-7.572-2.517-10.742l-1.766.94c1.514 2.845 2.283 6.105 2.283 9.802h2zM797.7 33.01c-1.688-3.172-4.063-5.62-7.118-7.316l-.971 1.748c2.705 1.503 4.81 3.664 6.323 6.508l1.766-.94zm-7.095-7.303c-2.984-1.764-6.363-2.635-10.108-2.635v2c3.422 0 6.444.793 9.091 2.357l1.017-1.722zm-10.108-2.635c-3.746 0-7.153.872-10.197 2.63l1.001 1.732c2.716-1.57 5.773-2.362 9.196-2.362v-2zm-10.19 2.627c-2.986 1.696-5.354 4.138-7.101 7.297l1.75.968c1.58-2.857 3.693-5.023 6.339-6.526l-.988-1.74zm-7.109 7.311c-1.686 3.17-2.517 6.76-2.517 10.742h2c0-3.697.769-6.957 2.283-9.802l-1.766-.94zm-2.517 10.742c0 3.983.831 7.572 2.517 10.742l1.766-.94c-1.514-2.846-2.283-6.105-2.283-9.802h-2zm2.525 10.756c1.745 3.156 4.109 5.625 7.086 7.385l1.018-1.722c-2.655-1.569-4.772-3.77-6.354-6.631l-1.75.968zm7.109 7.398c3.042 1.69 6.443 2.526 10.182 2.526v-2c-3.43 0-6.492-.764-9.211-2.274l-.971 1.748z" fill="#fff"/></svg>