<svg width="120" height="27" fill="none" xmlns="http://www.w3.org/2000/svg"><path d="M3.99 7.642H.645v18.93H3.99V7.642zm48.772 15.071a10.7 10.7 0 01-6.527 3.654c-6.009 1.059-10.593-2.078-11.623-7.922-.951-5.391 1.752-10.28 7.843-11.354a8.4 8.4 0 0110.1 6.961c.14.745.203 1.502.186 2.259l-14.239 2.511c.9 3.447 3.819 5.055 7.441 4.416a8.678 8.678 0 005.338-2.936l1.481 2.411zm-14.942-6.53l11.235-1.981c-.7-3.017-3.011-4.561-6.221-4a5.639 5.639 0 00-5.014 5.981zm36.423 6.53a10.7 10.7 0 01-6.527 3.654c-6.01 1.059-10.593-2.078-11.623-7.922-.952-5.391 1.751-10.28 7.842-11.354a8.4 8.4 0 0110.1 6.961c.14.745.203 1.502.186 2.259l-14.239 2.511c.9 3.447 3.82 5.055 7.442 4.416a8.68 8.68 0 005.337-2.936l1.482 2.411zM59.3 16.183l11.234-1.981c-.7-3.017-3.01-4.561-6.22-4a5.64 5.64 0 00-5.012 5.981H59.3zm44.152-8.75A8.958 8.958 0 0097.31 9.94V.258h-3.345v26.314h3.344V12.949a7.45 7.45 0 015.349-2.382c3.468 0 5.266 1.922 5.266 5.683v10.322h3.341V15.79c0-5.891-2.924-8.357-7.813-8.357zM86.168 23.438c-2.382 0-3.343-1.713-3.343-4.68v-8.19h5.524V7.433h-5.524V3.415h-3.343v15.677c0 4.805 1.671 7.48 5.892 7.48a7.647 7.647 0 004.806-1.588l-1.045-2.591a4.92 4.92 0 01-2.967 1.045zM25.692 10.567v8.19c0 2.967.96 4.68 3.343 4.68a4.922 4.922 0 002.967-1.045l1.045 2.591a7.648 7.648 0 01-4.806 1.588c-4.22 0-5.892-2.674-5.892-7.48V3.415h3.343v7.152z" fill="#fff"/><path d="M2.318 4.636a2.318 2.318 0 100-4.636 2.318 2.318 0 000 4.636zm115.363 21.935a2.318 2.318 0 100-4.636 2.318 2.318 0 000 4.636zM31.115 6.804s.12 2.9 1.391 3.815a35.57 35.57 0 00-8.9.516c-3.622.91-7.05 2.47-10.113 4.606a32.066 32.066 0 00-6.334 6.082s1.23-3.038 5.386-6.814c4.583-4.163 6.927-5.074 9.177-6.034 2.657-1.135 9.393-2.17 9.393-2.17z" fill="#00B926"/></svg>