<svg width="130" height="30" fill="none" xmlns="http://www.w3.org/2000/svg"><path d="M112.649 8.484c2.597 0 4.66.747 6.19 2.241 1.53 1.495 2.295 3.685 2.295 6.572v11.686h-3.703V17.718c0-1.967-.475-3.448-1.427-4.444-.951-.997-2.314-1.495-4.088-1.495-2.005 0-3.587.581-4.744 1.743-1.157 1.163-1.735 2.83-1.735 5v10.461h-3.703V.553h3.703v10.996c.771-.97 1.78-1.724 3.027-2.26 1.247-.537 2.642-.805 4.185-.805zM97.492 27.795c-.54.46-1.208.811-2.005 1.054a8.43 8.43 0 01-2.469.364c-2.056 0-3.65-.55-4.782-1.647-1.131-1.099-1.697-2.67-1.697-4.713V4.23h3.703v4.444h5.862v3.027h-5.862V22.7c0 1.098.276 1.942.829 2.53.552.587 1.343.88 2.372.88 1.13 0 2.095-.319 2.892-.958l1.157 2.644zM65.806 19.02l13.075-2.451c-1.41-6.876-13.532-6.773-13.075 2.452zm7.521 6.974c2.443 0 4.41-.817 5.901-2.452l2.005 2.376c-1.988 2.37-4.998 3.295-8.022 3.295-6.33 0-10.991-4.052-10.991-10.384 0-5.883 4.186-10.345 10.259-10.345 3.602 0 6.822 1.643 8.677 4.751.9 1.507 1.363 3.244 1.389 5.211l-16.237 3.142c1.118 3.056 3.874 4.406 7.02 4.406zM41.972 19.02l13.075-2.451c-1.41-6.876-13.532-6.773-13.075 2.452zm7.521 6.974c2.443 0 4.41-.817 5.901-2.452l2.005 2.376c-1.988 2.37-4.998 3.295-8.022 3.295-6.33 0-10.991-4.052-10.991-10.384 0-5.883 4.185-10.345 10.259-10.345 3.601 0 6.822 1.643 8.677 4.751.9 1.507 1.363 3.244 1.389 5.211l-16.237 3.142c1.118 3.056 3.874 4.406 7.02 4.406zm-13.978 1.801c-.54.46-1.209.811-2.006 1.054a8.43 8.43 0 01-2.468.364c-2.057 0-3.651-.549-4.782-1.647-1.132-1.099-1.698-2.67-1.698-4.713V4.23h3.703v18.468c0 1.099.277 1.942.83 2.53.552.587 1.343.88 2.371.88 1.131 0 2.096-.319 2.893-.958l1.157 2.644zM.655 8.675h3.703v20.308H.655V8.675z" fill="#3B4768"/><path d="M2.507 5.342c-.72 0-1.318-.23-1.794-.69A2.256 2.256 0 010 2.966c0-.664.238-1.232.713-1.705C1.19.79 1.787.552 2.507.552s1.318.224 1.793.67c.476.448.714 1.004.714 1.668 0 .69-.238 1.27-.714 1.743-.475.473-1.073.71-1.793.71zm124.804 23.871c-.72 0-1.318-.23-1.794-.69a2.257 2.257 0 01-.713-1.685c0-.665.238-1.233.713-1.706.476-.472 1.074-.708 1.794-.708s1.317.223 1.793.67c.476.447.713 1.003.713 1.667 0 .69-.237 1.27-.713 1.743-.476.473-1.073.71-1.793.71z" fill="#3FAB3C"/><path fill-rule="evenodd" clip-rule="evenodd" d="M36.11 12.257a30.334 30.334 0 00-5.054-.236 29.95 29.95 0 00-23.78 13.19A32.926 32.926 0 0134.208 7.806a4.614 4.614 0 001.902 4.45z" fill="#3FAB3C"/></svg>