<svg width="330" height="167" fill="none" xmlns="http://www.w3.org/2000/svg"><path d="M12.83 20.743H3.756v51.384h9.074V20.743zm132.393 40.912c-4.126 5.336-11.01 8.737-17.716 9.92-16.31 2.876-28.755-5.642-31.552-21.505-2.58-14.633 4.756-27.905 21.289-30.821 12.957-2.284 24.962 5.043 27.404 18.895.381 2.02.55 4.076.505 6.131l-38.651 6.816c2.456 9.356 10.367 13.721 20.197 11.988 6.48-1.142 11.782-4.382 14.491-7.97l4.033 6.546zm-40.559-17.726l30.496-5.377c-1.905-8.189-8.169-12.381-16.887-10.845-9.159 1.614-13.963 8.337-13.609 16.222zm98.863 17.726c-4.127 5.336-11.011 8.737-17.716 9.92-16.311 2.876-28.754-5.642-31.552-21.505-2.58-14.633 4.755-27.905 21.289-30.821 12.957-2.284 24.961 5.043 27.404 18.895.381 2.02.55 4.076.505 6.131l-38.651 6.816c2.455 9.356 10.367 13.721 20.197 11.988 6.48-1.142 11.782-4.382 14.491-7.97l4.033 6.546zm-40.561-17.726l30.497-5.378c-1.906-8.189-8.174-12.381-16.887-10.845-9.158 1.615-13.962 8.338-13.609 16.223h-.001zm119.852-23.753c-6.464 0-12.928 2.948-16.673 6.806V.699h-9.077v71.43h9.076v-36.98a20.215 20.215 0 0114.519-6.464c9.414 0 14.293 5.217 14.293 15.427V72.13h9.073V42.864c.002-15.995-7.938-22.688-21.211-22.688zM235.901 63.62c-6.464 0-9.074-4.65-9.074-12.705V28.681h14.994v-8.506h-14.995V9.268h-9.074v42.555c0 13.045 4.537 20.304 15.993 20.304 5.673 0 10.322-2.041 13.045-4.31l-2.836-7.032a13.357 13.357 0 01-8.053 2.835zM71.747 28.683v22.233c0 8.056 2.61 12.706 9.076 12.706a13.36 13.36 0 008.053-2.835l2.836 7.032c-2.723 2.269-7.373 4.31-13.045 4.31-11.457 0-15.993-7.26-15.993-20.303V9.268h9.073v19.415z" fill="#fff"/><path d="M8.293 12.586A6.293 6.293 0 108.293 0a6.293 6.293 0 000 12.586zm313.151 59.541a6.293 6.293 0 100-12.585 6.293 6.293 0 000 12.585zM86.46 18.465s.327 7.88 3.778 10.355c0 0-12.243-1.043-24.161 1.4-11.919 2.443-23.445 9.77-27.451 12.502-4.006 2.734-13.384 10.94-17.19 16.51 0 0 3.338-8.247 14.62-18.496 12.44-11.3 18.802-13.774 24.91-16.38 7.21-3.076 25.495-5.891 25.495-5.891zm92.777 66.038c-.347.829-.797 1.61-1.341 2.326-.608.8-1.297 1.537-2.054 2.198a15.182 15.182 0 01-2.629 1.854c-.961.537-1.981.963-3.039 1.27a11.716 11.716 0 01-3.296.47 4.626 4.626 0 01-1.156-.141 3.2 3.2 0 01-.97-.415 2.43 2.43 0 01-.671-.639 1.357 1.357 0 01-.128-1.37c.08-.18.186-.348.314-.497a3.35 3.35 0 01.372-.372c.123-.104.223-.185.299-.242.038-.019.076-.005.114.043.038.047.067.1.086.157-.146.163-.275.34-.386.528a1.45 1.45 0 00-.242.781.693.693 0 00.426.586c.449.193.939.276 1.427.242a9.138 9.138 0 002.853-.485c1.004-.33 1.97-.765 2.882-1.298a19.262 19.262 0 004.823-3.995 11.322 11.322 0 001.484-2.155c.328-.585.514-1.24.541-1.911a1.852 1.852 0 00-.827-1.57 4.854 4.854 0 00-2.77-.599 12.32 12.32 0 00-2.112.2c-.761.133-1.57.304-2.426.513.119.21.21.436.271.67.069.207.112.421.128.639a3.5 3.5 0 01-.699.852 439.133 439.133 0 00-4.48 4.83 88.306 88.306 0 00-3.068 3.552 127.183 127.183 0 00-2.468 3.078c-.751.97-1.407 1.83-1.969 2.58-.561.75-.998 1.359-1.312 1.824a3.961 3.961 0 00-.471.782l.086.057c.057-.056.152-.162.284-.313a19.094 19.094 0 01.9-.955 2.6 2.6 0 01.299-.27c.133-.038.2.019.2.17-.057.095-.204.37-.443.827-.238.457-.504.94-.798 1.453a22.4 22.4 0 01-.857 1.382c-.275.408-.48.613-.613.613a.65.65 0 01-.442-.2 2.098 2.098 0 01-.387-.497 3.218 3.218 0 01-.27-.613 1.797 1.797 0 01-.1-.543c.075-.463.244-.905.497-1.3a34.05 34.05 0 011.284-2.154 56.682 56.682 0 011.797-2.628 70.634 70.634 0 012.041-2.682 160.12 160.12 0 012.699-3.31 299.442 299.442 0 012.629-3.097c.827-.96 1.578-1.821 2.254-2.582a133.33 133.33 0 011.589-1.764 49.41 49.41 0 00-3.197 1.113 70.15 70.15 0 00-5.963 2.625c-.875.438-1.636.842-2.284 1.212-.646.372-1.16.69-1.541.957s-.568.446-.568.542c0 .096.067.142.2.142a4.184 4.184 0 001.427-.485 32.703 32.703 0 002.225-1.17 50.445 50.445 0 001.513-.87c.494-.297.956-.573 1.383-.828a44.3 44.3 0 001.085-.67c.297-.192.502-.316.614-.372a.73.73 0 01.284 0 .212.212 0 01.171.2c-.169.18-.356.342-.556.485-.295.229-.656.495-1.084.799a45.536 45.536 0 01-3.068 1.97 38.569 38.569 0 01-2.611 1.394 8.41 8.41 0 01-1.07.442c-.248.09-.508.143-.771.157a.83.83 0 01-.599-.3 1.052 1.052 0 01-.285-.755c0-.21.3-.571.9-1.085a22.93 22.93 0 012.396-1.741 42.805 42.805 0 013.468-1.997 48.113 48.113 0 014.108-1.897 33.457 33.457 0 014.309-1.427 16.552 16.552 0 014.11-.557 9.705 9.705 0 012.628.309 4.995 4.995 0 011.769.857c.433.334.78.766 1.014 1.26a3.73 3.73 0 01.328 1.57 5.9 5.9 0 01-.49 2.24zm3.938 10.331c-.213.238-.452.505-.728.799-.275.294-.557.59-.842.884-.284.294-.523.528-.71.7-.21.17-.453.38-.728.628a14.05 14.05 0 01-.852.71c-.283.22-.584.416-.899.585a1.758 1.758 0 01-.798.243.77.77 0 01-.743-.514 3.086 3.086 0 01-.228-1.256c.006-.306.04-.612.1-.912.031-.224.084-.444.157-.657a.151.151 0 00.011-.073.136.136 0 00-.026-.069.122.122 0 00-.1-.056c-.108.064-.208.14-.299.228-.18.153-.4.337-.656.556-.257.219-.532.457-.827.71-.295.254-.568.498-.813.728-.245.23-.547.497-.9.813-.352.315-.699.609-1.042.884-.343.275-.656.513-.942.71a1.342 1.342 0 01-.627.3.54.54 0 01-.47-.342 1.595 1.595 0 01-.185-.771 4.894 4.894 0 01.342-1.655c.247-.67.548-1.319.899-1.94.38-.682.809-1.336 1.284-1.956.459-.609.965-1.181 1.513-1.712a8.572 8.572 0 011.583-1.228 2.962 2.962 0 011.483-.47c.346-.012.685.1.957.314a1.175 1.175 0 01.385.97 1.58 1.58 0 01-.1.47c-.067.2-.153.418-.257.656a10.4 10.4 0 01-.355.727c-.134.248-.257.467-.37.657a1.09 1.09 0 01.426-.142.86.86 0 01.556.17.686.686 0 01.213.57 2.076 2.076 0 01-.114.613c-.076.239-.163.485-.257.742-.095.257-.181.509-.257.756-.07.212-.108.433-.113.657-.003.136.021.271.071.399a.288.288 0 00.299.17c.389-.09.745-.286 1.028-.567.474-.38.978-.817 1.513-1.313.284-.284.569-.574.856-.87.287-.295.553-.566.798-.813a16.708 16.708 0 00.999-1.083c.057 0 .119.048.186.142.067.095.052.248-.043.457-.043.062-.17.213-.378.45zm-5.565-3.126c-.316.053-.611.19-.856.398-.449.32-.878.667-1.285 1.038-.511.462-.996.95-1.454 1.465-.496.55-.952 1.1-1.371 1.648a14.85 14.85 0 00-1.285 1.934 3.12 3.12 0 00-.456 1.308c0 .19.029.284.086.284.181-.07.35-.17.497-.298a29.341 29.341 0 002.125-1.707c.4-.35.762-.667 1.085-.953.342-.303.675-.606.999-.91.323-.303.627-.578.912-.824a1.41 1.41 0 01-.342-.142c-.095-.057-.142-.104-.142-.142 0-.039.038-.09.115-.157.083-.074.159-.154.228-.241a3.98 3.98 0 00.284-.413 27.39 27.39 0 00.914-1.55c.095-.147.162-.31.199-.483a.237.237 0 00-.01-.102.233.233 0 00-.142-.142.229.229 0 00-.103-.01h.002z" fill="#00B926"/><path d="M188.267 92.821a.231.231 0 01-.213.115.221.221 0 01-.228-.143 1.717 1.717 0 00-.172-.313 1.056 1.056 0 00-.355-.314 1.546 1.546 0 00-.756-.142 2.38 2.38 0 00-1.028.228 3.203 3.203 0 00-.856.585 2.687 2.687 0 00-.585.827 2.355 2.355 0 00-.213.985 2.15 2.15 0 00.2.913c.132.284.281.568.443.856.162.289.309.569.442.853.133.286.201.598.2.913a2.11 2.11 0 01-.3 1.1 3.394 3.394 0 01-.77.883 3.625 3.625 0 01-1.043.599c-.355.138-.732.21-1.113.214a2.11 2.11 0 01-.871-.214.982.982 0 01-.373-.264.983.983 0 01-.211-.406.396.396 0 01.13-.087.396.396 0 01.154-.028.9.9 0 01.413.172 1.3 1.3 0 00.7.172 1.832 1.832 0 001.298-.569 1.746 1.746 0 00.585-1.284 1.548 1.548 0 00-.242-.842 14.153 14.153 0 00-.542-.799 6.406 6.406 0 01-.542-.898 2.595 2.595 0 01-.243-1.17 3.753 3.753 0 01.328-1.555 3.98 3.98 0 012.184-2.084 4.16 4.16 0 011.569-.299c.199.022.389.09.556.2.248.14.482.302.699.485.214.176.41.372.586.585a.88.88 0 01.242.498.425.425 0 01-.073.228zm6.364 0a.235.235 0 01-.213.115.22.22 0 01-.228-.143 1.776 1.776 0 00-.172-.313 1.056 1.056 0 00-.355-.314 1.548 1.548 0 00-.756-.142 2.378 2.378 0 00-1.028.228 3.192 3.192 0 00-.853.585 2.658 2.658 0 00-.584.827 2.34 2.34 0 00-.213.985c-.002.315.067.627.2.913.133.284.281.57.443.856.162.287.309.572.442.853.133.286.202.598.2.913.004.387-.1.768-.299 1.1a3.4 3.4 0 01-.77.883 3.656 3.656 0 01-1.042.599c-.356.138-.733.21-1.114.214a2.102 2.102 0 01-.87-.214.968.968 0 01-.585-.67.381.381 0 01.284-.115c.15.022.292.081.414.172.212.122.454.182.699.172a1.821 1.821 0 001.298-.569 1.746 1.746 0 00.585-1.284 1.54 1.54 0 00-.243-.842 15.267 15.267 0 00-.541-.799 6.424 6.424 0 01-.543-.898 2.581 2.581 0 01-.242-1.17 3.737 3.737 0 01.328-1.555c.21-.473.511-.9.885-1.256a4.16 4.16 0 012.867-1.127c.199.022.39.09.557.2a4.666 4.666 0 011.284 1.07c.132.136.217.31.243.498a.437.437 0 01-.078.228zm4.196 4.68c-.181.153-.381.314-.6.485-.22.171-.442.343-.67.514a8.793 8.793 0 01-.569.399c-.324.19-.718.405-1.184.64a2.974 2.974 0 01-1.356.354 1.226 1.226 0 01-.742-.228.998.998 0 01-.313-.856c.013-.424.11-.84.284-1.227.185-.449.405-.882.656-1.298.246-.41.48-.762.7-1.056.218-.294.346-.47.384-.528a1.02 1.02 0 00.284-.629.819.819 0 01.13-.37c.091-.16.201-.308.328-.442.129-.14.278-.26.442-.355a.977.977 0 01.497-.142.877.877 0 01.568.185.504.504 0 01.227.385c-.009.23-.037.46-.085.685-.03.233-.108.456-.228.657a6.231 6.231 0 00-.284.313c-.131.151-.284.319-.457.497a78.42 78.42 0 00-.541.569 6.941 6.941 0 00-.486.555 23.81 23.81 0 00-.842 1.142 1.89 1.89 0 00-.413.942.444.444 0 00.085.243.291.291 0 00.257.127c.334-.023.66-.115.956-.271.39-.181.795-.394 1.214-.64.379-.246.745-.489 1.099-.727.272-.178.533-.374.781-.585a.242.242 0 01.171.086.28.28 0 01.057.257c-.048.063-.17.168-.35.319zm1.141-7.205a1.503 1.503 0 01-.186.256c-.071.08-.147.157-.228.228a.327.327 0 01-.2.1.507.507 0 01-.242-.1 2.207 2.207 0 01-.314-.242 1.915 1.915 0 01-.272-.3.512.512 0 01-.114-.299 1.11 1.11 0 01.271-.639.755.755 0 01.585-.355c.361 0 .561.095.599.284a2.6 2.6 0 01.116.442c.031.146.05.294.056.443a.463.463 0 01-.071.183v-.001z" fill="#00B926"/><path d="M207.315 94.847c-.087.005-.172.02-.256.044a3.78 3.78 0 01-.372.07 13.75 13.75 0 01-1.14 1.64 13.216 13.216 0 01-1.585 1.67 10.41 10.41 0 01-1.812 1.299 3.727 3.727 0 01-1.826.527 2.429 2.429 0 01-1.526-.47 1.664 1.664 0 01-.614-1.413c.015-.433.111-.859.284-1.256.208-.51.466-.997.77-1.455.33-.504.688-.99 1.07-1.456.368-.452.764-.88 1.185-1.284.35-.34.732-.647 1.141-.913a1.84 1.84 0 01.942-.343.287.287 0 01.228.1c.062.073.119.149.171.228.057.086.109.162.157.228a.202.202 0 00.157.1 3.1 3.1 0 00.657-.114c.27-.071.548-.11.827-.114a1.368 1.368 0 01.97.413 1.824 1.824 0 01.426 1.356v.171c.057.153.109.3.157.443a.76.76 0 00.128.271c.136.173.09.259-.139.258zm-1.454-2.14c-.455.013-.902.12-1.313.314-.497.222-.97.495-1.412.813a11.46 11.46 0 00-1.356 1.142c-.418.406-.809.84-1.17 1.297-.317.398-.59.829-.813 1.285a2.61 2.61 0 00-.3 1.084.708.708 0 00.799.799c.339-.02.667-.124.956-.3a9.523 9.523 0 001.17-.756 14.5 14.5 0 001.227-1.027c.409-.379.78-.75 1.114-1.113.29-.308.556-.637.798-.984.157-.193.261-.425.3-.671a2.938 2.938 0 01-.157-.171.798.798 0 01-.1-.485c-.015-.283.083-.56.271-.771.18-.19.271-.304.271-.343 0-.074-.096-.112-.285-.112zm12.57 1.627c-.139.441-.301.875-.485 1.3-.2.466-.41.946-.629 1.44-.219.495-.428.942-.627 1.342-.199.4-.361.727-.485.984a3.488 3.488 0 00-.186.414c0 .114.048.171.142.171a.863.863 0 00.4-.157.884.884 0 01.426-.156.13.13 0 01.089.023.13.13 0 01.053.076c.018.06.028.123.029.186 0 .057-.085.162-.257.314a7.559 7.559 0 01-.614.485c-.237.171-.47.323-.7.457a1.194 1.194 0 01-.513.2c-.115 0-.276-.124-.485-.372a1.247 1.247 0 01-.314-.827c.023-.33.1-.652.228-.956.153-.409.339-.851.557-1.327.219-.476.455-.966.711-1.47.258-.504.497-.975.714-1.412.218-.438.404-.818.556-1.141.113-.204.191-.426.228-.656a.351.351 0 00-.101-.298.348.348 0 00-.298-.101 3.169 3.169 0 00-1.155.27c-.496.204-.978.442-1.442.71-.514.296-1.047.634-1.598 1.013-.551.38-1.093.77-1.627 1.17-.571.42-1.108.834-1.612 1.242-.504.408-.956.77-1.356 1.084-.4.314-.719.57-.956.77-.12.112-.248.212-.385.3a.585.585 0 01-.213-.085 3.773 3.773 0 01-.343-.213 2.366 2.366 0 01-.328-.271.396.396 0 01-.142-.257c.055-.188.147-.363.271-.514.182-.266.414-.585.7-.956a53.998 53.998 0 011.912-2.341c.305-.352.575-.639.813-.87.238-.23.404-.342.497-.342a.505.505 0 01.399.213.64.64 0 01.171.385.886.886 0 01-.142.284 32.82 32.82 0 01-.385.6l-.542.827c-.2.305-.405.61-.614.914a56.71 56.71 0 011.84-1.427 30.278 30.278 0 012.227-1.513 19.17 19.17 0 012.283-1.212 5.103 5.103 0 012.04-.498c.345.007.68.122.957.328a1.073 1.073 0 01.47.928 3.406 3.406 0 01-.179.942zm22.757-11.129c-.267.21-.486.39-.656.541-.019.04-.077.157-.171.356-.094.198-.172.299-.228.299-.097 0-.229-.11-.4-.328a.986.986 0 01-.256-.47.902.902 0 01.113-.315c.076-.152.167-.328.272-.528.106-.202.197-.412.272-.628a1.89 1.89 0 00.113-.613 1.153 1.153 0 00-.085-.457c-.057-.133-.19-.2-.4-.2a1.587 1.587 0 00-1.013.614 12 12 0 00-1.141 1.412 20.807 20.807 0 00-1.013 1.599 29.77 29.77 0 00-.629 1.14c-.589 1.142-1.15 2.25-1.683 3.325a136.692 136.692 0 01-1.712 3.324c.258.003.515.022.77.057a24.104 24.104 0 011.599.27c.228.046.4.081.513.1a.404.404 0 00.172.03c.095 0 .142.037.142.114a.382.382 0 01-.129.27.29.29 0 01-.271.1l-3.139-.314c-.895 1.694-1.803 3.402-2.725 5.124-.923 1.722-1.87 3.4-2.842 5.037a32.79 32.79 0 01-.955 1.469 19.21 19.21 0 01-1.356 1.755c-.463.54-.98 1.033-1.542 1.469-.43.37-.972.586-1.54.614a1.268 1.268 0 01-.756-.213 1.927 1.927 0 01-.498-.528 1.97 1.97 0 01-.27-.711 4.42 4.42 0 01-.071-.77v-.343c.027-.282.089-.56.185-.827.124-.399.272-.813.444-1.241a7.24 7.24 0 01.555-1.128c.2-.324.395-.485.586-.485.113 0 .19.086.228.257a8.903 8.903 0 00-.884 1.84 5.99 5.99 0 00-.373 2.013c.002.157.012.314.03.47.017.17.055.337.114.497.055.151.143.287.257.4a.622.622 0 00.457.171c.304 0 .689-.247 1.155-.742a15.187 15.187 0 001.499-1.927 39.682 39.682 0 001.64-2.668 121.82 121.82 0 001.641-2.996 80.82 80.82 0 001.084-2.083c.344-.685.653-1.313.928-1.883l.727-1.498c.209-.43.361-.75.456-.957a7.281 7.281 0 00-.756.044c-.276.028-.56.066-.852.115a24.8 24.8 0 00-.857.156 8.184 8.184 0 00-.699.171.234.234 0 01-.243-.1.434.434 0 01-.1-.27.263.263 0 01.128-.23.78.78 0 01.272-.114c.228-.056.489-.118.781-.185a17.714 17.714 0 011.869-.328c.324-.037.618-.066.885-.085.171-.343.37-.757.599-1.242a44.78 44.78 0 01.799-1.598c.305-.58.633-1.198.984-1.854a43.95 43.95 0 011.129-1.983c.419-.685.847-1.346 1.285-1.983a14.19 14.19 0 011.341-1.684c.403-.44.858-.827 1.355-1.156a2.456 2.456 0 011.327-.426.807.807 0 01.64.284c.167.202.293.434.37.685.086.268.139.546.157.828a4.68 4.68 0 010 .71c.132-.076.26-.147.386-.213a3.49 3.49 0 01.414-.186.373.373 0 01.313.485 1.438 1.438 0 00-.741.345zm1.284 11.642c-.087.005-.173.02-.256.044a3.78 3.78 0 01-.372.07c-.34.574-.722 1.123-1.141 1.64a13.11 13.11 0 01-1.584 1.67 10.54 10.54 0 01-1.812 1.299 3.728 3.728 0 01-1.827.527 2.43 2.43 0 01-1.526-.47 1.675 1.675 0 01-.614-1.413c.015-.433.111-.859.284-1.256a8.44 8.44 0 01.771-1.455c.33-.504.688-.99 1.07-1.456.368-.451.764-.88 1.184-1.284.35-.34.732-.647 1.141-.913a1.85 1.85 0 01.942-.343.287.287 0 01.228.1c.062.073.119.149.171.228.057.086.11.162.157.228a.195.195 0 00.067.07.196.196 0 00.091.03 3.09 3.09 0 00.656-.114c.27-.071.548-.11.827-.114a1.368 1.368 0 01.97.413 1.824 1.824 0 01.426 1.356v.171c.057.153.11.3.157.443.025.098.068.19.128.271.137.173.09.258-.138.258zm-1.456-2.14c-.454.013-.901.12-1.312.314a8.048 8.048 0 00-1.413.813c-.48.345-.934.727-1.355 1.142-.419.406-.809.84-1.17 1.297-.318.398-.59.829-.813 1.285a2.588 2.588 0 00-.3 1.084.694.694 0 00.2.6.7.7 0 00.598.199 2.1 2.1 0 00.956-.3 9.39 9.39 0 001.169-.756c.428-.32.838-.662 1.227-1.027.41-.379.781-.75 1.114-1.113.29-.308.557-.637.799-.984a1.42 1.42 0 00.299-.671 3.348 3.348 0 01-.157-.171.798.798 0 01-.1-.485 1.07 1.07 0 01.272-.771c.179-.19.271-.304.271-.343.001-.074-.095-.112-.285-.112zm9.788 4.58a16.653 16.653 0 01-1.684 1.584c-.521.449-1.085.846-1.684 1.184a3.393 3.393 0 01-1.653.498 1.376 1.376 0 01-.881-.329 1.197 1.197 0 01-.405-.984 2.41 2.41 0 01.461-1.256 19.34 19.34 0 011.013-1.412c.367-.468.708-.896 1.023-1.285.238-.238.402-.54.47-.87 0-.133-.152-.2-.457-.2a6.985 6.985 0 00-.84.056c-.341.04-.685.059-1.028.057a1.797 1.797 0 01-1.014-.265.855.855 0 01-.4-.762c.04-.317.163-.617.356-.871a7.55 7.55 0 011.93-2.012 1.833 1.833 0 011.022-.4c.59 0 .884.162.885.486a1.609 1.609 0 01-.3.599 6.91 6.91 0 01-.756.942c-.266.305-.503.58-.71.827a1.72 1.72 0 00-.313.427c0 .094.109.151.327.17.218.02.49.03.813.03a2.53 2.53 0 011.342.329 1.186 1.186 0 01.542 1.103 2.051 2.051 0 01-.47 1.09c-.315.44-.657.879-1.028 1.319-.37.44-.713.846-1.028 1.218-.233.22-.396.505-.47.817 0 .267.114.401.342.401a2.72 2.72 0 001.043-.343 8.644 8.644 0 001.526-.999c.284-.228.575-.48.871-.755l.828-.771c.257-.237.475-.447.656-.627l.355-.356c.095 0 .139.063.129.186a.733.733 0 01-.1.328c-.222.295-.46.578-.713.846zm26.71-13.169a32.694 32.694 0 01-2.557 3.04 82.9 82.9 0 01-3.567 3.58 113.575 113.575 0 01-4.037 3.653 19.283 19.283 0 00-.728 2.868c-.16.92-.242 1.85-.243 2.783-.02.761.072 1.52.272 2.255.18.589.46.883.842.884a.997.997 0 00.442-.071c.095-.055.186-.117.271-.186a.154.154 0 01.056-.01.148.148 0 01.055.013c.017.008.033.02.046.034a.136.136 0 01.029.049.276.276 0 01-.014.228 1.64 1.64 0 01-.486.328 1.452 1.452 0 01-.599.128 1.642 1.642 0 01-1.441-1.042 6.602 6.602 0 01-.556-3.04c.001-.63.039-1.258.114-1.883.08-.671.194-1.338.343-1.997a98.226 98.226 0 01-2.598 2.083 43.03 43.03 0 01-2.296 1.67 18.1 18.1 0 01-1.827 1.098 2.982 2.982 0 01-1.184.399.586.586 0 01-.414-.228 1.165 1.165 0 01-.213-.799 4.79 4.79 0 01.37-1.698c.272-.685.606-1.344.999-1.968.429-.69.901-1.352 1.413-1.983a15.698 15.698 0 011.612-1.727 9.847 9.847 0 011.626-1.226c.426-.28.918-.443 1.427-.471a1.63 1.63 0 011.085.385 1.298 1.298 0 01.457 1.042c0 .19-.058.3-.172.328-.102.027-.208.04-.314.042a.852.852 0 01-.271-.042.159.159 0 01-.128-.157c-.001-.1-.01-.2-.028-.3-.021-.103-.142-.156-.372-.156a1.864 1.864 0 00-.957.457 14.78 14.78 0 00-1.355 1.17 27.225 27.225 0 00-2.911 3.31 14.654 14.654 0 00-1.027 1.584c-.219.34-.356.726-.4 1.127 0 .171.048.257.142.257a2.532 2.532 0 001.042-.426 22.64 22.64 0 001.741-1.156 56.042 56.042 0 002.254-1.726 84.452 84.452 0 002.583-2.169 24.502 24.502 0 011.127-3.324 32.4 32.4 0 011.554-3.211 25.91 25.91 0 011.855-2.881 17.245 17.245 0 012.055-2.326 10.007 10.007 0 012.14-1.555 4.573 4.573 0 012.14-.569c1.046 0 1.569.505 1.569 1.513a4.127 4.127 0 01-.966 2.019zm.057-2.24a.797.797 0 00-.485-.128 4.11 4.11 0 00-2.369.942 13.684 13.684 0 00-2.54 2.511 27.688 27.688 0 00-2.397 3.567 28.18 28.18 0 00-1.941 4.137 128.398 128.398 0 003.596-3.267 76.255 76.255 0 003.153-3.14 33.78 33.78 0 002.254-2.61 3.43 3.43 0 00.871-1.741.276.276 0 00-.142-.271z" fill="#00B926"/><path d="M278.483 95.604a24.602 24.602 0 01-2.054 2.011c-.439.382-.886.753-1.341 1.114-.437.347-.894.666-1.37.956-.43.263-.884.483-1.356.657a3.776 3.776 0 01-1.27.242 2.37 2.37 0 01-1.684-.614 2.321 2.321 0 01-.656-1.784 5.826 5.826 0 01.656-2.628c.42-.849.947-1.64 1.569-2.354a10.28 10.28 0 011.841-1.684 2.923 2.923 0 011.498-.64.915.915 0 01.671.272c.161.165.338.313.528.442.172.115.38.238.628.37a.69.69 0 01.37.657 1.515 1.515 0 01-.627 1.07 9.67 9.67 0 01-1.498 1.07 14.88 14.88 0 01-1.826.913 12.49 12.49 0 01-1.613.568 8.03 8.03 0 00-.513 1.2 3.516 3.516 0 00-.201 1.112 1.37 1.37 0 00.272.899.891.891 0 00.727.328 3.015 3.015 0 001.013-.2 6.69 6.69 0 001.157-.556c.417-.25.822-.522 1.211-.814a22.31 22.31 0 001.214-.97 31.842 31.842 0 002.069-1.968 18.12 18.12 0 001.44-1.655.312.312 0 01.329.242.57.57 0 01-.071.47c-.228.27-.599.694-1.113 1.274zm-3.153-3.154a.826.826 0 00-.585-.142 1.33 1.33 0 00-.628.213 5.162 5.162 0 00-.781.569c-.297.258-.574.54-.828.841-.278.329-.539.672-.781 1.028a5.79 5.79 0 001.199-.414c.417-.188.822-.401 1.212-.64.328-.197.642-.417.942-.656.257-.209.386-.361.386-.457a.499.499 0 00-.136-.342z" fill="#00B926"/><path d="M288.087 94.334c-.139.441-.301.875-.485 1.3a155 155 0 01-.628 1.44 32.07 32.07 0 01-.628 1.342c-.2.4-.361.727-.485.984-.07.134-.132.272-.185.414 0 .114.047.171.142.171a.864.864 0 00.399-.157.884.884 0 01.426-.156.133.133 0 01.142.1.68.68 0 01.029.185c0 .057-.085.162-.257.314a7.72 7.72 0 01-.613.485c-.237.171-.47.323-.7.457a1.193 1.193 0 01-.514.2c-.114 0-.275-.124-.484-.372a1.243 1.243 0 01-.315-.827c.023-.33.1-.652.228-.956.153-.409.339-.851.557-1.327.218-.476.455-.966.71-1.47a118.218 118.218 0 001.267-2.553 1.99 1.99 0 00.228-.656.351.351 0 00-.101-.298.348.348 0 00-.298-.101c-.398.016-.79.108-1.155.27-.496.204-.978.442-1.442.71a24.24 24.24 0 00-1.599 1.013c-.552.38-1.094.77-1.626 1.17-.568.42-1.105.834-1.611 1.242-.507.408-.958.77-1.356 1.084-.4.314-.719.57-.957.77a2.744 2.744 0 01-.385.3.6.6 0 01-.213-.085 3.671 3.671 0 01-.342-.213 2.366 2.366 0 01-.328-.271.392.392 0 01-.142-.257c.054-.188.147-.363.271-.514.181-.267.414-.585.699-.956a57.432 57.432 0 011.913-2.34c.305-.353.575-.643.813-.87.236-.23.402-.344.497-.343a.505.505 0 01.399.213.64.64 0 01.171.385.87.87 0 01-.142.284c-.094.153-.223.352-.384.6l-.542.827c-.2.305-.405.61-.614.914a56.856 56.856 0 011.841-1.427 30.259 30.259 0 012.226-1.513c.733-.455 1.496-.86 2.283-1.212a5.103 5.103 0 012.039-.498c.346.007.68.122.957.328a1.064 1.064 0 01.471.928 3.44 3.44 0 01-.177.942zm12.127-10.814c-.142.153-.29.304-.442.457-.077.094-.29.346-.639.755-.35.41-.787.938-1.313 1.585a113.663 113.663 0 00-3.667 4.793 52.247 52.247 0 011.54-.03h.771a.783.783 0 01.399.101c.115.068.171.139.171.213 0 .114-.094.214-.284.3-.206.09-.42.161-.639.213a6.576 6.576 0 01-.711.128 5.161 5.161 0 01-.47.043.577.577 0 01-.243-.029c-.029-.018-.043-.067-.043-.142a.49.49 0 01.014-.114.442.442 0 00.013-.138.066.066 0 00-.012-.02.052.052 0 00-.043-.014h-.8a88.336 88.336 0 00-1.611 2.183 36.193 36.193 0 00-1.613 2.455 21.461 21.461 0 00-1.255 2.41 5.232 5.232 0 00-.514 2.055c-.02.338.081.672.285.942a.858.858 0 00.684.343c.273-.001.543-.049.799-.142.259-.092.512-.202.756-.328a4.9 4.9 0 00.627-.385c.181-.133.319-.239.415-.314a.375.375 0 01.171.172.238.238 0 01.028.114.24.24 0 01-.028.114c-.095.075-.237.185-.426.328-.211.155-.43.297-.657.426-.263.15-.54.274-.827.371a2.792 2.792 0 01-.914.157 1.49 1.49 0 01-1.17-.513 2.078 2.078 0 01-.456-1.427 7.51 7.51 0 01.372-2.24c.255-.81.565-1.602.927-2.369.369-.787.779-1.554 1.227-2.298.446-.742.879-1.426 1.298-2.054-.381 0-.67-.005-.87-.014a9.801 9.801 0 00-.443-.015h-.284c-.133 0-.267.01-.399.029-.134.02-.2-.019-.2-.115a.255.255 0 01.142-.228.599.599 0 01.313-.086h.103c.057 0 .147-.004.271-.014.125-.01.318-.018.586-.028.267-.01.626-.014 1.084-.014.087-.105.168-.214.242-.329.065-.103.137-.203.213-.299.267-.4.604-.88 1.013-1.442a90.52 90.52 0 011.313-1.754c.466-.61.932-1.213 1.398-1.812a53.357 53.357 0 012.268-2.74c.267-.295.438-.443.515-.442.12.004.239.023.355.057.137.036.27.083.399.142.12.054.23.126.328.213a.374.374 0 01.142.271.724.724 0 01-.209.518z" fill="#00B926"/><path d="M298.931 97.501c-.182.153-.381.314-.6.485-.22.171-.442.343-.67.514a9.105 9.105 0 01-.568.399c-.324.19-.718.403-1.184.64a2.978 2.978 0 01-1.357.354 1.225 1.225 0 01-.741-.228.998.998 0 01-.313-.856c.013-.424.11-.84.284-1.227.185-.449.404-.883.656-1.298.246-.41.479-.762.699-1.056.219-.294.347-.47.385-.528a1.02 1.02 0 00.284-.629.82.82 0 01.13-.37c.091-.16.201-.308.328-.442.129-.14.278-.26.442-.355a.976.976 0 01.497-.142.874.874 0 01.568.185.514.514 0 01.228.385c-.009.23-.037.46-.085.685a1.725 1.725 0 01-.228.657 6.231 6.231 0 00-.284.313 13.48 13.48 0 01-.456.497l-.543.569a7.19 7.19 0 00-.485.555 23.81 23.81 0 00-.842 1.142c-.223.27-.366.595-.413.942a.436.436 0 00.085.243.289.289 0 00.256.127 2.41 2.41 0 00.957-.271c.39-.181.794-.394 1.213-.64.379-.246.745-.489 1.099-.727.272-.178.533-.374.781-.585a.246.246 0 01.171.086.28.28 0 01.057.257 3.37 3.37 0 01-.351.319zm1.141-7.205a1.487 1.487 0 01-.186.256 2.53 2.53 0 01-.228.228.322.322 0 01-.2.1.504.504 0 01-.242-.1 2.207 2.207 0 01-.585-.542.506.506 0 01-.115-.299c.02-.236.115-.46.272-.639a.752.752 0 01.584-.355c.361 0 .561.095.6.284.051.144.089.292.114.442.032.146.051.294.058.443a.482.482 0 01-.072.183v-.001z" fill="#00B926"/><path d="M306.092 92.821a.234.234 0 01-.213.115.22.22 0 01-.228-.143 1.771 1.771 0 00-.171-.313 1.069 1.069 0 00-.356-.314 1.548 1.548 0 00-.756-.142 2.383 2.383 0 00-1.028.228 3.171 3.171 0 00-.852.585 2.645 2.645 0 00-.585.827 2.355 2.355 0 00-.213.985c-.002.315.067.627.2.913.133.284.284.568.443.856.16.289.309.569.442.853a2.137 2.137 0 01-.108 2.014 3.38 3.38 0 01-.77.884 3.683 3.683 0 01-1.042.6 3.184 3.184 0 01-1.113.213 2.125 2.125 0 01-.871-.213.97.97 0 01-.584-.671.393.393 0 01.284-.114c.15.021.292.08.413.171.212.122.455.182.7.172a1.815 1.815 0 001.298-.569 1.763 1.763 0 00.586-1.284 1.558 1.558 0 00-.243-.842 15.96 15.96 0 00-.541-.799 6.324 6.324 0 01-.543-.898 2.595 2.595 0 01-.243-1.17 3.752 3.752 0 01.328-1.555c.21-.473.511-.9.885-1.256a4.16 4.16 0 012.867-1.127c.199.022.389.09.556.2.248.14.482.302.699.485.214.175.41.371.586.585.132.136.217.31.243.498a.435.435 0 01-.07.226z" fill="#00B926"/><path d="M316.765 83.52c-.142.153-.29.304-.442.457-.077.094-.29.346-.639.755-.35.41-.787.938-1.312 1.585a113.663 113.663 0 00-3.668 4.793 52.367 52.367 0 011.542-.03h.77a.78.78 0 01.4.101c.115.068.171.139.171.213 0 .114-.095.214-.284.3-.207.09-.421.161-.64.213a6.462 6.462 0 01-.71.128 5.161 5.161 0 01-.47.043.573.573 0 01-.243-.029c-.029-.018-.044-.067-.044-.142 0-.039.005-.077.015-.114a.442.442 0 00.013-.138.051.051 0 00-.012-.02.052.052 0 00-.043-.014h-.799a88.204 88.204 0 00-1.612 2.183 35.448 35.448 0 00-1.613 2.455 21.832 21.832 0 00-1.256 2.41 5.232 5.232 0 00-.513 2.055c-.021.338.08.672.284.942a.862.862 0 00.685.343c.272-.001.543-.049.799-.142.259-.092.512-.202.756-.328a4.9 4.9 0 00.627-.385c.181-.133.32-.239.415-.314a.373.373 0 01.17.172.238.238 0 010 .228c-.094.075-.236.185-.426.328a6.57 6.57 0 01-.656.426 4.76 4.76 0 01-.828.371 2.781 2.781 0 01-.913.157 1.48 1.48 0 01-1.17-.513 2.072 2.072 0 01-.457-1.427 7.514 7.514 0 01.371-2.24c.255-.81.563-1.601.924-2.369.369-.787.779-1.554 1.227-2.298a53.13 53.13 0 011.298-2.054c-.381 0-.67-.005-.871-.014-.2-.01-.347-.015-.442-.015h-.284c-.134 0-.267.01-.4.029-.133.02-.2-.019-.2-.115a.26.26 0 01.142-.228.601.601 0 01.313-.086h.116c.056 0 .147-.004.27-.014.124-.01.319-.018.585-.028.267-.01.628-.014 1.085-.014a3.09 3.09 0 00.242-.329c.066-.103.137-.203.214-.299.266-.4.604-.88 1.012-1.442.409-.56.847-1.146 1.313-1.754.466-.61.932-1.213 1.398-1.812.467-.6.895-1.132 1.284-1.599a40.2 40.2 0 01.985-1.141c.267-.295.438-.443.514-.442.12.004.239.023.355.057.137.036.271.083.4.142.119.054.23.126.328.213a.364.364 0 01.142.271.731.731 0 01-.218.518z" fill="#00B926"/><path d="M319.262 97.287a16.526 16.526 0 01-1.683 1.584c-.522.449-1.085.846-1.684 1.184a3.393 3.393 0 01-1.653.498 1.37 1.37 0 01-.881-.329 1.197 1.197 0 01-.405-.984 2.39 2.39 0 01.461-1.256c.307-.474.645-.944 1.013-1.412.367-.468.708-.896 1.022-1.285.239-.238.402-.54.471-.87 0-.133-.152-.2-.456-.2a7.001 7.001 0 00-.841.056c-.341.04-.685.059-1.028.057a1.796 1.796 0 01-1.014-.265.855.855 0 01-.399-.762c.04-.317.162-.617.355-.871a7.516 7.516 0 011.93-2.012 1.833 1.833 0 011.023-.4c.589 0 .884.162.884.486a1.592 1.592 0 01-.299.599c-.225.335-.478.65-.757.942-.266.305-.502.58-.71.827-.126.126-.231.27-.313.427 0 .095.11.152.328.17.218.02.49.03.813.03.469-.017.933.097 1.341.329a1.196 1.196 0 01.543 1.103c-.046.402-.21.781-.47 1.09a21.76 21.76 0 01-1.028 1.319l-1.028 1.218c-.234.22-.397.504-.47.817 0 .267.114.401.342.401a2.71 2.71 0 001.042-.343 8.675 8.675 0 001.527-.999c.284-.228.574-.48.87-.755l.828-.771c.257-.237.476-.446.656-.627.181-.18.299-.3.355-.356.096 0 .138.063.129.186a.744.744 0 01-.099.328 9.957 9.957 0 01-.715.846z" fill="#00B926"/><path d="M327.237 95.447a17.851 17.851 0 01-1.241 2.825 2.93 2.93 0 011.055.27.683.683 0 01.426.64c0 .304-.124.456-.372.456a.201.201 0 01-.157-.1 1.79 1.79 0 00-.199-.228 1.126 1.126 0 00-.385-.227 2.57 2.57 0 00-.742-.13 34.8 34.8 0 01-2.796 4.062 54.935 54.935 0 01-3.568 4.074 52.169 52.169 0 01-3.994 3.732 42.578 42.578 0 01-4.11 3.078 23.546 23.546 0 01-3.894 2.094 8.97 8.97 0 01-3.354.77c-.436 0-.86-.15-1.198-.426a1.475 1.475 0 01-.544-1.226 5.507 5.507 0 01.985-2.877 17.886 17.886 0 012.654-3.205 35.946 35.946 0 013.852-3.248 55.382 55.382 0 014.609-3.049 51.082 51.082 0 014.937-2.579 38.327 38.327 0 014.795-1.825c.266-.513.518-1.022.756-1.526s.451-1.004.639-1.498c-.038-.133-.105-.162-.199-.086-.039.038-.176.157-.414.355a42.58 42.58 0 01-.898.728c-.362.284-.752.584-1.171.899a22.19 22.19 0 01-1.241.87c-.41.267-.781.49-1.113.671a1.806 1.806 0 01-.757.272 1.105 1.105 0 01-.77-.356 1.3 1.3 0 01-.371-.983c.056-.364.192-.71.399-1.014.28-.486.584-.958.913-1.412.342-.474.67-.892.984-1.256.314-.361.518-.543.614-.543a.626.626 0 01.426.243.67.67 0 01.228.384c-.08.22-.19.426-.327.615l-.71 1.14c-.255.41-.492.785-.711 1.127a3.185 3.185 0 00-.328.569.77.77 0 00.029.213c.019.066.095.1.228.1a1.45 1.45 0 00.671-.284c.294-.19.623-.418.984-.686.362-.267.724-.543 1.084-.827.361-.285.685-.532.971-.742a21.7 21.7 0 002.454-2.14c.532-.569.846-.853.942-.853.247 0 .371.229.371.685a7.922 7.922 0 01-.442 2.454zm-8.162 5.379a55.3 55.3 0 00-4.651 2.512 49.293 49.293 0 00-4.366 2.954 36.482 36.482 0 00-3.623 3.109 17.731 17.731 0 00-2.482 2.997 5.002 5.002 0 00-.928 2.597c-.005.285.091.562.272.782a.93.93 0 00.756.328 5.19 5.19 0 001.955-.471c.829-.353 1.63-.768 2.397-1.241a33.21 33.21 0 002.597-1.755 52.086 52.086 0 002.557-2.026 92.494 92.494 0 002.312-2.027 39.312 39.312 0 001.847-1.777 41.765 41.765 0 005.879-7.79 34.928 34.928 0 00-4.521 1.808h-.001z" fill="#00B926"/><path d="M35.246 128.563v11.2h-1.168v-10.176H28.67l-.128 3.744c-.053 1.546-.181 2.794-.384 3.744-.192.938-.49 1.642-.896 2.112-.405.458-.944.688-1.616.688a3.85 3.85 0 01-.896-.112l.096-1.056c.182.042.358.064.528.064.47 0 .848-.187 1.136-.56.299-.374.523-.95.672-1.728.15-.79.25-1.83.304-3.12l.16-4.8h7.6zm12.579 0l-5.088 9.424c-.363.672-.79 1.173-1.28 1.504-.48.32-1.008.48-1.584.48-.427 0-.886-.102-1.376-.304l.336-.96c.384.149.736.224 1.056.224.736 0 1.338-.4 1.808-1.2l.32-.544-4.544-8.624h1.264l3.904 7.584 4-7.584h1.184zm9.979 0v11.2h-1.152v-4.64c-1.216.522-2.395.784-3.536.784-1.312 0-2.336-.32-3.072-.96-.726-.64-1.088-1.536-1.088-2.688v-3.696h1.168v3.568c0 .864.272 1.536.816 2.016.544.48 1.306.72 2.288.72 1.12 0 2.261-.267 3.424-.8v-5.504h1.152zm17.527 0v11.2H61.603v-11.2h1.168v10.176h5.12v-10.176h1.168v10.176h5.104v-10.176h1.168zm3.772 0h1.168v9.28l7.168-9.28h1.072v11.2h-1.168v-9.264l-7.168 9.264h-1.072v-11.2zm21.107 10.176v1.024h-7.92v-11.2h7.68v1.024h-6.496v3.984h5.792v1.008h-5.792v4.16h6.736zm11.711 1.12c-1.11 0-2.112-.246-3.008-.736a5.478 5.478 0 01-2.096-2.032c-.502-.875-.752-1.851-.752-2.928 0-1.078.25-2.048.752-2.912a5.408 5.408 0 012.112-2.048c.896-.491 1.898-.736 3.008-.736.832 0 1.6.138 2.304.416a4.767 4.767 0 011.792 1.216l-.752.752c-.875-.886-1.979-1.328-3.312-1.328-.886 0-1.691.202-2.416.608a4.494 4.494 0 00-1.712 1.664c-.406.704-.608 1.493-.608 2.368 0 .874.202 1.664.608 2.368a4.501 4.501 0 001.712 1.664c.725.405 1.53.608 2.416.608 1.344 0 2.448-.448 3.312-1.344l.752.752a4.924 4.924 0 01-1.808 1.232 6.238 6.238 0 01-2.304.416zm13.744-10.272h-3.936v10.176h-1.168v-10.176h-3.936v-1.024h9.04v1.024zm6.834 10.272c-1.109 0-2.117-.246-3.024-.736a5.57 5.57 0 01-2.112-2.048c-.501-.864-.752-1.835-.752-2.912 0-1.078.251-2.048.752-2.912a5.445 5.445 0 012.112-2.032c.907-.502 1.915-.752 3.024-.752 1.11 0 2.107.245 2.992.736.896.49 1.6 1.173 2.112 2.048.512.864.768 1.834.768 2.912 0 1.077-.256 2.053-.768 2.928a5.452 5.452 0 01-2.112 2.032c-.885.49-1.882.736-2.992.736zm0-1.056c.886 0 1.686-.198 2.4-.592a4.416 4.416 0 001.68-1.664c.406-.715.608-1.51.608-2.384 0-.875-.202-1.664-.608-2.368a4.26 4.26 0 00-1.68-1.664c-.714-.406-1.514-.608-2.4-.608-.885 0-1.69.202-2.416.608a4.38 4.38 0 00-1.696 1.664c-.405.704-.608 1.493-.608 2.368 0 .874.203 1.669.608 2.384a4.544 4.544 0 001.696 1.664c.726.394 1.531.592 2.416.592zm20.33-10.24v11.2h-1.136v-8.96l-4.4 7.536h-.56l-4.4-7.488v8.912h-1.136v-11.2h.976l4.864 8.304 4.816-8.304h.976zm10.942 8.208h-6.24l-1.344 2.992h-1.232l5.12-11.2h1.168l5.12 11.2h-1.248l-1.344-2.992zm-.432-.96l-2.688-6.016-2.688 6.016h5.376zm11.936-6.224h-3.936v10.176h-1.168v-10.176h-3.936v-1.024h9.04v1.024zm6.834 10.272c-1.11 0-2.118-.246-3.024-.736a5.57 5.57 0 01-2.112-2.048c-.502-.864-.752-1.835-.752-2.912 0-1.078.25-2.048.752-2.912a5.445 5.445 0 012.112-2.032c.906-.502 1.914-.752 3.024-.752 1.109 0 2.106.245 2.992.736.896.49 1.6 1.173 2.112 2.048.512.864.768 1.834.768 2.912 0 1.077-.256 2.053-.768 2.928a5.452 5.452 0 01-2.112 2.032c-.886.49-1.883.736-2.992.736zm0-1.056c.885 0 1.685-.198 2.4-.592a4.43 4.43 0 001.68-1.664c.405-.715.608-1.51.608-2.384 0-.875-.203-1.664-.608-2.368a4.273 4.273 0 00-1.68-1.664c-.715-.406-1.515-.608-2.4-.608-.886 0-1.691.202-2.416.608a4.373 4.373 0 00-1.696 1.664c-.406.704-.608 1.493-.608 2.368 0 .874.202 1.669.608 2.384a4.537 4.537 0 001.696 1.664c.725.394 1.53.592 2.416.592zm17.169-10.24v11.2h-1.168v-10.176h-5.408l-.128 3.744c-.054 1.546-.182 2.794-.384 3.744-.192.938-.491 1.642-.896 2.112-.406.458-.944.688-1.616.688-.288 0-.587-.038-.896-.112l.096-1.056c.181.042.357.064.528.064.469 0 .848-.187 1.136-.56.298-.374.522-.95.672-1.728.149-.79.25-1.83.304-3.12l.16-4.8h7.6zm8.69 11.296c-1.109 0-2.117-.246-3.024-.736a5.57 5.57 0 01-2.112-2.048c-.501-.864-.752-1.835-.752-2.912 0-1.078.251-2.048.752-2.912a5.445 5.445 0 012.112-2.032c.907-.502 1.915-.752 3.024-.752s2.107.245 2.992.736c.896.49 1.6 1.173 2.112 2.048.512.864.768 1.834.768 2.912 0 1.077-.256 2.053-.768 2.928a5.452 5.452 0 01-2.112 2.032c-.885.49-1.883.736-2.992.736zm0-1.056c.885 0 1.685-.198 2.4-.592a4.416 4.416 0 001.68-1.664c.405-.715.608-1.51.608-2.384 0-.875-.203-1.664-.608-2.368a4.26 4.26 0 00-1.68-1.664c-.715-.406-1.515-.608-2.4-.608s-1.691.202-2.416.608a4.373 4.373 0 00-1.696 1.664c-.405.704-.608 1.493-.608 2.368 0 .874.203 1.669.608 2.384a4.537 4.537 0 001.696 1.664c.725.394 1.531.592 2.416.592zm15.817-9.216h-5.968l.016 10.176h-1.168v-11.2h7.12v1.024zm2.037-1.024h1.168v9.28l7.168-9.28h1.072v11.2h-1.168v-9.264l-7.168 9.264h-1.072v-11.2zm20.779 0v11.2h-1.152v-4.64c-1.216.522-2.395.784-3.536.784-1.312 0-2.336-.32-3.072-.96-.726-.64-1.088-1.536-1.088-2.688v-3.696h1.168v3.568c0 .864.272 1.536.816 2.016.544.48 1.306.72 2.288.72 1.12 0 2.261-.267 3.424-.8v-5.504h1.152zm11.719 10.176v1.024h-7.92v-11.2h7.68v1.024h-6.496v3.984h5.792v1.008h-5.792v4.16h6.736zm7.46 1.12c-1.109 0-2.112-.246-3.008-.736a5.485 5.485 0 01-2.096-2.032c-.501-.875-.752-1.851-.752-2.928 0-1.078.251-2.048.752-2.912a5.408 5.408 0 012.112-2.048c.896-.491 1.899-.736 3.008-.736.832 0 1.6.138 2.304.416a4.767 4.767 0 011.792 1.216l-.752.752c-.875-.886-1.979-1.328-3.312-1.328-.885 0-1.691.202-2.416.608a4.501 4.501 0 00-1.712 1.664c-.405.704-.608 1.493-.608 2.368 0 .874.203 1.664.608 2.368a4.509 4.509 0 001.712 1.664c.725.405 1.531.608 2.416.608 1.344 0 2.448-.448 3.312-1.344l.752.752a4.916 4.916 0 01-1.808 1.232 6.238 6.238 0 01-2.304.416zm10.269-5.232h-2.56v5.136h-1.152v-11.2h1.152v5.024h2.56l3.792-5.024h1.28l-4.16 5.44 4.4 5.76h-1.36l-3.952-5.136zm7.132-6.064h1.168v9.28l7.168-9.28h1.072v11.2h-1.168v-9.264l-7.168 9.264h-1.072v-11.2zm21.108 10.176v1.024h-7.92v-11.2h7.68v1.024h-6.496v3.984h5.792v1.008h-5.792v4.16h6.736zM77.025 152.563h8.192v1.008h-7.024v3.664h3.664c1.322 0 2.325.272 3.008.816.693.544 1.04 1.333 1.04 2.368 0 1.077-.374 1.904-1.12 2.48-.736.576-1.798.864-3.184.864h-4.576v-11.2zm4.56 10.256c1.034 0 1.813-.198 2.336-.592.533-.395.8-.982.8-1.76 0-.768-.262-1.339-.784-1.712-.512-.384-1.296-.576-2.352-.576h-3.392v4.64h3.392zm11.257-10.256c1.43 0 2.55.341 3.36 1.024.81.682 1.216 1.621 1.216 2.816 0 1.194-.406 2.133-1.216 2.816-.81.672-1.93 1.008-3.36 1.008h-3.008v3.536H88.65v-11.2h4.192zm-.032 6.624c1.11 0 1.957-.24 2.544-.72.586-.491.88-1.179.88-2.064 0-.907-.294-1.6-.88-2.08-.587-.491-1.435-.736-2.544-.736h-2.976v5.6h2.976zm14.963 3.552v1.024h-7.92v-11.2h7.68v1.024h-6.496v3.984h5.792v1.008h-5.792v4.16h6.736zm11.987-10.176v11.2h-1.168v-5.168h-7.008v5.168H110.4v-11.2h1.184v4.992h7.008v-4.992h1.168zm13.897 10.176v3.536h-1.104v-2.512h-9.776l-.016 2.512h-1.104l.016-3.536h.56c.736-.043 1.248-.624 1.536-1.744.288-1.131.464-2.731.528-4.8l.128-3.632h7.552v10.176h1.68zm-8.304-6.432c-.054 1.706-.187 3.114-.4 4.224-.203 1.098-.55 1.834-1.04 2.208h6.896v-9.152h-5.36l-.096 2.72zm15.407.256c1.322 0 2.33.298 3.024.896.704.597 1.056 1.472 1.056 2.624 0 1.205-.374 2.122-1.12 2.752-.736.618-1.803.928-3.2.928h-4.448v-11.2h1.168v4h3.52zm-.272 6.256c1.034 0 1.818-.23 2.352-.688.544-.459.816-1.136.816-2.032 0-1.718-1.056-2.576-3.168-2.576h-3.248v5.296h3.248zm6.288-10.256h1.168v11.2h-1.168v-11.2zm9.124 0h1.168v9.28l7.168-9.28h1.072v11.2h-1.168v-9.264l-7.168 9.264H155.9v-11.2zm18.051 5.344c.736.181 1.312.512 1.728.992.427.48.64 1.056.64 1.728 0 .65-.202 1.221-.608 1.712-.405.49-.944.869-1.616 1.136a6.105 6.105 0 01-2.192.384 7.158 7.158 0 01-2.208-.352 6.104 6.104 0 01-1.936-1.088l.432-.848a5.35 5.35 0 001.68.96c.63.213 1.264.32 1.904.32.608 0 1.168-.096 1.68-.288.512-.192.918-.464 1.216-.816.31-.363.464-.79.464-1.28 0-.651-.256-1.152-.768-1.504-.512-.352-1.232-.528-2.16-.528h-2.4v-.96h2.336c.79 0 1.403-.166 1.84-.496.448-.342.672-.811.672-1.408 0-.662-.282-1.179-.848-1.552-.565-.384-1.274-.576-2.128-.576-.533 0-1.072.08-1.616.24a5.727 5.727 0 00-1.552.688l-.4-.976a6.904 6.904 0 013.6-.992c.758 0 1.451.122 2.08.368.63.245 1.126.597 1.488 1.056.374.458.56.997.56 1.616 0 .597-.165 1.114-.496 1.552-.33.426-.794.73-1.392.912zm9.496-5.344h1.168v9.28l7.168-9.28h1.072v11.2h-1.168v-9.264l-7.168 9.264h-1.072v-11.2zm20.515 1.024h-3.936v10.176h-1.168v-10.176h-3.936v-1.024h9.04v1.024zm8.684 7.184h-6.24l-1.344 2.992h-1.232l5.12-11.2h1.168l5.12 11.2h-1.248l-1.344-2.992zm-.432-.96l-2.688-6.016-2.688 6.016h5.376zm13.985-7.248v11.2h-1.168v-10.176h-5.408l-.128 3.744c-.053 1.546-.181 2.794-.384 3.744-.192.938-.49 1.642-.896 2.112-.405.458-.944.688-1.616.688-.288 0-.586-.038-.896-.112l.096-1.056c.182.042.358.064.528.064.47 0 .848-.187 1.136-.56.299-.374.523-.95.672-1.728.15-.79.251-1.83.304-3.12l.16-4.8h7.6zm3.779 0h1.168v9.28l7.168-9.28h1.072v11.2h-1.168v-9.264l-7.168 9.264h-1.072v-11.2zm13.187 0h1.168v9.28l7.168-9.28h1.072v11.2h-1.168v-9.264l-7.168 9.264h-1.072v-11.2z" fill="#fff"/></svg>