<svg width="74" height="71" fill="none" xmlns="http://www.w3.org/2000/svg"><path d="M18.656 65.16l-.488.873.012.007.476-.88zM5.984 52.872l-.865.502.005.008.86-.51zm0-34.944l-.86-.51-.005.008.865.502zM18.656 5.736l.48.877.004-.002-.484-.875zm36.096-.096l-.485.875.005.002.48-.877zm12.672 12.288l-.863.505.003.005.86-.51zm0 35.04l.86.51.003-.005-.863-.505zM54.752 65.16l-.48-.877-.005.002.485.875zM51.2 59.688l.483.875.01-.005-.493-.87zm10.08-9.984l.867.499.003-.006-.87-.493zm0-28.512l-.87.493.003.006.867-.499zM51.2 11.208l-.493.87.01.005.483-.875zm-28.896 0l.483.875.005-.002-.488-.873zm-10.176 9.984l-.864-.503-.003.004.867.499zm0 28.512l-.87.493.005.008.004.008.861-.509zm10.176 9.984l-.493.87.007.004.008.004.478-.878zM36.8 68.576c-6.503 0-12.385-1.436-17.668-4.295l-.952 1.758c5.597 3.03 11.81 4.537 18.62 4.537v-2zm-17.656-4.289c-5.225-2.924-9.32-6.896-12.3-11.925l-1.72 1.02c3.164 5.339 7.518 9.559 13.044 12.65l.976-1.745zM6.85 52.37C3.936 47.35 2.472 41.702 2.472 35.4h-2c0 6.626 1.544 12.626 4.647 17.974l1.73-1.004zM2.472 35.4c0-6.302 1.464-11.95 4.377-16.97l-1.73-1.004C2.016 22.775.472 28.774.472 35.4h2zm4.372-16.962c2.98-5.027 7.07-8.965 12.292-11.825l-.96-1.754c-5.53 3.028-9.887 7.218-13.052 12.56l1.72 1.019zM19.14 6.61C24.42 3.691 30.3 2.224 36.8 2.224v-2c-6.813 0-13.03 1.541-18.628 4.637l.968 1.75zM36.8 2.224c6.503 0 12.318 1.437 17.467 4.29l.97-1.749C49.763 1.731 43.609.224 36.8.224v2zm17.472 4.293c5.218 2.858 9.31 6.826 12.289 11.916l1.726-1.01c-3.164-5.406-7.521-9.63-13.055-12.66l-.96 1.754zm12.292 11.92c2.974 5.02 4.468 10.665 4.468 16.963h2c0-6.63-1.578-12.632-4.748-17.982l-1.72 1.02zM71.032 35.4c0 6.298-1.494 11.978-4.471 17.063l1.726 1.01c3.167-5.41 4.745-11.443 4.745-18.073h-2zm-4.468 17.058c-2.98 5.027-7.07 8.965-12.292 11.825l.96 1.754c5.53-3.029 9.887-7.218 13.052-12.56l-1.72-1.019zM54.267 64.285c-5.15 2.854-10.964 4.291-17.467 4.291v2c6.809 0 12.963-1.507 18.437-4.541l-.97-1.75zM36.8 64.24c5.466 0 10.435-1.22 14.883-3.677l-.966-1.75c-4.128 2.28-8.76 3.427-13.917 3.427v2zm14.893-3.682c4.442-2.52 7.931-5.974 10.454-10.355l-1.734-.998c-2.341 4.068-5.572 7.268-9.706 9.613l.986 1.74zm10.457-10.36c2.523-4.449 3.778-9.389 3.778-14.798h-2c0 5.087-1.177 9.683-3.518 13.81l1.74.987zM65.928 35.4c0-5.41-1.255-10.32-3.781-14.707l-1.734.998c2.338 4.06 3.515 8.622 3.515 13.709h2zM62.15 20.699c-2.523-4.448-6.016-7.909-10.467-10.366l-.966 1.75c4.125 2.278 7.352 5.474 9.693 9.602l1.74-.986zm-10.457-10.36C47.243 7.813 42.271 6.56 36.8 6.56v2c5.153 0 9.78 1.178 13.907 3.518l.986-1.74zM36.8 6.56c-5.471 0-10.473 1.254-14.984 3.775l.976 1.746C26.985 9.738 31.647 8.56 36.8 8.56v-2zm-14.98 3.773c-4.448 2.456-7.97 5.914-10.556 10.356l1.728 1.006c2.406-4.134 5.668-7.332 9.795-9.612l-.966-1.75zm-10.559 10.36C8.735 25.08 7.48 29.991 7.48 35.4h2c0-5.087 1.177-9.648 3.515-13.709l-1.734-.998zM7.48 35.4c0 5.41 1.255 10.35 3.778 14.797l1.74-.986C10.657 45.083 9.48 40.487 9.48 35.4h-2zm3.787 14.813c2.585 4.375 6.105 7.827 10.544 10.345l.986-1.74c-4.136-2.346-7.401-5.55-9.808-9.623l-1.722 1.018zm10.56 10.353c4.508 2.454 9.506 3.674 14.973 3.674v-2c-5.157 0-9.823-1.148-14.018-3.43l-.956 1.756z" fill="#F7F7F7"/></svg>