<svg width="792" height="89" fill="none" xmlns="http://www.w3.org/2000/svg"><path d="M57.488 1.8h1v-1h-1v1zm0 67.2v1h1v-1h-1zm-7.008 0h-1v1h1v-1zm0-31.008h1v-1h-1v1zm-42.048 0v-1h-1v1h1zm0 31.008v1h1v-1h-1zm-7.104 0h-1v1h1v-1zm0-67.2v-1h-1v1h1zm7.104 0h1v-1h-1v1zm0 29.952h-1v1h1v-1zm42.048 0v1h1v-1h-1zm0-29.952v-1h-1v1h1zm6.008 0V69h2V1.8h-2zm1 66.2H50.48v2h7.008v-2zm-6.008 1V37.992h-2V69h2zm-1-32.008H8.432v2H50.48v-2zm-43.048 1V69h2V37.992h-2zm1 30.008H1.328v2h7.104v-2zm-6.104 1V1.8h-2V69h2zm-1-66.2h7.104v-2H1.328v2zm6.104-1v29.952h2V1.8h-2zm1 30.952H50.48v-2H8.432v2zm43.048-1V1.8h-2v29.952h2zm-1-28.952h7.008v-2H50.48v2zm60.604 20.312l-.687.727.007.006.68-.733zM116.364 69v1h1v-1h-1zm-6.528 0h-1v1h1v-1zm0-7.872h1V57.44l-1.863 3.183.863.505zm-6.816 6.144l-.44-.898-.007.004.447.894zm-24-1.824l.628-.778-.628.778zm-.384-21.024l-.642-.767-.008.007.65.76zm30.912-3.936v1h1v-1h-1zm-3.648-12.96l-.688.726.01.01.678-.736zm-19.872-1.824l.328.944.01-.003.008-.003-.346-.938zm-7.584 4.32l-.856.517.618 1.023.898-.789-.66-.751zm-3.072-5.088l-.648-.762-.648.55.44.729.856-.517zm9.216-4.992l.306.952.007-.002.008-.003-.321-.947zm18.816 41.568l.532.847.007-.005.006-.004-.545-.838zm6.144-7.68l.927.374.073-.18v-.194h-1zm0-8.256h1v-1h-1v1zm-25.44 16.032l-.611.792.007.005.007.006.597-.803zM95.916 19.12c6.43 0 11.205 1.621 14.481 4.719l1.374-1.454c-3.764-3.559-9.101-5.265-15.855-5.265v2zm14.488 4.725c3.252 3.016 4.96 7.573 4.96 13.859h2c0-6.642-1.813-11.813-5.6-15.325l-1.36 1.466zm4.96 13.859V69h2V37.704h-2zm1 30.296h-6.528v2h6.528v-2zm-5.528 1v-7.872h-2V69h2zm-1.863-8.377c-1.427 2.437-3.543 4.356-6.393 5.75l.879 1.797c3.166-1.55 5.594-3.726 7.24-6.537l-1.726-1.01zm-6.4 5.755c-2.776 1.387-6.135 2.102-10.113 2.102v2c4.214 0 7.894-.757 11.007-2.314l-.894-1.788zM92.46 68.48c-5.476 0-9.711-1.306-12.812-3.81l-1.257 1.556c3.556 2.872 8.28 4.254 14.069 4.254v-2zm-12.812-3.81c-3.084-2.491-4.62-5.753-4.62-9.878h-2c0 4.707 1.792 8.55 5.363 11.434l1.257-1.556zm-4.62-9.878c0-4.016 1.423-7.187 4.257-9.608l-1.299-1.52c-3.31 2.826-4.958 6.568-4.958 11.128h2zm4.25-9.601c2.87-2.402 7.545-3.703 14.238-3.703v-2c-6.876 0-12.12 1.323-15.522 4.17l1.284 1.533zm14.238-3.703h16.032v-2H93.516v2zm17.032-1v-3.072h-2v3.072h2zm0-3.072c0-4.538-1.274-8.14-3.971-10.623l-1.355 1.47c2.167 1.996 3.326 4.988 3.326 9.153h2zm-3.961-10.614c-2.68-2.54-6.517-3.73-11.343-3.73v2c4.518 0 7.784 1.113 9.968 3.182l1.375-1.452zm-11.343-3.73a27.37 27.37 0 00-9.563 1.694l.693 1.876a25.373 25.373 0 018.87-1.57v-2zm-9.545 1.688c-3.052 1.061-5.696 2.563-7.915 4.513l1.32 1.502c2.005-1.762 4.417-3.14 7.252-4.127L85.7 24.76zm-6.4 4.747l-3.071-5.088-1.712 1.034 3.072 5.088 1.712-1.034zm-3.28-3.81c2.449-2.08 5.401-3.684 8.875-4.801l-.612-1.904c-3.694 1.187-6.886 2.911-9.558 5.182l1.295 1.524zm8.89-4.806c3.476-1.18 7.143-1.771 11.007-1.771v-2c-4.072 0-7.957.624-11.65 1.877l.643 1.894zm8.607 44.213c3.993 0 7.481-.9 10.42-2.745l-1.064-1.694c-2.566 1.611-5.67 2.439-9.356 2.439v2zm10.433-2.754c2.94-1.914 5.113-4.644 6.526-8.144l-1.854-.748c-1.275 3.156-3.199 5.546-5.763 7.216l1.091 1.676zm6.599-8.518v-8.256h-2v8.256h2zm-1-9.256h-15.84v2h15.84v-2zm-15.84 0c-4.406 0-7.887.761-10.292 2.435-2.47 1.72-3.668 4.308-3.668 7.589h2c0-2.735.961-4.66 2.811-5.947 1.916-1.334 4.914-2.077 9.149-2.077v-2zM79.748 54.6c0 3.24 1.252 5.874 3.749 7.8l1.222-1.584c-1.984-1.53-2.971-3.567-2.971-6.216h-2zm3.763 7.81c2.474 1.839 5.85 2.694 10.005 2.694v-2c-3.91 0-6.806-.809-8.812-2.299l-1.193 1.606zm120.693-43.906h1v-1h-1v1zm0 50.496v1h1v-1h-1zm-69.696 0h-1v1h1v-1zm0-50.496v-1h-1v1h1zm6.816 0h1v-1h-1v1zm0 44.544h-1v1h1v-1zm24.768 0v1h1v-1h-1zm0-44.544v-1h-1v1h1zm6.817 0h1v-1h-1v1zm0 44.544h-1v1h1v-1zm24.48 0v1h1v-1h-1zm0-44.544v-1h-1v1h1zm5.815 0V69h2V18.504h-2zm1 49.496h-69.696v2h69.696v-2zm-68.696 1V18.504h-2V69h2zm-1-49.496h6.816v-2h-6.816v2zm5.816-1v44.544h2V18.504h-2zm1 45.544h24.768v-2h-24.768v2zm25.768-1V18.504h-2v44.544h2zm-1-43.544h6.817v-2h-6.817v2zm5.817-1v44.544h2V18.504h-2zm1 45.544h24.48v-2h-24.48v2zm25.48-1V18.504h-2v44.544h2zm-1-43.544h6.815v-2h-6.815v2zm26.276-1v-1h-1v1h1zm6.816 0h1v-1h-1v1zm0 40.128h-1v2.746l1.766-2.103-.766-.643zm33.696-40.128v-1h-.466l-.3.357.766.643zm6.048 0h1v-1h-1v1zm0 50.496v1h1v-1h-1zm-6.816 0h-1v1h1v-1zm0-40.128h1V26.12l-1.767 2.11.767.642zM229.809 69v1h.467l.299-.358-.766-.642zm-6.144 0h-1v1h1v-1zm0-49.496h6.816v-2h-6.816v2zm5.816-1v40.128h2V18.504h-2zm1.766 40.771l33.696-40.128-1.532-1.286-33.696 40.128 1.532 1.286zm32.93-39.771h6.048v-2h-6.048v2zm5.048-1V69h2V18.504h-2zm1 49.496h-6.816v2h6.816v-2zm-5.816 1V28.872h-2V69h2zm-1.767-40.77l-33.6 40.128 1.533 1.284 33.6-40.128-1.533-1.284zM229.809 68h-6.144v2h6.144v-2zm-5.144 1V18.504h-2V69h2zm135.53-50.496h1v-1h-1v1zm0 50.496v1h1v-1h-1zm-6.815 0h-1v1h1v-1zm0-44.448h1v-1h-1v1zm-31.681 0v-1h-1v1h1zm0 44.448v1h1v-1h-1zm-6.815 0h-1v1h1v-1zm0-50.496v-1h-1v1h1zm44.311 0V69h2V18.504h-2zm1 49.496h-6.815v2h6.815v-2zm-5.815 1V24.552h-2V69h2zm-1-45.448h-31.681v2h31.681v-2zm-32.681 1V69h2V24.552h-2zm1 43.448h-6.815v2h6.815v-2zm-5.815 1V18.504h-2V69h2zm-1-49.496h45.311v-2h-45.311v2zm97.231 3.608l-.687.727.007.006.68-.733zM417.395 69v1h1v-1h-1zm-6.528 0h-1v1h1v-1zm0-7.872h1V57.44l-1.863 3.183.863.505zm-6.816 6.144l-.44-.898-.007.004.447.894zm-24-1.824l.628-.778-.628.778zm-.384-21.024l-.642-.767-.007.007.649.76zm30.912-3.936v1h1v-1h-1zm-3.648-12.96l-.688.726.011.01.677-.736zm-19.872-1.824l.329.944.009-.003.009-.003-.347-.938zm-7.584 4.32l-.856.517.618 1.023.898-.789-.66-.751zm-3.072-5.088l-.648-.762-.648.55.44.729.856-.517zm9.216-4.992l.306.952.008-.002.007-.003-.321-.947zm18.816 41.568l.532.847.007-.005.007-.004-.546-.838zm6.144-7.68l.927.374.073-.18v-.194h-1zm0-8.256h1v-1h-1v1zm-25.44 16.032l-.611.792.007.005.008.006.596-.803zm11.808-42.488c6.43 0 11.205 1.621 14.481 4.719l1.374-1.454c-3.764-3.559-9.101-5.265-15.855-5.265v2zm14.488 4.725c3.252 3.016 4.96 7.573 4.96 13.859h2c0-6.642-1.812-11.813-5.6-15.325l-1.36 1.466zm4.96 13.859V69h2V37.704h-2zm1 30.296h-6.528v2h6.528v-2zm-5.528 1v-7.872h-2V69h2zm-1.863-8.377c-1.427 2.437-3.543 4.356-6.393 5.75l.88 1.797c3.166-1.55 5.594-3.726 7.239-6.537l-1.726-1.01zm-6.4 5.755c-2.776 1.387-6.135 2.102-10.113 2.102v2c4.214 0 7.895-.757 11.007-2.314l-.894-1.788zm-10.113 2.102c-5.476 0-9.711-1.306-12.812-3.81l-1.256 1.556c3.555 2.872 8.28 4.254 14.068 4.254v-2zm-12.812-3.81c-3.084-2.491-4.62-5.753-4.62-9.878h-2c0 4.707 1.792 8.55 5.364 11.434l1.256-1.556zm-4.62-9.878c0-4.016 1.423-7.187 4.257-9.608l-1.298-1.52c-3.31 2.826-4.959 6.568-4.959 11.128h2zm4.25-9.601c2.87-2.402 7.546-3.703 14.238-3.703v-2c-6.876 0-12.12 1.323-15.522 4.17l1.284 1.533zm14.238-3.703h16.032v-2h-16.032v2zm17.032-1v-3.072h-2v3.072h2zm0-3.072c0-4.538-1.273-8.14-3.971-10.623l-1.354 1.47c2.166 1.996 3.325 4.988 3.325 9.153h2zm-3.96-10.614c-2.681-2.54-6.518-3.73-11.344-3.73v2c4.518 0 7.785 1.113 9.968 3.182l1.376-1.452zm-11.344-3.73a27.38 27.38 0 00-9.563 1.694l.694 1.876a25.368 25.368 0 018.869-1.57v-2zm-9.545 1.688c-3.052 1.061-5.696 2.563-7.915 4.513l1.32 1.502c2.005-1.762 4.417-3.14 7.253-4.127l-.658-1.889zm-6.399 4.747l-3.072-5.088-1.712 1.034 3.072 5.088 1.712-1.034zm-3.28-3.81c2.448-2.08 5.4-3.684 8.874-4.801l-.612-1.904c-3.694 1.187-6.886 2.911-9.558 5.182l1.296 1.524zm8.889-4.806c3.476-1.18 7.143-1.771 11.007-1.771v-2c-4.072 0-7.957.624-11.649 1.877l.642 1.894zm8.607 44.213c3.993 0 7.481-.9 10.42-2.745l-1.064-1.694c-2.565 1.611-5.669 2.439-9.356 2.439v2zm10.434-2.754c2.939-1.914 5.112-4.644 6.525-8.144l-1.854-.748c-1.275 3.156-3.198 5.546-5.763 7.216l1.092 1.676zm6.598-8.518v-8.256h-2v8.256h2zm-1-9.256h-15.84v2h15.84v-2zm-15.84 0c-4.405 0-7.887.761-10.291 2.435-2.47 1.72-3.669 4.308-3.669 7.589h2c0-2.735.961-4.66 2.811-5.947 1.916-1.334 4.914-2.077 9.149-2.077v-2zM380.779 54.6c0 3.24 1.252 5.874 3.749 7.8l1.222-1.584c-1.983-1.53-2.971-3.567-2.971-6.216h-2zm3.764 7.81c2.474 1.839 5.849 2.694 10.004 2.694v-2c-3.909 0-6.806-.809-8.812-2.299l-1.192 1.606zm89.877-41.026l-.493.87.011.006.482-.876zm9.024 9.024l-.874.487.874-.487zm0 26.784l.873.487-.873-.487zm-9.024 9.12l.488.873.005-.003-.493-.87zm-24 .672l-.468.884.01.005.011.005.447-.894zm-8.064-7.488l.839-.543-1.839-2.843v3.386h1zm0 28.128v1h1v-1h-1zm-6.816 0h-1v1h1v-1zm0-69.12v-1h-1v1h1zm6.528 0h1v-1h-1v1zm0 9.984h-1v3.533l1.851-3.009-.851-.524zm8.064-7.68l-.467-.884-.007.003.474.881zm20.544 40.224l.485.874.008-.004.007-.004-.5-.866zm6.72-7.008l-.875-.484-.004.007-.004.007.883.47zm0-20.448l-.883.47.006.01.006.012.871-.492zm-6.72-7.008l.5-.866-.5.866zm-19.296 0l-.501-.866-.008.005.509.861zm-6.72 7.008l-.875-.484-.004.007.879.477zm0 20.448l-.883.47.004.007.004.007.875-.484zm6.72 7.008l-.509.86.011.008.012.006.486-.874zm10.176-41.912c4.576 0 8.692 1.05 12.371 3.134l.986-1.74c-4.002-2.267-8.461-3.394-13.357-3.394v2zm12.382 3.14c3.672 2.02 6.546 4.891 8.632 8.635l1.747-.974c-2.265-4.064-5.407-7.209-9.415-9.413l-.964 1.752zm8.632 8.635c2.084 3.738 3.138 8.015 3.138 12.857h2c0-5.142-1.122-9.761-3.391-13.83l-1.747.973zm3.138 12.857c0 4.908-1.055 9.217-3.138 12.953l1.747.974c2.27-4.072 3.391-8.723 3.391-13.927h-2zm-3.138 12.953c-2.088 3.746-4.965 6.653-8.643 8.737l.986 1.74c4.001-2.268 7.14-5.441 9.404-9.503l-1.747-.974zm-8.638 8.734c-3.611 2.02-7.728 3.041-12.376 3.041v2c4.952 0 9.411-1.09 13.352-3.295l-.976-1.746zm-12.376 3.041c-3.957 0-7.513-.803-10.689-2.39l-.894 1.788c3.48 1.74 7.347 2.602 11.583 2.602v-2zm-10.668-2.38c-3.105-1.644-5.668-4.019-7.693-7.147l-1.679 1.086c2.2 3.4 5.013 6.017 8.436 7.829l.936-1.768zm-9.532-6.604v28.128h2V59.496h-2zm1 27.128h-6.816v2h6.816v-2zm-5.816 1v-69.12h-2v69.12h2zm-1-68.12h6.528v-2h-6.528v2zm5.528-1v9.984h2v-9.984h-2zm1.851 10.508c1.959-3.183 4.519-5.618 7.687-7.323l-.948-1.762c-3.489 1.879-6.305 4.564-8.442 8.037l1.703 1.048zm7.68-7.32c3.234-1.708 6.879-2.572 10.957-2.572v-2c-4.37 0-8.341.928-11.891 2.804l.934 1.768zm10.477 42.74c3.678 0 7.047-.838 10.085-2.526l-.971-1.748c-2.721 1.512-5.752 2.274-9.114 2.274v2zm10.1-2.534c3.046-1.76 5.417-4.235 7.103-7.404l-1.766-.94c-1.514 2.847-3.624 5.044-6.338 6.612l1.001 1.732zm7.095-7.39c1.755-3.173 2.621-6.767 2.621-10.756h-2c0 3.69-.798 6.945-2.371 9.788l1.75.968zm2.621-10.756c0-3.989-.866-7.555-2.626-10.668l-1.741.984c1.568 2.775 2.367 5.993 2.367 9.684h2zm-2.613-10.646c-1.686-3.169-4.057-5.644-7.103-7.404l-1.001 1.732c2.714 1.568 4.824 3.765 6.338 6.612l1.766-.94zm-7.103-7.404c-3.041-1.757-6.415-2.63-10.1-2.63v2c3.355 0 6.381.79 9.099 2.362l1.001-1.732zm-10.1-2.63c-3.746 0-7.153.872-10.197 2.63l1.001 1.732c2.716-1.57 5.773-2.362 9.196-2.362v-2zm-10.205 2.635c-2.977 1.76-5.341 4.23-7.086 7.385l1.75.968c1.582-2.86 3.699-5.063 6.353-6.631l-1.017-1.722zm-7.09 7.392c-1.69 3.11-2.521 6.67-2.521 10.653h2c0-3.698.769-6.921 2.278-9.699l-1.757-.954zm-2.521 10.653c0 3.983.831 7.572 2.517 10.742l1.766-.94c-1.514-2.846-2.283-6.105-2.283-9.802h-2zm2.525 10.756c1.745 3.156 4.109 5.625 7.086 7.385l1.017-1.722c-2.654-1.569-4.771-3.77-6.353-6.631l-1.75.968zm7.109 7.398c3.042 1.69 6.443 2.526 10.182 2.526v-2c-3.43 0-6.492-.764-9.211-2.274l-.971 1.748zm84.103-37.354v1h1v-1h-1zm-19.104 0v-1h-1v1h1zm0 44.448v1h1v-1h-1zm-6.816 0h-1v1h1v-1zm0-44.448h1v-1h-1v1zm-19.104 0h-1v1h1v-1zm0-6.048v-1h-1v1h1zm45.024 0h1v-1h-1v1zm0 5.048h-19.104v2h19.104v-2zm-20.104 1V69h2V24.552h-2zm1 43.448h-6.816v2h6.816v-2zm-5.816 1V24.552h-2V69h2zm-1-45.448h-19.104v2h19.104v-2zm-18.104 1v-6.048h-2v6.048h2zm-1-5.048h45.024v-2h-45.024v2zm44.024-1v6.048h2v-6.048h-2zm10.855 0v-1h-1v1h1zm6.816 0h1v-1h-1v1zm0 22.368h-1v1h1v-1zm31.776 0v1h1v-1h-1zm0-22.368v-1h-1v1h1zm6.816 0h1v-1h-1v1zm0 50.496v1h1v-1h-1zm-6.816 0h-1v1h1v-1zm0-22.272h1v-1h-1v1zm-31.776 0v-1h-1v1h1zm0 22.272v1h1v-1h-1zm-6.816 0h-1v1h1v-1zm0-49.496h6.816v-2h-6.816v2zm5.816-1v22.368h2V18.504h-2zm1 23.368h31.776v-2h-31.776v2zm32.776-1V18.504h-2v22.368h2zm-1-21.368h6.816v-2h-6.816v2zm5.816-1V69h2V18.504h-2zm1 49.496h-6.816v2h6.816v-2zm-5.816 1V46.728h-2V69h2zm-1-23.272h-31.776v2h31.776v-2zm-32.776 1V69h2V46.728h-2zm1 21.272h-6.816v2h6.816v-2zm-5.816 1V18.504h-2V69h2zm107.942-23.136v1h.955l.043-.955-.998-.045zm-42.24 0v-1h-1.076l.078 1.073.998-.073zm6.048 12.768l-.667.745.007.007.66-.752zm22.463 3.168l.383.924.01-.004.009-.004-.402-.916zm6.817-4.992l.754-.656-.749-.862-.755.856.75.662zm3.839 4.416l.769.64.545-.654-.559-.642-.755.656zm-8.448 6.144l-.383-.924-.006.003.389.921zm-24.864-1.152l-.491.87.008.005.009.005.474-.88zM608.097 57l-.867.498.867-.498zm-.191-26.496l-.874-.487-.006.011.88.476zm8.831-9.12l-.499-.867-.006.004.505.863zm33.984 9.12l-.879.476.003.006.876-.482zm3.169 13.248l.998.045.002-.022v-.023h-1zM617.122 28.68l.685.728-.685-.728zm-5.568 12.096l-.997-.09-.097 1.09h1.094v-1zm35.808 0v1h1.093l-.098-1.09-.995.09zm-5.664-12.096l-.693.721.007.007.007.007.679-.735zm12.096 16.184h-42.24v2h42.24v-2zm-43.238 1.073c.402 5.485 2.522 9.99 6.379 13.44l1.333-1.49c-3.439-3.078-5.351-7.085-5.717-12.096l-1.995.146zm6.386 13.447c3.857 3.383 8.711 5.048 14.483 5.048v-2c-5.363 0-9.725-1.535-13.164-4.552l-1.319 1.504zm14.483 5.048c3.254 0 6.266-.565 9.023-1.708l-.766-1.848c-2.49 1.033-5.238 1.556-8.257 1.556v2zm9.042-1.716a20.387 20.387 0 007.164-5.246l-1.499-1.324a18.39 18.39 0 01-6.468 4.738l.803 1.832zm5.66-5.252l3.84 4.416 1.509-1.312-3.84-4.416-1.509 1.312zm3.826 3.12c-2.131 2.557-4.813 4.511-8.063 5.86l.767 1.848c3.534-1.467 6.484-3.61 8.833-6.428l-1.537-1.28zm-8.069 5.863c-3.191 1.35-6.737 2.033-10.65 2.033v2c4.15 0 7.964-.725 11.429-2.191l-.779-1.842zm-10.65 2.033c-5.041 0-9.482-1.057-13.35-3.144l-.949 1.76c4.196 2.265 8.971 3.384 14.299 3.384v-2zm-13.333-3.135c-3.813-2.153-6.787-5.097-8.936-8.843l-1.735.996c2.331 4.062 5.565 7.262 9.688 9.589l.983-1.742zm-8.936-8.843c-2.145-3.738-3.228-7.98-3.228-12.75h-2c0 5.086 1.158 9.676 3.493 13.746l1.735-.996zm-3.228-12.75c0-4.78 1.024-9.03 3.048-12.772l-1.759-.952c-2.2 4.066-3.289 8.648-3.289 13.724h2zm3.042-12.761c2.093-3.755 4.912-6.662 8.464-8.744l-1.011-1.726c-3.872 2.27-6.941 5.443-9.2 9.496l1.747.974zm8.458-8.74c3.613-2.083 7.663-3.131 12.172-3.131v-2c-4.834 0-9.232 1.128-13.171 3.398l.999 1.732zm12.172-3.131c4.51 0 8.525 1.048 12.071 3.127l1.011-1.726c-3.878-2.273-8.247-3.401-13.082-3.401v2zm12.071 3.127c3.549 2.08 6.334 4.984 8.362 8.733l1.759-.952c-2.196-4.06-5.235-7.235-9.11-9.507l-1.011 1.726zm8.365 8.739c2.02 3.673 3.045 7.919 3.045 12.766h2c0-5.137-1.088-9.723-3.292-13.73l-1.753.964zm3.046 12.72l-.096 2.113 1.997.09.096-2.112-1.997-.09zm-23.482-20.73c-5.101 0-9.447 1.654-12.973 4.976l1.371 1.456c3.13-2.95 6.976-4.432 11.602-4.432v-2zm-12.973 4.976c-3.464 3.26-5.411 7.53-5.879 12.735l1.992.178c.429-4.779 2.193-8.573 5.258-11.457l-1.371-1.456zm-4.882 13.824h35.808v-2h-35.808v2zm36.803-1.09c-.467-5.21-2.451-9.482-5.981-12.74l-1.357 1.469c3.126 2.885 4.918 6.677 5.346 11.45l1.992-.178zM642.39 27.96c-3.467-3.332-7.819-4.983-12.981-4.983v2c4.695 0 8.535 1.485 11.596 4.425l1.385-1.442zm65.467-6.575l-.493.87.011.006.482-.876zm9.024 9.024l-.873.487.873-.487zm0 26.784l.874.487-.874-.487zm-9.024 9.12l.488.873.005-.003-.493-.87zm-24 .672l-.468.884.011.005.01.005.447-.894zm-8.064-7.488l.84-.543-1.84-2.843v3.386h1zm0 28.128v1h1v-1h-1zm-6.816 0h-1v1h1v-1zm0-69.12v-1h-1v1h1zm6.528 0h1v-1h-1v1zm0 9.984h-1v3.533l1.852-3.009-.852-.524zm8.064-7.68l-.467-.884-.007.003.474.881zm20.544 40.224l.486.874.007-.004.008-.004-.501-.866zm6.72-7.008l-.875-.484-.004.007-.004.007.883.47zm0-20.448l-.883.47.006.01.007.012.87-.492zm-6.72-7.008l.501-.866-.501.866zm-19.296 0l-.5-.866-.008.005.508.861zm-6.72 7.008l-.875-.484-.003.007.878.477zm0 20.448l-.883.47.004.007.004.007.875-.484zm6.72 7.008l-.508.86.011.008.012.006.485-.874zm10.176-41.912c4.576 0 8.693 1.05 12.371 3.134l.986-1.74c-4.001-2.267-8.461-3.394-13.357-3.394v2zm12.382 3.14c3.672 2.02 6.546 4.891 8.633 8.635l1.747-.974c-2.266-4.064-5.408-7.209-9.416-9.413l-.964 1.752zm8.633 8.635c2.083 3.738 3.137 8.015 3.137 12.857h2c0-5.142-1.122-9.761-3.39-13.83l-1.747.973zm3.137 12.857c0 4.908-1.055 9.217-3.137 12.953l1.747.974c2.269-4.072 3.39-8.723 3.39-13.927h-2zm-3.137 12.953c-2.088 3.746-4.965 6.653-8.644 8.737l.986 1.74c4.002-2.268 7.141-5.441 9.405-9.503l-1.747-.974zm-8.639 8.734c-3.611 2.02-7.728 3.041-12.376 3.041v2c4.952 0 9.411-1.09 13.352-3.295l-.976-1.746zm-12.376 3.041c-3.956 0-7.513-.803-10.689-2.39l-.894 1.788c3.48 1.74 7.348 2.602 11.583 2.602v-2zm-10.668-2.38c-3.105-1.644-5.668-4.019-7.692-7.147l-1.679 1.086c2.199 3.4 5.012 6.017 8.435 7.829l.936-1.768zm-9.532-6.604v28.128h2V59.496h-2zm1 27.128h-6.816v2h6.816v-2zm-5.816 1v-69.12h-2v69.12h2zm-1-68.12h6.528v-2h-6.528v2zm5.528-1v9.984h2v-9.984h-2zm1.852 10.508c1.959-3.183 4.519-5.618 7.686-7.323l-.948-1.762c-3.488 1.879-6.304 4.564-8.441 8.037l1.703 1.048zm7.679-7.32c3.234-1.708 6.879-2.572 10.957-2.572v-2c-4.37 0-8.341.928-11.891 2.804l.934 1.768zm10.477 42.74c3.678 0 7.047-.838 10.086-2.526l-.971-1.748c-2.722 1.512-5.753 2.274-9.115 2.274v2zm10.101-2.534c3.046-1.76 5.416-4.235 7.102-7.404l-1.766-.94c-1.514 2.847-3.623 5.044-6.337 6.612l1.001 1.732zm7.094-7.39c1.756-3.173 2.621-6.767 2.621-10.756h-2c0 3.69-.798 6.945-2.371 9.788l1.75.968zm2.621-10.756c0-3.989-.865-7.555-2.625-10.668l-1.741.984c1.568 2.775 2.366 5.993 2.366 9.684h2zm-2.613-10.646c-1.686-3.169-4.056-5.644-7.102-7.404l-1.001 1.732c2.714 1.568 4.823 3.765 6.337 6.612l1.766-.94zm-7.102-7.404c-3.041-1.757-6.416-2.63-10.101-2.63v2c3.355 0 6.381.79 9.1 2.362l1.001-1.732zm-10.101-2.63c-3.745 0-7.152.872-10.196 2.63l1.001 1.732c2.716-1.57 5.773-2.362 9.195-2.362v-2zm-10.204 2.635c-2.978 1.76-5.341 4.23-7.087 7.385l1.75.968c1.583-2.86 3.699-5.063 6.354-6.631l-1.017-1.722zm-7.09 7.392c-1.691 3.11-2.522 6.67-2.522 10.653h2c0-3.698.769-6.921 2.279-9.699l-1.757-.954zm-2.522 10.653c0 3.983.831 7.572 2.517 10.742l1.766-.94c-1.514-2.846-2.283-6.105-2.283-9.802h-2zm2.525 10.756c1.746 3.156 4.109 5.625 7.087 7.385l1.017-1.722c-2.655-1.569-4.771-3.77-6.354-6.631l-1.75.968zm7.11 7.398c3.041 1.69 6.443 2.526 10.181 2.526v-2c-3.429 0-6.492-.764-9.21-2.274l-.971 1.748zm71.674-25.546l-.014 1h.004l.01-1zm14.496 4.224l-.637.77.637-.77zm-.384 24.288l-.627-.78.627.78zm-15.36 4.224l.009-1h-.004l-.005 1zM734.79 69h-1v.995l.995.005.005-1zm0-50.496v-1h-1v1h1zm6.816 0h1v-1h-1v1zm0 17.664h-1v.987l.986.013.014-1zm42.336-17.664v-1h-1v1h1zm6.816 0h1v-1h-1v1zm0 50.496v1h1v-1h-1zm-6.816 0h-1v1h1v-1zm-29.568-5.088l-.015 1h.001l.014-1zm10.56-2.784l.63.777.002-.002-.632-.775zm.096-16.896l.603-.797-.603.797zm-10.656-2.784l-.015 1h.001l.014-1zm-12.768-.192l.015-1-1.015-.015v1.015h1zm0 22.464h-1v.985l.985.015.015-1zm14.39-26.36c6.21.063 10.783 1.443 13.869 3.995l1.274-1.542c-3.571-2.952-8.662-4.388-15.123-4.453l-.02 2zm13.869 3.995c3.051 2.523 4.629 6.181 4.629 11.133h2c0-5.416-1.751-9.694-5.355-12.675l-1.274 1.542zm4.629 11.133c0 5.13-1.696 8.948-5.003 11.605l1.253 1.558c3.862-3.103 5.75-7.541 5.75-13.163h-2zm-5.003 11.605c-3.338 2.682-8.198 4.066-14.724 4.003l-.019 2c6.786.065 12.167-1.367 15.996-4.445l-1.253-1.558zm-14.728 4.003L734.795 68l-.01 2 19.968.096.01-2zM735.79 69V18.504h-2V69h2zm-1-49.496h6.816v-2h-6.816v2zm5.816-1v17.664h2V18.504h-2zm.986 18.664l14.4.192.027-2-14.4-.192-.027 2zm42.35-17.664h6.816v-2h-6.816v2zm5.816-1V69h2V18.504h-2zm1 49.496h-6.816v2h6.816v-2zm-5.816 1V18.504h-2V69h2zm-30.582-4.088c4.787.066 8.579-.88 11.204-3.007l-1.26-1.554c-2.111 1.712-5.36 2.623-9.917 2.561l-.027 2zm11.206-3.01c2.712-2.212 4.016-5.405 4.016-9.414h-2c0 3.543-1.129 6.11-3.28 7.865l1.264 1.55zm4.016-9.414c0-3.938-1.269-7.026-3.949-9.053l-1.207 1.594c2.057 1.557 3.156 3.973 3.156 7.459h2zm-3.949-9.053c-2.612-1.977-6.414-2.922-11.246-2.987l-.027 2c4.64.063 7.943.974 10.066 2.581l1.207-1.594zm-11.244-2.987l-12.768-.192-.03 2 12.768.192.03-2zm-13.783.808V63.72h2V41.256h-2zm.985 23.464l12.768.192.03-2-12.768-.192-.03 2z" fill="#F7F7F7"/></svg>