<svg width="718" height="83" fill="none" xmlns="http://www.w3.org/2000/svg"><path d="M57.488 1.8h1v-1h-1v1zm0 67.2v1h1v-1h-1zm-7.008 0h-1v1h1v-1zm0-31.008h1v-1h-1v1zm-42.048 0v-1h-1v1h1zm0 31.008v1h1v-1h-1zm-7.104 0h-1v1h1v-1zm0-67.2v-1h-1v1h1zm7.104 0h1v-1h-1v1zm0 29.952h-1v1h1v-1zm42.048 0v1h1v-1h-1zm0-29.952v-1h-1v1h1zm6.008 0V69h2V1.8h-2zm1 66.2H50.48v2h7.008v-2zm-6.008 1V37.992h-2V69h2zm-1-32.008H8.432v2H50.48v-2zm-43.048 1V69h2V37.992h-2zm1 30.008H1.328v2h7.104v-2zm-6.104 1V1.8h-2V69h2zm-1-66.2h7.104v-2H1.328v2zm6.104-1v29.952h2V1.8h-2zm1 30.952H50.48v-2H8.432v2zm43.048-1V1.8h-2v29.952h2zm-1-28.952h7.008v-2H50.48v2zm60.604 20.312l-.687.727.007.006.68-.733zM116.364 69v1h1v-1h-1zm-6.528 0h-1v1h1v-1zm0-7.872h1V57.44l-1.863 3.183.863.505zm-6.816 6.144l-.44-.898-.007.004.447.894zm-24-1.824l.628-.778-.628.778zm-.384-21.024l-.642-.767-.008.007.65.76zm30.912-3.936v1h1v-1h-1zm-3.648-12.96l-.688.726.01.01.678-.736zm-19.872-1.824l.328.944.01-.003.008-.003-.346-.938zm-7.584 4.32l-.856.517.618 1.023.898-.789-.66-.751zm-3.072-5.088l-.648-.762-.648.55.44.729.856-.517zm9.216-4.992l.306.952.007-.002.008-.003-.321-.947zm18.816 41.568l.532.847.007-.005.006-.004-.545-.838zm6.144-7.68l.927.374.073-.18v-.194h-1zm0-8.256h1v-1h-1v1zm-25.44 16.032l-.611.792.007.005.007.006.597-.803zM95.916 19.12c6.43 0 11.205 1.621 14.481 4.719l1.374-1.454c-3.764-3.559-9.101-5.265-15.855-5.265v2zm14.488 4.725c3.252 3.016 4.96 7.573 4.96 13.859h2c0-6.642-1.813-11.813-5.6-15.325l-1.36 1.466zm4.96 13.859V69h2V37.704h-2zm1 30.296h-6.528v2h6.528v-2zm-5.528 1v-7.872h-2V69h2zm-1.863-8.377c-1.427 2.437-3.543 4.356-6.393 5.75l.879 1.797c3.166-1.55 5.594-3.726 7.24-6.537l-1.726-1.01zm-6.4 5.755c-2.776 1.387-6.135 2.102-10.113 2.102v2c4.214 0 7.894-.757 11.007-2.314l-.894-1.788zM92.46 68.48c-5.476 0-9.711-1.306-12.812-3.81l-1.257 1.556c3.556 2.872 8.28 4.254 14.069 4.254v-2zm-12.812-3.81c-3.084-2.491-4.62-5.753-4.62-9.878h-2c0 4.707 1.792 8.55 5.363 11.434l1.257-1.556zm-4.62-9.878c0-4.016 1.423-7.187 4.257-9.608l-1.299-1.52c-3.31 2.826-4.958 6.568-4.958 11.128h2zm4.25-9.601c2.87-2.402 7.545-3.703 14.238-3.703v-2c-6.876 0-12.12 1.323-15.522 4.17l1.284 1.533zm14.238-3.703h16.032v-2H93.516v2zm17.032-1v-3.072h-2v3.072h2zm0-3.072c0-4.538-1.274-8.14-3.971-10.623l-1.355 1.47c2.167 1.996 3.326 4.988 3.326 9.153h2zm-3.961-10.614c-2.68-2.54-6.517-3.73-11.343-3.73v2c4.518 0 7.784 1.113 9.968 3.182l1.375-1.452zm-11.343-3.73a27.37 27.37 0 00-9.563 1.694l.693 1.876a25.373 25.373 0 018.87-1.57v-2zm-9.545 1.688c-3.052 1.061-5.696 2.563-7.915 4.513l1.32 1.502c2.005-1.762 4.417-3.14 7.252-4.127L85.7 24.76zm-6.4 4.747l-3.071-5.088-1.712 1.034 3.072 5.088 1.712-1.034zm-3.28-3.81c2.449-2.08 5.401-3.684 8.875-4.801l-.612-1.904c-3.694 1.187-6.886 2.911-9.558 5.182l1.295 1.524zm8.89-4.806c3.476-1.18 7.143-1.771 11.007-1.771v-2c-4.072 0-7.957.624-11.65 1.877l.643 1.894zm8.607 44.213c3.993 0 7.481-.9 10.42-2.745l-1.064-1.694c-2.566 1.611-5.67 2.439-9.356 2.439v2zm10.433-2.754c2.94-1.914 5.113-4.644 6.526-8.144l-1.854-.748c-1.275 3.156-3.199 5.546-5.763 7.216l1.091 1.676zm6.599-8.518v-8.256h-2v8.256h2zm-1-9.256h-15.84v2h15.84v-2zm-15.84 0c-4.406 0-7.887.761-10.292 2.435-2.47 1.72-3.668 4.308-3.668 7.589h2c0-2.735.961-4.66 2.811-5.947 1.916-1.334 4.914-2.077 9.149-2.077v-2zM79.748 54.6c0 3.24 1.252 5.874 3.749 7.8l1.222-1.584c-1.984-1.53-2.971-3.567-2.971-6.216h-2zm3.763 7.81c2.474 1.839 5.85 2.694 10.005 2.694v-2c-3.91 0-6.806-.809-8.812-2.299l-1.193 1.606zm120.693-43.906h1v-1h-1v1zm0 50.496v1h1v-1h-1zm-69.696 0h-1v1h1v-1zm0-50.496v-1h-1v1h1zm6.816 0h1v-1h-1v1zm0 44.544h-1v1h1v-1zm24.768 0v1h1v-1h-1zm0-44.544v-1h-1v1h1zm6.817 0h1v-1h-1v1zm0 44.544h-1v1h1v-1zm24.48 0v1h1v-1h-1zm0-44.544v-1h-1v1h1zm5.815 0V69h2V18.504h-2zm1 49.496h-69.696v2h69.696v-2zm-68.696 1V18.504h-2V69h2zm-1-49.496h6.816v-2h-6.816v2zm5.816-1v44.544h2V18.504h-2zm1 45.544h24.768v-2h-24.768v2zm25.768-1V18.504h-2v44.544h2zm-1-43.544h6.817v-2h-6.817v2zm5.817-1v44.544h2V18.504h-2zm1 45.544h24.48v-2h-24.48v2zm25.48-1V18.504h-2v44.544h2zm-1-43.544h6.815v-2h-6.815v2zm58.82 3.608l-.687.727.007.006.68-.733zM261.489 69v1h1v-1h-1zm-6.528 0h-1v1h1v-1zm0-7.872h1V57.44l-1.863 3.183.863.505zm-6.816 6.144l-.44-.898-.007.004.447.894zm-24-1.824l.628-.778-.628.778zm-.384-21.024l-.642-.767-.008.007.65.76zm30.912-3.936v1h1v-1h-1zm-3.648-12.96l-.688.726.01.01.678-.736zm-19.872-1.824l.328.944.009-.003.009-.003-.346-.938zm-7.584 4.32l-.856.517.618 1.023.898-.789-.66-.751zm-3.072-5.088l-.648-.762-.648.55.44.729.856-.517zm9.216-4.992l.306.952.007-.002.008-.003-.321-.947zm18.816 41.568l.532.847.007-.005.006-.004-.545-.838zm6.144-7.68l.927.374.073-.18v-.194h-1zm0-8.256h1v-1h-1v1zm-25.44 16.032l-.611.792.007.005.007.006.597-.803zm11.808-42.488c6.43 0 11.205 1.621 14.481 4.719l1.374-1.454c-3.764-3.559-9.101-5.265-15.855-5.265v2zm14.488 4.725c3.252 3.016 4.96 7.573 4.96 13.859h2c0-6.642-1.813-11.813-5.6-15.325l-1.36 1.466zm4.96 13.859V69h2V37.704h-2zm1 30.296h-6.528v2h6.528v-2zm-5.528 1v-7.872h-2V69h2zm-1.863-8.377c-1.427 2.437-3.543 4.356-6.393 5.75l.879 1.797c3.166-1.55 5.594-3.726 7.24-6.537l-1.726-1.01zm-6.4 5.755c-2.776 1.387-6.135 2.102-10.113 2.102v2c4.214 0 7.894-.757 11.007-2.314l-.894-1.788zm-10.113 2.102c-5.476 0-9.711-1.306-12.812-3.81l-1.257 1.556c3.556 2.872 8.281 4.254 14.069 4.254v-2zm-12.812-3.81c-3.084-2.491-4.62-5.753-4.62-9.878h-2c0 4.707 1.792 8.55 5.363 11.434l1.257-1.556zm-4.62-9.878c0-4.016 1.423-7.187 4.257-9.608l-1.299-1.52c-3.309 2.826-4.958 6.568-4.958 11.128h2zm4.249-9.601c2.871-2.402 7.546-3.703 14.239-3.703v-2c-6.876 0-12.121 1.323-15.522 4.17l1.283 1.533zm14.239-3.703h16.032v-2h-16.032v2zm17.032-1v-3.072h-2v3.072h2zm0-3.072c0-4.538-1.274-8.14-3.971-10.623l-1.355 1.47c2.167 1.996 3.326 4.988 3.326 9.153h2zm-3.961-10.614c-2.68-2.54-6.517-3.73-11.343-3.73v2c4.518 0 7.784 1.113 9.968 3.182l1.375-1.452zm-11.343-3.73a27.37 27.37 0 00-9.563 1.694l.693 1.876a25.378 25.378 0 018.87-1.57v-2zm-9.545 1.688c-3.052 1.061-5.696 2.563-7.915 4.513l1.32 1.502c2.005-1.762 4.417-3.14 7.252-4.127l-.657-1.889zm-6.399 4.747l-3.072-5.088-1.712 1.034 3.072 5.088 1.712-1.034zm-3.281-3.81c2.449-2.08 5.401-3.684 8.875-4.801l-.612-1.904c-3.694 1.187-6.886 2.911-9.558 5.182l1.295 1.524zm8.89-4.806c3.476-1.18 7.143-1.771 11.007-1.771v-2c-4.072 0-7.957.624-11.65 1.877l.643 1.894zm8.607 44.213c3.993 0 7.481-.9 10.42-2.745l-1.064-1.694c-2.566 1.611-5.67 2.439-9.356 2.439v2zm10.433-2.754c2.94-1.914 5.113-4.644 6.526-8.144l-1.854-.748c-1.275 3.156-3.199 5.546-5.763 7.216l1.091 1.676zm6.599-8.518v-8.256h-2v8.256h2zm-1-9.256h-15.84v2h15.84v-2zm-15.84 0c-4.406 0-7.887.761-10.292 2.435-2.47 1.72-3.668 4.308-3.668 7.589h2c0-2.735.961-4.66 2.811-5.947 1.916-1.334 4.914-2.077 9.149-2.077v-2zM224.873 54.6c0 3.24 1.252 5.874 3.749 7.8l1.222-1.584c-1.984-1.53-2.971-3.567-2.971-6.216h-2zm3.763 7.81c2.474 1.839 5.85 2.694 10.005 2.694v-2c-3.91 0-6.806-.809-8.812-2.299l-1.193 1.606zm94.459-15.874l.769-.638-.3-.362h-.469v1zm-11.521 0v-1h-1v1h1zm0 22.464v1h1v-1h-1zm-6.815 0h-1v1h1v-1zm0-50.496v-1h-1v1h1zm6.815 0h1v-1h-1v1zm0 22.176h-1v1h1v-1zm11.616 0v1h.481l.3-.375-.781-.625zm17.761-22.176v-1h-.481l-.3.375.781.625zm7.391 0l.777.63 1.323-1.63h-2.1v1zm-19.872 24.48l-.776-.63-.514.633.517.63.773-.633zM349.783 69v1h2.111l-1.338-1.634-.773.634zm-8.064 0l-.77.638.3.362h.47v-1zm-18.624-23.464h-11.521v2h11.521v-2zm-12.521 1V69h2V46.536h-2zm1 21.464h-6.815v2h6.815v-2zm-5.815 1V18.504h-2V69h2zm-1-49.496h6.815v-2h-6.815v2zm5.815-1V40.68h2V18.504h-2zm1 23.176h11.616v-2h-11.616v2zm12.397-.375l17.76-22.176-1.561-1.25-17.76 22.176 1.561 1.25zm16.98-21.801h7.391v-2h-7.391v2zm6.615-1.63l-19.872 24.48 1.553 1.26 19.872-24.48-1.553-1.26zm-19.869 25.744l21.312 26.016 1.547-1.268-21.312-26.016-1.547 1.268zM349.783 68h-8.064v2h8.064v-2zm-7.295.362l-18.624-22.464-1.539 1.276 18.624 22.464 1.539-1.276zm23.951-2.146l-.498.867.011.007.487-.874zM357.223 57l-.868.498.868-.498zm0-26.496l-.868-.498.868.498zm35.519-9.12l-.486.873.486-.873zm9.12 9.12l-.873.487.006.01.867-.497zm0 26.496l-.867-.498-.006.011.873.487zm-9.12 9.216l.487.874.011-.007-.498-.867zm-3.552-5.184l.495.87.006-.004-.501-.866zm6.72-7.008l.883.47-.883-.47zm0-20.544l.883-.47-.883.47zm-6.72-6.912l-.508.86.011.008.012.006.485-.874zm-19.295 0l.494.87.006-.004-.5-.866zm-6.721 6.912l-.875-.484-.003.007-.004.007.882.47zm0 20.544l-.882.47.004.007.003.007.875-.484zm6.721 7.008l-.509.86.011.008.012.006.486-.874zm9.696 7.448c-4.71 0-8.923-1.052-12.666-3.138l-.973 1.748c4.065 2.266 8.62 3.39 13.639 3.39v-2zm-12.655-3.131c-3.75-2.152-6.694-5.097-8.846-8.847l-1.735.996c2.328 4.058 5.528 7.257 9.586 9.585l.995-1.734zm-8.846-8.847c-2.145-3.738-3.228-7.98-3.228-12.75h-2c0 5.086 1.158 9.676 3.493 13.746l1.735-.996zm-3.228-12.75c0-4.77 1.083-9.012 3.228-12.75l-1.735-.996c-2.335 4.07-3.493 8.66-3.493 13.746h2zm3.228-12.75c2.15-3.748 5.091-6.658 8.835-8.744l-.973-1.747c-4.064 2.265-7.267 5.435-9.597 9.495l1.735.996zm8.835-8.744c3.743-2.086 7.956-3.138 12.666-3.138v-2c-5.019 0-9.574 1.124-13.639 3.39l.973 1.747zm12.666-3.138c4.709 0 8.922 1.052 12.665 3.137l.973-1.747c-4.065-2.266-8.62-3.39-13.638-3.39v2zm12.665 3.137c3.741 2.086 6.647 4.992 8.733 8.734l1.747-.974c-2.266-4.066-5.44-7.24-9.507-9.506l-.973 1.747zm8.739 8.745c2.145 3.738 3.228 7.98 3.228 12.75h2c0-5.086-1.158-9.676-3.493-13.746l-1.735.996zm3.228 12.75c0 4.77-1.083 9.012-3.228 12.75l1.735.996c2.335-4.07 3.493-8.66 3.493-13.746h-2zm-3.234 12.761c-2.087 3.744-4.996 6.685-8.744 8.836l.995 1.734c4.061-2.33 7.231-5.532 9.496-9.596l-1.747-.974zm-8.733 8.83c-3.743 2.085-7.956 3.137-12.665 3.137v2c5.018 0 9.573-1.124 13.638-3.39l-.973-1.748zm-12.665-.911c3.738 0 7.111-.836 10.094-2.53l-.988-1.74c-2.65 1.506-5.677 2.27-9.106 2.27v2zm10.1-2.534c3.046-1.76 5.417-4.235 7.102-7.404l-1.765-.94c-1.515 2.847-3.624 5.044-6.338 6.612l1.001 1.732zm7.102-7.404c1.687-3.17 2.517-6.76 2.517-10.742h-2c0 3.697-.769 6.956-2.282 9.802l1.765.94zm2.517-10.742c0-3.983-.83-7.572-2.517-10.742l-1.765.94c1.513 2.845 2.282 6.105 2.282 9.802h2zm-2.517-10.742c-1.687-3.172-4.062-5.62-7.117-7.316l-.971 1.748c2.705 1.503 4.81 3.664 6.323 6.508l1.765-.94zm-7.094-7.303c-2.984-1.764-6.363-2.635-10.108-2.635v2c3.422 0 6.443.793 9.091 2.357l1.017-1.722zm-10.108-2.635c-3.746 0-7.153.872-10.197 2.63l1.001 1.732c2.716-1.57 5.773-2.362 9.196-2.362v-2zM369.4 25.699c-2.986 1.696-5.353 4.138-7.101 7.297l1.751.968c1.58-2.857 3.693-5.023 6.339-6.526l-.989-1.74zm-7.108 7.311c-1.687 3.17-2.517 6.76-2.517 10.742h2c0-3.697.769-6.957 2.282-9.802l-1.765-.94zm-2.517 10.742c0 3.983.83 7.572 2.517 10.742l1.765-.94c-1.513-2.846-2.282-6.105-2.282-9.802h-2zm2.524 10.756c1.746 3.156 4.109 5.625 7.087 7.385l1.017-1.722c-2.654-1.569-4.771-3.77-6.353-6.631l-1.751.968zm7.11 7.398c3.041 1.69 6.443 2.526 10.182 2.526v-2c-3.43 0-6.492-.764-9.211-2.274l-.971 1.748zm106.829-43.402h1v-1h-1v1zm0 50.496v1h1v-1h-1zm-6.24 0h-1v1h1v-1zm0-39.936h1V25.48l-1.856 3.066.856.518zM449.55 62.856v1h.563l.292-.482-.855-.518zm-3.072 0l-.856.517.291.483h.565v-1zM426.03 28.968l.856-.517-1.856-3.076v3.593h1zm0 40.032v1h1v-1h-1zm-6.24 0h-1v1h1v-1zm0-50.496v-1h-1v1h1zm6.912 0l.862-.507-.29-.493h-.572v1zm21.408 36.384l-.862.507.854 1.452.866-1.445-.858-.514zm21.792-36.384v-1h-.567l-.291.486.858.514zm5.336 0V69h2V18.504h-2zm1 49.496h-6.24v2h6.24v-2zm-5.24 1V29.064h-2V69h2zm-1.856-40.454l-20.448 33.792 1.711 1.036 20.448-33.792-1.711-1.036zm-19.592 33.31h-3.072v2h3.072v-2zm-2.216.483l-20.448-33.888-1.712 1.034 20.448 33.888 1.712-1.034zM425.03 28.968V69h2V28.968h-2zm1 39.032h-6.24v2h6.24v-2zm-5.24 1V18.504h-2V69h2zm-1-49.496h6.912v-2h-6.912v2zm6.05-.493l21.408 36.384 1.724-1.014-21.408-36.384-1.724 1.014zm23.128 36.39l21.792-36.383-1.716-1.028-21.792 36.384 1.716 1.028zm20.934-35.897h6.336v-2h-6.336v2zm58.275 3.608l-.687.727.008.006.679-.733zM533.458 69v1h1v-1h-1zm-6.528 0h-1v1h1v-1zm0-7.872h1V57.44l-1.864 3.183.864.505zm-6.816 6.144l-.44-.898-.008.004.448.894zm-24.001-1.824l.629-.778-.629.778zm-.384-21.024l-.641-.767-.008.007.649.76zm30.912-3.936v1h1v-1h-1zm-3.647-12.96l-.688.726.01.01.678-.736zm-19.872-1.824l.328.944.009-.003.009-.003-.346-.938zm-7.584 4.32l-.857.517.618 1.023.899-.789-.66-.751zm-3.072-5.088l-.648-.762-.648.55.439.729.857-.517zm9.215-4.992l.307.952.007-.002.008-.003-.322-.947zm18.816 41.568l.532.847.007-.005.007-.004-.546-.838zm6.144-7.68l.928.374.072-.18v-.194h-1zm0-8.256h1v-1h-1v1zm-25.439 16.032l-.611.792.007.005.007.006.597-.803zM513.01 19.12c6.43 0 11.205 1.621 14.48 4.719l1.375-1.454c-3.765-3.559-9.102-5.265-15.855-5.265v2zm14.488 4.725c3.252 3.016 4.96 7.573 4.96 13.859h2c0-6.642-1.813-11.813-5.601-15.325l-1.359 1.466zm4.96 13.859V69h2V37.704h-2zm1 30.296h-6.528v2h6.528v-2zm-5.528 1v-7.872h-2V69h2zm-1.864-8.377c-1.426 2.437-3.542 4.356-6.392 5.75l.879 1.797c3.166-1.55 5.594-3.726 7.24-6.537l-1.727-1.01zm-6.4 5.755c-2.775 1.387-6.135 2.102-10.112 2.102v2c4.214 0 7.894-.757 11.007-2.314l-.895-1.788zm-10.112 2.102c-5.477 0-9.712-1.306-12.812-3.81l-1.257 1.556c3.555 2.872 8.281 4.254 14.069 4.254v-2zm-12.812-3.81c-3.084-2.491-4.621-5.753-4.621-9.878h-2c0 4.707 1.792 8.55 5.364 11.434l1.257-1.556zm-4.621-9.878c0-4.016 1.423-7.187 4.258-9.608l-1.299-1.52c-3.309 2.826-4.959 6.568-4.959 11.128h2zm4.25-9.601c2.871-2.402 7.546-3.703 14.238-3.703v-2c-6.875 0-12.12 1.323-15.521 4.17l1.283 1.533zm14.238-3.703h16.032v-2h-16.032v2zm17.032-1v-3.072h-2v3.072h2zm0-3.072c0-4.538-1.273-8.14-3.97-10.623l-1.355 1.47c2.167 1.996 3.325 4.988 3.325 9.153h2zm-3.96-10.614c-2.68-2.54-6.517-3.73-11.343-3.73v2c4.517 0 7.784 1.113 9.968 3.182l1.375-1.452zm-11.343-3.73a27.37 27.37 0 00-9.563 1.694l.693 1.876a25.374 25.374 0 018.87-1.57v-2zm-9.545 1.688c-3.053 1.061-5.697 2.563-7.916 4.513l1.321 1.502c2.005-1.762 4.417-3.14 7.252-4.127l-.657-1.889zm-6.399 4.747l-3.072-5.088-1.713 1.034 3.072 5.088 1.713-1.034zm-3.281-3.81c2.448-2.08 5.401-3.684 8.875-4.801l-.613-1.904c-3.694 1.187-6.885 2.911-9.557 5.182l1.295 1.524zm8.89-4.806c3.475-1.18 7.142-1.771 11.007-1.771v-2c-4.072 0-7.957.624-11.65 1.877l.643 1.894zm8.606 44.213c3.994 0 7.482-.9 10.42-2.745l-1.063-1.694c-2.566 1.611-5.67 2.439-9.357 2.439v2zm10.434-2.754c2.94-1.914 5.113-4.644 6.526-8.144l-1.855-.748c-1.274 3.156-3.198 5.546-5.762 7.216l1.091 1.676zm6.598-8.518v-8.256h-2v8.256h2zm-1-9.256h-15.839v2h15.839v-2zm-15.839 0c-4.406 0-7.888.761-10.292 2.435-2.47 1.72-3.669 4.308-3.669 7.589h2c0-2.735.962-4.66 2.812-5.947 1.916-1.334 4.914-2.077 9.149-2.077v-2zM496.841 54.6c0 3.24 1.253 5.874 3.75 7.8l1.221-1.584c-1.983-1.53-2.971-3.567-2.971-6.216h-2zm3.764 7.81c2.474 1.839 5.85 2.694 10.004 2.694v-2c-3.909 0-6.805-.809-8.811-2.299l-1.193 1.606zm50.997-43.906v-1h-1v1h1zm6.816 0h1v-1h-1v1zm0 22.368h-1v1h1v-1zm31.776 0v1h1v-1h-1zm0-22.368v-1h-1v1h1zm6.816 0h1v-1h-1v1zm0 50.496v1h1v-1h-1zm-6.816 0h-1v1h1v-1zm0-22.272h1v-1h-1v1zm-31.776 0v-1h-1v1h1zm0 22.272v1h1v-1h-1zm-6.816 0h-1v1h1v-1zm0-49.496h6.816v-2h-6.816v2zm5.816-1v22.368h2V18.504h-2zm1 23.368h31.776v-2h-31.776v2zm32.776-1V18.504h-2v22.368h2zm-1-21.368h6.816v-2h-6.816v2zm5.816-1V69h2V18.504h-2zm1 49.496h-6.816v2h6.816v-2zm-5.816 1V46.728h-2V69h2zm-1-23.272h-31.776v2h31.776v-2zm-32.776 1V69h2V46.728h-2zm1 21.272h-6.816v2h6.816v-2zm-5.816 1V18.504h-2V69h2zm113.03-5.952h1v-1h-1v1zm0 18.144v1h1v-1h-1zm-6.432 0h-1v1h1v-1zm0-12.192h1v-1h-1v1zm-45.216 0v-1h-1v1h1zm0 12.192v1h1v-1h-1zm-6.432 0h-1v1h1v-1zm0-18.144v-1h-1v1h1zm2.88 0v1h.028l.028-.002-.056-.998zm6.912-7.488l.969.246-.969-.246zm2.495-20.16l.999.052.001-.012-1-.04zm.672-16.896v-1h-.961l-.038.96.999.04zm37.249 0h1v-1h-1v1zm0 44.544h-1v1h1v-1zm-31.68-27.264l-.999-.051v.006l.999.045zm-1.825 17.76l.982.19.001-.002-.983-.188zm-4.799 9.504l-.6-.8-2.4 1.8h3v-1zm31.487 0v1h1v-1h-1zm0-38.496h1v-1h-1v1zm-24.287 0v-1h-.951l-.048.949.999.051zm37.976 38.496v18.144h2V63.048h-2zm1 17.144H659.2v2h6.432v-2zm-5.432 1V69h-2v12.192h2zM659.2 68h-45.216v2H659.2v-2zm-46.216 1v12.192h2V69h-2zm1 11.192h-6.432v2h6.432v-2zm-5.432 1V63.048h-2v18.144h2zm-1-17.144h2.88v-2h-2.88v2zm2.936-.002c1.955-.11 3.622-.897 4.95-2.336 1.305-1.413 2.243-3.412 2.875-5.904l-1.939-.492c-.584 2.308-1.406 3.958-2.405 5.04-.976 1.057-2.157 1.614-3.594 1.696l.113 1.996zm7.825-8.24c1.24-4.894 2.076-11.69 2.525-20.354l-1.997-.104c-.447 8.616-1.275 15.26-2.467 19.966l1.939.492zm2.526-20.366l.672-16.896-1.999-.08-.672 16.896 1.999.08zm-.328-15.936h37.249v-2h-37.249v2zm36.249-1v44.544h2V18.504h-2zm1 45.544h7.872v-2h-7.872v2zm-32.679-28.309c-.319 7.142-.924 13.01-1.808 17.617l1.965.376c.908-4.736 1.519-10.709 1.84-17.903l-1.997-.09zm-1.807 17.614c-.877 4.509-2.405 7.385-4.418 8.895l1.199 1.6c2.595-1.946 4.267-5.406 5.182-10.113l-1.963-.382zm-3.818 10.695h31.487v-2h-31.487v2zm32.487-1V24.552h-2v38.496h2zm-1-39.496h-24.287v2h24.287v-2zm-25.286.949l-.576 11.232 1.997.102.576-11.232-1.997-.102zm85.802-1.389l-.687.727.007.006.68-.733zM716.739 69v1h1v-1h-1zm-6.528 0h-1v1h1v-1zm0-7.872h1V57.44l-1.863 3.183.863.505zm-6.816 6.144l-.44-.898-.007.004.447.894zm-24-1.824l.628-.778-.628.778zm-.384-21.024l-.642-.767-.008.007.65.76zm30.912-3.936v1h1v-1h-1zm-3.648-12.96l-.688.726.01.01.678-.736zm-19.872-1.824l.328.944.009-.003.009-.003-.346-.938zm-7.584 4.32l-.856.517.618 1.023.898-.789-.66-.751zm-3.072-5.088l-.648-.762-.648.55.44.729.856-.517zm9.216-4.992l.306.952.007-.002.008-.003-.321-.947zm18.816 41.568l.532.847.007-.005.006-.004-.545-.838zm6.144-7.68l.927.374.073-.18v-.194h-1zm0-8.256h1v-1h-1v1zm-25.44 16.032l-.611.792.007.005.007.006.597-.803zm11.808-42.488c6.43 0 11.205 1.621 14.481 4.719l1.374-1.454c-3.764-3.559-9.102-5.265-15.855-5.265v2zm14.488 4.725c3.252 3.016 4.96 7.573 4.96 13.859h2c0-6.642-1.813-11.813-5.6-15.325l-1.36 1.466zm4.96 13.859V69h2V37.704h-2zm1 30.296h-6.528v2h6.528v-2zm-5.528 1v-7.872h-2V69h2zm-1.863-8.377c-1.427 2.437-3.543 4.356-6.393 5.75l.879 1.797c3.166-1.55 5.594-3.726 7.24-6.537l-1.726-1.01zm-6.4 5.755c-2.776 1.387-6.135 2.102-10.113 2.102v2c4.214 0 7.894-.757 11.007-2.314l-.894-1.788zm-10.113 2.102c-5.476 0-9.711-1.306-12.812-3.81l-1.257 1.556c3.556 2.872 8.281 4.254 14.069 4.254v-2zm-12.812-3.81c-3.084-2.491-4.62-5.753-4.62-9.878h-2c0 4.707 1.792 8.55 5.363 11.434l1.257-1.556zm-4.62-9.878c0-4.016 1.423-7.187 4.257-9.608l-1.299-1.52c-3.309 2.826-4.958 6.568-4.958 11.128h2zm4.249-9.601c2.871-2.402 7.546-3.703 14.239-3.703v-2c-6.876 0-12.121 1.323-15.522 4.17l1.283 1.533zm14.239-3.703h16.032v-2h-16.032v2zm17.032-1v-3.072h-2v3.072h2zm0-3.072c0-4.538-1.274-8.14-3.971-10.623l-1.355 1.47c2.167 1.996 3.326 4.988 3.326 9.153h2zm-3.96-10.614c-2.681-2.54-6.518-3.73-11.344-3.73v2c4.518 0 7.784 1.113 9.968 3.182l1.376-1.452zm-11.344-3.73a27.37 27.37 0 00-9.563 1.694l.693 1.876a25.378 25.378 0 018.87-1.57v-2zm-9.545 1.688c-3.053 1.061-5.696 2.563-7.915 4.513l1.32 1.502c2.005-1.762 4.417-3.14 7.252-4.127l-.657-1.889zm-6.399 4.747l-3.072-5.088-1.712 1.034 3.072 5.088 1.712-1.034zm-3.281-3.81c2.449-2.08 5.401-3.684 8.875-4.801l-.612-1.904c-3.694 1.187-6.886 2.911-9.558 5.182l1.295 1.524zm8.89-4.806c3.476-1.18 7.143-1.771 11.007-1.771v-2c-4.072 0-7.957.624-11.65 1.877l.643 1.894zm8.607 44.213c3.993 0 7.481-.9 10.42-2.745l-1.064-1.694c-2.566 1.611-5.67 2.439-9.356 2.439v2zm10.433-2.754c2.94-1.914 5.113-4.644 6.526-8.144l-1.855-.748c-1.274 3.156-3.198 5.546-5.762 7.216l1.091 1.676zm6.599-8.518v-8.256h-2v8.256h2zm-1-9.256h-15.84v2h15.84v-2zm-15.84 0c-4.406 0-7.887.761-10.292 2.435-2.47 1.72-3.668 4.308-3.668 7.589h2c0-2.735.961-4.66 2.811-5.947 1.916-1.334 4.914-2.077 9.149-2.077v-2zM680.123 54.6c0 3.24 1.252 5.874 3.749 7.8l1.222-1.584c-1.984-1.53-2.971-3.567-2.971-6.216h-2zm3.763 7.81c2.474 1.839 5.85 2.694 10.005 2.694v-2c-3.909 0-6.806-.809-8.812-2.299l-1.193 1.606z" fill="#F7F7F7"/></svg>